<svg xmlns="http://www.w3.org/2000/svg" xmlns:xlink="http://www.w3.org/1999/xlink" width="600" height="371" fill="none" stroke="none" stroke-linecap="square" stroke-miterlimit="10" version="1.1" viewBox="0 0 600 371"><path fill="#fff" fill-rule="nonzero" d="M0 0L600.0 0L600.0 371.0L0 371.0L0 0Z"/><path fill="#4285f4" fill-rule="nonzero" d="M300.0 18.55C389.8727 18.55 463.61783 89.69492 466.8425 179.50977C470.06717 269.3246 401.61407 345.57495 311.97278 352.02014L300.0 185.5Z"/><path fill="#34a853" fill-rule="nonzero" d="M228.63269 34.57283C250.94498 24.02226 275.31897 18.55 300.0 18.55L300.0 185.5Z"/><path fill="#fbbc04" fill-rule="nonzero" d="M215.59541 41.457756C219.83766 38.971916 224.18767 36.6747 228.63269 34.57283L300.0 185.5Z"/><path fill="#ea4335" fill-rule="nonzero" d="M311.97278 352.02014C234.57693 357.58487 163.54985 309.091 140.55145 234.98193C117.553055 160.87286 148.64694 80.68762 215.59541 41.457756L300.0 185.5Z"/><path fill="#000" fill-rule="nonzero" d="M430.66336 184.44339L430.66336 185.63089L424.03836 185.63089Q424.02274 185.19339 424.179 184.77151Q424.4446 184.09964 424.9915 183.44339Q425.554 182.78714 426.60086 181.92776Q428.2415 180.58401 428.804 179.80276Q429.3821 179.02151 429.3821 178.31839Q429.3821 177.58401 428.85086 177.08401Q428.33524 176.58401 427.5071 176.58401Q426.6165 176.58401 426.0696 177.11526Q425.53836 177.64651 425.53836 178.59964L424.27274 178.45901Q424.39774 177.05276 425.2415 176.31839Q426.10086 175.56839 427.52274 175.56839Q428.97586 175.56839 429.804 176.36526Q430.64774 177.16214 430.64774 178.34964Q430.64774 178.95901 430.39774 179.53714Q430.16336 180.11526 429.58524 180.75589Q429.02274 181.39651 427.6946 182.52151Q426.58524 183.44339 426.27274 183.78714Q425.96024 184.11526 425.7571 184.44339L430.66336 184.44339ZM432.27274 176.92776L432.27274 175.74026L438.77274 175.74026L438.77274 176.69339Q437.804 177.70901 436.8665 179.39651Q435.929 181.08401 435.41336 182.88089Q435.054 184.13089 434.9446 185.63089L433.679 185.63089Q433.6946 184.44339 434.1321 182.77151Q434.58524 181.09964 435.41336 179.55276Q436.2571 177.99026 437.1946 176.92776L432.27274 176.92776ZM442.08524 180.19339Q441.3196 179.91214 440.9446 179.39651Q440.58524 178.88089 440.58524 178.14651Q440.58524 177.05276 441.3665 176.31839Q442.16336 175.56839 443.46024 175.56839Q444.77274 175.56839 445.5696 176.33401Q446.3821 177.09964 446.3821 178.19339Q446.3821 178.88089 446.0071 179.39651Q445.64774 179.91214 444.89774 180.19339Q445.8196 180.49026 446.304 181.16214Q446.78836 181.83401 446.78836 182.77151Q446.78836 184.05276 445.8821 184.92776Q444.97586 185.80276 443.4915 185.80276Q442.0071 185.80276 441.08524 184.92776Q440.179 184.03714 440.179 182.72464Q440.179 181.75589 440.679 181.09964Q441.179 180.42776 442.08524 180.19339ZM441.85086 178.11526Q441.85086 178.81839 442.304 179.27151Q442.7571 179.72464 443.4915 179.72464Q444.21024 179.72464 444.66336 179.28714Q445.1165 178.83401 445.1165 178.17776Q445.1165 177.50589 444.64774 177.05276Q444.179 176.58401 443.47586 176.58401Q442.77274 176.58401 442.304 177.03714Q441.85086 177.47464 441.85086 178.11526ZM441.4446 182.74026Q441.4446 183.27151 441.6946 183.77151Q441.9446 184.25589 442.429 184.52151Q442.929 184.78714 443.5071 184.78714Q444.3821 184.78714 444.9446 184.22464Q445.52274 183.66214 445.52274 182.78714Q445.52274 181.89651 444.929 181.31839Q444.35086 180.72464 443.46024 180.72464Q442.58524 180.72464 442.0071 181.30276Q441.4446 181.88089 441.4446 182.74026Z"/><path fill="#000" fill-rule="nonzero" d="M169.41486 228.3001L169.41486 229.4876L162.78986 229.4876Q162.77423 229.0501 162.93048 228.62822Q163.1961 227.95634 163.74298 227.3001Q164.30548 226.64384 165.35236 225.78447Q166.99298 224.44072 167.55548 223.65947Q168.1336 222.87822 168.1336 222.1751Q168.1336 221.44072 167.60236 220.94072Q167.08673 220.44072 166.2586 220.44072Q165.36798 220.44072 164.8211 220.97197Q164.28986 221.50322 164.28986 222.45634L163.02423 222.31572Q163.14923 220.90947 163.99298 220.1751Q164.85236 219.4251 166.27423 219.4251Q167.72736 219.4251 168.55548 220.22197Q169.39923 221.01884 169.39923 222.20634Q169.39923 222.81572 169.14923 223.39384Q168.91486 223.97197 168.33673 224.6126Q167.77423 225.25322 166.4461 226.37822Q165.33673 227.3001 165.02423 227.64384Q164.71173 227.97197 164.5086 228.3001L169.41486 228.3001ZM174.89923 229.4876L174.89923 227.08134L170.53986 227.08134L170.53986 225.95634L175.11798 219.47197L176.11798 219.47197L176.11798 225.95634L177.47736 225.95634L177.47736 227.08134L176.11798 227.08134L176.11798 229.4876L174.89923 229.4876ZM174.89923 225.95634L174.89923 221.44072L171.7586 225.95634L174.89923 225.95634ZM178.96173 226.84697L180.18048 226.6751Q180.39923 227.72197 180.89923 228.19072Q181.41486 228.64384 182.14923 228.64384Q183.02423 228.64384 183.61798 228.0501Q184.21173 227.44072 184.21173 226.5501Q184.21173 225.70634 183.64923 225.15947Q183.10236 224.6126 182.2586 224.6126Q181.89923 224.6126 181.3836 224.7376L181.52423 223.65947Q181.64923 223.6751 181.71173 223.6751Q182.5086 223.6751 183.1336 223.26884Q183.7586 222.8626 183.7586 222.00322Q183.7586 221.33134 183.30548 220.89384Q182.85236 220.44072 182.11798 220.44072Q181.39923 220.44072 180.91486 220.89384Q180.4461 221.33134 180.30548 222.2376L179.08673 222.01884Q179.30548 220.78447 180.10236 220.1126Q180.89923 219.4251 182.08673 219.4251Q182.91486 219.4251 183.60236 219.78447Q184.28986 220.12822 184.64923 220.7376Q185.02423 221.34697 185.02423 222.03447Q185.02423 222.6751 184.68048 223.20634Q184.33673 223.7376 183.64923 224.06572Q184.53986 224.26884 185.02423 224.90947Q185.52423 225.5501 185.52423 226.53447Q185.52423 227.84697 184.55548 228.75322Q183.60236 229.65947 182.14923 229.65947Q180.8211 229.65947 179.9461 228.87822Q179.08673 228.09697 178.96173 226.84697Z"/><path fill="#000" fill-rule="nonzero" d="M266.65244 57.416676L266.65244 55.010426L262.29306 55.010426L262.29306 53.885426L266.8712 47.40105L267.8712 47.40105L267.8712 53.885426L269.23056 53.885426L269.23056 55.010426L267.8712 55.010426L267.8712 57.416676L266.65244 57.416676ZM266.65244 53.885426L266.65244 49.3698L263.5118 53.885426L266.65244 53.885426ZM270.6993 52.479176Q270.6993 50.697926 271.0587 49.6198Q271.4337 48.52605 272.15244 47.947926Q272.8712 47.354176 273.96494 47.354176Q274.77744 47.354176 275.3868 47.6823Q275.9962 48.010426 276.3868 48.6198Q276.79306 49.229176 277.0118 50.104176Q277.23056 50.979176 277.23056 52.479176Q277.23056 54.2448 276.8712 55.322926Q276.5118 56.40105 275.79306 56.9948Q275.0743 57.58855 273.96494 57.58855Q272.52744 57.58855 271.6993 56.541676Q270.6993 55.291676 270.6993 52.479176ZM271.96494 52.479176Q271.96494 54.947926 272.54306 55.760426Q273.1212 56.572926 273.96494 56.572926Q274.8243 56.572926 275.40244 55.760426Q275.98056 54.9323 275.98056 52.479176Q275.98056 49.9948 275.40244 49.1823Q274.8243 48.3698 273.9493 48.3698Q273.10556 48.3698 272.60556 49.08855Q271.96494 50.010426 271.96494 52.479176Z"/><path fill="#1a1a1a" fill-rule="nonzero" d="M24.596874 28.534374L24.596874 29.55L18.909374 29.55Q18.909374 29.175 19.034374 28.815624Q19.253124 28.2375 19.721874 27.675Q20.20625 27.1125 21.1125 26.378124Q22.51875 25.221874 23.003124 24.55Q23.503124 23.878124 23.503124 23.284374Q23.503124 22.659374 23.05 22.2375Q22.596874 21.8 21.878124 21.8Q21.1125 21.8 20.659374 22.253124Q20.20625 22.70625 20.190624 23.51875L19.1125 23.409374Q19.221874 22.190624 19.940624 21.565624Q20.675 20.925 21.909374 20.925Q23.14375 20.925 23.8625 21.6125Q24.58125 22.3 24.58125 23.315624Q24.58125 23.83125 24.3625 24.33125Q24.159374 24.815624 23.659374 25.378124Q23.175 25.925 22.05 26.878124Q21.096874 27.675 20.815624 27.971874Q20.55 28.253124 20.378124 28.534374L24.596874 28.534374Z"/><path fill="#9e9e9e" fill-rule="nonzero" d="M19.1125 39.08125L19.1125 38.065624L24.675 38.065624L24.675 38.89375Q23.8625 39.76875 23.05 41.221874Q22.253124 42.659374 21.815624 44.190624Q21.4875 45.26875 21.409374 46.55L20.315624 46.55Q20.33125 45.534374 20.70625 44.096874Q21.096874 42.659374 21.8 41.33125Q22.51875 40.003124 23.33125 39.08125L19.1125 39.08125ZM26.64375 46.55L26.64375 45.346874L27.846874 45.346874L27.846874 46.55L26.64375 46.55ZM29.05 42.315624Q29.05 40.784374 29.3625 39.8625Q29.675 38.925 30.284374 38.425Q30.909374 37.925 31.846874 37.925Q32.534374 37.925 33.05 38.20625Q33.58125 38.4875 33.925 39.01875Q34.26875 39.534374 34.45625 40.284374Q34.64375 41.034374 34.64375 42.315624Q34.64375 43.83125 34.33125 44.753124Q34.034374 45.675 33.409374 46.190624Q32.8 46.690624 31.846874 46.690624Q30.6125 46.690624 29.89375 45.8Q29.05 44.7375 29.05 42.315624ZM30.128124 42.315624Q30.128124 44.425 30.628124 45.128124Q31.128124 45.83125 31.846874 45.83125Q32.58125 45.83125 33.065624 45.128124Q33.565624 44.425 33.565624 42.315624Q33.565624 40.190624 33.065624 39.503124Q32.58125 38.8 31.83125 38.8Q31.1125 38.8 30.675 39.409374Q30.128124 40.190624 30.128124 42.315624ZM36.253124 40.01875Q36.253124 39.096874 36.70625 38.45625Q37.175 37.815624 38.05 37.815624Q38.8625 37.815624 39.39375 38.39375Q39.925 38.971874 39.925 40.08125Q39.925 41.175 39.378124 41.76875Q38.846874 42.346874 38.065624 42.346874Q37.284374 42.346874 36.76875 41.76875Q36.253124 41.190624 36.253124 40.01875ZM38.08125 38.534374Q37.690624 38.534374 37.425 38.878124Q37.175 39.221874 37.175 40.128124Q37.175 40.95625 37.425 41.3Q37.690624 41.628124 38.08125 41.628124Q38.4875 41.628124 38.7375 41.284374Q39.003124 40.940624 39.003124 40.05Q39.003124 39.20625 38.7375 38.878124Q38.471874 38.534374 38.08125 38.534374ZM38.08125 46.8625L42.784374 37.815624L43.64375 37.815624L38.95625 46.8625L38.08125 46.8625ZM41.8 44.534374Q41.8 43.6125 42.253124 42.971874Q42.721874 42.33125 43.6125 42.33125Q44.425 42.33125 44.95625 42.909374Q45.4875 43.471874 45.4875 44.596874Q45.4875 45.690624 44.940624 46.284374Q44.409374 46.8625 43.6125 46.8625Q42.846874 46.8625 42.315624 46.284374Q41.8 45.70625 41.8 44.534374ZM43.64375 43.05Q43.2375 43.05 42.971874 43.39375Q42.721874 43.7375 42.721874 44.64375Q42.721874 45.45625 42.9875 45.8Q43.253124 46.14375 43.64375 46.14375Q44.034374 46.14375 44.3 45.8Q44.565624 45.45625 44.565624 44.55Q44.565624 43.721874 44.3 43.39375Q44.034374 43.05 43.64375 43.05Z"/><path fill-rule="nonzero" stroke="#757575" stroke-linecap="butt" stroke-width="1" d="M18.55 34.05L127.05 34.05L265.25668 30.749704"/><path fill="#9e9e9e" fill-rule="nonzero" d="M267.25668 30.749704C267.25668 29.645134 266.36124 28.749704 265.25668 28.749704C264.1521 28.749704 263.25668 29.645134 263.25668 30.749704C263.25668 31.854273 264.1521 32.749702 265.25668 32.749702C266.36124 32.749702 267.25668 31.854273 267.25668 30.749704"/><path fill="#1a1a1a" fill-rule="nonzero" d="M22.425 60.55L22.425 58.4875L18.70625 58.4875L18.70625 57.51875L22.628124 51.95625L23.4875 51.95625L23.4875 57.51875L24.64375 57.51875L24.64375 58.4875L23.4875 58.4875L23.4875 60.55L22.425 60.55ZM22.425 57.51875L22.425 53.659374L19.7375 57.51875L22.425 57.51875Z"/><path fill="#9e9e9e" fill-rule="nonzero" d="M23.01875 77.55L21.971874 77.55L21.971874 70.83125Q21.58125 71.19063 20.95625 71.56563Q20.346874 71.925 19.8625 72.09688L19.8625 71.08125Q20.7375 70.65938 21.39375 70.08125Q22.065624 69.4875 22.346874 68.925L23.01875 68.925L23.01875 77.55ZM26.64375 77.55L26.64375 76.34688L27.846874 76.34688L27.846874 77.55L26.64375 77.55ZM32.425 77.55L32.425 75.4875L28.70625 75.4875L28.70625 74.51875L32.628124 68.95625L33.4875 68.95625L33.4875 74.51875L34.64375 74.51875L34.64375 75.4875L33.4875 75.4875L33.4875 77.55L32.425 77.55ZM32.425 74.51875L32.425 70.65938L29.7375 74.51875L32.425 74.51875ZM36.253124 71.01875Q36.253124 70.09688 36.70625 69.45625Q37.175 68.81563 38.05 68.81563Q38.8625 68.81563 39.39375 69.39375Q39.925 69.97188 39.925 71.08125Q39.925 72.175 39.378124 72.76875Q38.846874 73.34688 38.065624 73.34688Q37.284374 73.34688 36.76875 72.76875Q36.253124 72.19063 36.253124 71.01875ZM38.08125 69.53438Q37.690624 69.53438 37.425 69.87813Q37.175 70.22188 37.175 71.12813Q37.175 71.95625 37.425 72.3Q37.690624 72.62813 38.08125 72.62813Q38.4875 72.62813 38.7375 72.28438Q39.003124 71.94063 39.003124 71.05Q39.003124 70.20625 38.7375 69.87813Q38.471874 69.53438 38.08125 69.53438ZM38.08125 77.8625L42.784374 68.81563L43.64375 68.81563L38.95625 77.8625L38.08125 77.8625ZM41.8 75.53438Q41.8 74.6125 42.253124 73.97188Q42.721874 73.33125 43.6125 73.33125Q44.425 73.33125 44.95625 73.90938Q45.4875 74.47188 45.4875 75.59688Q45.4875 76.69063 44.940624 77.28438Q44.409374 77.8625 43.6125 77.8625Q42.846874 77.8625 42.315624 77.28438Q41.8 76.70625 41.8 75.53438ZM43.64375 74.05Q43.2375 74.05 42.971874 74.39375Q42.721874 74.7375 42.721874 75.64375Q42.721874 76.45625 42.9875 76.8Q43.253124 77.14375 43.64375 77.14375Q44.034374 77.14375 44.3 76.8Q44.565624 76.45625 44.565624 75.55Q44.565624 74.72188 44.3 74.39375Q44.034374 74.05 43.64375 74.05Z"/><path fill-rule="nonzero" stroke="#757575" stroke-linecap="butt" stroke-width="1" d="M18.55 65.05L127.05 65.05L225.93611 45.25274"/><path fill="#9e9e9e" fill-rule="nonzero" d="M227.93611 45.25274C227.93611 44.14817 227.04068 43.25274 225.93611 43.25274C224.83154 43.25274 223.93611 44.14817 223.93611 45.25274C223.93611 46.35731 224.83154 47.25274 225.93611 47.25274C227.04068 47.25274 227.93611 46.35731 227.93611 45.25274"/><path fill="#1a1a1a" fill-rule="nonzero" d="M23.01875 228.00784L21.971874 228.00784L21.971874 221.2891Q21.58125 221.64847 20.95625 222.02347Q20.346874 222.38284 19.8625 222.55472L19.8625 221.5391Q20.7375 221.11722 21.39375 220.5391Q22.065624 219.94534 22.346874 219.38284L23.01875 219.38284L23.01875 228.00784Z"/><path fill="#9e9e9e" fill-rule="nonzero" d="M22.425 245.00784L22.425 242.94534L18.70625 242.94534L18.70625 241.9766L22.628124 236.4141L23.4875 236.4141L23.4875 241.9766L24.64375 241.9766L24.64375 242.94534L23.4875 242.94534L23.4875 245.00784L22.425 245.00784ZM22.425 241.9766L22.425 238.11722L19.7375 241.9766L22.425 241.9766ZM31.596874 243.99222L31.596874 245.00784L25.909374 245.00784Q25.909374 244.63284 26.034374 244.27347Q26.253124 243.69534 26.721874 243.13284Q27.20625 242.57034 28.1125 241.83597Q29.51875 240.67972 30.003124 240.00784Q30.503124 239.33597 30.503124 238.74222Q30.503124 238.11722 30.05 237.69534Q29.596874 237.25784 28.878124 237.25784Q28.1125 237.25784 27.659374 237.71097Q27.20625 238.1641 27.190624 238.9766L26.1125 238.86722Q26.221874 237.64847 26.940624 237.02347Q27.675 236.38284 28.909374 236.38284Q30.14375 236.38284 30.8625 237.07034Q31.58125 237.75784 31.58125 238.77347Q31.58125 239.2891 31.3625 239.7891Q31.159374 240.27347 30.659374 240.83597Q30.175 241.38284 29.05 242.33597Q28.096874 243.13284 27.815624 243.42972Q27.55 243.71097 27.378124 243.99222L31.596874 243.99222ZM33.64375 245.00784L33.64375 243.80472L34.846874 243.80472L34.846874 245.00784L33.64375 245.00784ZM36.1125 237.5391L36.1125 236.52347L41.675 236.52347L41.675 237.3516Q40.8625 238.2266 40.05 239.67972Q39.253124 241.11722 38.815624 242.64847Q38.4875 243.7266 38.409374 245.00784L37.315624 245.00784Q37.33125 243.99222 37.70625 242.55472Q38.096874 241.11722 38.8 239.7891Q39.51875 238.46097 40.33125 237.5391L36.1125 237.5391ZM43.253124 238.4766Q43.253124 237.55472 43.70625 236.9141Q44.175 236.27347 45.05 236.27347Q45.8625 236.27347 46.39375 236.8516Q46.925 237.42972 46.925 238.5391Q46.925 239.63284 46.378124 240.2266Q45.846874 240.80472 45.065624 240.80472Q44.284374 240.80472 43.76875 240.2266Q43.253124 239.64847 43.253124 238.4766ZM45.08125 236.99222Q44.690624 236.99222 44.425 237.33597Q44.175 237.67972 44.175 238.58597Q44.175 239.4141 44.425 239.75784Q44.690624 240.08597 45.08125 240.08597Q45.4875 240.08597 45.7375 239.74222Q46.003124 239.39847 46.003124 238.50784Q46.003124 237.6641 45.7375 237.33597Q45.471874 236.99222 45.08125 236.99222ZM45.08125 245.32034L49.784374 236.27347L50.64375 236.27347L45.95625 245.32034L45.08125 245.32034ZM48.8 242.99222Q48.8 242.07034 49.253124 241.42972Q49.721874 240.7891 50.6125 240.7891Q51.425 240.7891 51.95625 241.36722Q52.4875 241.92972 52.4875 243.05472Q52.4875 244.14847 51.940624 244.74222Q51.409374 245.32034 50.6125 245.32034Q49.846874 245.32034 49.315624 244.74222Q48.8 244.1641 48.8 242.99222ZM50.64375 241.50784Q50.2375 241.50784 49.971874 241.8516Q49.721874 242.19534 49.721874 243.1016Q49.721874 243.9141 49.9875 244.25784Q50.253124 244.6016 50.64375 244.6016Q51.034374 244.6016 51.3 244.25784Q51.565624 243.9141 51.565624 243.00784Q51.565624 242.17972 51.3 241.8516Q51.034374 241.50784 50.64375 241.50784Z"/><path fill-rule="nonzero" stroke="#757575" stroke-linecap="butt" stroke-width="1" d="M18.55 232.50784L127.05 232.50784L148.52388 232.50784"/><path fill="#9e9e9e" fill-rule="nonzero" d="M150.52388 232.50784C150.52388 231.40327 149.62845 230.50784 148.52388 230.50784C147.41931 230.50784 146.52388 231.40327 146.52388 232.50784C146.52388 233.61241 147.41931 234.50784 148.52388 234.50784C149.62845 234.50784 150.52388 233.61241 150.52388 232.50784"/><path fill="#1a1a1a" fill-rule="nonzero" d="M574.95 173.04366L576.0125 172.90303Q576.1844 173.79366 576.6219 174.1999Q577.0594 174.59053 577.6844 174.59053Q578.4344 174.59053 578.95 174.0749Q579.46564 173.55928 579.46564 172.79366Q579.46564 172.0749 578.98126 171.60616Q578.5125 171.12178 577.77814 171.12178Q577.48126 171.12178 577.02814 171.24678L577.15314 170.30928Q577.2625 170.3249 577.325 170.3249Q577.9969 170.3249 578.52814 169.98116Q579.075 169.62178 579.075 168.8874Q579.075 168.30928 578.6844 167.93428Q578.29376 167.54366 577.66876 167.54366Q577.0594 167.54366 576.6375 167.93428Q576.23126 168.3249 576.1219 169.09053L575.0594 168.90303Q575.2469 167.85616 575.9344 167.27803Q576.6219 166.68428 577.6375 166.68428Q578.34064 166.68428 578.9344 166.99678Q579.52814 167.29366 579.84064 167.80928Q580.15314 168.3249 580.15314 168.91866Q580.15314 169.46553 579.85626 169.93428Q579.5594 170.3874 578.98126 170.65303Q579.73126 170.8249 580.15314 171.3874Q580.575 171.93428 580.575 172.77803Q580.575 173.90303 579.7469 174.68428Q578.9344 175.46553 577.6844 175.46553Q576.5594 175.46553 575.8094 174.79366Q575.0594 174.10616 574.95 173.04366Z"/><path fill="#9e9e9e" fill-rule="nonzero" d="M550.325 192.30928L550.325 190.24678L546.60626 190.24678L546.60626 189.27803L550.52814 183.71553L551.3875 183.71553L551.3875 189.27803L552.54376 189.27803L552.54376 190.24678L551.3875 190.24678L551.3875 192.30928L550.325 192.30928ZM550.325 189.27803L550.325 185.41866L547.6375 189.27803L550.325 189.27803ZM555.575 187.65303Q554.91876 187.40303 554.59064 186.96553Q554.27814 186.5124 554.27814 185.90303Q554.27814 184.96553 554.95 184.3249Q555.6375 183.68428 556.7469 183.68428Q557.8719 183.68428 558.5594 184.34053Q559.2469 184.99678 559.2469 185.93428Q559.2469 186.52803 558.9344 186.96553Q558.6219 187.40303 557.98126 187.65303Q558.77814 187.90303 559.1844 188.48116Q559.59064 189.05928 559.59064 189.85616Q559.59064 190.9499 558.8094 191.6999Q558.04376 192.4499 556.7625 192.4499Q555.4969 192.4499 554.71564 191.6999Q553.9344 190.9499 553.9344 189.8249Q553.9344 188.98116 554.35626 188.41866Q554.79376 187.85616 555.575 187.65303ZM555.35626 185.85616Q555.35626 186.46553 555.7469 186.85616Q556.15314 187.24678 556.77814 187.24678Q557.3875 187.24678 557.77814 186.87178Q558.16876 186.48116 558.16876 185.91866Q558.16876 185.34053 557.7625 184.9499Q557.35626 184.54366 556.7625 184.54366Q556.15314 184.54366 555.7469 184.93428Q555.35626 185.3249 555.35626 185.85616ZM555.02814 189.8249Q555.02814 190.27803 555.23126 190.6999Q555.45 191.12178 555.8719 191.35616Q556.29376 191.59053 556.77814 191.59053Q557.52814 191.59053 558.0125 191.10616Q558.5125 190.62178 558.5125 189.87178Q558.5125 189.10616 558.0125 188.60616Q557.5125 188.10616 556.7469 188.10616Q555.9969 188.10616 555.5125 188.60616Q555.02814 189.09053 555.02814 189.8249ZM561.54376 192.30928L561.54376 191.10616L562.7469 191.10616L562.7469 192.30928L561.54376 192.30928ZM564.10626 190.3249L565.1219 190.23116Q565.2469 190.9499 565.60626 191.27803Q565.98126 191.59053 566.54376 191.59053Q567.02814 191.59053 567.3875 191.37178Q567.7625 191.1374 567.9969 190.77803Q568.23126 190.40303 568.3875 189.77803Q568.54376 189.1374 568.54376 188.48116Q568.54376 188.40303 568.54376 188.2624Q568.23126 188.7624 567.6844 189.09053Q567.1375 189.40303 566.4969 189.40303Q565.41876 189.40303 564.6844 188.6374Q563.95 187.85616 563.95 186.59053Q563.95 185.27803 564.71564 184.48116Q565.4969 183.68428 566.65314 183.68428Q567.48126 183.68428 568.16876 184.1374Q568.8719 184.59053 569.23126 185.43428Q569.59064 186.2624 569.59064 187.84053Q569.59064 189.48116 569.23126 190.46553Q568.8875 191.43428 568.16876 191.9499Q567.46564 192.4499 566.52814 192.4499Q565.5125 192.4499 564.8719 191.90303Q564.23126 191.34053 564.10626 190.3249ZM568.41876 186.52803Q568.41876 185.62178 567.9344 185.09053Q567.46564 184.55928 566.77814 184.55928Q566.075 184.55928 565.54376 185.1374Q565.02814 185.6999 565.02814 186.62178Q565.02814 187.43428 565.52814 187.9499Q566.02814 188.46553 566.7469 188.46553Q567.48126 188.46553 567.95 187.9499Q568.41876 187.43428 568.41876 186.52803ZM571.15314 185.77803Q571.15314 184.85616 571.60626 184.21553Q572.075 183.5749 572.95 183.5749Q573.7625 183.5749 574.29376 184.15303Q574.825 184.73116 574.825 185.84053Q574.825 186.93428 574.27814 187.52803Q573.7469 188.10616 572.96564 188.10616Q572.1844 188.10616 571.66876 187.52803Q571.15314 186.9499 571.15314 185.77803ZM572.98126 184.29366Q572.59064 184.29366 572.325 184.6374Q572.075 184.98116 572.075 185.8874Q572.075 186.71553 572.325 187.05928Q572.59064 187.3874 572.98126 187.3874Q573.3875 187.3874 573.6375 187.04366Q573.90314 186.6999 573.90314 185.80928Q573.90314 184.96553 573.6375 184.6374Q573.3719 184.29366 572.98126 184.29366ZM572.98126 192.62178L577.6844 183.5749L578.54376 183.5749L573.85626 192.62178L572.98126 192.62178ZM576.7 190.29366Q576.7 189.37178 577.15314 188.73116Q577.6219 188.09053 578.5125 188.09053Q579.325 188.09053 579.85626 188.66866Q580.3875 189.23116 580.3875 190.35616Q580.3875 191.4499 579.84064 192.04366Q579.3094 192.62178 578.5125 192.62178Q577.7469 192.62178 577.21564 192.04366Q576.7 191.46553 576.7 190.29366ZM578.54376 188.80928Q578.1375 188.80928 577.8719 189.15303Q577.6219 189.49678 577.6219 190.40303Q577.6219 191.21553 577.8875 191.55928Q578.15314 191.90303 578.54376 191.90303Q578.9344 191.90303 579.2 191.55928Q579.46564 191.21553 579.46564 190.30928Q579.46564 189.48116 579.2 189.15303Q578.9344 188.80928 578.54376 188.80928Z"/><path fill-rule="nonzero" stroke="#757575" stroke-linecap="butt" stroke-width="1" d="M581.45 179.80928L472.95 179.80928L458.50037 179.80928"/><path fill="#9e9e9e" fill-rule="nonzero" d="M460.50037 179.80928C460.50037 178.7047 459.60495 177.80928 458.50037 177.80928C457.3958 177.80928 456.50037 178.7047 456.50037 179.80928C456.50037 180.91385 457.3958 181.80928 458.50037 181.80928C459.60495 181.80928 460.50037 180.91385 460.50037 179.80928"/></svg>