<svg xmlns="http://www.w3.org/2000/svg" xmlns:xlink="http://www.w3.org/1999/xlink" width="600" height="371" fill="none" stroke="none" stroke-linecap="square" stroke-miterlimit="10" version="1.1" viewBox="0 0 600 371"><path fill="#fff" fill-rule="nonzero" d="M0 0L600.0 0L600.0 371.0L0 371.0L0 0Z"/><path fill="#ea4335" fill-rule="nonzero" d="M239.12143 30.045498C258.51935 22.448954 279.16766 18.55 300.0 18.55L300.0 185.5Z"/><path fill="#4285f4" fill-rule="nonzero" d="M300.0 18.55C386.17715 18.55 458.19373 84.141495 466.22366 169.94373C474.25357 255.74594 415.6579 333.56097 330.9772 349.55096C246.2965 365.54092 163.3601 314.45093 139.54921 231.62857C115.73831 148.80621 158.87808 61.470127 239.12143 30.045498L300.0 185.5Z"/><path fill="#000" fill-rule="nonzero" d="M313.75342 321.19992L315.0503 321.09055Q315.19092 322.02805 315.70654 322.51242Q316.2378 322.98117 316.97217 322.98117Q317.8628 322.98117 318.47217 322.3093Q319.09717 321.63742 319.09717 320.54367Q319.09717 319.48117 318.50342 318.8718Q317.90967 318.26242 316.95654 318.26242Q316.3628 318.26242 315.87842 318.54367Q315.40967 318.8093 315.12842 319.23117L313.97217 319.09055L314.94092 313.9343L319.9253 313.9343L319.9253 315.1218L315.9253 315.1218L315.39404 317.8093Q316.3003 317.1843 317.28467 317.1843Q318.59717 317.1843 319.4878 318.09055Q320.39404 318.9968 320.39404 320.4343Q320.39404 321.79367 319.6128 322.77805Q318.64404 323.9968 316.97217 323.9968Q315.6128 323.9968 314.7378 323.23117Q313.87842 322.46555 313.75342 321.19992ZM321.83154 315.1218L321.83154 313.9343L328.33154 313.9343L328.33154 314.88742Q327.3628 315.90305 326.4253 317.59055Q325.4878 319.27805 324.97217 321.07492Q324.6128 322.32492 324.50342 323.82492L323.2378 323.82492Q323.25342 322.63742 323.69092 320.96555Q324.14404 319.29367 324.97217 317.7468Q325.81592 316.1843 326.75342 315.1218L321.83154 315.1218ZM329.75342 318.88742Q329.75342 317.10617 330.1128 316.02805Q330.4878 314.9343 331.20654 314.35617Q331.9253 313.76242 333.01904 313.76242Q333.83154 313.76242 334.44092 314.09055Q335.0503 314.41867 335.44092 315.02805Q335.84717 315.63742 336.06592 316.51242Q336.28467 317.38742 336.28467 318.88742Q336.28467 320.65305 335.9253 321.73117Q335.56592 322.8093 334.84717 323.40305Q334.12842 323.9968 333.01904 323.9968Q331.58154 323.9968 330.75342 322.94992Q329.75342 321.69992 329.75342 318.88742ZM331.01904 318.88742Q331.01904 321.35617 331.59717 322.16867Q332.1753 322.98117 333.01904 322.98117Q333.87842 322.98117 334.45654 322.16867Q335.03467 321.34055 335.03467 318.88742Q335.03467 316.40305 334.45654 315.59055Q333.87842 314.77805 333.00342 314.77805Q332.15967 314.77805 331.65967 315.4968Q331.01904 316.41867 331.01904 318.88742Z"/><path fill="#000" fill-rule="nonzero" d="M267.18536 53.30001L268.4041 53.128136Q268.62286 54.17501 269.12286 54.64376Q269.6385 55.096886 270.37286 55.096886Q271.24786 55.096886 271.8416 54.503136Q272.43536 53.89376 272.43536 53.003136Q272.43536 52.159386 271.87286 51.61251Q271.326 51.065636 270.48224 51.065636Q270.12286 51.065636 269.60724 51.190636L269.74786 50.11251Q269.87286 50.128136 269.93536 50.128136Q270.73224 50.128136 271.35724 49.721886Q271.98224 49.315636 271.98224 48.45626Q271.98224 47.784386 271.5291 47.346886Q271.076 46.89376 270.3416 46.89376Q269.62286 46.89376 269.1385 47.346886Q268.66974 47.784386 268.5291 48.690636L267.31036 48.471886Q267.5291 47.23751 268.326 46.565636Q269.12286 45.878136 270.31036 45.878136Q271.1385 45.878136 271.826 46.23751Q272.5135 46.58126 272.87286 47.190636Q273.24786 47.80001 273.24786 48.48751Q273.24786 49.128136 272.9041 49.659386Q272.56036 50.190636 271.87286 50.51876Q272.7635 50.721886 273.24786 51.36251Q273.74786 52.003136 273.74786 52.98751Q273.74786 54.30001 272.7791 55.20626Q271.826 56.11251 270.37286 56.11251Q269.04474 56.11251 268.16974 55.33126Q267.31036 54.55001 267.18536 53.30001ZM281.56036 48.378136L280.3416 48.471886Q280.16974 47.73751 279.87286 47.409386Q279.37286 46.89376 278.6385 46.89376Q278.04474 46.89376 277.60724 47.221886Q277.0291 47.64376 276.68536 48.45626Q276.35724 49.26876 276.3416 50.76876Q276.7791 50.096886 277.41974 49.76876Q278.076 49.440636 278.7791 49.440636Q280.0135 49.440636 280.87286 50.346886Q281.73224 51.253136 281.73224 52.690636Q281.73224 53.628136 281.326 54.440636Q280.91974 55.253136 280.201 55.690636Q279.49786 56.11251 278.5916 56.11251Q277.06036 56.11251 276.0916 54.98751Q275.12286 53.846886 275.12286 51.253136Q275.12286 48.346886 276.18536 47.01876Q277.12286 45.878136 278.7166 45.878136Q279.9041 45.878136 280.6541 46.55001Q281.4041 47.20626 281.56036 48.378136ZM276.5291 52.690636Q276.5291 53.33126 276.79474 53.909386Q277.076 54.48751 277.56036 54.80001Q278.04474 55.096886 278.576 55.096886Q279.35724 55.096886 279.91974 54.471886Q280.48224 53.846886 280.48224 52.76876Q280.48224 51.721886 279.91974 51.128136Q279.37286 50.51876 278.5291 50.51876Q277.701 50.51876 277.10724 51.128136Q276.5291 51.721886 276.5291 52.690636Z"/><path fill="#1a1a1a" fill-rule="nonzero" d="M21.659374 29.55L21.659374 21.971874L18.83125 21.971874L18.83125 20.95625L25.64375 20.95625L25.64375 21.971874L22.8 21.971874L22.8 29.55L21.659374 29.55ZM26.33125 29.55L26.33125 23.33125L27.284374 23.33125L27.284374 24.26875Q27.64375 23.6125 27.940624 23.409374Q28.253124 23.190624 28.628124 23.190624Q29.159374 23.190624 29.70625 23.51875L29.346874 24.503124Q28.95625 24.26875 28.58125 24.26875Q28.221874 24.26875 27.940624 24.4875Q27.675 24.690624 27.565624 25.065624Q27.378124 25.628124 27.378124 26.284374L27.378124 29.55L26.33125 29.55ZM34.409374 28.784374Q33.815624 29.284374 33.26875 29.4875Q32.7375 29.690624 32.1125 29.690624Q31.08125 29.690624 30.534374 29.190624Q29.9875 28.690624 29.9875 27.909374Q29.9875 27.45625 30.190624 27.08125Q30.39375 26.690624 30.7375 26.471874Q31.08125 26.2375 31.503124 26.128124Q31.8 26.034374 32.440624 25.95625Q33.70625 25.815624 34.315624 25.596874Q34.315624 25.378124 34.315624 25.33125Q34.315624 24.675 34.01875 24.409374Q33.6125 24.065624 32.815624 24.065624Q32.08125 24.065624 31.721874 24.33125Q31.3625 24.58125 31.190624 25.2375L30.159374 25.096874Q30.3 24.440624 30.628124 24.034374Q30.95625 23.628124 31.565624 23.409374Q32.175 23.190624 32.971874 23.190624Q33.76875 23.190624 34.26875 23.378124Q34.76875 23.565624 35.003124 23.846874Q35.2375 24.128124 35.33125 24.565624Q35.378124 24.83125 35.378124 25.534374L35.378124 26.940624Q35.378124 28.409374 35.440624 28.8Q35.51875 29.190624 35.721874 29.55L34.6125 29.55Q34.45625 29.221874 34.409374 28.784374ZM34.315624 26.425Q33.7375 26.659374 32.596874 26.83125Q31.940624 26.925 31.675 27.05Q31.409374 27.159374 31.253124 27.378124Q31.1125 27.596874 31.1125 27.878124Q31.1125 28.3 31.425 28.58125Q31.753124 28.8625 32.3625 28.8625Q32.971874 28.8625 33.440624 28.596874Q33.925 28.33125 34.14375 27.8625Q34.315624 27.503124 34.315624 26.815624L34.315624 26.425ZM37.346874 29.55L37.346874 23.33125L38.284374 23.33125L38.284374 24.20625Q38.971874 23.190624 40.26875 23.190624Q40.83125 23.190624 41.3 23.39375Q41.784374 23.596874 42.01875 23.925Q42.253124 24.253124 42.346874 24.690624Q42.39375 24.9875 42.39375 25.721874L42.39375 29.55L41.346874 29.55L41.346874 25.76875Q41.346874 25.1125 41.221874 24.8Q41.096874 24.4875 40.784374 24.3Q40.471874 24.096874 40.05 24.096874Q39.378124 24.096874 38.878124 24.534374Q38.39375 24.95625 38.39375 26.14375L38.39375 29.55L37.346874 29.55ZM43.925 27.690624L44.95625 27.534374Q45.05 28.159374 45.440624 28.4875Q45.846874 28.815624 46.58125 28.815624Q47.3 28.815624 47.64375 28.534374Q48.003124 28.2375 48.003124 27.83125Q48.003124 27.471874 47.690624 27.26875Q47.471874 27.128124 46.6125 26.909374Q45.45625 26.6125 45.003124 26.409374Q44.565624 26.190624 44.33125 25.815624Q44.096874 25.440624 44.096874 24.971874Q44.096874 24.565624 44.284374 24.20625Q44.471874 23.846874 44.8 23.6125Q45.05 23.440624 45.471874 23.315624Q45.89375 23.190624 46.39375 23.190624Q47.1125 23.190624 47.659374 23.409374Q48.221874 23.6125 48.4875 23.971874Q48.753124 24.33125 48.846874 24.925L47.815624 25.065624Q47.753124 24.596874 47.409374 24.33125Q47.08125 24.05 46.45625 24.05Q45.7375 24.05 45.425 24.3Q45.1125 24.534374 45.1125 24.8625Q45.1125 25.065624 45.2375 25.221874Q45.378124 25.39375 45.64375 25.503124Q45.8 25.565624 46.58125 25.76875Q47.70625 26.08125 48.14375 26.26875Q48.58125 26.45625 48.83125 26.815624Q49.08125 27.175 49.08125 27.721874Q49.08125 28.253124 48.76875 28.721874Q48.471874 29.175 47.89375 29.440624Q47.315624 29.690624 46.58125 29.690624Q45.3625 29.690624 44.721874 29.190624Q44.096874 28.675 43.925 27.690624ZM51.14375 30.065624L52.175 30.221874Q52.2375 30.690624 52.534374 30.909374Q52.925 31.20625 53.596874 31.20625Q54.33125 31.20625 54.721874 30.909374Q55.128124 30.6125 55.26875 30.096874Q55.3625 29.76875 55.346874 28.7375Q54.659374 29.55 53.628124 29.55Q52.346874 29.55 51.64375 28.628124Q50.940624 27.690624 50.940624 26.409374Q50.940624 25.51875 51.253124 24.76875Q51.58125 24.003124 52.190624 23.596874Q52.8 23.190624 53.628124 23.190624Q54.7375 23.190624 55.45625 24.08125L55.45625 23.33125L56.425 23.33125L56.425 28.70625Q56.425 30.159374 56.128124 30.76875Q55.83125 31.378124 55.190624 31.721874Q54.55 32.08125 53.6125 32.08125Q52.503124 32.08125 51.815624 31.58125Q51.128124 31.08125 51.14375 30.065624ZM52.01875 26.33125Q52.01875 27.55 52.503124 28.1125Q52.9875 28.675 53.721874 28.675Q54.45625 28.675 54.940624 28.1125Q55.440624 27.55 55.440624 26.3625Q55.440624 25.221874 54.925 24.64375Q54.425 24.065624 53.70625 24.065624Q53.003124 24.065624 52.503124 24.64375Q52.01875 25.20625 52.01875 26.33125ZM62.596874 27.55L63.690624 27.675Q63.440624 28.628124 62.7375 29.159374Q62.034374 29.690624 60.95625 29.690624Q59.596874 29.690624 58.784374 28.846874Q57.9875 28.003124 57.9875 26.4875Q57.9875 24.925 58.8 24.065624Q59.6125 23.190624 60.89375 23.190624Q62.14375 23.190624 62.925 24.034374Q63.721874 24.878124 63.721874 26.425Q63.721874 26.51875 63.721874 26.70625L59.08125 26.70625Q59.14375 27.7375 59.659374 28.284374Q60.175 28.815624 60.95625 28.815624Q61.534374 28.815624 61.940624 28.51875Q62.3625 28.20625 62.596874 27.55ZM59.14375 25.846874L62.6125 25.846874Q62.55 25.05 62.221874 24.659374Q61.70625 24.05 60.909374 24.05Q60.175 24.05 59.675 24.534374Q59.190624 25.01875 59.14375 25.846874ZM65.34688 29.55L65.34688 23.33125L66.28438 23.33125L66.28438 24.20625Q66.97188 23.190624 68.26875 23.190624Q68.83125 23.190624 69.3 23.39375Q69.78438 23.596874 70.01875 23.925Q70.25313 24.253124 70.34688 24.690624Q70.39375 24.9875 70.39375 25.721874L70.39375 29.55L69.34688 29.55L69.34688 25.76875Q69.34688 25.1125 69.22188 24.8Q69.09688 24.4875 68.78438 24.3Q68.47188 24.096874 68.05 24.096874Q67.37813 24.096874 66.87813 24.534374Q66.39375 24.95625 66.39375 26.14375L66.39375 29.55L65.34688 29.55ZM76.37813 29.55L76.37813 28.76875Q75.78438 29.690624 74.64375 29.690624Q73.89375 29.690624 73.26875 29.284374Q72.64375 28.8625 72.3 28.128124Q71.95625 27.39375 71.95625 26.440624Q71.95625 25.51875 72.26875 24.753124Q72.58125 23.9875 73.20625 23.596874Q73.83125 23.190624 74.59688 23.190624Q75.15938 23.190624 75.59688 23.425Q76.03438 23.659374 76.31563 24.034374L76.31563 20.95625L77.3625 20.95625L77.3625 29.55L76.37813 29.55ZM73.05 26.440624Q73.05 27.64375 73.55 28.2375Q74.05 28.815624 74.7375 28.815624Q75.425 28.815624 75.90938 28.253124Q76.39375 27.690624 76.39375 26.534374Q76.39375 25.253124 75.89375 24.659374Q75.40938 24.065624 74.69063 24.065624Q73.9875 24.065624 73.51875 24.64375Q73.05 25.20625 73.05 26.440624ZM83.59688 27.55L84.69063 27.675Q84.44063 28.628124 83.7375 29.159374Q83.03438 29.690624 81.95625 29.690624Q80.59688 29.690624 79.78438 28.846874Q78.9875 28.003124 78.9875 26.4875Q78.9875 24.925 79.8 24.065624Q80.6125 23.190624 81.89375 23.190624Q83.14375 23.190624 83.925 24.034374Q84.72188 24.878124 84.72188 26.425Q84.72188 26.51875 84.72188 26.70625L80.08125 26.70625Q80.14375 27.7375 80.65938 28.284374Q81.175 28.815624 81.95625 28.815624Q82.53438 28.815624 82.94063 28.51875Q83.3625 28.20625 83.59688 27.55ZM80.14375 25.846874L83.6125 25.846874Q83.55 25.05 83.22188 24.659374Q82.70625 24.05 81.90938 24.05Q81.175 24.05 80.675 24.534374Q80.19063 25.01875 80.14375 25.846874ZM86.33125 29.55L86.33125 23.33125L87.28438 23.33125L87.28438 24.26875Q87.64375 23.6125 87.94063 23.409374Q88.25313 23.190624 88.62813 23.190624Q89.15938 23.190624 89.70625 23.51875L89.34688 24.503124Q88.95625 24.26875 88.58125 24.26875Q88.22188 24.26875 87.94063 24.4875Q87.675 24.690624 87.56563 25.065624Q87.37813 25.628124 87.37813 26.284374L87.37813 29.55L86.33125 29.55ZM92.55 29.690624L95.03438 20.815624L95.87813 20.815624L93.39375 29.690624L92.55 29.690624Z"/><path fill="#1a1a1a" fill-rule="nonzero" d="M108.3 24.01875Q107.64375 23.409374 107.12813 22.33125L106.19063 22.33125Q105.81563 23.221874 105.06563 24.01875L108.3 24.01875ZM109.65938 21.440624L109.65938 22.33125L108.01875 22.33125Q108.76875 23.503124 110.22188 24.253124L109.8 25.096874Q109.05 24.721874 108.4875 24.159374L108.4875 24.76875L104.97188 24.76875L104.97188 24.1125Q104.3625 24.76875 103.6125 25.2375L103.14375 24.4875Q104.59688 23.55 105.25313 22.33125L103.70625 22.33125L103.70625 21.440624L105.58125 21.440624Q105.90938 20.596874 106.05 19.89375L106.9875 20.08125Q107.175 20.26875 106.84688 20.315624Q106.70625 20.83125 106.47188 21.440624L109.65938 21.440624ZM103.9875 28.8Q104.64375 27.628124 104.925 26.55L103.65938 26.55L103.65938 25.659374L109.70625 25.659374L109.70625 26.55L105.8625 26.55Q105.76875 26.971874 105.58125 27.39375L109.09688 27.39375L108.8625 29.315624Q108.675 30.675 107.78438 30.675L106.14375 30.675L106.05 29.784374L107.45625 29.784374Q107.83125 29.784374 107.925 29.221874L108.06563 28.14375L105.3 28.14375Q105.1125 28.659374 104.83125 29.175L103.9875 28.8ZM99.62813 24.01875L99.62813 20.503124L103.09688 20.503124L103.09688 24.01875L101.925 24.01875L101.925 25.753124L103.19063 25.753124L103.19063 26.64375L101.925 26.64375L101.925 28.940624L103.37813 28.51875L103.51875 29.315624L99.62813 30.440624Q99.4875 30.8625 99.34688 30.534374L99.01875 29.64375L99.58125 29.503124L99.58125 25.2375L100.33125 25.2375Q100.70625 25.284374 100.37813 25.51875L100.37813 29.3625L101.12813 29.175L101.12813 24.01875L100.37813 24.01875L99.62813 24.01875ZM102.3 21.253124L100.425 21.253124L100.425 23.26875L102.3 23.26875L102.3 21.253124ZM116.69063 22.425L117.95625 22.425L117.95625 19.9875L118.84688 19.9875Q119.22188 20.034374 118.89375 20.26875L118.89375 22.425L121.425 22.425L121.425 23.315624L118.89375 23.315624L118.89375 25.565624L121.28438 25.565624L121.28438 26.45625L118.89375 26.45625L118.89375 29.221874L121.9875 29.221874L121.9875 30.1125L114.81563 30.1125L114.81563 29.221874L117.95625 29.221874L117.95625 26.45625L115.65938 26.45625L115.65938 25.565624L117.95625 25.565624L117.95625 23.315624L116.40938 23.315624Q116.08125 24.253124 115.37813 25.190624L114.58125 24.58125Q115.8 22.9875 116.175 20.7375L117.06563 20.925Q117.44063 21.065624 117.06563 21.20625L116.69063 22.425ZM112.70625 19.846874L113.59688 19.846874Q113.97188 19.89375 113.64375 20.128124L113.64375 30.534374L112.70625 30.534374L112.70625 19.846874ZM114.4875 21.76875Q114.90938 22.33125 115.19063 23.034374L114.44063 23.55Q114.1125 22.753124 113.78438 22.2375L114.4875 21.76875ZM112.425 22.284374Q112.75313 22.378124 112.425 22.565624Q112.33125 24.065624 112.00313 25.378124L111.1125 25.096874Q111.4875 23.925 111.53438 22.14375L112.425 22.284374Z"/><path fill="#9e9e9e" fill-rule="nonzero" d="M19.05 44.3L20.159374 44.20625Q20.284374 45.01875 20.721874 45.425Q21.175 45.83125 21.815624 45.83125Q22.565624 45.83125 23.096874 45.253124Q23.628124 44.675 23.628124 43.7375Q23.628124 42.83125 23.1125 42.315624Q22.6125 41.784374 21.784374 41.784374Q21.284374 41.784374 20.8625 42.01875Q20.45625 42.253124 20.221874 42.6125L19.2375 42.4875L20.065624 38.08125L24.346874 38.08125L24.346874 39.08125L20.909374 39.08125L20.45625 41.39375Q21.221874 40.846874 22.065624 40.846874Q23.190624 40.846874 23.95625 41.628124Q24.7375 42.409374 24.7375 43.64375Q24.7375 44.8 24.065624 45.659374Q23.2375 46.690624 21.815624 46.690624Q20.64375 46.690624 19.89375 46.034374Q19.159374 45.378124 19.05 44.3ZM26.64375 46.55L26.64375 45.346874L27.846874 45.346874L27.846874 46.55L26.64375 46.55ZM29.20625 44.565624L30.221874 44.471874Q30.346874 45.190624 30.70625 45.51875Q31.08125 45.83125 31.64375 45.83125Q32.128124 45.83125 32.4875 45.6125Q32.8625 45.378124 33.096874 45.01875Q33.33125 44.64375 33.4875 44.01875Q33.64375 43.378124 33.64375 42.721874Q33.64375 42.64375 33.64375 42.503124Q33.33125 43.003124 32.784374 43.33125Q32.2375 43.64375 31.596874 43.64375Q30.51875 43.64375 29.784374 42.878124Q29.05 42.096874 29.05 40.83125Q29.05 39.51875 29.815624 38.721874Q30.596874 37.925 31.753124 37.925Q32.58125 37.925 33.26875 38.378124Q33.971874 38.83125 34.33125 39.675Q34.690624 40.503124 34.690624 42.08125Q34.690624 43.721874 34.33125 44.70625Q33.9875 45.675 33.26875 46.190624Q32.565624 46.690624 31.628124 46.690624Q30.6125 46.690624 29.971874 46.14375Q29.33125 45.58125 29.20625 44.565624ZM33.51875 40.76875Q33.51875 39.8625 33.034374 39.33125Q32.565624 38.8 31.878124 38.8Q31.175 38.8 30.64375 39.378124Q30.128124 39.940624 30.128124 40.8625Q30.128124 41.675 30.628124 42.190624Q31.128124 42.70625 31.846874 42.70625Q32.58125 42.70625 33.05 42.190624Q33.51875 41.675 33.51875 40.76875ZM36.253124 40.01875Q36.253124 39.096874 36.70625 38.45625Q37.175 37.815624 38.05 37.815624Q38.8625 37.815624 39.39375 38.39375Q39.925 38.971874 39.925 40.08125Q39.925 41.175 39.378124 41.76875Q38.846874 42.346874 38.065624 42.346874Q37.284374 42.346874 36.76875 41.76875Q36.253124 41.190624 36.253124 40.01875ZM38.08125 38.534374Q37.690624 38.534374 37.425 38.878124Q37.175 39.221874 37.175 40.128124Q37.175 40.95625 37.425 41.3Q37.690624 41.628124 38.08125 41.628124Q38.4875 41.628124 38.7375 41.284374Q39.003124 40.940624 39.003124 40.05Q39.003124 39.20625 38.7375 38.878124Q38.471874 38.534374 38.08125 38.534374ZM38.08125 46.8625L42.784374 37.815624L43.64375 37.815624L38.95625 46.8625L38.08125 46.8625ZM41.8 44.534374Q41.8 43.6125 42.253124 42.971874Q42.721874 42.33125 43.6125 42.33125Q44.425 42.33125 44.95625 42.909374Q45.4875 43.471874 45.4875 44.596874Q45.4875 45.690624 44.940624 46.284374Q44.409374 46.8625 43.6125 46.8625Q42.846874 46.8625 42.315624 46.284374Q41.8 45.70625 41.8 44.534374ZM43.64375 43.05Q43.2375 43.05 42.971874 43.39375Q42.721874 43.7375 42.721874 44.64375Q42.721874 45.45625 42.9875 45.8Q43.253124 46.14375 43.64375 46.14375Q44.034374 46.14375 44.3 45.8Q44.565624 45.45625 44.565624 44.55Q44.565624 43.721874 44.3 43.39375Q44.034374 43.05 43.64375 43.05Z"/><path fill-rule="nonzero" stroke="#757575" stroke-linecap="butt" stroke-width="1" d="M18.55 34.05L127.05 34.05L270.57166 29.651592"/><path fill="#9e9e9e" fill-rule="nonzero" d="M272.57166 29.651592C272.57166 28.547024 271.67624 27.651592 270.57166 27.651592C269.4671 27.651592 268.57166 28.547024 268.57166 29.651592C268.57166 30.756163 269.4671 31.651592 270.57166 31.651592C271.67624 31.651592 272.57166 30.756163 272.57166 29.651592"/><path fill="#1a1a1a" fill-rule="nonzero" d="M485.5125 329.4344L486.6375 329.73126Q486.27814 331.1219 485.35626 331.85626Q484.4344 332.59064 483.09064 332.59064Q481.7 332.59064 480.825 332.02814Q479.95 331.46564 479.4969 330.40314Q479.04376 329.325 479.04376 328.09064Q479.04376 326.7469 479.5594 325.7469Q480.075 324.7469 481.0125 324.23126Q481.96564 323.71564 483.10626 323.71564Q484.3875 323.71564 485.2625 324.3719Q486.15314 325.02814 486.4969 326.21564L485.3719 326.48126Q485.075 325.54376 484.4969 325.1219Q483.9344 324.6844 483.075 324.6844Q482.09064 324.6844 481.41876 325.16876Q480.7625 325.6375 480.48126 326.4344Q480.21564 327.23126 480.21564 328.09064Q480.21564 329.1844 480.52814 329.9969Q480.85626 330.8094 481.52814 331.21564Q482.2 331.6219 482.9969 331.6219Q483.95 331.6219 484.60626 331.075Q485.27814 330.52814 485.5125 329.4344ZM488.2469 325.075L488.2469 323.85626L489.3094 323.85626L489.3094 325.075L488.2469 325.075ZM488.2469 332.45L488.2469 326.23126L489.3094 326.23126L489.3094 332.45L488.2469 332.45ZM490.825 330.59064L491.85626 330.4344Q491.95 331.0594 492.34064 331.3875Q492.7469 331.71564 493.48126 331.71564Q494.2 331.71564 494.54376 331.4344Q494.90314 331.1375 494.90314 330.73126Q494.90314 330.3719 494.59064 330.16876Q494.3719 330.02814 493.5125 329.8094Q492.35626 329.5125 491.90314 329.3094Q491.46564 329.09064 491.23126 328.71564Q490.9969 328.34064 490.9969 327.8719Q490.9969 327.46564 491.1844 327.10626Q491.3719 326.7469 491.7 326.5125Q491.95 326.34064 492.3719 326.21564Q492.79376 326.09064 493.29376 326.09064Q494.0125 326.09064 494.5594 326.3094Q495.1219 326.5125 495.3875 326.8719Q495.65314 327.23126 495.7469 327.825L494.71564 327.96564Q494.65314 327.4969 494.3094 327.23126Q493.98126 326.95 493.35626 326.95Q492.6375 326.95 492.325 327.2Q492.0125 327.4344 492.0125 327.7625Q492.0125 327.96564 492.1375 328.1219Q492.27814 328.29376 492.54376 328.40314Q492.7 328.46564 493.48126 328.66876Q494.60626 328.98126 495.04376 329.16876Q495.48126 329.35626 495.73126 329.71564Q495.98126 330.075 495.98126 330.6219Q495.98126 331.15314 495.66876 331.6219Q495.3719 332.075 494.79376 332.34064Q494.21564 332.59064 493.48126 332.59064Q492.2625 332.59064 491.6219 332.09064Q490.9969 331.575 490.825 330.59064ZM498.04376 332.96564L499.075 333.1219Q499.1375 333.59064 499.4344 333.8094Q499.825 334.10626 500.4969 334.10626Q501.23126 334.10626 501.6219 333.8094Q502.02814 333.5125 502.16876 332.9969Q502.2625 332.66876 502.2469 331.6375Q501.5594 332.45 500.52814 332.45Q499.2469 332.45 498.54376 331.52814Q497.84064 330.59064 497.84064 329.3094Q497.84064 328.41876 498.15314 327.66876Q498.48126 326.90314 499.09064 326.4969Q499.7 326.09064 500.52814 326.09064Q501.6375 326.09064 502.35626 326.98126L502.35626 326.23126L503.325 326.23126L503.325 331.60626Q503.325 333.0594 503.02814 333.66876Q502.73126 334.27814 502.09064 334.6219Q501.45 334.98126 500.5125 334.98126Q499.40314 334.98126 498.71564 334.48126Q498.02814 333.98126 498.04376 332.96564ZM498.91876 329.23126Q498.91876 330.45 499.40314 331.0125Q499.8875 331.575 500.6219 331.575Q501.35626 331.575 501.84064 331.0125Q502.34064 330.45 502.34064 329.2625Q502.34064 328.1219 501.825 327.54376Q501.325 326.96564 500.60626 326.96564Q499.90314 326.96564 499.40314 327.54376Q498.91876 328.10626 498.91876 329.23126ZM509.4969 330.45L510.59064 330.575Q510.34064 331.52814 509.6375 332.0594Q508.9344 332.59064 507.85626 332.59064Q506.4969 332.59064 505.6844 331.7469Q504.8875 330.90314 504.8875 329.3875Q504.8875 327.825 505.7 326.96564Q506.5125 326.09064 507.79376 326.09064Q509.04376 326.09064 509.825 326.9344Q510.6219 327.77814 510.6219 329.325Q510.6219 329.41876 510.6219 329.60626L505.98126 329.60626Q506.04376 330.6375 506.5594 331.1844Q507.075 331.71564 507.85626 331.71564Q508.4344 331.71564 508.84064 331.41876Q509.2625 331.10626 509.4969 330.45ZM506.04376 328.7469L509.5125 328.7469Q509.45 327.95 509.1219 327.5594Q508.60626 326.95 507.8094 326.95Q507.075 326.95 506.575 327.4344Q506.09064 327.91876 506.04376 328.7469ZM512.2469 332.45L512.2469 326.23126L513.1844 326.23126L513.1844 327.10626Q513.8719 326.09064 515.16876 326.09064Q515.73126 326.09064 516.2 326.29376Q516.6844 326.4969 516.91876 326.825Q517.15314 327.15314 517.2469 327.59064Q517.29376 327.8875 517.29376 328.6219L517.29376 332.45L516.2469 332.45L516.2469 328.66876Q516.2469 328.0125 516.1219 327.7Q515.9969 327.3875 515.6844 327.2Q515.3719 326.9969 514.95 326.9969Q514.27814 326.9969 513.77814 327.4344Q513.29376 327.85626 513.29376 329.04376L513.29376 332.45L512.2469 332.45ZM523.27814 332.45L523.27814 331.66876Q522.6844 332.59064 521.54376 332.59064Q520.79376 332.59064 520.16876 332.1844Q519.54376 331.7625 519.2 331.02814Q518.85626 330.29376 518.85626 329.34064Q518.85626 328.41876 519.16876 327.65314Q519.48126 326.8875 520.10626 326.4969Q520.73126 326.09064 521.4969 326.09064Q522.0594 326.09064 522.4969 326.325Q522.9344 326.5594 523.21564 326.9344L523.21564 323.85626L524.2625 323.85626L524.2625 332.45L523.27814 332.45ZM519.95 329.34064Q519.95 330.54376 520.45 331.1375Q520.95 331.71564 521.6375 331.71564Q522.325 331.71564 522.8094 331.15314Q523.29376 330.59064 523.29376 329.4344Q523.29376 328.15314 522.79376 327.5594Q522.3094 326.96564 521.59064 326.96564Q520.8875 326.96564 520.41876 327.54376Q519.95 328.10626 519.95 329.34064ZM530.4969 330.45L531.59064 330.575Q531.34064 331.52814 530.6375 332.0594Q529.9344 332.59064 528.85626 332.59064Q527.4969 332.59064 526.6844 331.7469Q525.8875 330.90314 525.8875 329.3875Q525.8875 327.825 526.7 326.96564Q527.5125 326.09064 528.79376 326.09064Q530.04376 326.09064 530.825 326.9344Q531.6219 327.77814 531.6219 329.325Q531.6219 329.41876 531.6219 329.60626L526.98126 329.60626Q527.04376 330.6375 527.5594 331.1844Q528.075 331.71564 528.85626 331.71564Q529.4344 331.71564 529.84064 331.41876Q530.2625 331.10626 530.4969 330.45ZM527.04376 328.7469L530.5125 328.7469Q530.45 327.95 530.1219 327.5594Q529.60626 326.95 528.8094 326.95Q528.075 326.95 527.575 327.4344Q527.09064 327.91876 527.04376 328.7469ZM533.23126 332.45L533.23126 326.23126L534.1844 326.23126L534.1844 327.16876Q534.54376 326.5125 534.84064 326.3094Q535.15314 326.09064 535.52814 326.09064Q536.0594 326.09064 536.60626 326.41876L536.2469 327.40314Q535.85626 327.16876 535.48126 327.16876Q535.1219 327.16876 534.84064 327.3875Q534.575 327.59064 534.46564 327.96564Q534.27814 328.52814 534.27814 329.1844L534.27814 332.45L533.23126 332.45ZM539.45 332.59064L541.9344 323.71564L542.77814 323.71564L540.29376 332.59064L539.45 332.59064Z"/><path fill="#1a1a1a" fill-rule="nonzero" d="M547.5594 330.48126Q547.5594 332.1219 546.66876 333.29376L546.0594 332.4969Q546.7625 331.7 546.7625 330.0594L546.7625 323.3094L547.5125 323.3094Q547.8875 323.35626 547.5594 323.59064L547.5594 330.48126ZM550.8875 332.6844Q551.8719 332.2625 552.85626 331.325L553.46564 332.02814Q553.60626 332.21564 553.27814 332.16876Q552.4344 333.0125 551.21564 333.6219L550.84064 332.77814L550.09064 332.77814L550.09064 323.3094L550.84064 323.3094Q551.21564 323.35626 550.8875 323.59064L550.8875 332.6844ZM555.34064 329.45L552.6219 329.45L552.6219 330.48126L555.34064 330.48126L555.34064 329.45ZM555.34064 327.71564L552.6219 327.71564L552.6219 328.7L555.34064 328.7L555.34064 327.71564ZM555.34064 326.96564L555.34064 326.02814L552.6219 326.02814L552.6219 326.96564L555.34064 326.96564ZM551.40314 324.2L551.40314 323.3094L556.5594 323.3094L556.5594 324.2L554.40314 324.2L554.02814 325.27814L556.1375 325.27814L556.1375 331.23126L551.825 331.23126L551.825 325.27814L553.23126 325.27814L553.41876 324.2L551.40314 324.2ZM555.0125 331.27814Q555.85626 332.16876 556.8875 332.6844L556.41876 333.575Q555.2469 332.96564 554.35626 331.9344L555.0125 331.27814ZM548.40314 332.3094L548.40314 323.96564L549.15314 323.96564Q549.52814 324.0125 549.2 324.2469L549.2 332.3094L548.40314 332.3094ZM563.59064 325.325L564.85626 325.325L564.85626 322.8875L565.7469 322.8875Q566.1219 322.9344 565.79376 323.16876L565.79376 325.325L568.325 325.325L568.325 326.21564L565.79376 326.21564L565.79376 328.46564L568.1844 328.46564L568.1844 329.35626L565.79376 329.35626L565.79376 332.1219L568.8875 332.1219L568.8875 333.0125L561.71564 333.0125L561.71564 332.1219L564.85626 332.1219L564.85626 329.35626L562.5594 329.35626L562.5594 328.46564L564.85626 328.46564L564.85626 326.21564L563.3094 326.21564Q562.98126 327.15314 562.27814 328.09064L561.48126 327.48126Q562.7 325.8875 563.075 323.6375L563.96564 323.825Q564.34064 323.96564 563.96564 324.10626L563.59064 325.325ZM559.60626 322.7469L560.4969 322.7469Q560.8719 322.79376 560.54376 323.02814L560.54376 333.4344L559.60626 333.4344L559.60626 322.7469ZM561.3875 324.66876Q561.8094 325.23126 562.09064 325.9344L561.34064 326.45Q561.0125 325.65314 560.6844 325.1375L561.3875 324.66876ZM559.325 325.1844Q559.65314 325.27814 559.325 325.46564Q559.23126 326.96564 558.90314 328.27814L558.0125 327.9969Q558.3875 326.825 558.4344 325.04376L559.325 325.1844ZM574.9344 329.21564L573.15314 329.21564Q572.73126 331.8875 570.6219 333.4344L570.15314 332.54376Q572.21564 331.09064 572.40314 328.23126L572.4969 326.77814L571.84064 326.77814L571.84064 327.3875L570.90314 327.3875L570.90314 323.35626L575.6375 323.35626L575.6375 327.2L574.7 327.2L574.7 326.77814L573.34064 326.77814L573.2469 328.325L575.8719 328.325L575.6375 332.02814Q575.54376 333.15314 574.7 333.15314L573.4344 333.15314L573.29376 332.2625L574.325 332.2625Q574.7469 332.2625 574.79376 331.79376L574.9344 329.21564ZM579.9969 332.45Q579.9969 333.2469 579.2469 333.2469L578.21564 333.2469L578.02814 332.35626L578.91876 332.35626Q579.0594 332.35626 579.0594 332.21564L579.0594 323.21564L579.95 323.21564Q580.325 323.2625 579.9969 323.4969L579.9969 332.45ZM577.7469 324.34064Q578.1219 324.3875 577.79376 324.6219L577.79376 331.04376L576.85626 331.04376L576.85626 324.34064L577.7469 324.34064ZM574.7 326.02814L574.7 324.10626L571.84064 324.10626L571.84064 326.02814L574.7 326.02814Z"/><path fill="#9e9e9e" fill-rule="nonzero" d="M547.10626 347.46564L548.1219 347.3719Q548.2469 348.09064 548.60626 348.41876Q548.98126 348.73126 549.54376 348.73126Q550.02814 348.73126 550.3875 348.5125Q550.7625 348.27814 550.9969 347.91876Q551.23126 347.54376 551.3875 346.91876Q551.54376 346.27814 551.54376 345.6219Q551.54376 345.54376 551.54376 345.40314Q551.23126 345.90314 550.6844 346.23126Q550.1375 346.54376 549.4969 346.54376Q548.41876 346.54376 547.6844 345.77814Q546.95 344.9969 546.95 343.73126Q546.95 342.41876 547.71564 341.6219Q548.4969 340.825 549.65314 340.825Q550.48126 340.825 551.16876 341.27814Q551.8719 341.73126 552.23126 342.575Q552.59064 343.40314 552.59064 344.98126Q552.59064 346.6219 552.23126 347.60626Q551.8875 348.575 551.16876 349.09064Q550.46564 349.59064 549.52814 349.59064Q548.5125 349.59064 547.8719 349.04376Q547.23126 348.48126 547.10626 347.46564ZM551.41876 343.66876Q551.41876 342.7625 550.9344 342.23126Q550.46564 341.7 549.77814 341.7Q549.075 341.7 548.54376 342.27814Q548.02814 342.84064 548.02814 343.7625Q548.02814 344.575 548.52814 345.09064Q549.02814 345.60626 549.7469 345.60626Q550.48126 345.60626 550.95 345.09064Q551.41876 344.575 551.41876 343.66876ZM557.325 349.45L557.325 347.3875L553.60626 347.3875L553.60626 346.41876L557.52814 340.85626L558.3875 340.85626L558.3875 346.41876L559.54376 346.41876L559.54376 347.3875L558.3875 347.3875L558.3875 349.45L557.325 349.45ZM557.325 346.41876L557.325 342.5594L554.6375 346.41876L557.325 346.41876ZM561.54376 349.45L561.54376 348.2469L562.7469 348.2469L562.7469 349.45L561.54376 349.45ZM567.91876 349.45L566.8719 349.45L566.8719 342.73126Q566.48126 343.09064 565.85626 343.46564Q565.2469 343.825 564.7625 343.9969L564.7625 342.98126Q565.6375 342.5594 566.29376 341.98126Q566.96564 341.3875 567.2469 340.825L567.91876 340.825L567.91876 349.45ZM571.15314 342.91876Q571.15314 341.9969 571.60626 341.35626Q572.075 340.71564 572.95 340.71564Q573.7625 340.71564 574.29376 341.29376Q574.825 341.8719 574.825 342.98126Q574.825 344.075 574.27814 344.66876Q573.7469 345.2469 572.96564 345.2469Q572.1844 345.2469 571.66876 344.66876Q571.15314 344.09064 571.15314 342.91876ZM572.98126 341.4344Q572.59064 341.4344 572.325 341.77814Q572.075 342.1219 572.075 343.02814Q572.075 343.85626 572.325 344.2Q572.59064 344.52814 572.98126 344.52814Q573.3875 344.52814 573.6375 344.1844Q573.90314 343.84064 573.90314 342.95Q573.90314 342.10626 573.6375 341.77814Q573.3719 341.4344 572.98126 341.4344ZM572.98126 349.7625L577.6844 340.71564L578.54376 340.71564L573.85626 349.7625L572.98126 349.7625ZM576.7 347.4344Q576.7 346.5125 577.15314 345.8719Q577.6219 345.23126 578.5125 345.23126Q579.325 345.23126 579.85626 345.8094Q580.3875 346.3719 580.3875 347.4969Q580.3875 348.59064 579.84064 349.1844Q579.3094 349.7625 578.5125 349.7625Q577.7469 349.7625 577.21564 349.1844Q576.7 348.60626 576.7 347.4344ZM578.54376 345.95Q578.1375 345.95 577.8719 346.29376Q577.6219 346.6375 577.6219 347.54376Q577.6219 348.35626 577.8875 348.7Q578.15314 349.04376 578.54376 349.04376Q578.9344 349.04376 579.2 348.7Q579.46564 348.35626 579.46564 347.45Q579.46564 346.6219 579.2 346.29376Q578.9344 345.95 578.54376 345.95Z"/><path fill-rule="nonzero" stroke="#757575" stroke-linecap="butt" stroke-width="1" d="M581.45 336.95L472.95 336.95L329.42834 341.34842"/><path fill="#9e9e9e" fill-rule="nonzero" d="M331.42834 341.34842C331.42834 340.24384 330.5329 339.34842 329.42834 339.34842C328.32376 339.34842 327.42834 340.24384 327.42834 341.34842C327.42834 342.45297 328.32376 343.34842 329.42834 343.34842C330.5329 343.34842 331.42834 342.45297 331.42834 341.34842"/></svg>