<svg version="1.1" viewBox="0.0 0.0 600.0 371.0" fill="none" stroke="none" stroke-linecap="square" stroke-miterlimit="10" width="600" height="371" xmlns:xlink="http://www.w3.org/1999/xlink" xmlns="http://www.w3.org/2000/svg"><path fill="#ffffff" d="M0 0L600.0 0L600.0 371.0L0 371.0L0 0Z" fill-rule="nonzero"/><path fill="#4285f4" d="M300.0 18.55C355.95007 18.55 408.18036 46.576557 439.11365 93.19781C470.04694 139.81905 475.57013 198.83588 453.82443 250.38716L300.0 185.5Z" fill-rule="nonzero"/><path fill="#f07b72" d="M282.72113 19.446566C288.4614 18.849257 294.22876 18.55 300.0 18.55L300.0 185.5Z" fill-rule="nonzero"/><path fill="#7baaf7" d="M255.53748 24.579565C264.4411 22.119486 273.5335 20.402592 282.72113 19.446566L300.0 185.5Z" fill-rule="nonzero"/><path fill="#46bdc6" d="M237.51292 30.685051C243.40013 28.30883 249.41809 26.270357 255.53748 24.579565L300.0 185.5Z" fill-rule="nonzero"/><path fill="#ff6d01" d="M214.28658 42.23273C221.7175 37.78698 229.48305 33.926105 237.51292 30.685051L300.0 185.5Z" fill-rule="nonzero"/><path fill="#34a853" d="M180.4285 68.98839C190.50949 58.642628 201.89056 49.648964 214.28658 42.23273L300.0 185.5Z" fill-rule="nonzero"/><path fill="#fbbc04" d="M149.74455 112.729095C157.55798 96.59614 167.91861 81.826805 180.4285 68.98839L300.0 185.5Z" fill-rule="nonzero"/><path fill="#ea4335" d="M453.82443 250.38716C430.24142 306.29413 378.18213 345.00424 317.85266 351.49274C257.5232 357.9812 198.42308 331.22638 163.49124 281.61276C128.5594 231.99911 123.29623 167.33891 149.74455 112.729095L300.0 185.5Z" fill-rule="nonzero"/><path fill="#000000" d="M400.97638 119.00259L399.742 119.00259L399.742 111.15884Q399.3045 111.58071 398.57013 112.01821Q397.85138 112.44009 397.28888 112.64321L397.28888 111.45571Q398.32013 110.97134 399.08575 110.28384Q399.867 109.59634 400.1795 108.94009L400.97638 108.94009L400.97638 119.00259ZM404.52325 116.69009L405.71075 116.58071Q405.85138 117.40884 406.27325 117.78384Q406.71075 118.15884 407.367 118.15884Q407.9295 118.15884 408.35138 117.90884Q408.78888 117.64321 409.0545 117.20571Q409.33575 116.76821 409.52325 116.03384Q409.71075 115.29946 409.71075 114.53384Q409.71075 114.45571 409.69513 114.28384Q409.33575 114.87759 408.69513 115.25259Q408.0545 115.61196 407.3045 115.61196Q406.0545 115.61196 405.19513 114.70571Q404.33575 113.79946 404.33575 112.33071Q404.33575 110.79946 405.22638 109.87759Q406.13263 108.94009 407.492 108.94009Q408.46075 108.94009 409.27325 109.47134Q410.08575 109.98696 410.50763 110.97134Q410.9295 111.94009 410.9295 113.78384Q410.9295 115.70571 410.50763 116.84634Q410.10138 117.98696 409.27325 118.58071Q408.44513 119.17446 407.33575 119.17446Q406.16388 119.17446 405.41388 118.51821Q404.6795 117.86196 404.52325 116.69009ZM409.5545 112.26821Q409.5545 111.20571 408.992 110.58071Q408.4295 109.95571 407.64825 109.95571Q406.82013 109.95571 406.21075 110.62759Q405.60138 111.29946 405.60138 112.36196Q405.60138 113.31509 406.1795 113.92446Q406.75763 114.51821 407.60138 114.51821Q408.46075 114.51821 409.00763 113.92446Q409.5545 113.31509 409.5545 112.26821ZM412.33575 114.06509Q412.33575 112.28384 412.69513 111.20571Q413.07013 110.11196 413.78888 109.53384Q414.50763 108.94009 415.60138 108.94009Q416.41388 108.94009 417.02325 109.26821Q417.63263 109.59634 418.02325 110.20571Q418.4295 110.81509 418.64825 111.69009Q418.867 112.56509 418.867 114.06509Q418.867 115.83071 418.50763 116.90884Q418.14825 117.98696 417.4295 118.58071Q416.71075 119.17446 415.60138 119.17446Q414.16388 119.17446 413.33575 118.12759Q412.33575 116.87759 412.33575 114.06509ZM413.60138 114.06509Q413.60138 116.53384 414.1795 117.34634Q414.75763 118.15884 415.60138 118.15884Q416.46075 118.15884 417.03888 117.34634Q417.617 116.51821 417.617 114.06509Q417.617 111.58071 417.03888 110.76821Q416.46075 109.95571 415.58575 109.95571Q414.742 109.95571 414.242 110.67446Q413.60138 111.59634 413.60138 114.06509Z" fill-rule="nonzero"/><path fill="#000000" d="M234.2154 307.97845L235.43414 307.80658Q235.6529 308.85345 236.1529 309.3222Q236.66852 309.77533 237.4029 309.77533Q238.2779 309.77533 238.87164 309.18158Q239.4654 308.5722 239.4654 307.68158Q239.4654 306.83783 238.9029 306.29095Q238.35602 305.74408 237.51227 305.74408Q237.1529 305.74408 236.63727 305.86908L236.7779 304.79095Q236.9029 304.80658 236.9654 304.80658Q237.76227 304.80658 238.38727 304.40033Q239.01227 303.99408 239.01227 303.1347Q239.01227 302.46283 238.55914 302.02533Q238.10602 301.5722 237.37164 301.5722Q236.6529 301.5722 236.16852 302.02533Q235.69977 302.46283 235.55914 303.36908L234.3404 303.15033Q234.55914 301.91595 235.35602 301.24408Q236.1529 300.55658 237.3404 300.55658Q238.16852 300.55658 238.85602 300.91595Q239.54352 301.2597 239.9029 301.86908Q240.2779 302.47845 240.2779 303.16595Q240.2779 303.80658 239.93414 304.33783Q239.5904 304.86908 238.9029 305.1972Q239.79352 305.40033 240.2779 306.04095Q240.7779 306.68158 240.7779 307.66595Q240.7779 308.97845 239.80914 309.8847Q238.85602 310.79095 237.4029 310.79095Q236.07477 310.79095 235.19977 310.0097Q234.3404 309.22845 234.2154 307.97845ZM242.19977 305.68158Q242.19977 303.90033 242.55914 302.8222Q242.93414 301.72845 243.6529 301.15033Q244.37164 300.55658 245.4654 300.55658Q246.2779 300.55658 246.88727 300.8847Q247.49664 301.21283 247.88727 301.8222Q248.29352 302.43158 248.51227 303.30658Q248.73102 304.18158 248.73102 305.68158Q248.73102 307.4472 248.37164 308.52533Q248.01227 309.60345 247.29352 310.1972Q246.57477 310.79095 245.4654 310.79095Q244.0279 310.79095 243.19977 309.74408Q242.19977 308.49408 242.19977 305.68158ZM243.4654 305.68158Q243.4654 308.15033 244.04352 308.96283Q244.62164 309.77533 245.4654 309.77533Q246.32477 309.77533 246.9029 308.96283Q247.48102 308.1347 247.48102 305.68158Q247.48102 303.1972 246.9029 302.3847Q246.32477 301.5722 245.44977 301.5722Q244.60602 301.5722 244.10602 302.29095Q243.4654 303.21283 243.4654 305.68158ZM252.0904 305.18158Q251.32477 304.90033 250.94977 304.3847Q250.5904 303.86908 250.5904 303.1347Q250.5904 302.04095 251.37164 301.30658Q252.16852 300.55658 253.4654 300.55658Q254.7779 300.55658 255.57477 301.3222Q256.38727 302.08783 256.38727 303.18158Q256.38727 303.86908 256.01227 304.3847Q255.6529 304.90033 254.9029 305.18158Q255.82477 305.47845 256.30914 306.15033Q256.79352 306.8222 256.79352 307.7597Q256.79352 309.04095 255.88727 309.91595Q254.98102 310.79095 253.49664 310.79095Q252.01227 310.79095 251.0904 309.91595Q250.18414 309.02533 250.18414 307.71283Q250.18414 306.74408 250.68414 306.08783Q251.18414 305.41595 252.0904 305.18158ZM251.85602 303.10345Q251.85602 303.80658 252.30914 304.2597Q252.76227 304.71283 253.49664 304.71283Q254.2154 304.71283 254.66852 304.27533Q255.12164 303.8222 255.12164 303.16595Q255.12164 302.49408 254.6529 302.04095Q254.18414 301.5722 253.48102 301.5722Q252.7779 301.5722 252.30914 302.02533Q251.85602 302.46283 251.85602 303.10345ZM251.44977 307.72845Q251.44977 308.2597 251.69977 308.7597Q251.94977 309.24408 252.43414 309.5097Q252.93414 309.77533 253.51227 309.77533Q254.38727 309.77533 254.94977 309.21283Q255.5279 308.65033 255.5279 307.77533Q255.5279 306.8847 254.93414 306.30658Q254.35602 305.71283 253.4654 305.71283Q252.5904 305.71283 252.01227 306.29095Q251.44977 306.86908 251.44977 307.72845Z" fill-rule="nonzero"/><path fill="#000000" d="M184.1691 111.79992L185.38785 111.628044Q185.6066 112.67492 186.1066 113.14367Q186.62222 113.596794 187.3566 113.596794Q188.2316 113.596794 188.82535 113.003044Q189.4191 112.39367 189.4191 111.503044Q189.4191 110.659294 188.8566 110.11242Q188.30972 109.565544 187.46597 109.565544Q187.1066 109.565544 186.59097 109.690544L186.7316 108.61242Q186.8566 108.628044 186.9191 108.628044Q187.71597 108.628044 188.34097 108.221794Q188.96597 107.815544 188.96597 106.95617Q188.96597 106.284294 188.51285 105.846794Q188.05972 105.39367 187.32535 105.39367Q186.6066 105.39367 186.12222 105.846794Q185.65347 106.284294 185.51285 107.190544L184.2941 106.971794Q184.51285 105.73742 185.30972 105.065544Q186.1066 104.378044 187.2941 104.378044Q188.12222 104.378044 188.80972 104.73742Q189.49722 105.08117 189.8566 105.690544Q190.2316 106.29992 190.2316 106.98742Q190.2316 107.628044 189.88785 108.159294Q189.5441 108.690544 188.8566 109.01867Q189.74722 109.221794 190.2316 109.86242Q190.7316 110.503044 190.7316 111.48742Q190.7316 112.79992 189.76285 113.70617Q188.80972 114.61242 187.3566 114.61242Q186.02847 114.61242 185.15347 113.83117Q184.2941 113.04992 184.1691 111.79992ZM196.7941 114.440544L195.55972 114.440544L195.55972 106.596794Q195.12222 107.01867 194.38785 107.45617Q193.6691 107.878044 193.1066 108.08117L193.1066 106.89367Q194.13785 106.409294 194.90347 105.721794Q195.68472 105.034294 195.99722 104.378044L196.7941 104.378044L196.7941 114.440544Z" fill-rule="nonzero"/><path fill="#000000" d="M217.07304 85.57829L217.07304 86.76579L210.44804 86.76579Q210.43242 86.32829 210.58867 85.90642Q210.8543 85.23454 211.40117 84.57829Q211.96367 83.92204 213.01054 83.06267Q214.65117 81.71892 215.21367 80.93767Q215.7918 80.15642 215.7918 79.45329Q215.7918 78.71892 215.26054 78.21892Q214.74492 77.71892 213.9168 77.71892Q213.02617 77.71892 212.4793 78.25017Q211.94804 78.78142 211.94804 79.73454L210.68242 79.59392Q210.80742 78.18767 211.65117 77.45329Q212.51054 76.70329 213.93242 76.70329Q215.38554 76.70329 216.21367 77.50017Q217.05742 78.29704 217.05742 79.48454Q217.05742 80.09392 216.80742 80.67204Q216.57304 81.25017 215.99492 81.89079Q215.43242 82.53142 214.1043 83.65642Q212.99492 84.57829 212.68242 84.92204Q212.36992 85.25017 212.1668 85.57829L217.07304 85.57829ZM218.6043 84.14079L219.90117 84.03142Q220.0418 84.96892 220.55742 85.45329Q221.08867 85.92204 221.82304 85.92204Q222.71367 85.92204 223.32304 85.25017Q223.94804 84.57829 223.94804 83.48454Q223.94804 82.42204 223.3543 81.81267Q222.76054 81.20329 221.80742 81.20329Q221.21367 81.20329 220.7293 81.48454Q220.26054 81.75017 219.9793 82.17204L218.82304 82.03142L219.7918 76.87517L224.77617 76.87517L224.77617 78.06267L220.77617 78.06267L220.24492 80.75017Q221.15117 80.12517 222.13554 80.12517Q223.44804 80.12517 224.33867 81.03142Q225.24492 81.93767 225.24492 83.37517Q225.24492 84.73454 224.46367 85.71892Q223.49492 86.93767 221.82304 86.93767Q220.46367 86.93767 219.58867 86.17204Q218.7293 85.40642 218.6043 84.14079Z" fill-rule="nonzero"/><path fill="#000000" d="M271.81036 55.940636L270.576 55.940636L270.576 48.096886Q270.1385 48.51876 269.4041 48.95626Q268.68536 49.378136 268.12286 49.58126L268.12286 48.39376Q269.1541 47.909386 269.91974 47.221886Q270.701 46.534386 271.0135 45.878136L271.81036 45.878136L271.81036 55.940636ZM281.56036 48.378136L280.3416 48.471886Q280.16974 47.73751 279.87286 47.409386Q279.37286 46.89376 278.6385 46.89376Q278.04474 46.89376 277.60724 47.221886Q277.0291 47.64376 276.68536 48.45626Q276.35724 49.26876 276.3416 50.76876Q276.7791 50.096886 277.41974 49.76876Q278.076 49.440636 278.7791 49.440636Q280.0135 49.440636 280.87286 50.346886Q281.73224 51.253136 281.73224 52.690636Q281.73224 53.628136 281.326 54.440636Q280.91974 55.253136 280.201 55.690636Q279.49786 56.11251 278.5916 56.11251Q277.06036 56.11251 276.0916 54.98751Q275.12286 53.846886 275.12286 51.253136Q275.12286 48.346886 276.18536 47.01876Q277.12286 45.878136 278.7166 45.878136Q279.9041 45.878136 280.6541 46.55001Q281.4041 47.20626 281.56036 48.378136ZM276.5291 52.690636Q276.5291 53.33126 276.79474 53.909386Q277.076 54.48751 277.56036 54.80001Q278.04474 55.096886 278.576 55.096886Q279.35724 55.096886 279.91974 54.471886Q280.48224 53.846886 280.48224 52.76876Q280.48224 51.721886 279.91974 51.128136Q279.37286 50.51876 278.5291 50.51876Q277.701 50.51876 277.10724 51.128136Q276.5291 51.721886 276.5291 52.690636Z" fill-rule="nonzero"/><path fill="#1a1a1a" d="M19.471874 29.55L19.471874 20.95625L20.628124 20.95625L25.14375 27.70625L25.14375 20.95625L26.2375 20.95625L26.2375 29.55L25.065624 29.55L20.55 22.8L20.55 29.55L19.471874 29.55ZM28.05 27.284374L29.1125 27.14375Q29.284374 28.034374 29.721874 28.440624Q30.159374 28.83125 30.784374 28.83125Q31.534374 28.83125 32.05 28.315624Q32.565624 27.8 32.565624 27.034374Q32.565624 26.315624 32.08125 25.846874Q31.6125 25.3625 30.878124 25.3625Q30.58125 25.3625 30.128124 25.4875L30.253124 24.55Q30.3625 24.565624 30.425 24.565624Q31.096874 24.565624 31.628124 24.221874Q32.175 23.8625 32.175 23.128124Q32.175 22.55 31.784374 22.175Q31.39375 21.784374 30.76875 21.784374Q30.159374 21.784374 29.7375 22.175Q29.33125 22.565624 29.221874 23.33125L28.159374 23.14375Q28.346874 22.096874 29.034374 21.51875Q29.721874 20.925 30.7375 20.925Q31.440624 20.925 32.034374 21.2375Q32.628124 21.534374 32.940624 22.05Q33.253124 22.565624 33.253124 23.159374Q33.253124 23.70625 32.95625 24.175Q32.659374 24.628124 32.08125 24.89375Q32.83125 25.065624 33.253124 25.628124Q33.675 26.175 33.675 27.01875Q33.675 28.14375 32.846874 28.925Q32.034374 29.70625 30.784374 29.70625Q29.659374 29.70625 28.909374 29.034374Q28.159374 28.346874 28.05 27.284374ZM38.425 29.55L38.425 20.95625L39.565624 20.95625L39.565624 28.534374L43.8 28.534374L43.8 29.55L38.425 29.55ZM49.596874 27.55L50.690624 27.675Q50.440624 28.628124 49.7375 29.159374Q49.034374 29.690624 47.95625 29.690624Q46.596874 29.690624 45.784374 28.846874Q44.9875 28.003124 44.9875 26.4875Q44.9875 24.925 45.8 24.065624Q46.6125 23.190624 47.89375 23.190624Q49.14375 23.190624 49.925 24.034374Q50.721874 24.878124 50.721874 26.425Q50.721874 26.51875 50.721874 26.70625L46.08125 26.70625Q46.14375 27.7375 46.659374 28.284374Q47.175 28.815624 47.95625 28.815624Q48.534374 28.815624 48.940624 28.51875Q49.3625 28.20625 49.596874 27.55ZM46.14375 25.846874L49.6125 25.846874Q49.55 25.05 49.221874 24.659374Q48.70625 24.05 47.909374 24.05Q47.175 24.05 46.675 24.534374Q46.190624 25.01875 46.14375 25.846874ZM54.065624 29.55L51.70625 23.33125L52.815624 23.33125L54.159374 27.05Q54.3625 27.659374 54.55 28.3Q54.690624 27.815624 54.940624 27.128124L56.33125 23.33125L57.409374 23.33125L55.05 29.55L54.065624 29.55ZM61.596874 27.55L62.690624 27.675Q62.440624 28.628124 61.7375 29.159374Q61.034374 29.690624 59.95625 29.690624Q58.596874 29.690624 57.784374 28.846874Q56.9875 28.003124 56.9875 26.4875Q56.9875 24.925 57.8 24.065624Q58.6125 23.190624 59.89375 23.190624Q61.14375 23.190624 61.925 24.034374Q62.721874 24.878124 62.721874 26.425Q62.721874 26.51875 62.721874 26.70625L58.08125 26.70625Q58.14375 27.7375 58.659374 28.284374Q59.175 28.815624 59.95625 28.815624Q60.534374 28.815624 60.940624 28.51875Q61.3625 28.20625 61.596874 27.55ZM58.14375 25.846874L61.6125 25.846874Q61.55 25.05 61.221874 24.659374Q60.70625 24.05 59.909374 24.05Q59.175 24.05 58.675 24.534374Q58.190624 25.01875 58.14375 25.846874ZM64.31563 29.55L64.31563 20.95625L65.37813 20.95625L65.37813 29.55L64.31563 29.55Z" fill-rule="nonzero"/><path fill="#9e9e9e" d="M24.596874 45.534374L24.596874 46.55L18.909374 46.55Q18.909374 46.175 19.034374 45.815624Q19.253124 45.2375 19.721874 44.675Q20.20625 44.1125 21.1125 43.378124Q22.51875 42.221874 23.003124 41.55Q23.503124 40.878124 23.503124 40.284374Q23.503124 39.659374 23.05 39.2375Q22.596874 38.8 21.878124 38.8Q21.1125 38.8 20.659374 39.253124Q20.20625 39.70625 20.190624 40.51875L19.1125 40.409374Q19.221874 39.190624 19.940624 38.565624Q20.675 37.925 21.909374 37.925Q23.14375 37.925 23.8625 38.6125Q24.58125 39.3 24.58125 40.315624Q24.58125 40.83125 24.3625 41.33125Q24.159374 41.815624 23.659374 42.378124Q23.175 42.925 22.05 43.878124Q21.096874 44.675 20.815624 44.971874Q20.55 45.253124 20.378124 45.534374L24.596874 45.534374ZM26.64375 46.55L26.64375 45.346874L27.846874 45.346874L27.846874 46.55L26.64375 46.55ZM34.51875 40.065624L33.471874 40.14375Q33.33125 39.51875 33.08125 39.2375Q32.64375 38.784374 32.01875 38.784374Q31.51875 38.784374 31.128124 39.065624Q30.64375 39.440624 30.346874 40.14375Q30.065624 40.83125 30.05 42.1125Q30.425 41.534374 30.971874 41.253124Q31.534374 40.971874 32.14375 40.971874Q33.190624 40.971874 33.925 41.753124Q34.675 42.534374 34.675 43.753124Q34.675 44.565624 34.315624 45.26875Q33.971874 45.95625 33.3625 46.33125Q32.753124 46.690624 31.9875 46.690624Q30.659374 46.690624 29.83125 45.721874Q29.003124 44.753124 29.003124 42.534374Q29.003124 40.034374 29.925 38.909374Q30.721874 37.925 32.08125 37.925Q33.096874 37.925 33.7375 38.503124Q34.39375 39.065624 34.51875 40.065624ZM30.221874 43.76875Q30.221874 44.315624 30.440624 44.815624Q30.675 45.3 31.08125 45.565624Q31.503124 45.83125 31.971874 45.83125Q32.628124 45.83125 33.1125 45.3Q33.596874 44.753124 33.596874 43.83125Q33.596874 42.940624 33.1125 42.425Q32.64375 41.909374 31.925 41.909374Q31.20625 41.909374 30.70625 42.425Q30.221874 42.940624 30.221874 43.76875ZM36.253124 40.01875Q36.253124 39.096874 36.70625 38.45625Q37.175 37.815624 38.05 37.815624Q38.8625 37.815624 39.39375 38.39375Q39.925 38.971874 39.925 40.08125Q39.925 41.175 39.378124 41.76875Q38.846874 42.346874 38.065624 42.346874Q37.284374 42.346874 36.76875 41.76875Q36.253124 41.190624 36.253124 40.01875ZM38.08125 38.534374Q37.690624 38.534374 37.425 38.878124Q37.175 39.221874 37.175 40.128124Q37.175 40.95625 37.425 41.3Q37.690624 41.628124 38.08125 41.628124Q38.4875 41.628124 38.7375 41.284374Q39.003124 40.940624 39.003124 40.05Q39.003124 39.20625 38.7375 38.878124Q38.471874 38.534374 38.08125 38.534374ZM38.08125 46.8625L42.784374 37.815624L43.64375 37.815624L38.95625 46.8625L38.08125 46.8625ZM41.8 44.534374Q41.8 43.6125 42.253124 42.971874Q42.721874 42.33125 43.6125 42.33125Q44.425 42.33125 44.95625 42.909374Q45.4875 43.471874 45.4875 44.596874Q45.4875 45.690624 44.940624 46.284374Q44.409374 46.8625 43.6125 46.8625Q42.846874 46.8625 42.315624 46.284374Q41.8 45.70625 41.8 44.534374ZM43.64375 43.05Q43.2375 43.05 42.971874 43.39375Q42.721874 43.7375 42.721874 44.64375Q42.721874 45.45625 42.9875 45.8Q43.253124 46.14375 43.64375 46.14375Q44.034374 46.14375 44.3 45.8Q44.565624 45.45625 44.565624 44.55Q44.565624 43.721874 44.3 43.39375Q44.034374 43.05 43.64375 43.05Z" fill-rule="nonzero"/><path stroke="#757575" stroke-width="1.0" stroke-linecap="butt" d="M18.55 34.05L127.05 34.05L270.57166 29.651592" fill-rule="nonzero"/><path fill="#9e9e9e" d="M272.57166 29.651592C272.57166 28.547024 271.67624 27.651592 270.57166 27.651592C269.4671 27.651592 268.57166 28.547024 268.57166 29.651592C268.57166 30.756163 269.4671 31.651592 270.57166 31.651592C271.67624 31.651592 272.57166 30.756163 272.57166 29.651592" fill-rule="nonzero"/><path fill="#1a1a1a" d="M19.471874 60.55L19.471874 51.95625L20.628124 51.95625L25.14375 58.70625L25.14375 51.95625L26.2375 51.95625L26.2375 60.55L25.065624 60.55L20.55 53.8L20.55 60.55L19.471874 60.55ZM33.596874 59.534374L33.596874 60.55L27.909374 60.55Q27.909374 60.175 28.034374 59.815624Q28.253124 59.2375 28.721874 58.675Q29.20625 58.1125 30.1125 57.378124Q31.51875 56.221874 32.003124 55.55Q32.503124 54.878124 32.503124 54.284374Q32.503124 53.659374 32.05 53.2375Q31.596874 52.8 30.878124 52.8Q30.1125 52.8 29.659374 53.253124Q29.20625 53.70625 29.190624 54.51875L28.1125 54.409374Q28.221874 53.190624 28.940624 52.565624Q29.675 51.925 30.909374 51.925Q32.14375 51.925 32.8625 52.6125Q33.58125 53.3 33.58125 54.315624Q33.58125 54.83125 33.3625 55.33125Q33.159374 55.815624 32.659374 56.378124Q32.175 56.925 31.05 57.878124Q30.096874 58.675 29.815624 58.971874Q29.55 59.253124 29.378124 59.534374L33.596874 59.534374ZM38.425 60.55L38.425 51.95625L39.565624 51.95625L39.565624 59.534374L43.8 59.534374L43.8 60.55L38.425 60.55ZM49.596874 58.55L50.690624 58.675Q50.440624 59.628124 49.7375 60.159374Q49.034374 60.690624 47.95625 60.690624Q46.596874 60.690624 45.784374 59.846874Q44.9875 59.003124 44.9875 57.4875Q44.9875 55.925 45.8 55.065624Q46.6125 54.190624 47.89375 54.190624Q49.14375 54.190624 49.925 55.034374Q50.721874 55.878124 50.721874 57.425Q50.721874 57.51875 50.721874 57.70625L46.08125 57.70625Q46.14375 58.7375 46.659374 59.284374Q47.175 59.815624 47.95625 59.815624Q48.534374 59.815624 48.940624 59.51875Q49.3625 59.20625 49.596874 58.55ZM46.14375 56.846874L49.6125 56.846874Q49.55 56.05 49.221874 55.659374Q48.70625 55.05 47.909374 55.05Q47.175 55.05 46.675 55.534374Q46.190624 56.01875 46.14375 56.846874ZM54.065624 60.55L51.70625 54.33125L52.815624 54.33125L54.159374 58.05Q54.3625 58.659374 54.55 59.3Q54.690624 58.815624 54.940624 58.128124L56.33125 54.33125L57.409374 54.33125L55.05 60.55L54.065624 60.55ZM61.596874 58.55L62.690624 58.675Q62.440624 59.628124 61.7375 60.159374Q61.034374 60.690624 59.95625 60.690624Q58.596874 60.690624 57.784374 59.846874Q56.9875 59.003124 56.9875 57.4875Q56.9875 55.925 57.8 55.065624Q58.6125 54.190624 59.89375 54.190624Q61.14375 54.190624 61.925 55.034374Q62.721874 55.878124 62.721874 57.425Q62.721874 57.51875 62.721874 57.70625L58.08125 57.70625Q58.14375 58.7375 58.659374 59.284374Q59.175 59.815624 59.95625 59.815624Q60.534374 59.815624 60.940624 59.51875Q61.3625 59.20625 61.596874 58.55ZM58.14375 56.846874L61.6125 56.846874Q61.55 56.05 61.221874 55.659374Q60.70625 55.05 59.909374 55.05Q59.175 55.05 58.675 55.534374Q58.190624 56.01875 58.14375 56.846874ZM64.31563 60.55L64.31563 51.95625L65.37813 51.95625L65.37813 60.55L64.31563 60.55Z" fill-rule="nonzero"/><path fill="#9e9e9e" d="M24.596874 76.53438L24.596874 77.55L18.909374 77.55Q18.909374 77.175 19.034374 76.81563Q19.253124 76.2375 19.721874 75.675Q20.20625 75.1125 21.1125 74.37813Q22.51875 73.22188 23.003124 72.55Q23.503124 71.87813 23.503124 71.28438Q23.503124 70.65938 23.05 70.2375Q22.596874 69.8 21.878124 69.8Q21.1125 69.8 20.659374 70.25313Q20.20625 70.70625 20.190624 71.51875L19.1125 71.40938Q19.221874 70.19063 19.940624 69.56563Q20.675 68.925 21.909374 68.925Q23.14375 68.925 23.8625 69.6125Q24.58125 70.3 24.58125 71.31563Q24.58125 71.83125 24.3625 72.33125Q24.159374 72.81563 23.659374 73.37813Q23.175 73.925 22.05 74.87813Q21.096874 75.675 20.815624 75.97188Q20.55 76.25313 20.378124 76.53438L24.596874 76.53438ZM26.64375 77.55L26.64375 76.34688L27.846874 76.34688L27.846874 77.55L26.64375 77.55ZM29.05 75.3L30.159374 75.20625Q30.284374 76.01875 30.721874 76.425Q31.175 76.83125 31.815624 76.83125Q32.565624 76.83125 33.096874 76.25313Q33.628124 75.675 33.628124 74.7375Q33.628124 73.83125 33.1125 73.31563Q32.6125 72.78438 31.784374 72.78438Q31.284374 72.78438 30.8625 73.01875Q30.45625 73.25313 30.221874 73.6125L29.2375 73.4875L30.065624 69.08125L34.346874 69.08125L34.346874 70.08125L30.909374 70.08125L30.45625 72.39375Q31.221874 71.84688 32.065624 71.84688Q33.190624 71.84688 33.95625 72.62813Q34.7375 73.40938 34.7375 74.64375Q34.7375 75.8 34.065624 76.65938Q33.2375 77.69063 31.815624 77.69063Q30.64375 77.69063 29.89375 77.03438Q29.159374 76.37813 29.05 75.3ZM36.253124 71.01875Q36.253124 70.09688 36.70625 69.45625Q37.175 68.81563 38.05 68.81563Q38.8625 68.81563 39.39375 69.39375Q39.925 69.97188 39.925 71.08125Q39.925 72.175 39.378124 72.76875Q38.846874 73.34688 38.065624 73.34688Q37.284374 73.34688 36.76875 72.76875Q36.253124 72.19063 36.253124 71.01875ZM38.08125 69.53438Q37.690624 69.53438 37.425 69.87813Q37.175 70.22188 37.175 71.12813Q37.175 71.95625 37.425 72.3Q37.690624 72.62813 38.08125 72.62813Q38.4875 72.62813 38.7375 72.28438Q39.003124 71.94063 39.003124 71.05Q39.003124 70.20625 38.7375 69.87813Q38.471874 69.53438 38.08125 69.53438ZM38.08125 77.8625L42.784374 68.81563L43.64375 68.81563L38.95625 77.8625L38.08125 77.8625ZM41.8 75.53438Q41.8 74.6125 42.253124 73.97188Q42.721874 73.33125 43.6125 73.33125Q44.425 73.33125 44.95625 73.90938Q45.4875 74.47188 45.4875 75.59688Q45.4875 76.69063 44.940624 77.28438Q44.409374 77.8625 43.6125 77.8625Q42.846874 77.8625 42.315624 77.28438Q41.8 76.70625 41.8 75.53438ZM43.64375 74.05Q43.2375 74.05 42.971874 74.39375Q42.721874 74.7375 42.721874 75.64375Q42.721874 76.45625 42.9875 76.8Q43.253124 77.14375 43.64375 77.14375Q44.034374 77.14375 44.3 76.8Q44.565624 76.45625 44.565624 75.55Q44.565624 74.72188 44.3 74.39375Q44.034374 74.05 43.64375 74.05Z" fill-rule="nonzero"/><path stroke="#757575" stroke-width="1.0" stroke-linecap="butt" d="M18.55 65.05L127.05 65.05L229.39139 43.481773" fill-rule="nonzero"/><path fill="#9e9e9e" d="M231.39139 43.481773C231.39139 42.377205 230.49596 41.481773 229.39139 41.481773C228.28682 41.481773 227.39139 42.377205 227.39139 43.481773C227.39139 44.58634 228.28682 45.481773 229.39139 45.481773C230.49596 45.481773 231.39139 44.58634 231.39139 43.481773" fill-rule="nonzero"/><path fill="#1a1a1a" d="M19.471874 91.55L19.471874 82.95625L20.628124 82.95625L25.14375 89.70625L25.14375 82.95625L26.2375 82.95625L26.2375 91.55L25.065624 91.55L20.55 84.8L20.55 91.55L19.471874 91.55ZM32.409374 90.78438Q31.815624 91.28438 31.26875 91.4875Q30.7375 91.69063 30.1125 91.69063Q29.08125 91.69063 28.534374 91.19063Q27.9875 90.69063 27.9875 89.90938Q27.9875 89.45625 28.190624 89.08125Q28.39375 88.69063 28.7375 88.47188Q29.08125 88.2375 29.503124 88.12813Q29.8 88.03438 30.440624 87.95625Q31.70625 87.81563 32.315624 87.59688Q32.315624 87.37813 32.315624 87.33125Q32.315624 86.675 32.01875 86.40938Q31.6125 86.06563 30.815624 86.06563Q30.08125 86.06563 29.721874 86.33125Q29.3625 86.58125 29.190624 87.2375L28.159374 87.09688Q28.3 86.44063 28.628124 86.03438Q28.95625 85.62813 29.565624 85.40938Q30.175 85.19063 30.971874 85.19063Q31.76875 85.19063 32.26875 85.37813Q32.76875 85.56563 33.003124 85.84688Q33.2375 86.12813 33.33125 86.56563Q33.378124 86.83125 33.378124 87.53438L33.378124 88.94063Q33.378124 90.40938 33.440624 90.8Q33.51875 91.19063 33.721874 91.55L32.6125 91.55Q32.45625 91.22188 32.409374 90.78438ZM32.315624 88.425Q31.7375 88.65938 30.596874 88.83125Q29.940624 88.925 29.675 89.05Q29.409374 89.15938 29.253124 89.37813Q29.1125 89.59688 29.1125 89.87813Q29.1125 90.3 29.425 90.58125Q29.753124 90.8625 30.3625 90.8625Q30.971874 90.8625 31.440624 90.59688Q31.925 90.33125 32.14375 89.8625Q32.315624 89.50313 32.315624 88.81563L32.315624 88.425ZM37.64375 90.6125L37.8 91.53438Q37.346874 91.62813 37.003124 91.62813Q36.425 91.62813 36.1125 91.45625Q35.8 91.26875 35.659374 90.97188Q35.534374 90.675 35.534374 89.72188L35.534374 86.14375L34.76875 86.14375L34.76875 85.33125L35.534374 85.33125L35.534374 83.78438L36.58125 83.15938L36.58125 85.33125L37.64375 85.33125L37.64375 86.14375L36.58125 86.14375L36.58125 89.78438Q36.58125 90.2375 36.628124 90.3625Q36.690624 90.4875 36.815624 90.56563Q36.940624 90.64375 37.175 90.64375Q37.3625 90.64375 37.64375 90.6125ZM38.346874 84.175L38.346874 82.95625L39.409374 82.95625L39.409374 84.175L38.346874 84.175ZM38.346874 91.55L38.346874 85.33125L39.409374 85.33125L39.409374 91.55L38.346874 91.55ZM43.065624 91.55L40.70625 85.33125L41.815624 85.33125L43.159374 89.05Q43.3625 89.65938 43.55 90.3Q43.690624 89.81563 43.940624 89.12813L45.33125 85.33125L46.409374 85.33125L44.05 91.55L43.065624 91.55ZM50.596874 89.55L51.690624 89.675Q51.440624 90.62813 50.7375 91.15938Q50.034374 91.69063 48.95625 91.69063Q47.596874 91.69063 46.784374 90.84688Q45.9875 90.00313 45.9875 88.4875Q45.9875 86.925 46.8 86.06563Q47.6125 85.19063 48.89375 85.19063Q50.14375 85.19063 50.925 86.03438Q51.721874 86.87813 51.721874 88.425Q51.721874 88.51875 51.721874 88.70625L47.08125 88.70625Q47.14375 89.7375 47.659374 90.28438Q48.175 90.81563 48.95625 90.81563Q49.534374 90.81563 49.940624 90.51875Q50.3625 90.20625 50.596874 89.55ZM47.14375 87.84688L50.6125 87.84688Q50.55 87.05 50.221874 86.65938Q49.70625 86.05 48.909374 86.05Q48.175 86.05 47.675 86.53438Q47.190624 87.01875 47.14375 87.84688ZM55.925 89.69063L56.95625 89.53438Q57.05 90.15938 57.440624 90.4875Q57.846874 90.81563 58.58125 90.81563Q59.3 90.81563 59.64375 90.53438Q60.003124 90.2375 60.003124 89.83125Q60.003124 89.47188 59.690624 89.26875Q59.471874 89.12813 58.6125 88.90938Q57.45625 88.6125 57.003124 88.40938Q56.565624 88.19063 56.33125 87.81563Q56.096874 87.44063 56.096874 86.97188Q56.096874 86.56563 56.284374 86.20625Q56.471874 85.84688 56.8 85.6125Q57.05 85.44063 57.471874 85.31563Q57.89375 85.19063 58.39375 85.19063Q59.1125 85.19063 59.659374 85.40938Q60.221874 85.6125 60.4875 85.97188Q60.753124 86.33125 60.846874 86.925L59.815624 87.06563Q59.753124 86.59688 59.409374 86.33125Q59.08125 86.05 58.45625 86.05Q57.7375 86.05 57.425 86.3Q57.1125 86.53438 57.1125 86.8625Q57.1125 87.06563 57.2375 87.22188Q57.378124 87.39375 57.64375 87.50313Q57.8 87.56563 58.58125 87.76875Q59.70625 88.08125 60.14375 88.26875Q60.58125 88.45625 60.83125 88.81563Q61.08125 89.175 61.08125 89.72188Q61.08125 90.25313 60.76875 90.72188Q60.471874 91.175 59.89375 91.44063Q59.315624 91.69063 58.58125 91.69063Q57.3625 91.69063 56.721874 91.19063Q56.096874 90.675 55.925 89.69063ZM63.346874 93.94063L63.346874 85.33125L64.3 85.33125L64.3 86.12813Q64.64375 85.65938 65.06563 85.425Q65.50313 85.19063 66.1125 85.19063Q66.90938 85.19063 67.51875 85.59688Q68.12813 86.00313 68.425 86.75313Q68.7375 87.50313 68.7375 88.39375Q68.7375 89.34688 68.39375 90.1125Q68.06563 90.87813 67.40938 91.28438Q66.75313 91.69063 66.03438 91.69063Q65.50313 91.69063 65.08125 91.47188Q64.65938 91.2375 64.39375 90.90938L64.39375 93.94063L63.346874 93.94063ZM64.3 88.47188Q64.3 89.675 64.78438 90.25313Q65.26875 90.81563 65.95625 90.81563Q66.65938 90.81563 67.15938 90.22188Q67.65938 89.62813 67.65938 88.37813Q67.65938 87.19063 67.175 86.6125Q66.69063 86.01875 66.00313 86.01875Q65.33125 86.01875 64.81563 86.64375Q64.3 87.26875 64.3 88.47188ZM74.59688 89.55L75.69063 89.675Q75.44063 90.62813 74.7375 91.15938Q74.03438 91.69063 72.95625 91.69063Q71.59688 91.69063 70.78438 90.84688Q69.9875 90.00313 69.9875 88.4875Q69.9875 86.925 70.8 86.06563Q71.6125 85.19063 72.89375 85.19063Q74.14375 85.19063 74.925 86.03438Q75.72188 86.87813 75.72188 88.425Q75.72188 88.51875 75.72188 88.70625L71.08125 88.70625Q71.14375 89.7375 71.65938 90.28438Q72.175 90.81563 72.95625 90.81563Q73.53438 90.81563 73.94063 90.51875Q74.3625 90.20625 74.59688 89.55ZM71.14375 87.84688L74.6125 87.84688Q74.55 87.05 74.22188 86.65938Q73.70625 86.05 72.90938 86.05Q72.175 86.05 71.675 86.53438Q71.19063 87.01875 71.14375 87.84688ZM81.40938 90.78438Q80.81563 91.28438 80.26875 91.4875Q79.7375 91.69063 79.1125 91.69063Q78.08125 91.69063 77.53438 91.19063Q76.9875 90.69063 76.9875 89.90938Q76.9875 89.45625 77.19063 89.08125Q77.39375 88.69063 77.7375 88.47188Q78.08125 88.2375 78.50313 88.12813Q78.8 88.03438 79.44063 87.95625Q80.70625 87.81563 81.31563 87.59688Q81.31563 87.37813 81.31563 87.33125Q81.31563 86.675 81.01875 86.40938Q80.6125 86.06563 79.81563 86.06563Q79.08125 86.06563 78.72188 86.33125Q78.3625 86.58125 78.19063 87.2375L77.15938 87.09688Q77.3 86.44063 77.62813 86.03438Q77.95625 85.62813 78.56563 85.40938Q79.175 85.19063 79.97188 85.19063Q80.76875 85.19063 81.26875 85.37813Q81.76875 85.56563 82.00313 85.84688Q82.2375 86.12813 82.33125 86.56563Q82.37813 86.83125 82.37813 87.53438L82.37813 88.94063Q82.37813 90.40938 82.44063 90.8Q82.51875 91.19063 82.72188 91.55L81.6125 91.55Q81.45625 91.22188 81.40938 90.78438ZM81.31563 88.425Q80.7375 88.65938 79.59688 88.83125Q78.94063 88.925 78.675 89.05Q78.40938 89.15938 78.25313 89.37813Q78.1125 89.59688 78.1125 89.87813Q78.1125 90.3 78.425 90.58125Q78.75313 90.8625 79.3625 90.8625Q79.97188 90.8625 80.44063 90.59688Q80.925 90.33125 81.14375 89.8625Q81.31563 89.50313 81.31563 88.81563L81.31563 88.425ZM84.34688 91.55L84.34688 82.95625L85.40938 82.95625L85.40938 87.8625L87.89375 85.33125L89.26875 85.33125L86.87813 87.62813L89.50313 91.55L88.20625 91.55L86.14375 88.3625L85.40938 89.08125L85.40938 91.55L84.34688 91.55ZM94.59688 89.55L95.69063 89.675Q95.44063 90.62813 94.7375 91.15938Q94.03438 91.69063 92.95625 91.69063Q91.59688 91.69063 90.78438 90.84688Q89.9875 90.00313 89.9875 88.4875Q89.9875 86.925 90.8 86.06563Q91.6125 85.19063 92.89375 85.19063Q94.14375 85.19063 94.925 86.03438Q95.72188 86.87813 95.72188 88.425Q95.72188 88.51875 95.72188 88.70625L91.08125 88.70625Q91.14375 89.7375 91.65938 90.28438Q92.175 90.81563 92.95625 90.81563Q93.53438 90.81563 93.94063 90.51875Q94.3625 90.20625 94.59688 89.55ZM91.14375 87.84688L94.6125 87.84688Q94.55 87.05 94.22188 86.65938Q93.70625 86.05 92.90938 86.05Q92.175 86.05 91.675 86.53438Q91.19063 87.01875 91.14375 87.84688ZM97.33125 91.55L97.33125 85.33125L98.28438 85.33125L98.28438 86.26875Q98.64375 85.6125 98.94063 85.40938Q99.25313 85.19063 99.62813 85.19063Q100.15938 85.19063 100.70625 85.51875L100.34688 86.50313Q99.95625 86.26875 99.58125 86.26875Q99.22188 86.26875 98.94063 86.4875Q98.675 86.69063 98.56563 87.06563Q98.37813 87.62813 98.37813 88.28438L98.37813 91.55L97.33125 91.55ZM103.55 91.69063L106.03438 82.81563L106.87813 82.81563L104.39375 91.69063L103.55 91.69063Z" fill-rule="nonzero"/><path fill="#1a1a1a" d="M116.34688 92.44063L116.20625 91.55L117.37813 91.55Q117.89375 91.55 117.94063 90.84688L112.175 90.84688L112.03438 91.7375L111.05 91.64375L111.70625 87.05L110.20625 87.05L110.20625 86.15938L111.8 86.15938L112.08125 82.50313L119.25313 82.50313L119.15938 86.15938L120.94063 86.15938L120.94063 87.05L119.20625 87.05L119.01875 89.95625L120.6125 89.95625L120.6125 90.84688L118.925 90.84688Q118.78438 92.44063 117.56563 92.44063L116.34688 92.44063ZM112.31563 89.95625L118.03438 89.95625L118.22188 87.05L112.69063 87.05L112.31563 89.95625ZM115.97188 89.53438Q115.175 88.83125 114.09688 88.22188L114.70625 87.33125Q115.69063 87.70625 116.62813 88.55L115.97188 89.53438ZM118.26875 86.15938L118.31563 83.39375L113.01875 83.39375L112.78438 86.15938L118.26875 86.15938ZM116.15938 85.78438Q115.40938 85.03438 114.37813 84.56563L114.94063 83.675Q116.20625 84.2375 116.81563 84.89375L116.15938 85.78438Z" fill-rule="nonzero"/><path fill="#9e9e9e" d="M22.425 108.55L22.425 106.4875L18.70625 106.4875L18.70625 105.51875L22.628124 99.95625L23.4875 99.95625L23.4875 105.51875L24.64375 105.51875L24.64375 106.4875L23.4875 106.4875L23.4875 108.55L22.425 108.55ZM22.425 105.51875L22.425 101.65938L19.7375 105.51875L22.425 105.51875ZM26.64375 108.55L26.64375 107.34688L27.846874 107.34688L27.846874 108.55L26.64375 108.55ZM33.01875 108.55L31.971874 108.55L31.971874 101.83125Q31.58125 102.19063 30.95625 102.56563Q30.346874 102.925 29.8625 103.09688L29.8625 102.08125Q30.7375 101.65938 31.39375 101.08125Q32.065624 100.4875 32.346874 99.925L33.01875 99.925L33.01875 108.55ZM36.253124 102.01875Q36.253124 101.09688 36.70625 100.45625Q37.175 99.81563 38.05 99.81563Q38.8625 99.81563 39.39375 100.39375Q39.925 100.97188 39.925 102.08125Q39.925 103.175 39.378124 103.76875Q38.846874 104.34688 38.065624 104.34688Q37.284374 104.34688 36.76875 103.76875Q36.253124 103.19063 36.253124 102.01875ZM38.08125 100.53438Q37.690624 100.53438 37.425 100.87813Q37.175 101.22188 37.175 102.12813Q37.175 102.95625 37.425 103.3Q37.690624 103.62813 38.08125 103.62813Q38.4875 103.62813 38.7375 103.28438Q39.003124 102.94063 39.003124 102.05Q39.003124 101.20625 38.7375 100.87813Q38.471874 100.53438 38.08125 100.53438ZM38.08125 108.8625L42.784374 99.81563L43.64375 99.81563L38.95625 108.8625L38.08125 108.8625ZM41.8 106.53438Q41.8 105.6125 42.253124 104.97188Q42.721874 104.33125 43.6125 104.33125Q44.425 104.33125 44.95625 104.90938Q45.4875 105.47188 45.4875 106.59688Q45.4875 107.69063 44.940624 108.28438Q44.409374 108.8625 43.6125 108.8625Q42.846874 108.8625 42.315624 108.28438Q41.8 107.70625 41.8 106.53438ZM43.64375 105.05Q43.2375 105.05 42.971874 105.39375Q42.721874 105.7375 42.721874 106.64375Q42.721874 107.45625 42.9875 107.8Q43.253124 108.14375 43.64375 108.14375Q44.034374 108.14375 44.3 107.8Q44.565624 107.45625 44.565624 106.55Q44.565624 105.72188 44.3 105.39375Q44.034374 105.05 43.64375 105.05Z" fill-rule="nonzero"/><path stroke="#757575" stroke-width="1.0" stroke-linecap="butt" d="M18.55 96.05L127.05 96.05L201.66493 61.06139" fill-rule="nonzero"/><path fill="#9e9e9e" d="M203.66493 61.06139C203.66493 59.956818 202.7695 59.06139 201.66493 59.06139C200.56036 59.06139 199.66493 59.956818 199.66493 61.06139C199.66493 62.16596 200.56036 63.06139 201.66493 63.06139C202.7695 63.06139 203.66493 62.16596 203.66493 61.06139" fill-rule="nonzero"/><path fill="#1a1a1a" d="M19.471874 122.55L19.471874 113.95625L20.628124 113.95625L25.14375 120.70625L25.14375 113.95625L26.2375 113.95625L26.2375 122.55L25.065624 122.55L20.55 115.8L20.55 122.55L19.471874 122.55ZM28.05 120.3L29.159374 120.20625Q29.284374 121.01875 29.721874 121.425Q30.175 121.83125 30.815624 121.83125Q31.565624 121.83125 32.096874 121.25313Q32.628124 120.675 32.628124 119.7375Q32.628124 118.83125 32.1125 118.31563Q31.6125 117.78438 30.784374 117.78438Q30.284374 117.78438 29.8625 118.01875Q29.45625 118.25313 29.221874 118.6125L28.2375 118.4875L29.065624 114.08125L33.346874 114.08125L33.346874 115.08125L29.909374 115.08125L29.45625 117.39375Q30.221874 116.84688 31.065624 116.84688Q32.190624 116.84688 32.95625 117.62813Q33.7375 118.40938 33.7375 119.64375Q33.7375 120.8 33.065624 121.65938Q32.2375 122.69063 30.815624 122.69063Q29.64375 122.69063 28.89375 122.03438Q28.159374 121.37813 28.05 120.3ZM38.425 122.55L38.425 113.95625L39.565624 113.95625L39.565624 121.53438L43.8 121.53438L43.8 122.55L38.425 122.55ZM49.596874 120.55L50.690624 120.675Q50.440624 121.62813 49.7375 122.15938Q49.034374 122.69063 47.95625 122.69063Q46.596874 122.69063 45.784374 121.84688Q44.9875 121.00313 44.9875 119.4875Q44.9875 117.925 45.8 117.06563Q46.6125 116.19063 47.89375 116.19063Q49.14375 116.19063 49.925 117.03438Q50.721874 117.87813 50.721874 119.425Q50.721874 119.51875 50.721874 119.70625L46.08125 119.70625Q46.14375 120.7375 46.659374 121.28438Q47.175 121.81563 47.95625 121.81563Q48.534374 121.81563 48.940624 121.51875Q49.3625 121.20625 49.596874 120.55ZM46.14375 118.84688L49.6125 118.84688Q49.55 118.05 49.221874 117.65938Q48.70625 117.05 47.909374 117.05Q47.175 117.05 46.675 117.53438Q46.190624 118.01875 46.14375 118.84688ZM54.065624 122.55L51.70625 116.33125L52.815624 116.33125L54.159374 120.05Q54.3625 120.65938 54.55 121.3Q54.690624 120.81563 54.940624 120.12813L56.33125 116.33125L57.409374 116.33125L55.05 122.55L54.065624 122.55ZM61.596874 120.55L62.690624 120.675Q62.440624 121.62813 61.7375 122.15938Q61.034374 122.69063 59.95625 122.69063Q58.596874 122.69063 57.784374 121.84688Q56.9875 121.00313 56.9875 119.4875Q56.9875 117.925 57.8 117.06563Q58.6125 116.19063 59.89375 116.19063Q61.14375 116.19063 61.925 117.03438Q62.721874 117.87813 62.721874 119.425Q62.721874 119.51875 62.721874 119.70625L58.08125 119.70625Q58.14375 120.7375 58.659374 121.28438Q59.175 121.81563 59.95625 121.81563Q60.534374 121.81563 60.940624 121.51875Q61.3625 121.20625 61.596874 120.55ZM58.14375 118.84688L61.6125 118.84688Q61.55 118.05 61.221874 117.65938Q60.70625 117.05 59.909374 117.05Q59.175 117.05 58.675 117.53438Q58.190624 118.01875 58.14375 118.84688ZM64.31563 122.55L64.31563 113.95625L65.37813 113.95625L65.37813 122.55L64.31563 122.55Z" fill-rule="nonzero"/><path fill="#9e9e9e" d="M19.05 137.3L20.159374 137.20625Q20.284374 138.01875 20.721874 138.425Q21.175 138.83125 21.815624 138.83125Q22.565624 138.83125 23.096874 138.25313Q23.628124 137.675 23.628124 136.7375Q23.628124 135.83125 23.1125 135.31563Q22.6125 134.78438 21.784374 134.78438Q21.284374 134.78438 20.8625 135.01875Q20.45625 135.25313 20.221874 135.6125L19.2375 135.4875L20.065624 131.08125L24.346874 131.08125L24.346874 132.08125L20.909374 132.08125L20.45625 134.39375Q21.221874 133.84688 22.065624 133.84688Q23.190624 133.84688 23.95625 134.62813Q24.7375 135.40938 24.7375 136.64375Q24.7375 137.8 24.065624 138.65938Q23.2375 139.69063 21.815624 139.69063Q20.64375 139.69063 19.89375 139.03438Q19.159374 138.37813 19.05 137.3ZM26.64375 139.55L26.64375 138.34688L27.846874 138.34688L27.846874 139.55L26.64375 139.55ZM33.01875 139.55L31.971874 139.55L31.971874 132.83125Q31.58125 133.19063 30.95625 133.56563Q30.346874 133.925 29.8625 134.09688L29.8625 133.08125Q30.7375 132.65938 31.39375 132.08125Q32.065624 131.4875 32.346874 130.925L33.01875 130.925L33.01875 139.55ZM36.253124 133.01875Q36.253124 132.09688 36.70625 131.45625Q37.175 130.81563 38.05 130.81563Q38.8625 130.81563 39.39375 131.39375Q39.925 131.97188 39.925 133.08125Q39.925 134.175 39.378124 134.76875Q38.846874 135.34688 38.065624 135.34688Q37.284374 135.34688 36.76875 134.76875Q36.253124 134.19063 36.253124 133.01875ZM38.08125 131.53438Q37.690624 131.53438 37.425 131.87813Q37.175 132.22188 37.175 133.12813Q37.175 133.95625 37.425 134.3Q37.690624 134.62813 38.08125 134.62813Q38.4875 134.62813 38.7375 134.28438Q39.003124 133.94063 39.003124 133.05Q39.003124 132.20625 38.7375 131.87813Q38.471874 131.53438 38.08125 131.53438ZM38.08125 139.8625L42.784374 130.81563L43.64375 130.81563L38.95625 139.8625L38.08125 139.8625ZM41.8 137.53438Q41.8 136.6125 42.253124 135.97188Q42.721874 135.33125 43.6125 135.33125Q44.425 135.33125 44.95625 135.90938Q45.4875 136.47188 45.4875 137.59688Q45.4875 138.69063 44.940624 139.28438Q44.409374 139.8625 43.6125 139.8625Q42.846874 139.8625 42.315624 139.28438Q41.8 138.70625 41.8 137.53438ZM43.64375 136.05Q43.2375 136.05 42.971874 136.39375Q42.721874 136.7375 42.721874 137.64375Q42.721874 138.45625 42.9875 138.8Q43.253124 139.14375 43.64375 139.14375Q44.034374 139.14375 44.3 138.8Q44.565624 138.45625 44.565624 137.55Q44.565624 136.72188 44.3 136.39375Q44.034374 136.05 43.64375 136.05Z" fill-rule="nonzero"/><path stroke="#757575" stroke-width="1.0" stroke-linecap="butt" d="M18.55 127.05L127.05 127.05L170.15909 94.41712" fill-rule="nonzero"/><path fill="#9e9e9e" d="M172.15909 94.41712C172.15909 93.31255 171.26366 92.41712 170.15909 92.41712C169.05452 92.41712 168.15909 93.31255 168.15909 94.41712C168.15909 95.52169 169.05452 96.41712 170.15909 96.41712C171.26366 96.41712 172.15909 95.52169 172.15909 94.41712" fill-rule="nonzero"/><path fill="#1a1a1a" d="M19.675 325.48648L19.675 316.89273L20.8 316.89273L20.8 325.48648L19.675 325.48648ZM29.409374 323.20523L30.440624 323.34586Q30.26875 324.40836 29.565624 325.01773Q28.8625 325.6271 27.846874 325.6271Q26.565624 325.6271 25.784374 324.79898Q25.01875 323.95523 25.01875 322.39273Q25.01875 321.39273 25.346874 320.64273Q25.690624 319.8771 26.3625 319.5021Q27.05 319.1271 27.8625 319.1271Q28.8625 319.1271 29.503124 319.64273Q30.159374 320.14273 30.346874 321.09586L29.315624 321.2521Q29.175 320.6271 28.8 320.3146Q28.425 319.98648 27.89375 319.98648Q27.096874 319.98648 26.596874 320.5646Q26.096874 321.1271 26.096874 322.36148Q26.096874 323.6271 26.58125 324.1896Q27.065624 324.7521 27.83125 324.7521Q28.45625 324.7521 28.8625 324.3771Q29.284374 324.0021 29.409374 323.20523ZM35.409374 324.72086Q34.815624 325.22086 34.26875 325.42398Q33.7375 325.6271 33.1125 325.6271Q32.08125 325.6271 31.534374 325.1271Q30.9875 324.6271 30.9875 323.84586Q30.9875 323.39273 31.190624 323.01773Q31.39375 322.6271 31.7375 322.40836Q32.08125 322.17398 32.503124 322.0646Q32.8 321.97086 33.440624 321.89273Q34.70625 321.7521 35.315624 321.53336Q35.315624 321.3146 35.315624 321.26773Q35.315624 320.61148 35.01875 320.34586Q34.6125 320.0021 33.815624 320.0021Q33.08125 320.0021 32.721874 320.26773Q32.3625 320.51773 32.190624 321.17398L31.159374 321.03336Q31.3 320.3771 31.628124 319.97086Q31.95625 319.5646 32.565624 319.34586Q33.175 319.1271 33.971874 319.1271Q34.76875 319.1271 35.26875 319.3146Q35.76875 319.5021 36.003124 319.78336Q36.2375 320.0646 36.33125 320.5021Q36.378124 320.76773 36.378124 321.47086L36.378124 322.8771Q36.378124 324.34586 36.440624 324.73648Q36.51875 325.1271 36.721874 325.48648L35.6125 325.48648Q35.45625 325.15836 35.409374 324.72086ZM35.315624 322.36148Q34.7375 322.59586 33.596874 322.76773Q32.940624 322.86148 32.675 322.98648Q32.409374 323.09586 32.253124 323.3146Q32.1125 323.53336 32.1125 323.8146Q32.1125 324.23648 32.425 324.51773Q32.753124 324.79898 33.3625 324.79898Q33.971874 324.79898 34.440624 324.53336Q34.925 324.26773 35.14375 323.79898Q35.315624 323.4396 35.315624 322.7521L35.315624 322.36148ZM38.346874 325.48648L38.346874 319.26773L39.284374 319.26773L39.284374 320.14273Q39.971874 319.1271 41.26875 319.1271Q41.83125 319.1271 42.3 319.33023Q42.784374 319.53336 43.01875 319.86148Q43.253124 320.1896 43.346874 320.6271Q43.39375 320.92398 43.39375 321.65836L43.39375 325.48648L42.346874 325.48648L42.346874 321.70523Q42.346874 321.04898 42.221874 320.73648Q42.096874 320.42398 41.784374 320.23648Q41.471874 320.03336 41.05 320.03336Q40.378124 320.03336 39.878124 320.47086Q39.39375 320.89273 39.39375 322.08023L39.39375 325.48648L38.346874 325.48648ZM52.425 325.48648L52.425 324.5646Q51.690624 325.6271 50.440624 325.6271Q49.89375 325.6271 49.409374 325.42398Q48.940624 325.20523 48.70625 324.89273Q48.471874 324.5646 48.378124 324.09586Q48.315624 323.79898 48.315624 323.11148L48.315624 319.26773L49.378124 319.26773L49.378124 322.72086Q49.378124 323.53336 49.440624 323.83023Q49.534374 324.23648 49.846874 324.48648Q50.175 324.72086 50.659374 324.72086Q51.128124 324.72086 51.534374 324.48648Q51.95625 324.23648 52.128124 323.8146Q52.315624 323.39273 52.315624 322.59586L52.315624 319.26773L53.3625 319.26773L53.3625 325.48648L52.425 325.48648ZM55.346874 325.48648L55.346874 319.26773L56.284374 319.26773L56.284374 320.14273Q56.971874 319.1271 58.26875 319.1271Q58.83125 319.1271 59.3 319.33023Q59.784374 319.53336 60.01875 319.86148Q60.253124 320.1896 60.346874 320.6271Q60.39375 320.92398 60.39375 321.65836L60.39375 325.48648L59.346874 325.48648L59.346874 321.70523Q59.346874 321.04898 59.221874 320.73648Q59.096874 320.42398 58.784374 320.23648Q58.471874 320.03336 58.05 320.03336Q57.378124 320.03336 56.878124 320.47086Q56.39375 320.89273 56.39375 322.08023L56.39375 325.48648L55.346874 325.48648ZM66.37813 325.48648L66.37813 324.70523Q65.78438 325.6271 64.64375 325.6271Q63.89375 325.6271 63.26875 325.22086Q62.64375 324.79898 62.3 324.0646Q61.95625 323.33023 61.95625 322.3771Q61.95625 321.45523 62.26875 320.6896Q62.58125 319.92398 63.20625 319.53336Q63.83125 319.1271 64.59688 319.1271Q65.15938 319.1271 65.59688 319.36148Q66.03438 319.59586 66.31563 319.97086L66.31563 316.89273L67.3625 316.89273L67.3625 325.48648L66.37813 325.48648ZM63.05 322.3771Q63.05 323.58023 63.55 324.17398Q64.05 324.7521 64.7375 324.7521Q65.425 324.7521 65.90938 324.1896Q66.39375 323.6271 66.39375 322.47086Q66.39375 321.1896 65.89375 320.59586Q65.40938 320.0021 64.69063 320.0021Q63.9875 320.0021 63.51875 320.58023Q63.05 321.14273 63.05 322.3771ZM73.59688 323.48648L74.69063 323.61148Q74.44063 324.5646 73.7375 325.09586Q73.03438 325.6271 71.95625 325.6271Q70.59688 325.6271 69.78438 324.78336Q68.9875 323.9396 68.9875 322.42398Q68.9875 320.86148 69.8 320.0021Q70.6125 319.1271 71.89375 319.1271Q73.14375 319.1271 73.925 319.97086Q74.72188 320.8146 74.72188 322.36148Q74.72188 322.45523 74.72188 322.64273L70.08125 322.64273Q70.14375 323.67398 70.65938 324.22086Q71.175 324.7521 71.95625 324.7521Q72.53438 324.7521 72.94063 324.45523Q73.3625 324.14273 73.59688 323.48648ZM70.14375 321.78336L73.6125 321.78336Q73.55 320.98648 73.22188 320.59586Q72.70625 319.98648 71.90938 319.98648Q71.175 319.98648 70.675 320.47086Q70.19063 320.95523 70.14375 321.78336ZM76.33125 325.48648L76.33125 319.26773L77.28438 319.26773L77.28438 320.20523Q77.64375 319.54898 77.94063 319.34586Q78.25313 319.1271 78.62813 319.1271Q79.15938 319.1271 79.70625 319.45523L79.34688 320.4396Q78.95625 320.20523 78.58125 320.20523Q78.22188 320.20523 77.94063 320.42398Q77.675 320.6271 77.56563 321.0021Q77.37813 321.5646 77.37813 322.22086L77.37813 325.48648L76.33125 325.48648ZM79.925 323.6271L80.95625 323.47086Q81.05 324.09586 81.44063 324.42398Q81.84688 324.7521 82.58125 324.7521Q83.3 324.7521 83.64375 324.47086Q84.00313 324.17398 84.00313 323.76773Q84.00313 323.40836 83.69063 323.20523Q83.47188 323.0646 82.6125 322.84586Q81.45625 322.54898 81.00313 322.34586Q80.56563 322.1271 80.33125 321.7521Q80.09688 321.3771 80.09688 320.90836Q80.09688 320.5021 80.28438 320.14273Q80.47188 319.78336 80.8 319.54898Q81.05 319.3771 81.47188 319.2521Q81.89375 319.1271 82.39375 319.1271Q83.1125 319.1271 83.65938 319.34586Q84.22188 319.54898 84.4875 319.90836Q84.75313 320.26773 84.84688 320.86148L83.81563 321.0021Q83.75313 320.53336 83.40938 320.26773Q83.08125 319.98648 82.45625 319.98648Q81.7375 319.98648 81.425 320.23648Q81.1125 320.47086 81.1125 320.79898Q81.1125 321.0021 81.2375 321.15836Q81.37813 321.33023 81.64375 321.4396Q81.8 321.5021 82.58125 321.70523Q83.70625 322.01773 84.14375 322.20523Q84.58125 322.39273 84.83125 322.7521Q85.08125 323.11148 85.08125 323.65836Q85.08125 324.1896 84.76875 324.65836Q84.47188 325.11148 83.89375 325.3771Q83.31563 325.6271 82.58125 325.6271Q81.3625 325.6271 80.72188 325.1271Q80.09688 324.61148 79.925 323.6271ZM89.64375 324.54898L89.8 325.47086Q89.34688 325.5646 89.00313 325.5646Q88.425 325.5646 88.1125 325.39273Q87.8 325.20523 87.65938 324.90836Q87.53438 324.61148 87.53438 323.65836L87.53438 320.08023L86.76875 320.08023L86.76875 319.26773L87.53438 319.26773L87.53438 317.72086L88.58125 317.09586L88.58125 319.26773L89.64375 319.26773L89.64375 320.08023L88.58125 320.08023L88.58125 323.72086Q88.58125 324.17398 88.62813 324.29898Q88.69063 324.42398 88.81563 324.5021Q88.94063 324.58023 89.175 324.58023Q89.3625 324.58023 89.64375 324.54898ZM94.40938 324.72086Q93.81563 325.22086 93.26875 325.42398Q92.7375 325.6271 92.1125 325.6271Q91.08125 325.6271 90.53438 325.1271Q89.9875 324.6271 89.9875 323.84586Q89.9875 323.39273 90.19063 323.01773Q90.39375 322.6271 90.7375 322.40836Q91.08125 322.17398 91.50313 322.0646Q91.8 321.97086 92.44063 321.89273Q93.70625 321.7521 94.31563 321.53336Q94.31563 321.3146 94.31563 321.26773Q94.31563 320.61148 94.01875 320.34586Q93.6125 320.0021 92.81563 320.0021Q92.08125 320.0021 91.72188 320.26773Q91.3625 320.51773 91.19063 321.17398L90.15938 321.03336Q90.3 320.3771 90.62813 319.97086Q90.95625 319.5646 91.56563 319.34586Q92.175 319.1271 92.97188 319.1271Q93.76875 319.1271 94.26875 319.3146Q94.76875 319.5021 95.00313 319.78336Q95.2375 320.0646 95.33125 320.5021Q95.37813 320.76773 95.37813 321.47086L95.37813 322.8771Q95.37813 324.34586 95.44063 324.73648Q95.51875 325.1271 95.72188 325.48648L94.6125 325.48648Q94.45625 325.15836 94.40938 324.72086ZM94.31563 322.36148Q93.7375 322.59586 92.59688 322.76773Q91.94063 322.86148 91.675 322.98648Q91.40938 323.09586 91.25313 323.3146Q91.1125 323.53336 91.1125 323.8146Q91.1125 324.23648 91.425 324.51773Q91.75313 324.79898 92.3625 324.79898Q92.97188 324.79898 93.44063 324.53336Q93.925 324.26773 94.14375 323.79898Q94.31563 323.4396 94.31563 322.7521L94.31563 322.36148ZM97.34688 325.48648L97.34688 319.26773L98.28438 319.26773L98.28438 320.14273Q98.97188 319.1271 100.26875 319.1271Q100.83125 319.1271 101.3 319.33023Q101.78438 319.53336 102.01875 319.86148Q102.25313 320.1896 102.34688 320.6271Q102.39375 320.92398 102.39375 321.65836L102.39375 325.48648L101.34688 325.48648L101.34688 321.70523Q101.34688 321.04898 101.22188 320.73648Q101.09688 320.42398 100.78438 320.23648Q100.47188 320.03336 100.05 320.03336Q99.37813 320.03336 98.87813 320.47086Q98.39375 320.89273 98.39375 322.08023L98.39375 325.48648L97.34688 325.48648ZM108.37813 325.48648L108.37813 324.70523Q107.78438 325.6271 106.64375 325.6271Q105.89375 325.6271 105.26875 325.22086Q104.64375 324.79898 104.3 324.0646Q103.95625 323.33023 103.95625 322.3771Q103.95625 321.45523 104.26875 320.6896Q104.58125 319.92398 105.20625 319.53336Q105.83125 319.1271 106.59688 319.1271Q107.15938 319.1271 107.59688 319.36148Q108.03438 319.59586 108.31563 319.97086L108.31563 316.89273L109.3625 316.89273L109.3625 325.48648L108.37813 325.48648ZM105.05 322.3771Q105.05 323.58023 105.55 324.17398Q106.05 324.7521 106.7375 324.7521Q107.425 324.7521 107.90938 324.1896Q108.39375 323.6271 108.39375 322.47086Q108.39375 321.1896 107.89375 320.59586Q107.40938 320.0021 106.69063 320.0021Q105.9875 320.0021 105.51875 320.58023Q105.05 321.14273 105.05 322.3771Z" fill-rule="nonzero"/><path fill="#9e9e9e" d="M19.05 340.23648L20.159374 340.14273Q20.284374 340.95523 20.721874 341.36148Q21.175 341.76773 21.815624 341.76773Q22.565624 341.76773 23.096874 341.1896Q23.628124 340.61148 23.628124 339.67398Q23.628124 338.76773 23.1125 338.2521Q22.6125 337.72086 21.784374 337.72086Q21.284374 337.72086 20.8625 337.95523Q20.45625 338.1896 20.221874 338.54898L19.2375 338.42398L20.065624 334.01773L24.346874 334.01773L24.346874 335.01773L20.909374 335.01773L20.45625 337.33023Q21.221874 336.78336 22.065624 336.78336Q23.190624 336.78336 23.95625 337.5646Q24.7375 338.34586 24.7375 339.58023Q24.7375 340.73648 24.065624 341.59586Q23.2375 342.6271 21.815624 342.6271Q20.64375 342.6271 19.89375 341.97086Q19.159374 341.3146 19.05 340.23648ZM26.05 338.2521Q26.05 336.72086 26.3625 335.79898Q26.675 334.86148 27.284374 334.36148Q27.909374 333.86148 28.846874 333.86148Q29.534374 333.86148 30.05 334.14273Q30.58125 334.42398 30.925 334.95523Q31.26875 335.47086 31.45625 336.22086Q31.64375 336.97086 31.64375 338.2521Q31.64375 339.76773 31.33125 340.6896Q31.034374 341.61148 30.409374 342.1271Q29.8 342.6271 28.846874 342.6271Q27.6125 342.6271 26.89375 341.73648Q26.05 340.67398 26.05 338.2521ZM27.128124 338.2521Q27.128124 340.36148 27.628124 341.0646Q28.128124 341.76773 28.846874 341.76773Q29.58125 341.76773 30.065624 341.0646Q30.565624 340.36148 30.565624 338.2521Q30.565624 336.1271 30.065624 335.4396Q29.58125 334.73648 28.83125 334.73648Q28.1125 334.73648 27.675 335.34586Q27.128124 336.1271 27.128124 338.2521ZM33.64375 342.48648L33.64375 341.28336L34.846874 341.28336L34.846874 342.48648L33.64375 342.48648ZM37.675 337.83023Q37.01875 337.58023 36.690624 337.14273Q36.378124 336.6896 36.378124 336.08023Q36.378124 335.14273 37.05 334.5021Q37.7375 333.86148 38.846874 333.86148Q39.971874 333.86148 40.659374 334.51773Q41.346874 335.17398 41.346874 336.11148Q41.346874 336.70523 41.034374 337.14273Q40.721874 337.58023 40.08125 337.83023Q40.878124 338.08023 41.284374 338.65836Q41.690624 339.23648 41.690624 340.03336Q41.690624 341.1271 40.909374 341.8771Q40.14375 342.6271 38.8625 342.6271Q37.596874 342.6271 36.815624 341.8771Q36.034374 341.1271 36.034374 340.0021Q36.034374 339.15836 36.45625 338.59586Q36.89375 338.03336 37.675 337.83023ZM37.45625 336.03336Q37.45625 336.64273 37.846874 337.03336Q38.253124 337.42398 38.878124 337.42398Q39.4875 337.42398 39.878124 337.04898Q40.26875 336.65836 40.26875 336.09586Q40.26875 335.51773 39.8625 335.1271Q39.45625 334.72086 38.8625 334.72086Q38.253124 334.72086 37.846874 335.11148Q37.45625 335.5021 37.45625 336.03336ZM37.128124 340.0021Q37.128124 340.45523 37.33125 340.8771Q37.55 341.29898 37.971874 341.53336Q38.39375 341.76773 38.878124 341.76773Q39.628124 341.76773 40.1125 341.28336Q40.6125 340.79898 40.6125 340.04898Q40.6125 339.28336 40.1125 338.78336Q39.6125 338.28336 38.846874 338.28336Q38.096874 338.28336 37.6125 338.78336Q37.128124 339.26773 37.128124 340.0021ZM43.253124 335.95523Q43.253124 335.03336 43.70625 334.39273Q44.175 333.7521 45.05 333.7521Q45.8625 333.7521 46.39375 334.33023Q46.925 334.90836 46.925 336.01773Q46.925 337.11148 46.378124 337.70523Q45.846874 338.28336 45.065624 338.28336Q44.284374 338.28336 43.76875 337.70523Q43.253124 337.1271 43.253124 335.95523ZM45.08125 334.47086Q44.690624 334.47086 44.425 334.8146Q44.175 335.15836 44.175 336.0646Q44.175 336.89273 44.425 337.23648Q44.690624 337.5646 45.08125 337.5646Q45.4875 337.5646 45.7375 337.22086Q46.003124 336.8771 46.003124 335.98648Q46.003124 335.14273 45.7375 334.8146Q45.471874 334.47086 45.08125 334.47086ZM45.08125 342.79898L49.784374 333.7521L50.64375 333.7521L45.95625 342.79898L45.08125 342.79898ZM48.8 340.47086Q48.8 339.54898 49.253124 338.90836Q49.721874 338.26773 50.6125 338.26773Q51.425 338.26773 51.95625 338.84586Q52.4875 339.40836 52.4875 340.53336Q52.4875 341.6271 51.940624 342.22086Q51.409374 342.79898 50.6125 342.79898Q49.846874 342.79898 49.315624 342.22086Q48.8 341.64273 48.8 340.47086ZM50.64375 338.98648Q50.2375 338.98648 49.971874 339.33023Q49.721874 339.67398 49.721874 340.58023Q49.721874 341.39273 49.9875 341.73648Q50.253124 342.08023 50.64375 342.08023Q51.034374 342.08023 51.3 341.73648Q51.565624 341.39273 51.565624 340.48648Q51.565624 339.65836 51.3 339.33023Q51.034374 338.98648 50.64375 338.98648Z" fill-rule="nonzero"/><path stroke="#757575" stroke-width="1.0" stroke-linecap="butt" d="M18.55 329.98648L127.05 329.98648L234.59044 329.98648" fill-rule="nonzero"/><path fill="#9e9e9e" d="M236.59044 329.98648C236.59044 328.8819 235.695 327.98648 234.59044 327.98648C233.48587 327.98648 232.59044 328.8819 232.59044 329.98648C232.59044 331.09106 233.48587 331.98648 234.59044 331.98648C235.695 331.98648 236.59044 331.09106 236.59044 329.98648" fill-rule="nonzero"/><path fill="#1a1a1a" d="M487.6844 93.31291L487.6844 92.25041L492.09064 86.75041Q492.5594 86.17229 492.98126 85.73479L488.1844 85.73479L488.1844 84.71916L494.34064 84.71916L494.34064 85.73479L489.5125 91.68791L488.9969 92.29729L494.48126 92.29729L494.48126 93.31291L487.6844 93.31291ZM499.4969 91.31291L500.59064 91.43791Q500.34064 92.39104 499.6375 92.92229Q498.9344 93.45354 497.85626 93.45354Q496.4969 93.45354 495.6844 92.60979Q494.8875 91.76604 494.8875 90.25041Q494.8875 88.68791 495.7 87.82854Q496.5125 86.95354 497.79376 86.95354Q499.04376 86.95354 499.825 87.79729Q500.6219 88.64104 500.6219 90.18791Q500.6219 90.28166 500.6219 90.46916L495.98126 90.46916Q496.04376 91.50041 496.5594 92.04729Q497.075 92.57854 497.85626 92.57854Q498.4344 92.57854 498.84064 92.28166Q499.2625 91.96916 499.4969 91.31291ZM496.04376 89.60979L499.5125 89.60979Q499.45 88.81291 499.1219 88.42229Q498.60626 87.81291 497.8094 87.81291Q497.075 87.81291 496.575 88.29729Q496.09064 88.78166 496.04376 89.60979ZM502.23126 93.31291L502.23126 87.09416L503.1844 87.09416L503.1844 88.03166Q503.54376 87.37541 503.84064 87.17229Q504.15314 86.95354 504.52814 86.95354Q505.0594 86.95354 505.60626 87.28166L505.2469 88.26604Q504.85626 88.03166 504.48126 88.03166Q504.1219 88.03166 503.84064 88.25041Q503.575 88.45354 503.46564 88.82854Q503.27814 89.39104 503.27814 90.04729L503.27814 93.31291L502.23126 93.31291ZM505.85626 90.20354Q505.85626 88.46916 506.8094 87.64104Q507.60626 86.95354 508.7625 86.95354Q510.04376 86.95354 510.85626 87.79729Q511.6844 88.62541 511.6844 90.10979Q511.6844 91.31291 511.325 92.00041Q510.96564 92.68791 510.2625 93.07854Q509.575 93.45354 508.7625 93.45354Q507.46564 93.45354 506.65314 92.62541Q505.85626 91.78166 505.85626 90.20354ZM506.9344 90.20354Q506.9344 91.39104 507.45 91.98479Q507.98126 92.57854 508.7625 92.57854Q509.5594 92.57854 510.075 91.98479Q510.59064 91.39104 510.59064 90.17229Q510.59064 89.01604 510.0594 88.42229Q509.54376 87.82854 508.7625 87.82854Q507.98126 87.82854 507.45 88.42229Q506.9344 89.00041 506.9344 90.20354ZM516.2469 93.31291L516.2469 84.71916L517.3094 84.71916L517.3094 89.62541L519.79376 87.09416L521.16876 87.09416L518.77814 89.39104L521.40314 93.31291L520.10626 93.31291L518.04376 90.12541L517.3094 90.84416L517.3094 93.31291L516.2469 93.31291ZM522.2469 93.31291L522.2469 87.09416L523.1844 87.09416L523.1844 87.96916Q523.8719 86.95354 525.16876 86.95354Q525.73126 86.95354 526.2 87.15666Q526.6844 87.35979 526.91876 87.68791Q527.15314 88.01604 527.2469 88.45354Q527.29376 88.75041 527.29376 89.48479L527.29376 93.31291L526.2469 93.31291L526.2469 89.53166Q526.2469 88.87541 526.1219 88.56291Q525.9969 88.25041 525.6844 88.06291Q525.3719 87.85979 524.95 87.85979Q524.27814 87.85979 523.77814 88.29729Q523.29376 88.71916 523.29376 89.90666L523.29376 93.31291L522.2469 93.31291ZM528.85626 90.20354Q528.85626 88.46916 529.8094 87.64104Q530.60626 86.95354 531.7625 86.95354Q533.04376 86.95354 533.85626 87.79729Q534.6844 88.62541 534.6844 90.10979Q534.6844 91.31291 534.325 92.00041Q533.96564 92.68791 533.2625 93.07854Q532.575 93.45354 531.7625 93.45354Q530.46564 93.45354 529.65314 92.62541Q528.85626 91.78166 528.85626 90.20354ZM529.9344 90.20354Q529.9344 91.39104 530.45 91.98479Q530.98126 92.57854 531.7625 92.57854Q532.5594 92.57854 533.075 91.98479Q533.59064 91.39104 533.59064 90.17229Q533.59064 89.01604 533.0594 88.42229Q532.54376 87.82854 531.7625 87.82854Q530.98126 87.82854 530.45 88.42229Q529.9344 89.00041 529.9344 90.20354ZM537.3875 93.31291L535.48126 87.09416L536.575 87.09416L537.5594 90.68791L537.9344 92.01604Q537.96564 91.92229 538.2625 90.73479L539.2469 87.09416L540.325 87.09416L541.2625 90.70354L541.575 91.89104L541.9344 90.68791L542.9969 87.09416L544.02814 87.09416L542.075 93.31291L540.98126 93.31291L539.9969 89.57854L539.7469 88.53166L538.4969 93.31291L537.3875 93.31291ZM545.21564 93.31291L545.21564 84.71916L546.27814 84.71916L546.27814 93.31291L545.21564 93.31291ZM552.4969 91.31291L553.59064 91.43791Q553.34064 92.39104 552.6375 92.92229Q551.9344 93.45354 550.85626 93.45354Q549.4969 93.45354 548.6844 92.60979Q547.8875 91.76604 547.8875 90.25041Q547.8875 88.68791 548.7 87.82854Q549.5125 86.95354 550.79376 86.95354Q552.04376 86.95354 552.825 87.79729Q553.6219 88.64104 553.6219 90.18791Q553.6219 90.28166 553.6219 90.46916L548.98126 90.46916Q549.04376 91.50041 549.5594 92.04729Q550.075 92.57854 550.85626 92.57854Q551.4344 92.57854 551.84064 92.28166Q552.2625 91.96916 552.4969 91.31291ZM549.04376 89.60979L552.5125 89.60979Q552.45 88.81291 552.1219 88.42229Q551.60626 87.81291 550.8094 87.81291Q550.075 87.81291 549.575 88.29729Q549.09064 88.78166 549.04376 89.60979ZM559.27814 93.31291L559.27814 92.53166Q558.6844 93.45354 557.54376 93.45354Q556.79376 93.45354 556.16876 93.04729Q555.54376 92.62541 555.2 91.89104Q554.85626 91.15666 554.85626 90.20354Q554.85626 89.28166 555.16876 88.51604Q555.48126 87.75041 556.10626 87.35979Q556.73126 86.95354 557.4969 86.95354Q558.0594 86.95354 558.4969 87.18791Q558.9344 87.42229 559.21564 87.79729L559.21564 84.71916L560.2625 84.71916L560.2625 93.31291L559.27814 93.31291ZM555.95 90.20354Q555.95 91.40666 556.45 92.00041Q556.95 92.57854 557.6375 92.57854Q558.325 92.57854 558.8094 92.01604Q559.29376 91.45354 559.29376 90.29729Q559.29376 89.01604 558.79376 88.42229Q558.3094 87.82854 557.59064 87.82854Q556.8875 87.82854 556.41876 88.40666Q555.95 88.96916 555.95 90.20354ZM562.04376 93.82854L563.075 93.98479Q563.1375 94.45354 563.4344 94.67229Q563.825 94.96916 564.4969 94.96916Q565.23126 94.96916 565.6219 94.67229Q566.02814 94.37541 566.16876 93.85979Q566.2625 93.53166 566.2469 92.50041Q565.5594 93.31291 564.52814 93.31291Q563.2469 93.31291 562.54376 92.39104Q561.84064 91.45354 561.84064 90.17229Q561.84064 89.28166 562.15314 88.53166Q562.48126 87.76604 563.09064 87.35979Q563.7 86.95354 564.52814 86.95354Q565.6375 86.95354 566.35626 87.84416L566.35626 87.09416L567.325 87.09416L567.325 92.46916Q567.325 93.92229 567.02814 94.53166Q566.73126 95.14104 566.09064 95.48479Q565.45 95.84416 564.5125 95.84416Q563.40314 95.84416 562.71564 95.34416Q562.02814 94.84416 562.04376 93.82854ZM562.91876 90.09416Q562.91876 91.31291 563.40314 91.87541Q563.8875 92.43791 564.6219 92.43791Q565.35626 92.43791 565.84064 91.87541Q566.34064 91.31291 566.34064 90.12541Q566.34064 88.98479 565.825 88.40666Q565.325 87.82854 564.60626 87.82854Q563.90314 87.82854 563.40314 88.40666Q562.91876 88.96916 562.91876 90.09416ZM573.4969 91.31291L574.59064 91.43791Q574.34064 92.39104 573.6375 92.92229Q572.9344 93.45354 571.85626 93.45354Q570.4969 93.45354 569.6844 92.60979Q568.8875 91.76604 568.8875 90.25041Q568.8875 88.68791 569.7 87.82854Q570.5125 86.95354 571.79376 86.95354Q573.04376 86.95354 573.825 87.79729Q574.6219 88.64104 574.6219 90.18791Q574.6219 90.28166 574.6219 90.46916L569.98126 90.46916Q570.04376 91.50041 570.5594 92.04729Q571.075 92.57854 571.85626 92.57854Q572.4344 92.57854 572.84064 92.28166Q573.2625 91.96916 573.4969 91.31291ZM570.04376 89.60979L573.5125 89.60979Q573.45 88.81291 573.1219 88.42229Q572.60626 87.81291 571.8094 87.81291Q571.075 87.81291 570.575 88.29729Q570.09064 88.78166 570.04376 89.60979ZM578.45 93.45354L580.9344 84.57854L581.77814 84.57854L579.29376 93.45354L578.45 93.45354Z" fill-rule="nonzero"/><path fill="#9e9e9e" d="M546.95 108.04729L548.0125 107.90666Q548.1844 108.79729 548.6219 109.20354Q549.0594 109.59416 549.6844 109.59416Q550.4344 109.59416 550.95 109.07854Q551.46564 108.56291 551.46564 107.79729Q551.46564 107.07854 550.98126 106.60979Q550.5125 106.12541 549.77814 106.12541Q549.48126 106.12541 549.02814 106.25041L549.15314 105.31291Q549.2625 105.32854 549.325 105.32854Q549.9969 105.32854 550.52814 104.98479Q551.075 104.62541 551.075 103.89104Q551.075 103.31291 550.6844 102.93791Q550.29376 102.54729 549.66876 102.54729Q549.0594 102.54729 548.6375 102.93791Q548.23126 103.32854 548.1219 104.09416L547.0594 103.90666Q547.2469 102.85979 547.9344 102.28166Q548.6219 101.68791 549.6375 101.68791Q550.34064 101.68791 550.9344 102.00041Q551.52814 102.29729 551.84064 102.81291Q552.15314 103.32854 552.15314 103.92229Q552.15314 104.46916 551.85626 104.93791Q551.5594 105.39104 550.98126 105.65666Q551.73126 105.82854 552.15314 106.39104Q552.575 106.93791 552.575 107.78166Q552.575 108.90666 551.7469 109.68791Q550.9344 110.46916 549.6844 110.46916Q548.5594 110.46916 547.8094 109.79729Q547.0594 109.10979 546.95 108.04729ZM557.91876 110.31291L556.8719 110.31291L556.8719 103.59416Q556.48126 103.95354 555.85626 104.32854Q555.2469 104.68791 554.7625 104.85979L554.7625 103.84416Q555.6375 103.42229 556.29376 102.84416Q556.96564 102.25041 557.2469 101.68791L557.91876 101.68791L557.91876 110.31291ZM561.54376 110.31291L561.54376 109.10979L562.7469 109.10979L562.7469 110.31291L561.54376 110.31291ZM567.325 110.31291L567.325 108.25041L563.60626 108.25041L563.60626 107.28166L567.52814 101.71916L568.3875 101.71916L568.3875 107.28166L569.54376 107.28166L569.54376 108.25041L568.3875 108.25041L568.3875 110.31291L567.325 110.31291ZM567.325 107.28166L567.325 103.42229L564.6375 107.28166L567.325 107.28166ZM571.15314 103.78166Q571.15314 102.85979 571.60626 102.21916Q572.075 101.57854 572.95 101.57854Q573.7625 101.57854 574.29376 102.15666Q574.825 102.73479 574.825 103.84416Q574.825 104.93791 574.27814 105.53166Q573.7469 106.10979 572.96564 106.10979Q572.1844 106.10979 571.66876 105.53166Q571.15314 104.95354 571.15314 103.78166ZM572.98126 102.29729Q572.59064 102.29729 572.325 102.64104Q572.075 102.98479 572.075 103.89104Q572.075 104.71916 572.325 105.06291Q572.59064 105.39104 572.98126 105.39104Q573.3875 105.39104 573.6375 105.04729Q573.90314 104.70354 573.90314 103.81291Q573.90314 102.96916 573.6375 102.64104Q573.3719 102.29729 572.98126 102.29729ZM572.98126 110.62541L577.6844 101.57854L578.54376 101.57854L573.85626 110.62541L572.98126 110.62541ZM576.7 108.29729Q576.7 107.37541 577.15314 106.73479Q577.6219 106.09416 578.5125 106.09416Q579.325 106.09416 579.85626 106.67229Q580.3875 107.23479 580.3875 108.35979Q580.3875 109.45354 579.84064 110.04729Q579.3094 110.62541 578.5125 110.62541Q577.7469 110.62541 577.21564 110.04729Q576.7 109.46916 576.7 108.29729ZM578.54376 106.81291Q578.1375 106.81291 577.8719 107.15666Q577.6219 107.50041 577.6219 108.40666Q577.6219 109.21916 577.8875 109.56291Q578.15314 109.90666 578.54376 109.90666Q578.9344 109.90666 579.2 109.56291Q579.46564 109.21916 579.46564 108.31291Q579.46564 107.48479 579.2 107.15666Q578.9344 106.81291 578.54376 106.81291Z" fill-rule="nonzero"/><path stroke="#757575" stroke-width="1.0" stroke-linecap="butt" d="M581.45 97.81291L472.95 97.81291L432.15796 97.81291" fill-rule="nonzero"/><path fill="#9e9e9e" d="M434.15796 97.81291C434.15796 96.70834 433.26254 95.81291 432.15796 95.81291C431.0534 95.81291 430.15796 96.70834 430.15796 97.81291C430.15796 98.91749 431.0534 99.81291 432.15796 99.81291C433.26254 99.81291 434.15796 98.91749 434.15796 97.81291" fill-rule="nonzero"/></svg>