<svg xmlns="http://www.w3.org/2000/svg" xmlns:xlink="http://www.w3.org/1999/xlink" width="600" height="371" fill="none" stroke="none" stroke-linecap="square" stroke-miterlimit="10" version="1.1" viewBox="0 0 600 371"><path fill="#fff" fill-rule="nonzero" d="M0 0L600.0 0L600.0 371.0L0 371.0L0 0Z"/><path fill="#ea4335" fill-rule="nonzero" d="M237.51292 30.685051C257.3709 22.669888 278.58548 18.55 300.0 18.55L300.0 185.5Z"/><path fill="#4285f4" fill-rule="nonzero" d="M300.0 18.55C386.01132 18.55 457.94635 83.89685 466.18277 169.51291C474.4192 255.12897 416.26114 332.99103 331.82724 349.38815C247.39336 365.7853 164.31992 315.35056 139.91277 232.87486C115.5056 150.39919 157.7535 62.877895 237.51292 30.685051L300.0 185.5Z"/><path fill="#000" fill-rule="nonzero" d="M314.42517 320.9693L315.72205 320.85992Q315.86267 321.79742 316.3783 322.2818Q316.90955 322.75055 317.64392 322.75055Q318.53455 322.75055 319.14392 322.07867Q319.76892 321.4068 319.76892 320.31305Q319.76892 319.25055 319.17517 318.64117Q318.58142 318.0318 317.6283 318.0318Q317.03455 318.0318 316.55017 318.31305Q316.08142 318.57867 315.80017 319.00055L314.64392 318.85992L315.61267 313.70367L320.59705 313.70367L320.59705 314.89117L316.59705 314.89117L316.0658 317.57867Q316.97205 316.95367 317.95642 316.95367Q319.26892 316.95367 320.15955 317.85992Q321.0658 318.76617 321.0658 320.20367Q321.0658 321.56305 320.28455 322.54742Q319.3158 323.76617 317.64392 323.76617Q316.28455 323.76617 315.40955 323.00055Q314.55017 322.23492 314.42517 320.9693ZM328.8158 316.0318L327.59705 316.12555Q327.42517 315.39117 327.1283 315.06305Q326.6283 314.54742 325.89392 314.54742Q325.30017 314.54742 324.86267 314.87555Q324.28455 315.29742 323.9408 316.10992Q323.61267 316.92242 323.59705 318.42242Q324.03455 317.75055 324.67517 317.42242Q325.33142 317.0943 326.03455 317.0943Q327.26892 317.0943 328.1283 318.00055Q328.98767 318.9068 328.98767 320.3443Q328.98767 321.2818 328.58142 322.0943Q328.17517 322.9068 327.45642 323.3443Q326.7533 323.76617 325.84705 323.76617Q324.3158 323.76617 323.34705 322.64117Q322.3783 321.50055 322.3783 318.9068Q322.3783 316.00055 323.4408 314.67242Q324.3783 313.5318 325.97205 313.5318Q327.15955 313.5318 327.90955 314.20367Q328.65955 314.85992 328.8158 316.0318ZM323.78455 320.3443Q323.78455 320.98492 324.05017 321.56305Q324.33142 322.14117 324.8158 322.45367Q325.30017 322.75055 325.83142 322.75055Q326.61267 322.75055 327.17517 322.12555Q327.73767 321.50055 327.73767 320.42242Q327.73767 319.37555 327.17517 318.7818Q326.6283 318.17242 325.78455 318.17242Q324.95642 318.17242 324.36267 318.7818Q323.78455 319.37555 323.78455 320.3443ZM330.61267 321.2818L331.80017 321.17242Q331.9408 322.00055 332.36267 322.37555Q332.80017 322.75055 333.45642 322.75055Q334.01892 322.75055 334.4408 322.50055Q334.8783 322.23492 335.14392 321.79742Q335.42517 321.35992 335.61267 320.62555Q335.80017 319.89117 335.80017 319.12555Q335.80017 319.04742 335.78455 318.87555Q335.42517 319.4693 334.78455 319.8443Q334.14392 320.20367 333.39392 320.20367Q332.14392 320.20367 331.28455 319.29742Q330.42517 318.39117 330.42517 316.92242Q330.42517 315.39117 331.3158 314.4693Q332.22205 313.5318 333.58142 313.5318Q334.55017 313.5318 335.36267 314.06305Q336.17517 314.57867 336.59705 315.56305Q337.01892 316.5318 337.01892 318.37555Q337.01892 320.29742 336.59705 321.43805Q336.1908 322.57867 335.36267 323.17242Q334.53455 323.76617 333.42517 323.76617Q332.2533 323.76617 331.5033 323.10992Q330.76892 322.45367 330.61267 321.2818ZM335.64392 316.85992Q335.64392 315.79742 335.08142 315.17242Q334.51892 314.54742 333.73767 314.54742Q332.90955 314.54742 332.30017 315.2193Q331.6908 315.89117 331.6908 316.95367Q331.6908 317.9068 332.26892 318.51617Q332.84705 319.10992 333.6908 319.10992Q334.55017 319.10992 335.09705 318.51617Q335.64392 317.9068 335.64392 316.85992Z"/><path fill="#000" fill-rule="nonzero" d="M266.50412 53.515938L267.72287 53.344063Q267.94162 54.390938 268.44162 54.859688Q268.95724 55.312813 269.69162 55.312813Q270.56662 55.312813 271.16037 54.719063Q271.75412 54.109688 271.75412 53.219063Q271.75412 52.375313 271.19162 51.828438Q270.64474 51.281563 269.801 51.281563Q269.44162 51.281563 268.926 51.406563L269.06662 50.328438Q269.19162 50.344063 269.25412 50.344063Q270.051 50.344063 270.676 49.937813Q271.301 49.531563 271.301 48.672188Q271.301 48.000313 270.84787 47.562813Q270.39474 47.109688 269.66037 47.109688Q268.94162 47.109688 268.45724 47.562813Q267.9885 48.000313 267.84787 48.906563L266.62912 48.687813Q266.84787 47.453438 267.64474 46.781563Q268.44162 46.094063 269.62912 46.094063Q270.45724 46.094063 271.14474 46.453438Q271.83224 46.797188 272.19162 47.406563Q272.56662 48.015938 272.56662 48.703438Q272.56662 49.344063 272.22287 49.875313Q271.87912 50.406563 271.19162 50.734688Q272.08224 50.937813 272.56662 51.578438Q273.06662 52.219063 273.06662 53.203438Q273.06662 54.515938 272.09787 55.422188Q271.14474 56.328438 269.69162 56.328438Q268.3635 56.328438 267.4885 55.547188Q266.62912 54.765938 266.50412 53.515938ZM274.56662 47.453438L274.56662 46.265938L281.06662 46.265938L281.06662 47.219063Q280.09787 48.234688 279.16037 49.922188Q278.22287 51.609688 277.70724 53.406563Q277.34787 54.656563 277.2385 56.156563L275.97287 56.156563Q275.9885 54.969063 276.426 53.297188Q276.87912 51.625313 277.70724 50.078438Q278.551 48.515938 279.4885 47.453438L274.56662 47.453438Z"/><path fill="#1a1a1a" fill-rule="nonzero" d="M19.471874 29.55L19.471874 20.95625L20.628124 20.95625L25.14375 27.70625L25.14375 20.95625L26.2375 20.95625L26.2375 29.55L25.065624 29.55L20.55 22.8L20.55 29.55L19.471874 29.55ZM27.95625 26.440624Q27.95625 24.70625 28.909374 23.878124Q29.70625 23.190624 30.8625 23.190624Q32.14375 23.190624 32.95625 24.034374Q33.784374 24.8625 33.784374 26.346874Q33.784374 27.55 33.425 28.2375Q33.065624 28.925 32.3625 29.315624Q31.675 29.690624 30.8625 29.690624Q29.565624 29.690624 28.753124 28.8625Q27.95625 28.01875 27.95625 26.440624ZM29.034374 26.440624Q29.034374 27.628124 29.55 28.221874Q30.08125 28.815624 30.8625 28.815624Q31.659374 28.815624 32.175 28.221874Q32.690624 27.628124 32.690624 26.409374Q32.690624 25.253124 32.159374 24.659374Q31.64375 24.065624 30.8625 24.065624Q30.08125 24.065624 29.55 24.659374Q29.034374 25.2375 29.034374 26.440624Z"/><path fill="#9e9e9e" fill-rule="nonzero" d="M24.51875 40.065624L23.471874 40.14375Q23.33125 39.51875 23.08125 39.2375Q22.64375 38.784374 22.01875 38.784374Q21.51875 38.784374 21.128124 39.065624Q20.64375 39.440624 20.346874 40.14375Q20.065624 40.83125 20.05 42.1125Q20.425 41.534374 20.971874 41.253124Q21.534374 40.971874 22.14375 40.971874Q23.190624 40.971874 23.925 41.753124Q24.675 42.534374 24.675 43.753124Q24.675 44.565624 24.315624 45.26875Q23.971874 45.95625 23.3625 46.33125Q22.753124 46.690624 21.9875 46.690624Q20.659374 46.690624 19.83125 45.721874Q19.003124 44.753124 19.003124 42.534374Q19.003124 40.034374 19.925 38.909374Q20.721874 37.925 22.08125 37.925Q23.096874 37.925 23.7375 38.503124Q24.39375 39.065624 24.51875 40.065624ZM20.221874 43.76875Q20.221874 44.315624 20.440624 44.815624Q20.675 45.3 21.08125 45.565624Q21.503124 45.83125 21.971874 45.83125Q22.628124 45.83125 23.1125 45.3Q23.596874 44.753124 23.596874 43.83125Q23.596874 42.940624 23.1125 42.425Q22.64375 41.909374 21.925 41.909374Q21.20625 41.909374 20.70625 42.425Q20.221874 42.940624 20.221874 43.76875ZM26.64375 46.55L26.64375 45.346874L27.846874 45.346874L27.846874 46.55L26.64375 46.55ZM33.01875 46.55L31.971874 46.55L31.971874 39.83125Q31.58125 40.190624 30.95625 40.565624Q30.346874 40.925 29.8625 41.096874L29.8625 40.08125Q30.7375 39.659374 31.39375 39.08125Q32.065624 38.4875 32.346874 37.925L33.01875 37.925L33.01875 46.55ZM36.253124 40.01875Q36.253124 39.096874 36.70625 38.45625Q37.175 37.815624 38.05 37.815624Q38.8625 37.815624 39.39375 38.39375Q39.925 38.971874 39.925 40.08125Q39.925 41.175 39.378124 41.76875Q38.846874 42.346874 38.065624 42.346874Q37.284374 42.346874 36.76875 41.76875Q36.253124 41.190624 36.253124 40.01875ZM38.08125 38.534374Q37.690624 38.534374 37.425 38.878124Q37.175 39.221874 37.175 40.128124Q37.175 40.95625 37.425 41.3Q37.690624 41.628124 38.08125 41.628124Q38.4875 41.628124 38.7375 41.284374Q39.003124 40.940624 39.003124 40.05Q39.003124 39.20625 38.7375 38.878124Q38.471874 38.534374 38.08125 38.534374ZM38.08125 46.8625L42.784374 37.815624L43.64375 37.815624L38.95625 46.8625L38.08125 46.8625ZM41.8 44.534374Q41.8 43.6125 42.253124 42.971874Q42.721874 42.33125 43.6125 42.33125Q44.425 42.33125 44.95625 42.909374Q45.4875 43.471874 45.4875 44.596874Q45.4875 45.690624 44.940624 46.284374Q44.409374 46.8625 43.6125 46.8625Q42.846874 46.8625 42.315624 46.284374Q41.8 45.70625 41.8 44.534374ZM43.64375 43.05Q43.2375 43.05 42.971874 43.39375Q42.721874 43.7375 42.721874 44.64375Q42.721874 45.45625 42.9875 45.8Q43.253124 46.14375 43.64375 46.14375Q44.034374 46.14375 44.3 45.8Q44.565624 45.45625 44.565624 44.55Q44.565624 43.721874 44.3 43.39375Q44.034374 43.05 43.64375 43.05Z"/><path fill-rule="nonzero" stroke="#757575" stroke-linecap="butt" stroke-width="1" d="M18.55 34.05L127.05 34.05L269.76413 29.806248"/><path fill="#9e9e9e" fill-rule="nonzero" d="M271.76413 29.806248C271.76413 28.701677 270.86868 27.806248 269.76413 27.806248C268.65955 27.806248 267.76413 28.701677 267.76413 29.806248C267.76413 30.910816 268.65955 31.806248 269.76413 31.806248C270.86868 31.806248 271.76413 30.910816 271.76413 29.806248"/><path fill="#1a1a1a" fill-rule="nonzero" d="M563.79376 332.45L563.79376 328.8094L560.48126 323.85626L561.8719 323.85626L563.5594 326.45Q564.02814 327.16876 564.4344 327.90314Q564.825 327.23126 565.3719 326.3875L567.04376 323.85626L568.35626 323.85626L564.9344 328.8094L564.9344 332.45L563.79376 332.45ZM572.4969 330.45L573.59064 330.575Q573.34064 331.52814 572.6375 332.0594Q571.9344 332.59064 570.85626 332.59064Q569.4969 332.59064 568.6844 331.7469Q567.8875 330.90314 567.8875 329.3875Q567.8875 327.825 568.7 326.96564Q569.5125 326.09064 570.79376 326.09064Q572.04376 326.09064 572.825 326.9344Q573.6219 327.77814 573.6219 329.325Q573.6219 329.41876 573.6219 329.60626L568.98126 329.60626Q569.04376 330.6375 569.5594 331.1844Q570.075 331.71564 570.85626 331.71564Q571.4344 331.71564 571.84064 331.41876Q572.2625 331.10626 572.4969 330.45ZM569.04376 328.7469L572.5125 328.7469Q572.45 327.95 572.1219 327.5594Q571.60626 326.95 570.8094 326.95Q570.075 326.95 569.575 327.4344Q569.09064 327.91876 569.04376 328.7469ZM574.825 330.59064L575.85626 330.4344Q575.95 331.0594 576.34064 331.3875Q576.7469 331.71564 577.48126 331.71564Q578.2 331.71564 578.54376 331.4344Q578.90314 331.1375 578.90314 330.73126Q578.90314 330.3719 578.59064 330.16876Q578.3719 330.02814 577.5125 329.8094Q576.35626 329.5125 575.90314 329.3094Q575.46564 329.09064 575.23126 328.71564Q574.9969 328.34064 574.9969 327.8719Q574.9969 327.46564 575.1844 327.10626Q575.3719 326.7469 575.7 326.5125Q575.95 326.34064 576.3719 326.21564Q576.79376 326.09064 577.29376 326.09064Q578.0125 326.09064 578.5594 326.3094Q579.1219 326.5125 579.3875 326.8719Q579.65314 327.23126 579.7469 327.825L578.71564 327.96564Q578.65314 327.4969 578.3094 327.23126Q577.98126 326.95 577.35626 326.95Q576.6375 326.95 576.325 327.2Q576.0125 327.4344 576.0125 327.7625Q576.0125 327.96564 576.1375 328.1219Q576.27814 328.29376 576.54376 328.40314Q576.7 328.46564 577.48126 328.66876Q578.60626 328.98126 579.04376 329.16876Q579.48126 329.35626 579.73126 329.71564Q579.98126 330.075 579.98126 330.6219Q579.98126 331.15314 579.66876 331.6219Q579.3719 332.075 578.79376 332.34064Q578.21564 332.59064 577.48126 332.59064Q576.2625 332.59064 575.6219 332.09064Q574.9969 331.575 574.825 330.59064Z"/><path fill="#9e9e9e" fill-rule="nonzero" d="M547.10626 347.46564L548.1219 347.3719Q548.2469 348.09064 548.60626 348.41876Q548.98126 348.73126 549.54376 348.73126Q550.02814 348.73126 550.3875 348.5125Q550.7625 348.27814 550.9969 347.91876Q551.23126 347.54376 551.3875 346.91876Q551.54376 346.27814 551.54376 345.6219Q551.54376 345.54376 551.54376 345.40314Q551.23126 345.90314 550.6844 346.23126Q550.1375 346.54376 549.4969 346.54376Q548.41876 346.54376 547.6844 345.77814Q546.95 344.9969 546.95 343.73126Q546.95 342.41876 547.71564 341.6219Q548.4969 340.825 549.65314 340.825Q550.48126 340.825 551.16876 341.27814Q551.8719 341.73126 552.23126 342.575Q552.59064 343.40314 552.59064 344.98126Q552.59064 346.6219 552.23126 347.60626Q551.8875 348.575 551.16876 349.09064Q550.46564 349.59064 549.52814 349.59064Q548.5125 349.59064 547.8719 349.04376Q547.23126 348.48126 547.10626 347.46564ZM551.41876 343.66876Q551.41876 342.7625 550.9344 342.23126Q550.46564 341.7 549.77814 341.7Q549.075 341.7 548.54376 342.27814Q548.02814 342.84064 548.02814 343.7625Q548.02814 344.575 548.52814 345.09064Q549.02814 345.60626 549.7469 345.60626Q550.48126 345.60626 550.95 345.09064Q551.41876 344.575 551.41876 343.66876ZM553.95 347.1844L555.0125 347.04376Q555.1844 347.9344 555.6219 348.34064Q556.0594 348.73126 556.6844 348.73126Q557.4344 348.73126 557.95 348.21564Q558.46564 347.7 558.46564 346.9344Q558.46564 346.21564 557.98126 345.7469Q557.5125 345.2625 556.77814 345.2625Q556.48126 345.2625 556.02814 345.3875L556.15314 344.45Q556.2625 344.46564 556.325 344.46564Q556.9969 344.46564 557.52814 344.1219Q558.075 343.7625 558.075 343.02814Q558.075 342.45 557.6844 342.075Q557.29376 341.6844 556.66876 341.6844Q556.0594 341.6844 555.6375 342.075Q555.23126 342.46564 555.1219 343.23126L554.0594 343.04376Q554.2469 341.9969 554.9344 341.41876Q555.6219 340.825 556.6375 340.825Q557.34064 340.825 557.9344 341.1375Q558.52814 341.4344 558.84064 341.95Q559.15314 342.46564 559.15314 343.0594Q559.15314 343.60626 558.85626 344.075Q558.5594 344.52814 557.98126 344.79376Q558.73126 344.96564 559.15314 345.52814Q559.575 346.075 559.575 346.91876Q559.575 348.04376 558.7469 348.825Q557.9344 349.60626 556.6844 349.60626Q555.5594 349.60626 554.8094 348.9344Q554.0594 348.2469 553.95 347.1844ZM561.54376 349.45L561.54376 348.2469L562.7469 348.2469L562.7469 349.45L561.54376 349.45ZM564.10626 347.46564L565.1219 347.3719Q565.2469 348.09064 565.60626 348.41876Q565.98126 348.73126 566.54376 348.73126Q567.02814 348.73126 567.3875 348.5125Q567.7625 348.27814 567.9969 347.91876Q568.23126 347.54376 568.3875 346.91876Q568.54376 346.27814 568.54376 345.6219Q568.54376 345.54376 568.54376 345.40314Q568.23126 345.90314 567.6844 346.23126Q567.1375 346.54376 566.4969 346.54376Q565.41876 346.54376 564.6844 345.77814Q563.95 344.9969 563.95 343.73126Q563.95 342.41876 564.71564 341.6219Q565.4969 340.825 566.65314 340.825Q567.48126 340.825 568.16876 341.27814Q568.8719 341.73126 569.23126 342.575Q569.59064 343.40314 569.59064 344.98126Q569.59064 346.6219 569.23126 347.60626Q568.8875 348.575 568.16876 349.09064Q567.46564 349.59064 566.52814 349.59064Q565.5125 349.59064 564.8719 349.04376Q564.23126 348.48126 564.10626 347.46564ZM568.41876 343.66876Q568.41876 342.7625 567.9344 342.23126Q567.46564 341.7 566.77814 341.7Q566.075 341.7 565.54376 342.27814Q565.02814 342.84064 565.02814 343.7625Q565.02814 344.575 565.52814 345.09064Q566.02814 345.60626 566.7469 345.60626Q567.48126 345.60626 567.95 345.09064Q568.41876 344.575 568.41876 343.66876ZM571.15314 342.91876Q571.15314 341.9969 571.60626 341.35626Q572.075 340.71564 572.95 340.71564Q573.7625 340.71564 574.29376 341.29376Q574.825 341.8719 574.825 342.98126Q574.825 344.075 574.27814 344.66876Q573.7469 345.2469 572.96564 345.2469Q572.1844 345.2469 571.66876 344.66876Q571.15314 344.09064 571.15314 342.91876ZM572.98126 341.4344Q572.59064 341.4344 572.325 341.77814Q572.075 342.1219 572.075 343.02814Q572.075 343.85626 572.325 344.2Q572.59064 344.52814 572.98126 344.52814Q573.3875 344.52814 573.6375 344.1844Q573.90314 343.84064 573.90314 342.95Q573.90314 342.10626 573.6375 341.77814Q573.3719 341.4344 572.98126 341.4344ZM572.98126 349.7625L577.6844 340.71564L578.54376 340.71564L573.85626 349.7625L572.98126 349.7625ZM576.7 347.4344Q576.7 346.5125 577.15314 345.8719Q577.6219 345.23126 578.5125 345.23126Q579.325 345.23126 579.85626 345.8094Q580.3875 346.3719 580.3875 347.4969Q580.3875 348.59064 579.84064 349.1844Q579.3094 349.7625 578.5125 349.7625Q577.7469 349.7625 577.21564 349.1844Q576.7 348.60626 576.7 347.4344ZM578.54376 345.95Q578.1375 345.95 577.8719 346.29376Q577.6219 346.6375 577.6219 347.54376Q577.6219 348.35626 577.8875 348.7Q578.15314 349.04376 578.54376 349.04376Q578.9344 349.04376 579.2 348.7Q579.46564 348.35626 579.46564 347.45Q579.46564 346.6219 579.2 346.29376Q578.9344 345.95 578.54376 345.95Z"/><path fill-rule="nonzero" stroke="#757575" stroke-linecap="butt" stroke-width="1" d="M581.45 336.95L472.95 336.95L330.23587 341.19376"/><path fill="#9e9e9e" fill-rule="nonzero" d="M332.23587 341.19376C332.23587 340.08917 331.34045 339.19376 330.23587 339.19376C329.13132 339.19376 328.23587 340.08917 328.23587 341.19376C328.23587 342.2983 329.13132 343.19376 330.23587 343.19376C331.34045 343.19376 332.23587 342.2983 332.23587 341.19376"/></svg>