<svg version="1.1" viewBox="0.0 0.0 745.0 371.0" fill="none" stroke="none" stroke-linecap="square" stroke-miterlimit="10" width="745" height="371" xmlns:xlink="http://www.w3.org/1999/xlink" xmlns="http://www.w3.org/2000/svg"><path fill="#ffffff" d="M0 0L745.0 0L745.0 371.0L0 371.0L0 0Z" fill-rule="nonzero"/><path fill="#fbbc04" d="M214.77785 130.76404C238.0906 63.58812 301.39383 18.55 372.5 18.55L372.5 185.5Z" fill-rule="nonzero"/><path fill="#ea4335" d="M303.6423 337.58853C225.00732 301.98672 186.4775 212.31178 214.77785 130.76404L372.5 185.5Z" fill-rule="nonzero"/><path fill="#4285f4" d="M372.5 18.55C440.6826 18.55 502.01373 60.011497 527.42346 123.28243C552.8332 186.55338 537.21484 258.91794 487.97122 306.07654C438.7276 353.23514 365.75543 365.7101 303.6423 337.58853L372.5 185.5Z" fill-rule="nonzero"/><path fill="#000000" d="M490.81525 215.85701L492.034 215.68513Q492.25275 216.73201 492.75275 217.20076Q493.26837 217.65388 494.00275 217.65388Q494.87775 217.65388 495.4715 217.06013Q496.06525 216.45076 496.06525 215.56013Q496.06525 214.71638 495.50275 214.16951Q494.95587 213.62263 494.11212 213.62263Q493.75275 213.62263 493.23712 213.74763L493.37775 212.66951Q493.50275 212.68513 493.56525 212.68513Q494.36212 212.68513 494.98712 212.27888Q495.61212 211.87263 495.61212 211.01326Q495.61212 210.34138 495.159 209.90388Q494.70587 209.45076 493.9715 209.45076Q493.25275 209.45076 492.76837 209.90388Q492.29962 210.34138 492.159 211.24763L490.94025 211.02888Q491.159 209.79451 491.95587 209.12263Q492.75275 208.43513 493.94025 208.43513Q494.76837 208.43513 495.45587 208.79451Q496.14337 209.13826 496.50275 209.74763Q496.87775 210.35701 496.87775 211.04451Q496.87775 211.68513 496.534 212.21638Q496.19025 212.74763 495.50275 213.07576Q496.39337 213.27888 496.87775 213.91951Q497.37775 214.56013 497.37775 215.54451Q497.37775 216.85701 496.409 217.76326Q495.45587 218.66951 494.00275 218.66951Q492.67462 218.66951 491.79962 217.88826Q490.94025 217.10701 490.81525 215.85701ZM505.26837 217.31013L505.26837 218.49763L498.64337 218.49763Q498.62775 218.06013 498.784 217.63826Q499.04962 216.96638 499.5965 216.31013Q500.159 215.65388 501.20587 214.79451Q502.8465 213.45076 503.409 212.66951Q503.98712 211.88826 503.98712 211.18513Q503.98712 210.45076 503.45587 209.95076Q502.94025 209.45076 502.11212 209.45076Q501.2215 209.45076 500.67462 209.98201Q500.14337 210.51326 500.14337 211.46638L498.87775 211.32576Q499.00275 209.91951 499.8465 209.18513Q500.70587 208.43513 502.12775 208.43513Q503.58087 208.43513 504.409 209.23201Q505.25275 210.02888 505.25275 211.21638Q505.25275 211.82576 505.00275 212.40388Q504.76837 212.98201 504.19025 213.62263Q503.62775 214.26326 502.29962 215.38826Q501.19025 216.31013 500.87775 216.65388Q500.56525 216.98201 500.36212 217.31013L505.26837 217.31013ZM506.81525 215.85701L508.034 215.68513Q508.25275 216.73201 508.75275 217.20076Q509.26837 217.65388 510.00275 217.65388Q510.87775 217.65388 511.4715 217.06013Q512.06525 216.45076 512.06525 215.56013Q512.06525 214.71638 511.50275 214.16951Q510.95587 213.62263 510.11212 213.62263Q509.75275 213.62263 509.23712 213.74763L509.37775 212.66951Q509.50275 212.68513 509.56525 212.68513Q510.36212 212.68513 510.98712 212.27888Q511.61212 211.87263 511.61212 211.01326Q511.61212 210.34138 511.159 209.90388Q510.70587 209.45076 509.9715 209.45076Q509.25275 209.45076 508.76837 209.90388Q508.29962 210.34138 508.159 211.24763L506.94025 211.02888Q507.159 209.79451 507.95587 209.12263Q508.75275 208.43513 509.94025 208.43513Q510.76837 208.43513 511.45587 208.79451Q512.1434 209.13826 512.50275 209.74763Q512.87775 210.35701 512.87775 211.04451Q512.87775 211.68513 512.534 212.21638Q512.19025 212.74763 511.50275 213.07576Q512.3934 213.27888 512.87775 213.91951Q513.37775 214.56013 513.37775 215.54451Q513.37775 216.85701 512.409 217.76326Q511.45587 218.66951 510.00275 218.66951Q508.67462 218.66951 507.79962 217.88826Q506.94025 217.10701 506.81525 215.85701Z" fill-rule="nonzero"/><path fill="#000000" d="M245.86383 241.99701L244.62946 241.99701L244.62946 234.15326Q244.19196 234.57513 243.45758 235.01263Q242.73883 235.43451 242.17633 235.63763L242.17633 234.45013Q243.20758 233.96576 243.9732 233.27826Q244.75446 232.59076 245.06696 231.93451L245.86383 231.93451L245.86383 241.99701ZM249.23883 239.35638L250.45758 239.18451Q250.67633 240.23138 251.17633 240.70013Q251.69196 241.15326 252.42633 241.15326Q253.30133 241.15326 253.89508 240.55951Q254.48883 239.95013 254.48883 239.05951Q254.48883 238.21576 253.92633 237.66888Q253.37946 237.12201 252.5357 237.12201Q252.17633 237.12201 251.6607 237.24701L251.80133 236.16888Q251.92633 236.18451 251.98883 236.18451Q252.7857 236.18451 253.4107 235.77826Q254.0357 235.37201 254.0357 234.51263Q254.0357 233.84076 253.58258 233.40326Q253.12946 232.95013 252.39508 232.95013Q251.67633 232.95013 251.19196 233.40326Q250.7232 233.84076 250.58258 234.74701L249.36383 234.52826Q249.58258 233.29388 250.37946 232.62201Q251.17633 231.93451 252.36383 231.93451Q253.19196 231.93451 253.87946 232.29388Q254.56696 232.63763 254.92633 233.24701Q255.30133 233.85638 255.30133 234.54388Q255.30133 235.18451 254.95758 235.71576Q254.61383 236.24701 253.92633 236.57513Q254.81696 236.77826 255.30133 237.41888Q255.80133 238.05951 255.80133 239.04388Q255.80133 240.35638 254.83258 241.26263Q253.87946 242.16888 252.42633 242.16888Q251.0982 242.16888 250.2232 241.38763Q249.36383 240.60638 249.23883 239.35638ZM261.17633 241.99701L261.17633 239.59076L256.81696 239.59076L256.81696 238.46576L261.39508 231.98138L262.39508 231.98138L262.39508 238.46576L263.75446 238.46576L263.75446 239.59076L262.39508 239.59076L262.39508 241.99701L261.17633 241.99701ZM261.17633 238.46576L261.17633 233.95013L258.0357 238.46576L261.17633 238.46576Z" fill-rule="nonzero"/><path fill="#000000" d="M290.38647 84.616936L289.1521 84.616936L289.1521 76.773186Q288.7146 77.19506 287.98022 77.63256Q287.26147 78.054436 286.69897 78.25756L286.69897 77.07006Q287.73022 76.585686 288.49585 75.898186Q289.2771 75.210686 289.5896 74.554436L290.38647 74.554436L290.38647 84.616936ZM298.38647 84.616936L297.1521 84.616936L297.1521 76.773186Q296.7146 77.19506 295.98022 77.63256Q295.26147 78.054436 294.69897 78.25756L294.69897 77.07006Q295.73022 76.585686 296.49585 75.898186Q297.2771 75.210686 297.5896 74.554436L298.38647 74.554436L298.38647 84.616936ZM308.2146 83.429436L308.2146 84.616936L301.5896 84.616936Q301.57397 84.179436 301.73022 83.75756Q301.99585 83.085686 302.54272 82.429436Q303.10522 81.773186 304.1521 80.91381Q305.79272 79.57006 306.35522 78.78881Q306.93335 78.00756 306.93335 77.304436Q306.93335 76.57006 306.4021 76.07006Q305.88647 75.57006 305.05835 75.57006Q304.16772 75.57006 303.62085 76.10131Q303.0896 76.63256 303.0896 77.585686L301.82397 77.44506Q301.94897 76.03881 302.79272 75.304436Q303.6521 74.554436 305.07397 74.554436Q306.5271 74.554436 307.35522 75.35131Q308.19897 76.148186 308.19897 77.335686Q308.19897 77.94506 307.94897 78.523186Q307.7146 79.10131 307.13647 79.741936Q306.57397 80.38256 305.24585 81.50756Q304.13647 82.429436 303.82397 82.773186Q303.51147 83.10131 303.30835 83.429436L308.2146 83.429436Z" fill-rule="nonzero"/><path fill="#1a1a1a" d="M21.89375 51.76775L21.89375 48.127125L18.58125 43.174L19.971874 43.174L21.659374 45.76775Q22.128124 46.4865 22.534374 47.220875Q22.925 46.549 23.471874 45.70525L25.14375 43.174L26.45625 43.174L23.034374 48.127125L23.034374 51.76775L21.89375 51.76775ZM30.596874 49.76775L31.690624 49.89275Q31.440624 50.845875 30.7375 51.377125Q30.034374 51.908375 28.95625 51.908375Q27.596874 51.908375 26.784374 51.064625Q25.9875 50.220875 25.9875 48.70525Q25.9875 47.14275 26.8 46.283375Q27.6125 45.408375 28.89375 45.408375Q30.14375 45.408375 30.925 46.252125Q31.721874 47.095875 31.721874 48.64275Q31.721874 48.7365 31.721874 48.924L27.08125 48.924Q27.14375 49.95525 27.659374 50.502125Q28.175 51.033375 28.95625 51.033375Q29.534374 51.033375 29.940624 50.7365Q30.3625 50.424 30.596874 49.76775ZM27.14375 48.064625L30.6125 48.064625Q30.55 47.26775 30.221874 46.877125Q29.70625 46.26775 28.909374 46.26775Q28.175 46.26775 27.675 46.752125Q27.190624 47.2365 27.14375 48.064625ZM32.925 49.908375L33.95625 49.752125Q34.05 50.377125 34.440624 50.70525Q34.846874 51.033375 35.58125 51.033375Q36.3 51.033375 36.64375 50.752125Q37.003124 50.45525 37.003124 50.049Q37.003124 49.689625 36.690624 49.4865Q36.471874 49.345875 35.6125 49.127125Q34.45625 48.83025 34.003124 48.627125Q33.565624 48.408375 33.33125 48.033375Q33.096874 47.658375 33.096874 47.189625Q33.096874 46.783375 33.284374 46.424Q33.471874 46.064625 33.8 45.83025Q34.05 45.658375 34.471874 45.533375Q34.89375 45.408375 35.39375 45.408375Q36.1125 45.408375 36.659374 45.627125Q37.221874 45.83025 37.4875 46.189625Q37.753124 46.549 37.846874 47.14275L36.815624 47.283375Q36.753124 46.814625 36.409374 46.549Q36.08125 46.26775 35.45625 46.26775Q34.7375 46.26775 34.425 46.51775Q34.1125 46.752125 34.1125 47.08025Q34.1125 47.283375 34.2375 47.439625Q34.378124 47.6115 34.64375 47.720875Q34.8 47.783375 35.58125 47.9865Q36.70625 48.299 37.14375 48.4865Q37.58125 48.674 37.83125 49.033375Q38.08125 49.39275 38.08125 49.939625Q38.08125 50.470875 37.76875 50.939625Q37.471874 51.39275 36.89375 51.658375Q36.315624 51.908375 35.58125 51.908375Q34.3625 51.908375 33.721874 51.408375Q33.096874 50.89275 32.925 49.908375ZM40.6125 51.76775L40.6125 50.564625L41.815624 50.564625L41.815624 51.76775Q41.815624 52.424 41.58125 52.83025Q41.346874 53.252125 40.846874 53.470875L40.55 53.01775Q40.878124 52.877125 41.034374 52.58025Q41.190624 52.299 41.221874 51.76775L40.6125 51.76775ZM46.675 51.76775L46.675 43.174L47.8 43.174L47.8 51.76775L46.675 51.76775ZM52.33125 51.76775L52.33125 45.549L53.284374 45.549L53.284374 46.4865Q53.64375 45.83025 53.940624 45.627125Q54.253124 45.408375 54.628124 45.408375Q55.159374 45.408375 55.70625 45.7365L55.346874 46.720875Q54.95625 46.4865 54.58125 46.4865Q54.221874 46.4865 53.940624 46.70525Q53.675 46.908375 53.565624 47.283375Q53.378124 47.845875 53.378124 48.502125L53.378124 51.76775L52.33125 51.76775ZM60.596874 49.76775L61.690624 49.89275Q61.440624 50.845875 60.7375 51.377125Q60.034374 51.908375 58.95625 51.908375Q57.596874 51.908375 56.784374 51.064625Q55.9875 50.220875 55.9875 48.70525Q55.9875 47.14275 56.8 46.283375Q57.6125 45.408375 58.89375 45.408375Q60.14375 45.408375 60.925 46.252125Q61.721874 47.095875 61.721874 48.64275Q61.721874 48.7365 61.721874 48.924L57.08125 48.924Q57.14375 49.95525 57.659374 50.502125Q58.175 51.033375 58.95625 51.033375Q59.534374 51.033375 59.940624 50.7365Q60.3625 50.424 60.596874 49.76775ZM57.14375 48.064625L60.6125 48.064625Q60.55 47.26775 60.221874 46.877125Q59.70625 46.26775 58.909374 46.26775Q58.175 46.26775 57.675 46.752125Q57.190624 47.2365 57.14375 48.064625ZM67.40938 51.002125Q66.81563 51.502125 66.26875 51.70525Q65.7375 51.908375 65.1125 51.908375Q64.08125 51.908375 63.534374 51.408375Q62.9875 50.908375 62.9875 50.127125Q62.9875 49.674 63.190624 49.299Q63.39375 48.908375 63.7375 48.689625Q64.08125 48.45525 64.50313 48.345875Q64.8 48.252125 65.44063 48.174Q66.70625 48.033375 67.31563 47.814625Q67.31563 47.595875 67.31563 47.549Q67.31563 46.89275 67.01875 46.627125Q66.6125 46.283375 65.81563 46.283375Q65.08125 46.283375 64.72188 46.549Q64.3625 46.799 64.19063 47.45525L63.159374 47.314625Q63.3 46.658375 63.628124 46.252125Q63.95625 45.845875 64.56563 45.627125Q65.175 45.408375 65.97188 45.408375Q66.76875 45.408375 67.26875 45.595875Q67.76875 45.783375 68.00313 46.064625Q68.2375 46.345875 68.33125 46.783375Q68.37813 47.049 68.37813 47.752125L68.37813 49.158375Q68.37813 50.627125 68.44063 51.01775Q68.51875 51.408375 68.72188 51.76775L67.6125 51.76775Q67.45625 51.439625 67.40938 51.002125ZM67.31563 48.64275Q66.7375 48.877125 65.59688 49.049Q64.94063 49.14275 64.675 49.26775Q64.40938 49.377125 64.25313 49.595875Q64.1125 49.814625 64.1125 50.095875Q64.1125 50.51775 64.425 50.799Q64.75313 51.08025 65.3625 51.08025Q65.97188 51.08025 66.44063 50.814625Q66.925 50.549 67.14375 50.08025Q67.31563 49.720875 67.31563 49.033375L67.31563 48.64275ZM74.37813 51.76775L74.37813 50.9865Q73.78438 51.908375 72.64375 51.908375Q71.89375 51.908375 71.26875 51.502125Q70.64375 51.08025 70.3 50.345875Q69.95625 49.6115 69.95625 48.658375Q69.95625 47.7365 70.26875 46.970875Q70.58125 46.20525 71.20625 45.814625Q71.83125 45.408375 72.59688 45.408375Q73.15938 45.408375 73.59688 45.64275Q74.03438 45.877125 74.31563 46.252125L74.31563 43.174L75.3625 43.174L75.3625 51.76775L74.37813 51.76775ZM71.05 48.658375Q71.05 49.8615 71.55 50.45525Q72.05 51.033375 72.7375 51.033375Q73.425 51.033375 73.90938 50.470875Q74.39375 49.908375 74.39375 48.752125Q74.39375 47.470875 73.89375 46.877125Q73.40938 46.283375 72.69063 46.283375Q71.9875 46.283375 71.51875 46.8615Q71.05 47.424 71.05 48.658375ZM82.64375 50.83025L82.8 51.752125Q82.34688 51.845875 82.00313 51.845875Q81.425 51.845875 81.1125 51.674Q80.8 51.4865 80.65938 51.189625Q80.53438 50.89275 80.53438 49.939625L80.53438 46.3615L79.76875 46.3615L79.76875 45.549L80.53438 45.549L80.53438 44.002125L81.58125 43.377125L81.58125 45.549L82.64375 45.549L82.64375 46.3615L81.58125 46.3615L81.58125 50.002125Q81.58125 50.45525 81.62813 50.58025Q81.69063 50.70525 81.81563 50.783375Q81.94063 50.8615 82.175 50.8615Q82.3625 50.8615 82.64375 50.83025ZM83.34688 51.76775L83.34688 43.174L84.39375 43.174L84.39375 46.252125Q85.12813 45.408375 86.25313 45.408375Q86.95625 45.408375 87.45625 45.689625Q87.97188 45.95525 88.19063 46.439625Q88.40938 46.908375 88.40938 47.83025L88.40938 51.76775L87.3625 51.76775L87.3625 47.83025Q87.3625 47.033375 87.01875 46.674Q86.675 46.314625 86.05 46.314625Q85.58125 46.314625 85.15938 46.564625Q84.75313 46.799 84.56563 47.220875Q84.39375 47.627125 84.39375 48.3615L84.39375 51.76775L83.34688 51.76775ZM94.59688 49.76775L95.69063 49.89275Q95.44063 50.845875 94.7375 51.377125Q94.03438 51.908375 92.95625 51.908375Q91.59688 51.908375 90.78438 51.064625Q89.9875 50.220875 89.9875 48.70525Q89.9875 47.14275 90.8 46.283375Q91.6125 45.408375 92.89375 45.408375Q94.14375 45.408375 94.925 46.252125Q95.72188 47.095875 95.72188 48.64275Q95.72188 48.7365 95.72188 48.924L91.08125 48.924Q91.14375 49.95525 91.65938 50.502125Q92.175 51.033375 92.95625 51.033375Q93.53438 51.033375 93.94063 50.7365Q94.3625 50.424 94.59688 49.76775ZM91.14375 48.064625L94.6125 48.064625Q94.55 47.26775 94.22188 46.877125Q93.70625 46.26775 92.90938 46.26775Q92.175 46.26775 91.675 46.752125Q91.19063 47.2365 91.14375 48.064625ZM99.925 49.908375L100.95625 49.752125Q101.05 50.377125 101.44063 50.70525Q101.84688 51.033375 102.58125 51.033375Q103.3 51.033375 103.64375 50.752125Q104.00313 50.45525 104.00313 50.049Q104.00313 49.689625 103.69063 49.4865Q103.47188 49.345875 102.6125 49.127125Q101.45625 48.83025 101.00313 48.627125Q100.56563 48.408375 100.33125 48.033375Q100.09688 47.658375 100.09688 47.189625Q100.09688 46.783375 100.28438 46.424Q100.47188 46.064625 100.8 45.83025Q101.05 45.658375 101.47188 45.533375Q101.89375 45.408375 102.39375 45.408375Q103.1125 45.408375 103.65938 45.627125Q104.22188 45.83025 104.4875 46.189625Q104.75313 46.549 104.84688 47.14275L103.81563 47.283375Q103.75313 46.814625 103.40938 46.549Q103.08125 46.26775 102.45625 46.26775Q101.7375 46.26775 101.425 46.51775Q101.1125 46.752125 101.1125 47.08025Q101.1125 47.283375 101.2375 47.439625Q101.37813 47.6115 101.64375 47.720875Q101.8 47.783375 102.58125 47.9865Q103.70625 48.299 104.14375 48.4865Q104.58125 48.674 104.83125 49.033375Q105.08125 49.39275 105.08125 49.939625Q105.08125 50.470875 104.76875 50.939625Q104.47188 51.39275 103.89375 51.658375Q103.31563 51.908375 102.58125 51.908375Q101.3625 51.908375 100.72188 51.408375Q100.09688 50.89275 99.925 49.908375ZM109.64375 50.83025L109.8 51.752125Q109.34688 51.845875 109.00313 51.845875Q108.425 51.845875 108.1125 51.674Q107.8 51.4865 107.65938 51.189625Q107.53438 50.89275 107.53438 49.939625L107.53438 46.3615L106.76875 46.3615L106.76875 45.549L107.53438 45.549L107.53438 44.002125L108.58125 43.377125L108.58125 45.549L109.64375 45.549L109.64375 46.3615L108.58125 46.3615L108.58125 50.002125Q108.58125 50.45525 108.62813 50.58025Q108.69063 50.70525 108.81563 50.783375Q108.94063 50.8615 109.175 50.8615Q109.3625 50.8615 109.64375 50.83025ZM109.95625 48.658375Q109.95625 46.924 110.90938 46.095875Q111.70625 45.408375 112.8625 45.408375Q114.14375 45.408375 114.95625 46.252125Q115.78438 47.08025 115.78438 48.564625Q115.78438 49.76775 115.425 50.45525Q115.06563 51.14275 114.3625 51.533375Q113.675 51.908375 112.8625 51.908375Q111.56563 51.908375 110.75313 51.08025Q109.95625 50.2365 109.95625 48.658375ZM111.03438 48.658375Q111.03438 49.845875 111.55 50.439625Q112.08125 51.033375 112.8625 51.033375Q113.65938 51.033375 114.175 50.439625Q114.69063 49.845875 114.69063 48.627125Q114.69063 47.470875 114.15938 46.877125Q113.64375 46.283375 112.8625 46.283375Q112.08125 46.283375 111.55 46.877125Q111.03438 47.45525 111.03438 48.658375ZM117.33125 51.76775L117.33125 45.549L118.28438 45.549L118.28438 46.4865Q118.64375 45.83025 118.94063 45.627125Q119.25313 45.408375 119.62813 45.408375Q120.15938 45.408375 120.70625 45.7365L120.34688 46.720875Q119.95625 46.4865 119.58125 46.4865Q119.22188 46.4865 118.94063 46.70525Q118.675 46.908375 118.56563 47.283375Q118.37813 47.845875 118.37813 48.502125L118.37813 51.76775L117.33125 51.76775ZM121.3 54.158375L121.175 53.174Q121.51875 53.26775 121.78438 53.26775Q122.12813 53.26775 122.33125 53.14275Q122.55 53.033375 122.69063 52.83025Q122.78438 52.658375 123.01875 52.033375Q123.03438 51.95525 123.1125 51.783375L120.7375 45.549L121.87813 45.549L123.175 49.14275Q123.425 49.83025 123.62813 50.595875Q123.81563 49.8615 124.06563 49.174L125.39375 45.549L126.44063 45.549L124.08125 51.877125Q123.69063 52.89275 123.4875 53.283375Q123.20625 53.814625 122.83125 54.049Q122.47188 54.299 121.97188 54.299Q121.675 54.299 121.3 54.158375ZM129.34688 44.39275L129.34688 43.174L130.40938 43.174L130.40938 44.39275L129.34688 44.39275ZM129.34688 51.76775L129.34688 45.549L130.40938 45.549L130.40938 51.76775L129.34688 51.76775ZM132.34688 51.76775L132.34688 45.549L133.28438 45.549L133.28438 46.424Q133.97188 45.408375 135.26875 45.408375Q135.83125 45.408375 136.3 45.6115Q136.78438 45.814625 137.01875 46.14275Q137.25313 46.470875 137.34688 46.908375Q137.39375 47.20525 137.39375 47.939625L137.39375 51.76775L136.34688 51.76775L136.34688 47.9865Q136.34688 47.33025 136.22188 47.01775Q136.09688 46.70525 135.78438 46.51775Q135.47188 46.314625 135.05 46.314625Q134.37813 46.314625 133.87813 46.752125Q133.39375 47.174 133.39375 48.3615L133.39375 51.76775L132.34688 51.76775ZM138.925 49.189625L138.925 48.127125L142.175 48.127125L142.175 49.189625L138.925 49.189625ZM143.14375 52.283375L144.175 52.439625Q144.2375 52.908375 144.53438 53.127125Q144.925 53.424 145.59688 53.424Q146.33125 53.424 146.72188 53.127125Q147.12813 52.83025 147.26875 52.314625Q147.3625 51.9865 147.34688 50.95525Q146.65938 51.76775 145.62813 51.76775Q144.34688 51.76775 143.64375 50.845875Q142.94063 49.908375 142.94063 48.627125Q142.94063 47.7365 143.25313 46.9865Q143.58125 46.220875 144.19063 45.814625Q144.8 45.408375 145.62813 45.408375Q146.7375 45.408375 147.45625 46.299L147.45625 45.549L148.425 45.549L148.425 50.924Q148.425 52.377125 148.12813 52.9865Q147.83125 53.595875 147.19063 53.939625Q146.55 54.299 145.6125 54.299Q144.50313 54.299 143.81563 53.799Q143.12813 53.299 143.14375 52.283375ZM144.01875 48.549Q144.01875 49.76775 144.50313 50.33025Q144.9875 50.89275 145.72188 50.89275Q146.45625 50.89275 146.94063 50.33025Q147.44063 49.76775 147.44063 48.58025Q147.44063 47.439625 146.925 46.8615Q146.425 46.283375 145.70625 46.283375Q145.00313 46.283375 144.50313 46.8615Q144.01875 47.424 144.01875 48.549ZM154.40938 51.002125Q153.81563 51.502125 153.26875 51.70525Q152.7375 51.908375 152.1125 51.908375Q151.08125 51.908375 150.53438 51.408375Q149.9875 50.908375 149.9875 50.127125Q149.9875 49.674 150.19063 49.299Q150.39375 48.908375 150.7375 48.689625Q151.08125 48.45525 151.50313 48.345875Q151.8 48.252125 152.44063 48.174Q153.70625 48.033375 154.31563 47.814625Q154.31563 47.595875 154.31563 47.549Q154.31563 46.89275 154.01875 46.627125Q153.6125 46.283375 152.81563 46.283375Q152.08125 46.283375 151.72188 46.549Q151.3625 46.799 151.19063 47.45525L150.15938 47.314625Q150.3 46.658375 150.62813 46.252125Q150.95625 45.845875 151.56563 45.627125Q152.175 45.408375 152.97188 45.408375Q153.76875 45.408375 154.26875 45.595875Q154.76875 45.783375 155.00313 46.064625Q155.2375 46.345875 155.33125 46.783375Q155.37813 47.049 155.37813 47.752125L155.37813 49.158375Q155.37813 50.627125 155.44063 51.01775Q155.51875 51.408375 155.72188 51.76775L154.6125 51.76775Q154.45625 51.439625 154.40938 51.002125ZM154.31563 48.64275Q153.7375 48.877125 152.59688 49.049Q151.94063 49.14275 151.675 49.26775Q151.40938 49.377125 151.25313 49.595875Q151.1125 49.814625 151.1125 50.095875Q151.1125 50.51775 151.425 50.799Q151.75313 51.08025 152.3625 51.08025Q152.97188 51.08025 153.44063 50.814625Q153.925 50.549 154.14375 50.08025Q154.31563 49.720875 154.31563 49.033375L154.31563 48.64275ZM157.34688 51.76775L157.34688 45.549L158.28438 45.549L158.28438 46.424Q158.58125 45.95525 159.06563 45.689625Q159.55 45.408375 160.175 45.408375Q160.8625 45.408375 161.3 45.689625Q161.75313 45.970875 161.925 46.4865Q162.675 45.408375 163.84688 45.408375Q164.78438 45.408375 165.26875 45.924Q165.76875 46.424 165.76875 47.502125L165.76875 51.76775L164.72188 51.76775L164.72188 47.845875Q164.72188 47.220875 164.6125 46.939625Q164.51875 46.658375 164.25313 46.4865Q163.9875 46.314625 163.6125 46.314625Q162.95625 46.314625 162.51875 46.752125Q162.09688 47.189625 162.09688 48.158375L162.09688 51.76775L161.03438 51.76775L161.03438 47.720875Q161.03438 47.01775 160.76875 46.674Q160.51875 46.314625 159.94063 46.314625Q159.4875 46.314625 159.1125 46.549Q158.7375 46.783375 158.56563 47.2365Q158.39375 47.689625 158.39375 48.533375L158.39375 51.76775L157.34688 51.76775ZM172.59688 49.76775L173.69063 49.89275Q173.44063 50.845875 172.7375 51.377125Q172.03438 51.908375 170.95625 51.908375Q169.59688 51.908375 168.78438 51.064625Q167.9875 50.220875 167.9875 48.70525Q167.9875 47.14275 168.8 46.283375Q169.6125 45.408375 170.89375 45.408375Q172.14375 45.408375 172.925 46.252125Q173.72188 47.095875 173.72188 48.64275Q173.72188 48.7365 173.72188 48.924L169.08125 48.924Q169.14375 49.95525 169.65938 50.502125Q170.175 51.033375 170.95625 51.033375Q171.53438 51.033375 171.94063 50.7365Q172.3625 50.424 172.59688 49.76775ZM169.14375 48.064625L172.6125 48.064625Q172.55 47.26775 172.22188 46.877125Q171.70625 46.26775 170.90938 46.26775Q170.175 46.26775 169.675 46.752125Q169.19063 47.2365 169.14375 48.064625Z" fill-rule="nonzero"/><path fill="#9e9e9e" d="M23.01875 68.767746L21.971874 68.767746L21.971874 62.048996Q21.58125 62.40837 20.95625 62.78337Q20.346874 63.142746 19.8625 63.31462L19.8625 62.298996Q20.7375 61.87712 21.39375 61.298996Q22.065624 60.705246 22.346874 60.142746L23.01875 60.142746L23.01875 68.767746ZM26.20625 66.78337L27.221874 66.68962Q27.346874 67.40837 27.70625 67.736496Q28.08125 68.048996 28.64375 68.048996Q29.128124 68.048996 29.4875 67.830246Q29.8625 67.59587 30.096874 67.236496Q30.33125 66.861496 30.4875 66.236496Q30.64375 65.59587 30.64375 64.93962Q30.64375 64.861496 30.64375 64.72087Q30.33125 65.22087 29.784374 65.548996Q29.2375 65.861496 28.596874 65.861496Q27.51875 65.861496 26.784374 65.09587Q26.05 64.31462 26.05 63.048996Q26.05 61.736496 26.815624 60.93962Q27.596874 60.142746 28.753124 60.142746Q29.58125 60.142746 30.26875 60.59587Q30.971874 61.048996 31.33125 61.892746Q31.690624 62.72087 31.690624 64.298996Q31.690624 65.93962 31.33125 66.923996Q30.9875 67.892746 30.26875 68.40837Q29.565624 68.90837 28.628124 68.90837Q27.6125 68.90837 26.971874 68.361496Q26.33125 67.798996 26.20625 66.78337ZM30.51875 62.986496Q30.51875 62.080246 30.034374 61.548996Q29.565624 61.017746 28.878124 61.017746Q28.175 61.017746 27.64375 61.59587Q27.128124 62.15837 27.128124 63.080246Q27.128124 63.892746 27.628124 64.40837Q28.128124 64.923996 28.846874 64.923996Q29.58125 64.923996 30.05 64.40837Q30.51875 63.892746 30.51875 62.986496ZM33.64375 68.767746L33.64375 67.56462L34.846874 67.56462L34.846874 68.767746L33.64375 68.767746ZM36.1125 61.298996L36.1125 60.28337L41.675 60.28337L41.675 61.111496Q40.8625 61.986496 40.05 63.43962Q39.253124 64.87712 38.815624 66.40837Q38.4875 67.486496 38.409374 68.767746L37.315624 68.767746Q37.33125 67.75212 37.70625 66.31462Q38.096874 64.87712 38.8 63.548996Q39.51875 62.22087 40.33125 61.298996L36.1125 61.298996ZM43.253124 62.236496Q43.253124 61.31462 43.70625 60.673996Q44.175 60.03337 45.05 60.03337Q45.8625 60.03337 46.39375 60.611496Q46.925 61.18962 46.925 62.298996Q46.925 63.392746 46.378124 63.986496Q45.846874 64.56462 45.065624 64.56462Q44.284374 64.56462 43.76875 63.986496Q43.253124 63.40837 43.253124 62.236496ZM45.08125 60.75212Q44.690624 60.75212 44.425 61.09587Q44.175 61.43962 44.175 62.34587Q44.175 63.173996 44.425 63.517746Q44.690624 63.84587 45.08125 63.84587Q45.4875 63.84587 45.7375 63.50212Q46.003124 63.15837 46.003124 62.267746Q46.003124 61.423996 45.7375 61.09587Q45.471874 60.75212 45.08125 60.75212ZM45.08125 69.080246L49.784374 60.03337L50.64375 60.03337L45.95625 69.080246L45.08125 69.080246ZM48.8 66.75212Q48.8 65.830246 49.253124 65.18962Q49.721874 64.548996 50.6125 64.548996Q51.425 64.548996 51.95625 65.12712Q52.4875 65.68962 52.4875 66.81462Q52.4875 67.90837 51.940624 68.50212Q51.409374 69.080246 50.6125 69.080246Q49.846874 69.080246 49.315624 68.50212Q48.8 67.923996 48.8 66.75212ZM50.64375 65.267746Q50.2375 65.267746 49.971874 65.611496Q49.721874 65.955246 49.721874 66.861496Q49.721874 67.673996 49.9875 68.017746Q50.253124 68.361496 50.64375 68.361496Q51.034374 68.361496 51.3 68.017746Q51.565624 67.673996 51.565624 66.767746Q51.565624 65.93962 51.3 65.611496Q51.034374 65.267746 50.64375 65.267746Z" fill-rule="nonzero"/><path stroke="#757575" stroke-width="1.0" stroke-linecap="butt" d="M18.55 56.26775L199.55 56.26775L280.55557 56.26775" fill-rule="nonzero"/><path fill="#9e9e9e" d="M282.55557 56.26775C282.55557 55.163177 281.66013 54.26775 280.55557 54.26775C279.451 54.26775 278.55557 55.163177 278.55557 56.26775C278.55557 57.37232 279.451 58.26775 280.55557 58.26775C281.66013 58.26775 282.55557 57.37232 282.55557 56.26775" fill-rule="nonzero"/><path fill="#1a1a1a" d="M19.471874 243.61072L19.471874 235.01697L20.628124 235.01697L25.14375 241.76697L25.14375 235.01697L26.2375 235.01697L26.2375 243.61072L25.065624 243.61072L20.55 236.86072L20.55 243.61072L19.471874 243.61072ZM27.95625 240.50134Q27.95625 238.76697 28.909374 237.93884Q29.70625 237.25134 30.8625 237.25134Q32.14375 237.25134 32.95625 238.0951Q33.784374 238.92322 33.784374 240.4076Q33.784374 241.61072 33.425 242.29822Q33.065624 242.98572 32.3625 243.37634Q31.675 243.75134 30.8625 243.75134Q29.565624 243.75134 28.753124 242.92322Q27.95625 242.07947 27.95625 240.50134ZM29.034374 240.50134Q29.034374 241.68884 29.55 242.2826Q30.08125 242.87634 30.8625 242.87634Q31.659374 242.87634 32.175 242.2826Q32.690624 241.68884 32.690624 240.4701Q32.690624 239.31384 32.159374 238.7201Q31.64375 238.12634 30.8625 238.12634Q30.08125 238.12634 29.55 238.7201Q29.034374 239.29822 29.034374 240.50134ZM37.55 243.75134L40.034374 234.87634L40.878124 234.87634L38.39375 243.75134L37.55 243.75134Z" fill-rule="nonzero"/><path fill="#1a1a1a" d="M53.909374 241.4076Q52.3625 239.67322 50.628124 238.64197L51.284374 237.79822Q53.1125 238.73572 54.753124 240.51697L53.909374 241.4076ZM44.675 234.8451L54.51875 234.8451L54.51875 235.87634L50.440624 235.87634Q50.3 236.3451 50.01875 236.86072L50.01875 244.45447L48.940624 244.45447L48.940624 238.45447Q47.346874 240.4701 44.909374 241.54822L44.253124 240.4701Q47.721874 239.01697 49.26875 235.87634L44.675 235.87634L44.675 234.8451ZM64.12813 237.61072Q62.4875 236.7201 61.45625 234.93884Q60.425 236.62634 59.065624 237.61072L64.12813 237.61072ZM66.33125 238.5951Q65.53438 238.4076 64.22188 237.6576L64.22188 238.64197L58.925 238.64197L58.925 237.70447Q57.659374 238.5951 56.534374 238.92322L56.1125 237.79822Q59.39375 236.9076 60.9875 233.95447L61.971874 234.0951Q62.346874 234.14197 62.01875 234.37634Q63.51875 236.62634 66.8 237.4701L66.33125 238.5951ZM65.3 244.54822Q64.925 244.0326 64.40938 243.56384L57.6125 244.31384Q57.378124 244.54822 57.190624 244.4076L56.8625 243.23572L58.784374 243.14197L60.096874 240.75134L56.721874 240.75134L56.721874 239.7201L66.33125 239.7201L66.33125 240.75134L61.26875 240.75134L59.8625 243.0951L63.70625 242.81384Q63.096874 242.25134 62.346874 241.68884L63.190624 241.12634Q65.44063 242.81384 66.28438 243.93884L65.3 244.54822Z" fill-rule="nonzero"/><path fill="#1a1a1a" d="M70.55 243.75134L73.03438 234.87634L73.87813 234.87634L71.39375 243.75134L70.55 243.75134Z" fill-rule="nonzero"/><path fill="#1a1a1a" d="M81.8 241.26697Q81.37813 242.3451 80.90938 242.9076Q80.25313 243.70447 79.59688 243.70447Q78.425 243.70447 77.8625 242.3451Q77.53438 241.54822 77.53438 238.92322Q77.53438 237.04822 77.72188 235.12634L78.70625 235.36072Q79.26875 235.50134 78.75313 235.82947Q78.56563 237.56384 78.56563 238.9701Q78.56563 240.89197 78.8 241.68884Q79.03438 242.48572 79.50313 242.48572Q80.01875 242.48572 80.39375 241.73572Q80.62813 241.26697 80.8625 240.61072L81.8 241.26697ZM84.56563 235.7826Q86.675 237.98572 87.14375 241.12634L85.87813 241.45447Q85.31563 238.17322 83.58125 236.3451L84.56563 235.7826ZM92.8 241.26697Q92.37813 242.3451 91.90938 242.9076Q91.25313 243.70447 90.59688 243.70447Q89.425 243.70447 88.8625 242.3451Q88.53438 241.54822 88.53438 238.92322Q88.53438 237.04822 88.72188 235.12634L89.70625 235.36072Q90.26875 235.50134 89.75313 235.82947Q89.56563 237.56384 89.56563 238.9701Q89.56563 240.89197 89.8 241.68884Q90.03438 242.48572 90.50313 242.48572Q91.01875 242.48572 91.39375 241.73572Q91.62813 241.26697 91.8625 240.61072L92.8 241.26697ZM95.56563 235.7826Q97.675 237.98572 98.14375 241.12634L96.87813 241.45447Q96.31563 238.17322 94.58125 236.3451L95.56563 235.7826ZM100.05 237.51697Q104.22188 237.23572 105.39375 237.04822L105.76875 236.86072L106.56563 237.6576Q104.78438 238.92322 103.56563 240.23572Q104.50313 240.0951 104.78438 240.18884Q105.3 240.37634 105.3 240.98572L105.3 242.57947Q105.3 243.14197 105.8625 243.0951L108.58125 243.0951L108.39375 244.12634L106.05 244.12634Q104.3625 244.12634 104.3625 242.67322L104.3625 241.50134Q104.3625 240.93884 103.65938 240.93884Q103.05 240.93884 102.44063 241.50134Q101.22188 242.62634 100.14375 243.93884L99.3 243.37634Q101.55 240.75134 104.59688 238.0326L100.37813 238.54822L100.05 237.51697ZM105.675 235.7826Q103.56563 235.73572 101.31563 235.50134L101.45625 234.42322Q103.2375 234.79822 105.81563 234.79822L105.675 235.7826Z" fill-rule="nonzero"/><path fill="#9e9e9e" d="M24.596874 259.5951L24.596874 260.61072L18.909374 260.61072Q18.909374 260.23572 19.034374 259.87634Q19.253124 259.29822 19.721874 258.73572Q20.20625 258.17322 21.1125 257.43884Q22.51875 256.2826 23.003124 255.61072Q23.503124 254.93884 23.503124 254.3451Q23.503124 253.7201 23.05 253.29822Q22.596874 252.86072 21.878124 252.86072Q21.1125 252.86072 20.659374 253.31384Q20.20625 253.76697 20.190624 254.57947L19.1125 254.4701Q19.221874 253.25134 19.940624 252.62634Q20.675 251.98572 21.909374 251.98572Q23.14375 251.98572 23.8625 252.67322Q24.58125 253.36072 24.58125 254.37634Q24.58125 254.89197 24.3625 255.39197Q24.159374 255.87634 23.659374 256.43884Q23.175 256.98572 22.05 257.93884Q21.096874 258.73572 20.815624 259.0326Q20.55 259.31384 20.378124 259.5951L24.596874 259.5951ZM26.05 258.3451L27.1125 258.20447Q27.284374 259.0951 27.721874 259.50134Q28.159374 259.89197 28.784374 259.89197Q29.534374 259.89197 30.05 259.37634Q30.565624 258.86072 30.565624 258.0951Q30.565624 257.37634 30.08125 256.9076Q29.6125 256.42322 28.878124 256.42322Q28.58125 256.42322 28.128124 256.54822L28.253124 255.61072Q28.3625 255.62634 28.425 255.62634Q29.096874 255.62634 29.628124 255.2826Q30.175 254.92322 30.175 254.18884Q30.175 253.61072 29.784374 253.23572Q29.39375 252.8451 28.76875 252.8451Q28.159374 252.8451 27.7375 253.23572Q27.33125 253.62634 27.221874 254.39197L26.159374 254.20447Q26.346874 253.1576 27.034374 252.57947Q27.721874 251.98572 28.7375 251.98572Q29.440624 251.98572 30.034374 252.29822Q30.628124 252.5951 30.940624 253.11072Q31.253124 253.62634 31.253124 254.2201Q31.253124 254.76697 30.95625 255.23572Q30.659374 255.68884 30.08125 255.95447Q30.83125 256.12634 31.253124 256.68884Q31.675 257.23572 31.675 258.07947Q31.675 259.20447 30.846874 259.98572Q30.034374 260.76697 28.784374 260.76697Q27.659374 260.76697 26.909374 260.0951Q26.159374 259.4076 26.05 258.3451ZM33.64375 260.61072L33.64375 259.4076L34.846874 259.4076L34.846874 260.61072L33.64375 260.61072ZM41.51875 254.12634L40.471874 254.20447Q40.33125 253.57947 40.08125 253.29822Q39.64375 252.8451 39.01875 252.8451Q38.51875 252.8451 38.128124 253.12634Q37.64375 253.50134 37.346874 254.20447Q37.065624 254.89197 37.05 256.17322Q37.425 255.5951 37.971874 255.31384Q38.534374 255.0326 39.14375 255.0326Q40.190624 255.0326 40.925 255.81384Q41.675 256.5951 41.675 257.81384Q41.675 258.62634 41.315624 259.32947Q40.971874 260.01697 40.3625 260.39197Q39.753124 260.75134 38.9875 260.75134Q37.659374 260.75134 36.83125 259.7826Q36.003124 258.81384 36.003124 256.5951Q36.003124 254.0951 36.925 252.9701Q37.721874 251.98572 39.08125 251.98572Q40.096874 251.98572 40.7375 252.56384Q41.39375 253.12634 41.51875 254.12634ZM37.221874 257.82947Q37.221874 258.37634 37.440624 258.87634Q37.675 259.36072 38.08125 259.62634Q38.503124 259.89197 38.971874 259.89197Q39.628124 259.89197 40.1125 259.36072Q40.596874 258.81384 40.596874 257.89197Q40.596874 257.00134 40.1125 256.48572Q39.64375 255.9701 38.925 255.9701Q38.20625 255.9701 37.70625 256.48572Q37.221874 257.00134 37.221874 257.82947ZM43.253124 254.07947Q43.253124 253.1576 43.70625 252.51697Q44.175 251.87634 45.05 251.87634Q45.8625 251.87634 46.39375 252.45447Q46.925 253.0326 46.925 254.14197Q46.925 255.23572 46.378124 255.82947Q45.846874 256.4076 45.065624 256.4076Q44.284374 256.4076 43.76875 255.82947Q43.253124 255.25134 43.253124 254.07947ZM45.08125 252.5951Q44.690624 252.5951 44.425 252.93884Q44.175 253.2826 44.175 254.18884Q44.175 255.01697 44.425 255.36072Q44.690624 255.68884 45.08125 255.68884Q45.4875 255.68884 45.7375 255.3451Q46.003124 255.00134 46.003124 254.11072Q46.003124 253.26697 45.7375 252.93884Q45.471874 252.5951 45.08125 252.5951ZM45.08125 260.92322L49.784374 251.87634L50.64375 251.87634L45.95625 260.92322L45.08125 260.92322ZM48.8 258.5951Q48.8 257.67322 49.253124 257.0326Q49.721874 256.39197 50.6125 256.39197Q51.425 256.39197 51.95625 256.9701Q52.4875 257.5326 52.4875 258.6576Q52.4875 259.75134 51.940624 260.3451Q51.409374 260.92322 50.6125 260.92322Q49.846874 260.92322 49.315624 260.3451Q48.8 259.76697 48.8 258.5951ZM50.64375 257.11072Q50.2375 257.11072 49.971874 257.45447Q49.721874 257.79822 49.721874 258.70447Q49.721874 259.51697 49.9875 259.86072Q50.253124 260.20447 50.64375 260.20447Q51.034374 260.20447 51.3 259.86072Q51.565624 259.51697 51.565624 258.61072Q51.565624 257.7826 51.3 257.45447Q51.034374 257.11072 50.64375 257.11072Z" fill-rule="nonzero"/><path stroke="#757575" stroke-width="1.0" stroke-linecap="butt" d="M18.55 248.11072L199.55 248.11072L226.77885 248.11072" fill-rule="nonzero"/><path fill="#9e9e9e" d="M228.77885 248.11072C228.77885 247.00615 227.88342 246.11072 226.77885 246.11072C225.67429 246.11072 224.77885 247.00615 224.77885 248.11072C224.77885 249.21529 225.67429 250.11072 226.77885 250.11072C227.88342 250.11072 228.77885 249.21529 228.77885 248.11072" fill-rule="nonzero"/><path fill="#1a1a1a" d="M557.79376 214.46053L557.79376 210.8199L554.48126 205.86678L555.8719 205.86678L557.5594 208.46053Q558.02814 209.17928 558.4344 209.91365Q558.825 209.24178 559.3719 208.39803L561.04376 205.86678L562.35626 205.86678L558.9344 210.8199L558.9344 214.46053L557.79376 214.46053ZM566.4969 212.46053L567.59064 212.58553Q567.34064 213.53865 566.6375 214.0699Q565.9344 214.60115 564.85626 214.60115Q563.4969 214.60115 562.6844 213.7574Q561.8875 212.91365 561.8875 211.39803Q561.8875 209.83553 562.7 208.97615Q563.5125 208.10115 564.79376 208.10115Q566.04376 208.10115 566.825 208.9449Q567.6219 209.78865 567.6219 211.33553Q567.6219 211.42928 567.6219 211.61678L562.98126 211.61678Q563.04376 212.64803 563.5594 213.1949Q564.075 213.72615 564.85626 213.72615Q565.4344 213.72615 565.84064 213.42928Q566.2625 213.11678 566.4969 212.46053ZM563.04376 210.7574L566.5125 210.7574Q566.45 209.96053 566.1219 209.5699Q565.60626 208.96053 564.8094 208.96053Q564.075 208.96053 563.575 209.4449Q563.09064 209.92928 563.04376 210.7574ZM568.825 212.60115L569.85626 212.4449Q569.95 213.0699 570.34064 213.39803Q570.7469 213.72615 571.48126 213.72615Q572.2 213.72615 572.54376 213.4449Q572.90314 213.14803 572.90314 212.74178Q572.90314 212.3824 572.59064 212.17928Q572.3719 212.03865 571.5125 211.8199Q570.35626 211.52303 569.90314 211.3199Q569.46564 211.10115 569.23126 210.72615Q568.9969 210.35115 568.9969 209.8824Q568.9969 209.47615 569.1844 209.11678Q569.3719 208.7574 569.7 208.52303Q569.95 208.35115 570.3719 208.22615Q570.79376 208.10115 571.29376 208.10115Q572.0125 208.10115 572.5594 208.3199Q573.1219 208.52303 573.3875 208.8824Q573.65314 209.24178 573.7469 209.83553L572.71564 209.97615Q572.65314 209.5074 572.3094 209.24178Q571.98126 208.96053 571.35626 208.96053Q570.6375 208.96053 570.325 209.21053Q570.0125 209.4449 570.0125 209.77303Q570.0125 209.97615 570.1375 210.1324Q570.27814 210.30428 570.54376 210.41365Q570.7 210.47615 571.48126 210.67928Q572.60626 210.99178 573.04376 211.17928Q573.48126 211.36678 573.73126 211.72615Q573.98126 212.08553 573.98126 212.6324Q573.98126 213.16365 573.66876 213.6324Q573.3719 214.08553 572.79376 214.35115Q572.21564 214.60115 571.48126 214.60115Q570.2625 214.60115 569.6219 214.10115Q568.9969 213.58553 568.825 212.60115ZM576.5125 214.46053L576.5125 213.2574L577.71564 213.2574L577.71564 214.46053Q577.71564 215.11678 577.48126 215.52303Q577.2469 215.9449 576.7469 216.16365L576.45 215.71053Q576.77814 215.5699 576.9344 215.27303Q577.09064 214.99178 577.1219 214.46053L576.5125 214.46053ZM582.575 214.46053L582.575 205.86678L583.7 205.86678L583.7 214.46053L582.575 214.46053ZM588.23126 214.46053L588.23126 208.24178L589.1844 208.24178L589.1844 209.17928Q589.54376 208.52303 589.84064 208.3199Q590.15314 208.10115 590.52814 208.10115Q591.0594 208.10115 591.60626 208.42928L591.2469 209.41365Q590.85626 209.17928 590.48126 209.17928Q590.1219 209.17928 589.84064 209.39803Q589.575 209.60115 589.46564 209.97615Q589.27814 210.53865 589.27814 211.1949L589.27814 214.46053L588.23126 214.46053ZM596.4969 212.46053L597.59064 212.58553Q597.34064 213.53865 596.6375 214.0699Q595.9344 214.60115 594.85626 214.60115Q593.4969 214.60115 592.6844 213.7574Q591.8875 212.91365 591.8875 211.39803Q591.8875 209.83553 592.7 208.97615Q593.5125 208.10115 594.79376 208.10115Q596.04376 208.10115 596.825 208.9449Q597.6219 209.78865 597.6219 211.33553Q597.6219 211.42928 597.6219 211.61678L592.98126 211.61678Q593.04376 212.64803 593.5594 213.1949Q594.075 213.72615 594.85626 213.72615Q595.4344 213.72615 595.84064 213.42928Q596.2625 213.11678 596.4969 212.46053ZM593.04376 210.7574L596.5125 210.7574Q596.45 209.96053 596.1219 209.5699Q595.60626 208.96053 594.8094 208.96053Q594.075 208.96053 593.575 209.4449Q593.09064 209.92928 593.04376 210.7574ZM603.3094 213.6949Q602.71564 214.1949 602.16876 214.39803Q601.6375 214.60115 601.0125 214.60115Q599.98126 214.60115 599.4344 214.10115Q598.8875 213.60115 598.8875 212.8199Q598.8875 212.36678 599.09064 211.99178Q599.29376 211.60115 599.6375 211.3824Q599.98126 211.14803 600.40314 211.03865Q600.7 210.9449 601.34064 210.86678Q602.60626 210.72615 603.21564 210.5074Q603.21564 210.28865 603.21564 210.24178Q603.21564 209.58553 602.91876 209.3199Q602.5125 208.97615 601.71564 208.97615Q600.98126 208.97615 600.6219 209.24178Q600.2625 209.49178 600.09064 210.14803L599.0594 210.0074Q599.2 209.35115 599.52814 208.9449Q599.85626 208.53865 600.46564 208.3199Q601.075 208.10115 601.8719 208.10115Q602.66876 208.10115 603.16876 208.28865Q603.66876 208.47615 603.90314 208.7574Q604.1375 209.03865 604.23126 209.47615Q604.27814 209.74178 604.27814 210.4449L604.27814 211.85115Q604.27814 213.3199 604.34064 213.71053Q604.41876 214.10115 604.6219 214.46053L603.5125 214.46053Q603.35626 214.1324 603.3094 213.6949ZM603.21564 211.33553Q602.6375 211.5699 601.4969 211.74178Q600.84064 211.83553 600.575 211.96053Q600.3094 212.0699 600.15314 212.28865Q600.0125 212.5074 600.0125 212.78865Q600.0125 213.21053 600.325 213.49178Q600.65314 213.77303 601.2625 213.77303Q601.8719 213.77303 602.34064 213.5074Q602.825 213.24178 603.04376 212.77303Q603.21564 212.41365 603.21564 211.72615L603.21564 211.33553ZM610.27814 214.46053L610.27814 213.67928Q609.6844 214.60115 608.54376 214.60115Q607.79376 214.60115 607.16876 214.1949Q606.54376 213.77303 606.2 213.03865Q605.85626 212.30428 605.85626 211.35115Q605.85626 210.42928 606.16876 209.66365Q606.48126 208.89803 607.10626 208.5074Q607.73126 208.10115 608.4969 208.10115Q609.0594 208.10115 609.4969 208.33553Q609.9344 208.5699 610.21564 208.9449L610.21564 205.86678L611.2625 205.86678L611.2625 214.46053L610.27814 214.46053ZM606.95 211.35115Q606.95 212.55428 607.45 213.14803Q607.95 213.72615 608.6375 213.72615Q609.325 213.72615 609.8094 213.16365Q610.29376 212.60115 610.29376 211.4449Q610.29376 210.16365 609.79376 209.5699Q609.3094 208.97615 608.59064 208.97615Q607.8875 208.97615 607.41876 209.55428Q606.95 210.11678 606.95 211.35115ZM616.4969 214.46053L616.4969 209.05428L615.5594 209.05428L615.5594 208.24178L616.4969 208.24178L616.4969 207.5699Q616.4969 206.9449 616.60626 206.64803Q616.7625 206.22615 617.1375 205.97615Q617.52814 205.72615 618.21564 205.72615Q618.66876 205.72615 619.2 205.83553L619.04376 206.74178Q618.71564 206.6949 618.41876 206.6949Q617.9344 206.6949 617.73126 206.89803Q617.54376 207.10115 617.54376 207.66365L617.54376 208.24178L618.7625 208.24178L618.7625 209.05428L617.54376 209.05428L617.54376 214.46053L616.4969 214.46053ZM623.3094 213.6949Q622.71564 214.1949 622.16876 214.39803Q621.6375 214.60115 621.0125 214.60115Q619.98126 214.60115 619.4344 214.10115Q618.8875 213.60115 618.8875 212.8199Q618.8875 212.36678 619.09064 211.99178Q619.29376 211.60115 619.6375 211.3824Q619.98126 211.14803 620.40314 211.03865Q620.7 210.9449 621.34064 210.86678Q622.60626 210.72615 623.21564 210.5074Q623.21564 210.28865 623.21564 210.24178Q623.21564 209.58553 622.91876 209.3199Q622.5125 208.97615 621.71564 208.97615Q620.98126 208.97615 620.6219 209.24178Q620.2625 209.49178 620.09064 210.14803L619.0594 210.0074Q619.2 209.35115 619.52814 208.9449Q619.85626 208.53865 620.46564 208.3199Q621.075 208.10115 621.8719 208.10115Q622.66876 208.10115 623.16876 208.28865Q623.66876 208.47615 623.90314 208.7574Q624.1375 209.03865 624.23126 209.47615Q624.27814 209.74178 624.27814 210.4449L624.27814 211.85115Q624.27814 213.3199 624.34064 213.71053Q624.41876 214.10115 624.6219 214.46053L623.5125 214.46053Q623.35626 214.1324 623.3094 213.6949ZM623.21564 211.33553Q622.6375 211.5699 621.4969 211.74178Q620.84064 211.83553 620.575 211.96053Q620.3094 212.0699 620.15314 212.28865Q620.0125 212.5074 620.0125 212.78865Q620.0125 213.21053 620.325 213.49178Q620.65314 213.77303 621.2625 213.77303Q621.8719 213.77303 622.34064 213.5074Q622.825 213.24178 623.04376 212.77303Q623.21564 212.41365 623.21564 211.72615L623.21564 211.33553ZM626.2469 214.46053L626.2469 208.24178L627.1844 208.24178L627.1844 209.11678Q627.8719 208.10115 629.16876 208.10115Q629.73126 208.10115 630.2 208.30428Q630.6844 208.5074 630.91876 208.83553Q631.15314 209.16365 631.2469 209.60115Q631.29376 209.89803 631.29376 210.6324L631.29376 214.46053L630.2469 214.46053L630.2469 210.67928Q630.2469 210.02303 630.1219 209.71053Q629.9969 209.39803 629.6844 209.21053Q629.3719 209.0074 628.95 209.0074Q628.27814 209.0074 627.77814 209.4449Q627.29376 209.86678 627.29376 211.05428L627.29376 214.46053L626.2469 214.46053ZM638.54376 213.52303L638.7 214.4449Q638.2469 214.53865 637.90314 214.53865Q637.325 214.53865 637.0125 214.36678Q636.7 214.17928 636.5594 213.8824Q636.4344 213.58553 636.4344 212.6324L636.4344 209.05428L635.66876 209.05428L635.66876 208.24178L636.4344 208.24178L636.4344 206.6949L637.48126 206.0699L637.48126 208.24178L638.54376 208.24178L638.54376 209.05428L637.48126 209.05428L637.48126 212.6949Q637.48126 213.14803 637.52814 213.27303Q637.59064 213.39803 637.71564 213.47615Q637.84064 213.55428 638.075 213.55428Q638.2625 213.55428 638.54376 213.52303ZM639.23126 214.46053L639.23126 208.24178L640.1844 208.24178L640.1844 209.17928Q640.54376 208.52303 640.84064 208.3199Q641.15314 208.10115 641.52814 208.10115Q642.0594 208.10115 642.60626 208.42928L642.2469 209.41365Q641.85626 209.17928 641.48126 209.17928Q641.1219 209.17928 640.84064 209.39803Q640.575 209.60115 640.46564 209.97615Q640.27814 210.53865 640.27814 211.1949L640.27814 214.46053L639.23126 214.46053ZM647.3094 213.6949Q646.71564 214.1949 646.16876 214.39803Q645.6375 214.60115 645.0125 214.60115Q643.98126 214.60115 643.4344 214.10115Q642.8875 213.60115 642.8875 212.8199Q642.8875 212.36678 643.09064 211.99178Q643.29376 211.60115 643.6375 211.3824Q643.98126 211.14803 644.40314 211.03865Q644.7 210.9449 645.34064 210.86678Q646.60626 210.72615 647.21564 210.5074Q647.21564 210.28865 647.21564 210.24178Q647.21564 209.58553 646.91876 209.3199Q646.5125 208.97615 645.71564 208.97615Q644.98126 208.97615 644.6219 209.24178Q644.2625 209.49178 644.09064 210.14803L643.0594 210.0074Q643.2 209.35115 643.52814 208.9449Q643.85626 208.53865 644.46564 208.3199Q645.075 208.10115 645.8719 208.10115Q646.66876 208.10115 647.16876 208.28865Q647.66876 208.47615 647.90314 208.7574Q648.1375 209.03865 648.23126 209.47615Q648.27814 209.74178 648.27814 210.4449L648.27814 211.85115Q648.27814 213.3199 648.34064 213.71053Q648.41876 214.10115 648.6219 214.46053L647.5125 214.46053Q647.35626 214.1324 647.3094 213.6949ZM647.21564 211.33553Q646.6375 211.5699 645.4969 211.74178Q644.84064 211.83553 644.575 211.96053Q644.3094 212.0699 644.15314 212.28865Q644.0125 212.5074 644.0125 212.78865Q644.0125 213.21053 644.325 213.49178Q644.65314 213.77303 645.2625 213.77303Q645.8719 213.77303 646.34064 213.5074Q646.825 213.24178 647.04376 212.77303Q647.21564 212.41365 647.21564 211.72615L647.21564 211.33553ZM650.2469 214.46053L650.2469 208.24178L651.1844 208.24178L651.1844 209.11678Q651.8719 208.10115 653.16876 208.10115Q653.73126 208.10115 654.2 208.30428Q654.6844 208.5074 654.91876 208.83553Q655.15314 209.16365 655.2469 209.60115Q655.29376 209.89803 655.29376 210.6324L655.29376 214.46053L654.2469 214.46053L654.2469 210.67928Q654.2469 210.02303 654.1219 209.71053Q653.9969 209.39803 653.6844 209.21053Q653.3719 209.0074 652.95 209.0074Q652.27814 209.0074 651.77814 209.4449Q651.29376 209.86678 651.29376 211.05428L651.29376 214.46053L650.2469 214.46053ZM656.825 212.60115L657.85626 212.4449Q657.95 213.0699 658.34064 213.39803Q658.7469 213.72615 659.48126 213.72615Q660.2 213.72615 660.54376 213.4449Q660.90314 213.14803 660.90314 212.74178Q660.90314 212.3824 660.59064 212.17928Q660.3719 212.03865 659.5125 211.8199Q658.35626 211.52303 657.90314 211.3199Q657.46564 211.10115 657.23126 210.72615Q656.9969 210.35115 656.9969 209.8824Q656.9969 209.47615 657.1844 209.11678Q657.3719 208.7574 657.7 208.52303Q657.95 208.35115 658.3719 208.22615Q658.79376 208.10115 659.29376 208.10115Q660.0125 208.10115 660.5594 208.3199Q661.1219 208.52303 661.3875 208.8824Q661.65314 209.24178 661.7469 209.83553L660.71564 209.97615Q660.65314 209.5074 660.3094 209.24178Q659.98126 208.96053 659.35626 208.96053Q658.6375 208.96053 658.325 209.21053Q658.0125 209.4449 658.0125 209.77303Q658.0125 209.97615 658.1375 210.1324Q658.27814 210.30428 658.54376 210.41365Q658.7 210.47615 659.48126 210.67928Q660.60626 210.99178 661.04376 211.17928Q661.48126 211.36678 661.73126 211.72615Q661.98126 212.08553 661.98126 212.6324Q661.98126 213.16365 661.66876 213.6324Q661.3719 214.08553 660.79376 214.35115Q660.21564 214.60115 659.48126 214.60115Q658.2625 214.60115 657.6219 214.10115Q656.9969 213.58553 656.825 212.60115ZM664.21564 214.46053L664.21564 205.86678L665.27814 205.86678L665.27814 214.46053L664.21564 214.46053ZM671.3094 213.6949Q670.71564 214.1949 670.16876 214.39803Q669.6375 214.60115 669.0125 214.60115Q667.98126 214.60115 667.4344 214.10115Q666.8875 213.60115 666.8875 212.8199Q666.8875 212.36678 667.09064 211.99178Q667.29376 211.60115 667.6375 211.3824Q667.98126 211.14803 668.40314 211.03865Q668.7 210.9449 669.34064 210.86678Q670.60626 210.72615 671.21564 210.5074Q671.21564 210.28865 671.21564 210.24178Q671.21564 209.58553 670.91876 209.3199Q670.5125 208.97615 669.71564 208.97615Q668.98126 208.97615 668.6219 209.24178Q668.2625 209.49178 668.09064 210.14803L667.0594 210.0074Q667.2 209.35115 667.52814 208.9449Q667.85626 208.53865 668.46564 208.3199Q669.075 208.10115 669.8719 208.10115Q670.66876 208.10115 671.16876 208.28865Q671.66876 208.47615 671.90314 208.7574Q672.1375 209.03865 672.23126 209.47615Q672.27814 209.74178 672.27814 210.4449L672.27814 211.85115Q672.27814 213.3199 672.34064 213.71053Q672.41876 214.10115 672.6219 214.46053L671.5125 214.46053Q671.35626 214.1324 671.3094 213.6949ZM671.21564 211.33553Q670.6375 211.5699 669.4969 211.74178Q668.84064 211.83553 668.575 211.96053Q668.3094 212.0699 668.15314 212.28865Q668.0125 212.5074 668.0125 212.78865Q668.0125 213.21053 668.325 213.49178Q668.65314 213.77303 669.2625 213.77303Q669.8719 213.77303 670.34064 213.5074Q670.825 213.24178 671.04376 212.77303Q671.21564 212.41365 671.21564 211.72615L671.21564 211.33553ZM676.54376 213.52303L676.7 214.4449Q676.2469 214.53865 675.90314 214.53865Q675.325 214.53865 675.0125 214.36678Q674.7 214.17928 674.5594 213.8824Q674.4344 213.58553 674.4344 212.6324L674.4344 209.05428L673.66876 209.05428L673.66876 208.24178L674.4344 208.24178L674.4344 206.6949L675.48126 206.0699L675.48126 208.24178L676.54376 208.24178L676.54376 209.05428L675.48126 209.05428L675.48126 212.6949Q675.48126 213.14803 675.52814 213.27303Q675.59064 213.39803 675.71564 213.47615Q675.84064 213.55428 676.075 213.55428Q676.2625 213.55428 676.54376 213.52303ZM677.2469 207.08553L677.2469 205.86678L678.3094 205.86678L678.3094 207.08553L677.2469 207.08553ZM677.2469 214.46053L677.2469 208.24178L678.3094 208.24178L678.3094 214.46053L677.2469 214.46053ZM679.85626 211.35115Q679.85626 209.61678 680.8094 208.78865Q681.60626 208.10115 682.7625 208.10115Q684.04376 208.10115 684.85626 208.9449Q685.6844 209.77303 685.6844 211.2574Q685.6844 212.46053 685.325 213.14803Q684.96564 213.83553 684.2625 214.22615Q683.575 214.60115 682.7625 214.60115Q681.46564 214.60115 680.65314 213.77303Q679.85626 212.92928 679.85626 211.35115ZM680.9344 211.35115Q680.9344 212.53865 681.45 213.1324Q681.98126 213.72615 682.7625 213.72615Q683.5594 213.72615 684.075 213.1324Q684.59064 212.53865 684.59064 211.3199Q684.59064 210.16365 684.0594 209.5699Q683.54376 208.97615 682.7625 208.97615Q681.98126 208.97615 681.45 209.5699Q680.9344 210.14803 680.9344 211.35115ZM687.2469 214.46053L687.2469 208.24178L688.1844 208.24178L688.1844 209.11678Q688.8719 208.10115 690.16876 208.10115Q690.73126 208.10115 691.2 208.30428Q691.6844 208.5074 691.91876 208.83553Q692.15314 209.16365 692.2469 209.60115Q692.29376 209.89803 692.29376 210.6324L692.29376 214.46053L691.2469 214.46053L691.2469 210.67928Q691.2469 210.02303 691.1219 209.71053Q690.9969 209.39803 690.6844 209.21053Q690.3719 209.0074 689.95 209.0074Q689.27814 209.0074 688.77814 209.4449Q688.29376 209.86678 688.29376 211.05428L688.29376 214.46053L687.2469 214.46053ZM698.3875 214.46053L696.48126 208.24178L697.575 208.24178L698.5594 211.83553L698.9344 213.16365Q698.96564 213.0699 699.2625 211.8824L700.2469 208.24178L701.325 208.24178L702.2625 211.85115L702.575 213.03865L702.9344 211.83553L703.9969 208.24178L705.02814 208.24178L703.075 214.46053L701.98126 214.46053L700.9969 210.72615L700.7469 209.67928L699.4969 214.46053L698.3875 214.46053ZM706.2469 214.46053L706.2469 205.86678L707.29376 205.86678L707.29376 208.9449Q708.02814 208.10115 709.15314 208.10115Q709.85626 208.10115 710.35626 208.3824Q710.8719 208.64803 711.09064 209.1324Q711.3094 209.60115 711.3094 210.52303L711.3094 214.46053L710.2625 214.46053L710.2625 210.52303Q710.2625 209.72615 709.91876 209.36678Q709.575 209.0074 708.95 209.0074Q708.48126 209.0074 708.0594 209.2574Q707.65314 209.49178 707.46564 209.91365Q707.29376 210.3199 707.29376 211.05428L707.29376 214.46053L706.2469 214.46053ZM717.4969 212.46053L718.59064 212.58553Q718.34064 213.53865 717.6375 214.0699Q716.9344 214.60115 715.85626 214.60115Q714.4969 214.60115 713.6844 213.7574Q712.8875 212.91365 712.8875 211.39803Q712.8875 209.83553 713.7 208.97615Q714.5125 208.10115 715.79376 208.10115Q717.04376 208.10115 717.825 208.9449Q718.6219 209.78865 718.6219 211.33553Q718.6219 211.42928 718.6219 211.61678L713.98126 211.61678Q714.04376 212.64803 714.5594 213.1949Q715.075 213.72615 715.85626 213.72615Q716.4344 213.72615 716.84064 213.42928Q717.2625 213.11678 717.4969 212.46053ZM714.04376 210.7574L717.5125 210.7574Q717.45 209.96053 717.1219 209.5699Q716.60626 208.96053 715.8094 208.96053Q715.075 208.96053 714.575 209.4449Q714.09064 209.92928 714.04376 210.7574ZM720.2469 214.46053L720.2469 208.24178L721.1844 208.24178L721.1844 209.11678Q721.8719 208.10115 723.16876 208.10115Q723.73126 208.10115 724.2 208.30428Q724.6844 208.5074 724.91876 208.83553Q725.15314 209.16365 725.2469 209.60115Q725.29376 209.89803 725.29376 210.6324L725.29376 214.46053L724.2469 214.46053L724.2469 210.67928Q724.2469 210.02303 724.1219 209.71053Q723.9969 209.39803 723.6844 209.21053Q723.3719 209.0074 722.95 209.0074Q722.27814 209.0074 721.77814 209.4449Q721.29376 209.86678 721.29376 211.05428L721.29376 214.46053L720.2469 214.46053Z" fill-rule="nonzero"/><path fill="#9e9e9e" d="M691.95 229.21053L693.0594 229.11678Q693.1844 229.92928 693.6219 230.33553Q694.075 230.74178 694.71564 230.74178Q695.46564 230.74178 695.9969 230.16365Q696.52814 229.58553 696.52814 228.64803Q696.52814 227.74178 696.0125 227.22615Q695.5125 226.6949 694.6844 226.6949Q694.1844 226.6949 693.7625 226.92928Q693.35626 227.16365 693.1219 227.52303L692.1375 227.39803L692.96564 222.99178L697.2469 222.99178L697.2469 223.99178L693.8094 223.99178L693.35626 226.30428Q694.1219 225.7574 694.96564 225.7574Q696.09064 225.7574 696.85626 226.53865Q697.6375 227.3199 697.6375 228.55428Q697.6375 229.71053 696.96564 230.5699Q696.1375 231.60115 694.71564 231.60115Q693.54376 231.60115 692.79376 230.9449Q692.0594 230.28865 691.95 229.21053ZM704.41876 224.97615L703.3719 225.05428Q703.23126 224.42928 702.98126 224.14803Q702.54376 223.6949 701.91876 223.6949Q701.41876 223.6949 701.02814 223.97615Q700.54376 224.35115 700.2469 225.05428Q699.96564 225.74178 699.95 227.02303Q700.325 226.4449 700.8719 226.16365Q701.4344 225.8824 702.04376 225.8824Q703.09064 225.8824 703.825 226.66365Q704.575 227.4449 704.575 228.66365Q704.575 229.47615 704.21564 230.17928Q703.8719 230.86678 703.2625 231.24178Q702.65314 231.60115 701.8875 231.60115Q700.5594 231.60115 699.73126 230.6324Q698.90314 229.66365 698.90314 227.4449Q698.90314 224.9449 699.825 223.8199Q700.6219 222.83553 701.98126 222.83553Q702.9969 222.83553 703.6375 223.41365Q704.29376 223.97615 704.41876 224.97615ZM700.1219 228.67928Q700.1219 229.22615 700.34064 229.72615Q700.575 230.21053 700.98126 230.47615Q701.40314 230.74178 701.8719 230.74178Q702.52814 230.74178 703.0125 230.21053Q703.4969 229.66365 703.4969 228.74178Q703.4969 227.85115 703.0125 227.33553Q702.54376 226.8199 701.825 226.8199Q701.10626 226.8199 700.60626 227.33553Q700.1219 227.85115 700.1219 228.67928ZM706.54376 231.46053L706.54376 230.2574L707.7469 230.2574L707.7469 231.46053L706.54376 231.46053ZM710.575 226.80428Q709.91876 226.55428 709.59064 226.11678Q709.27814 225.66365 709.27814 225.05428Q709.27814 224.11678 709.95 223.47615Q710.6375 222.83553 711.7469 222.83553Q712.8719 222.83553 713.5594 223.49178Q714.2469 224.14803 714.2469 225.08553Q714.2469 225.67928 713.9344 226.11678Q713.6219 226.55428 712.98126 226.80428Q713.77814 227.05428 714.1844 227.6324Q714.59064 228.21053 714.59064 229.0074Q714.59064 230.10115 713.8094 230.85115Q713.04376 231.60115 711.7625 231.60115Q710.4969 231.60115 709.71564 230.85115Q708.9344 230.10115 708.9344 228.97615Q708.9344 228.1324 709.35626 227.5699Q709.79376 227.0074 710.575 226.80428ZM710.35626 225.0074Q710.35626 225.61678 710.7469 226.0074Q711.15314 226.39803 711.77814 226.39803Q712.3875 226.39803 712.77814 226.02303Q713.16876 225.6324 713.16876 225.0699Q713.16876 224.49178 712.7625 224.10115Q712.35626 223.6949 711.7625 223.6949Q711.15314 223.6949 710.7469 224.08553Q710.35626 224.47615 710.35626 225.0074ZM710.02814 228.97615Q710.02814 229.42928 710.23126 229.85115Q710.45 230.27303 710.8719 230.5074Q711.29376 230.74178 711.77814 230.74178Q712.52814 230.74178 713.0125 230.2574Q713.5125 229.77303 713.5125 229.02303Q713.5125 228.2574 713.0125 227.7574Q712.5125 227.2574 711.7469 227.2574Q710.9969 227.2574 710.5125 227.7574Q710.02814 228.24178 710.02814 228.97615ZM716.15314 224.92928Q716.15314 224.0074 716.60626 223.36678Q717.075 222.72615 717.95 222.72615Q718.7625 222.72615 719.29376 223.30428Q719.825 223.8824 719.825 224.99178Q719.825 226.08553 719.27814 226.67928Q718.7469 227.2574 717.96564 227.2574Q717.1844 227.2574 716.66876 226.67928Q716.15314 226.10115 716.15314 224.92928ZM717.98126 223.4449Q717.59064 223.4449 717.325 223.78865Q717.075 224.1324 717.075 225.03865Q717.075 225.86678 717.325 226.21053Q717.59064 226.53865 717.98126 226.53865Q718.3875 226.53865 718.6375 226.1949Q718.90314 225.85115 718.90314 224.96053Q718.90314 224.11678 718.6375 223.78865Q718.3719 223.4449 717.98126 223.4449ZM717.98126 231.77303L722.6844 222.72615L723.54376 222.72615L718.85626 231.77303L717.98126 231.77303ZM721.7 229.4449Q721.7 228.52303 722.15314 227.8824Q722.6219 227.24178 723.5125 227.24178Q724.325 227.24178 724.85626 227.8199Q725.3875 228.3824 725.3875 229.5074Q725.3875 230.60115 724.84064 231.1949Q724.3094 231.77303 723.5125 231.77303Q722.7469 231.77303 722.21564 231.1949Q721.7 230.61678 721.7 229.4449ZM723.54376 227.96053Q723.1375 227.96053 722.8719 228.30428Q722.6219 228.64803 722.6219 229.55428Q722.6219 230.36678 722.8875 230.71053Q723.15314 231.05428 723.54376 231.05428Q723.9344 231.05428 724.2 230.71053Q724.46564 230.36678 724.46564 229.46053Q724.46564 228.6324 724.2 228.30428Q723.9344 227.96053 723.54376 227.96053Z" fill-rule="nonzero"/><path stroke="#757575" stroke-width="1.0" stroke-linecap="butt" d="M726.45 218.96053L545.45 218.96053L527.5327 218.96053" fill-rule="nonzero"/><path fill="#9e9e9e" d="M529.5327 218.96053C529.5327 217.85596 528.63727 216.96053 527.5327 216.96053C526.42816 216.96053 525.5327 217.85596 525.5327 218.96053C525.5327 220.0651 526.42816 220.96053 527.5327 220.96053C528.63727 220.96053 529.5327 220.0651 529.5327 218.96053" fill-rule="nonzero"/></svg>