<svg xmlns="http://www.w3.org/2000/svg" xmlns:xlink="http://www.w3.org/1999/xlink" width="600" height="371" fill="none" stroke="none" stroke-linecap="square" stroke-miterlimit="10" version="1.1" viewBox="0 0 600 371"><path fill="#fff" fill-rule="nonzero" d="M0 0L600.0 0L600.0 371.0L0 371.0L0 0Z"/><path fill="#34a853" fill-rule="nonzero" d="M270.72537 21.136688C280.38858 19.415583 290.18472 18.55 300.0 18.55L300.0 185.5Z"/><path fill="#fbbc04" fill-rule="nonzero" d="M250.55438 26.040184C257.16983 23.988855 263.9065 22.351192 270.72537 21.136688L300.0 185.5Z"/><path fill="#ea4335" fill-rule="nonzero" d="M223.35925 37.181095C232.07916 32.675255 241.17946 28.947176 250.55438 26.040184L300.0 185.5Z"/><path fill="#4285f4" fill-rule="nonzero" d="M300.0 18.55C384.52258 18.55 455.71042 81.718315 465.76465 165.6408C475.81885 249.56326 421.56705 327.7597 339.4364 347.72537C257.3058 367.69104 173.21112 323.12613 143.61752 243.95361C114.02393 164.78108 148.2691 75.98238 223.35925 37.181095L300.0 185.5Z"/><path fill="#000" fill-rule="nonzero" d="M320.39966 318.7758L321.69653 318.6664Q321.83716 319.6039 322.35278 320.0883Q322.88403 320.55704 323.6184 320.55704Q324.50903 320.55704 325.1184 319.88516Q325.7434 319.2133 325.7434 318.11954Q325.7434 317.05704 325.14966 316.44766Q324.5559 315.8383 323.60278 315.8383Q323.00903 315.8383 322.52466 316.11954Q322.0559 316.38516 321.77466 316.80704L320.6184 316.6664L321.58716 311.51016L326.57153 311.51016L326.57153 312.69766L322.57153 312.69766L322.04028 315.38516Q322.94653 314.76016 323.9309 314.76016Q325.2434 314.76016 326.13403 315.6664Q327.04028 316.57266 327.04028 318.01016Q327.04028 319.36954 326.25903 320.3539Q325.29028 321.57266 323.6184 321.57266Q322.25903 321.57266 321.38403 320.80704Q320.52466 320.0414 320.39966 318.7758ZM334.79028 313.8383L333.57153 313.93204Q333.39966 313.19766 333.10278 312.86954Q332.60278 312.3539 331.8684 312.3539Q331.27466 312.3539 330.83716 312.68204Q330.25903 313.1039 329.91528 313.9164Q329.58716 314.7289 329.57153 316.2289Q330.00903 315.55704 330.64966 315.2289Q331.3059 314.9008 332.00903 314.9008Q333.2434 314.9008 334.10278 315.80704Q334.96216 316.7133 334.96216 318.1508Q334.96216 319.0883 334.5559 319.9008Q334.14966 320.7133 333.4309 321.1508Q332.72778 321.57266 331.82153 321.57266Q330.29028 321.57266 329.32153 320.44766Q328.35278 319.30704 328.35278 316.7133Q328.35278 313.80704 329.41528 312.4789Q330.35278 311.3383 331.94653 311.3383Q333.13403 311.3383 333.88403 312.01016Q334.63403 312.6664 334.79028 313.8383ZM329.75903 318.1508Q329.75903 318.7914 330.02466 319.36954Q330.3059 319.94766 330.79028 320.26016Q331.27466 320.55704 331.8059 320.55704Q332.58716 320.55704 333.14966 319.93204Q333.71216 319.30704 333.71216 318.2289Q333.71216 317.18204 333.14966 316.5883Q332.60278 315.9789 331.75903 315.9789Q330.9309 315.9789 330.33716 316.5883Q329.75903 317.18204 329.75903 318.1508ZM336.39966 316.4633Q336.39966 314.68204 336.75903 313.6039Q337.13403 312.51016 337.85278 311.93204Q338.57153 311.3383 339.66528 311.3383Q340.47778 311.3383 341.08716 311.6664Q341.69653 311.99454 342.08716 312.6039Q342.4934 313.2133 342.71216 314.0883Q342.9309 314.9633 342.9309 316.4633Q342.9309 318.2289 342.57153 319.30704Q342.21216 320.38516 341.4934 320.9789Q340.77466 321.57266 339.66528 321.57266Q338.22778 321.57266 337.39966 320.5258Q336.39966 319.2758 336.39966 316.4633ZM337.66528 316.4633Q337.66528 318.93204 338.2434 319.74454Q338.82153 320.55704 339.66528 320.55704Q340.52466 320.55704 341.10278 319.74454Q341.6809 318.9164 341.6809 316.4633Q341.6809 313.9789 341.10278 313.1664Q340.52466 312.3539 339.64966 312.3539Q338.8059 312.3539 338.3059 313.07266Q337.66528 313.99454 337.66528 316.4633Z"/><path fill="#000" fill-rule="nonzero" d="M246.3486 66.32522L245.11423 66.32522L245.11423 58.48147Q244.67673 58.903343 243.94235 59.340843Q243.2236 59.76272 242.6611 59.965843L242.6611 58.778343Q243.69235 58.29397 244.45798 57.60647Q245.23923 56.91897 245.55173 56.26272L246.3486 56.26272L246.3486 66.32522ZM249.7861 57.622093L249.7861 56.434593L256.2861 56.434593L256.2861 57.38772Q255.31735 58.403343 254.37985 60.090843Q253.44235 61.778343 252.92673 63.57522Q252.56735 64.82522 252.45798 66.32522L251.19235 66.32522Q251.20798 65.13772 251.64548 63.465843Q252.0986 61.79397 252.92673 60.247093Q253.77048 58.684593 254.70798 57.622093L249.7861 57.622093Z"/><path fill="#000" fill-rule="nonzero" d="M285.014 52.373894L283.77963 52.373894L283.77963 44.530144Q283.34213 44.95202 282.60776 45.38952Q281.889 45.811394 281.3265 46.01452L281.3265 44.82702Q282.35776 44.342644 283.12338 43.655144Q283.90463 42.967644 284.21713 42.311394L285.014 42.311394L285.014 52.373894ZM288.4515 43.67077L288.4515 42.48327L294.9515 42.48327L294.9515 43.436394Q293.98276 44.45202 293.04526 46.13952Q292.10776 47.82702 291.59213 49.623894Q291.23276 50.873894 291.12338 52.373894L289.85776 52.373894Q289.87338 51.186394 290.31088 49.51452Q290.764 47.842644 291.59213 46.29577Q292.43588 44.73327 293.37338 43.67077L288.4515 43.67077Z"/><path fill="#1a1a1a" fill-rule="nonzero" d="M19.534374 29.55L19.534374 20.95625L25.33125 20.95625L25.33125 21.971874L20.675 21.971874L20.675 24.628124L24.70625 24.628124L24.70625 25.64375L20.675 25.64375L20.675 29.55L19.534374 29.55ZM30.596874 27.55L31.690624 27.675Q31.440624 28.628124 30.7375 29.159374Q30.034374 29.690624 28.95625 29.690624Q27.596874 29.690624 26.784374 28.846874Q25.9875 28.003124 25.9875 26.4875Q25.9875 24.925 26.8 24.065624Q27.6125 23.190624 28.89375 23.190624Q30.14375 23.190624 30.925 24.034374Q31.721874 24.878124 31.721874 26.425Q31.721874 26.51875 31.721874 26.70625L27.08125 26.70625Q27.14375 27.7375 27.659374 28.284374Q28.175 28.815624 28.95625 28.815624Q29.534374 28.815624 29.940624 28.51875Q30.3625 28.20625 30.596874 27.55ZM27.14375 25.846874L30.6125 25.846874Q30.55 25.05 30.221874 24.659374Q29.70625 24.05 28.909374 24.05Q28.175 24.05 27.675 24.534374Q27.190624 25.01875 27.14375 25.846874ZM33.346874 29.55L33.346874 23.33125L34.284374 23.33125L34.284374 24.20625Q34.58125 23.7375 35.065624 23.471874Q35.55 23.190624 36.175 23.190624Q36.8625 23.190624 37.3 23.471874Q37.753124 23.753124 37.925 24.26875Q38.675 23.190624 39.846874 23.190624Q40.784374 23.190624 41.26875 23.70625Q41.76875 24.20625 41.76875 25.284374L41.76875 29.55L40.721874 29.55L40.721874 25.628124Q40.721874 25.003124 40.6125 24.721874Q40.51875 24.440624 40.253124 24.26875Q39.9875 24.096874 39.6125 24.096874Q38.95625 24.096874 38.51875 24.534374Q38.096874 24.971874 38.096874 25.940624L38.096874 29.55L37.034374 29.55L37.034374 25.503124Q37.034374 24.8 36.76875 24.45625Q36.51875 24.096874 35.940624 24.096874Q35.4875 24.096874 35.1125 24.33125Q34.7375 24.565624 34.565624 25.01875Q34.39375 25.471874 34.39375 26.315624L34.39375 29.55L33.346874 29.55ZM48.409374 28.784374Q47.815624 29.284374 47.26875 29.4875Q46.7375 29.690624 46.1125 29.690624Q45.08125 29.690624 44.534374 29.190624Q43.9875 28.690624 43.9875 27.909374Q43.9875 27.45625 44.190624 27.08125Q44.39375 26.690624 44.7375 26.471874Q45.08125 26.2375 45.503124 26.128124Q45.8 26.034374 46.440624 25.95625Q47.70625 25.815624 48.315624 25.596874Q48.315624 25.378124 48.315624 25.33125Q48.315624 24.675 48.01875 24.409374Q47.6125 24.065624 46.815624 24.065624Q46.08125 24.065624 45.721874 24.33125Q45.3625 24.58125 45.190624 25.2375L44.159374 25.096874Q44.3 24.440624 44.628124 24.034374Q44.95625 23.628124 45.565624 23.409374Q46.175 23.190624 46.971874 23.190624Q47.76875 23.190624 48.26875 23.378124Q48.76875 23.565624 49.003124 23.846874Q49.2375 24.128124 49.33125 24.565624Q49.378124 24.83125 49.378124 25.534374L49.378124 26.940624Q49.378124 28.409374 49.440624 28.8Q49.51875 29.190624 49.721874 29.55L48.6125 29.55Q48.45625 29.221874 48.409374 28.784374ZM48.315624 26.425Q47.7375 26.659374 46.596874 26.83125Q45.940624 26.925 45.675 27.05Q45.409374 27.159374 45.253124 27.378124Q45.1125 27.596874 45.1125 27.878124Q45.1125 28.3 45.425 28.58125Q45.753124 28.8625 46.3625 28.8625Q46.971874 28.8625 47.440624 28.596874Q47.925 28.33125 48.14375 27.8625Q48.315624 27.503124 48.315624 26.815624L48.315624 26.425ZM51.315624 29.55L51.315624 20.95625L52.378124 20.95625L52.378124 29.55L51.315624 29.55ZM58.596874 27.55L59.690624 27.675Q59.440624 28.628124 58.7375 29.159374Q58.034374 29.690624 56.95625 29.690624Q55.596874 29.690624 54.784374 28.846874Q53.9875 28.003124 53.9875 26.4875Q53.9875 24.925 54.8 24.065624Q55.6125 23.190624 56.89375 23.190624Q58.14375 23.190624 58.925 24.034374Q59.721874 24.878124 59.721874 26.425Q59.721874 26.51875 59.721874 26.70625L55.08125 26.70625Q55.14375 27.7375 55.659374 28.284374Q56.175 28.815624 56.95625 28.815624Q57.534374 28.815624 57.940624 28.51875Q58.3625 28.20625 58.596874 27.55ZM55.14375 25.846874L58.6125 25.846874Q58.55 25.05 58.221874 24.659374Q57.70625 24.05 56.909374 24.05Q56.175 24.05 55.675 24.534374Q55.190624 25.01875 55.14375 25.846874ZM63.55 29.690624L66.03438 20.815624L66.87813 20.815624L64.39375 29.690624L63.55 29.690624Z"/><path fill="#1a1a1a" fill-rule="nonzero" d="M80.70625 22.659374L80.70625 23.690624L78.3625 23.690624Q77.89375 25.659374 77.00313 27.01875Q78.78438 27.95625 80.2375 28.940624L79.58125 29.971874Q78.08125 28.8 76.34688 27.8625Q74.75313 29.503124 70.95625 30.065624L70.62813 28.940624Q73.90938 28.6125 75.40938 27.39375Q74.37813 26.83125 73.20625 26.503124L72.7375 27.253124L71.8 26.7375Q72.925 25.05 73.44063 23.690624L70.34688 23.690624L70.34688 22.659374L73.81563 22.659374Q74.47188 21.159374 74.75313 20.08125L75.7375 20.315624Q76.20625 20.503124 75.69063 20.64375Q75.31563 21.721874 74.94063 22.659374L80.70625 22.659374ZM73.62813 25.70625Q74.84688 26.034374 76.06563 26.596874Q76.95625 25.33125 77.28438 23.690624L74.56563 23.690624Q74.19063 24.534374 73.62813 25.70625ZM87.69063 22.425L88.95625 22.425L88.95625 19.9875L89.84688 19.9875Q90.22188 20.034374 89.89375 20.26875L89.89375 22.425L92.425 22.425L92.425 23.315624L89.89375 23.315624L89.89375 25.565624L92.28438 25.565624L92.28438 26.45625L89.89375 26.45625L89.89375 29.221874L92.9875 29.221874L92.9875 30.1125L85.81563 30.1125L85.81563 29.221874L88.95625 29.221874L88.95625 26.45625L86.65938 26.45625L86.65938 25.565624L88.95625 25.565624L88.95625 23.315624L87.40938 23.315624Q87.08125 24.253124 86.37813 25.190624L85.58125 24.58125Q86.8 22.9875 87.175 20.7375L88.06563 20.925Q88.44063 21.065624 88.06563 21.20625L87.69063 22.425ZM83.70625 19.846874L84.59688 19.846874Q84.97188 19.89375 84.64375 20.128124L84.64375 30.534374L83.70625 30.534374L83.70625 19.846874ZM85.4875 21.76875Q85.90938 22.33125 86.19063 23.034374L85.44063 23.55Q85.1125 22.753124 84.78438 22.2375L85.4875 21.76875ZM83.425 22.284374Q83.75313 22.378124 83.425 22.565624Q83.33125 24.065624 83.00313 25.378124L82.1125 25.096874Q82.4875 23.925 82.53438 22.14375L83.425 22.284374Z"/><path fill="#9e9e9e" fill-rule="nonzero" d="M24.596874 45.534374L24.596874 46.55L18.909374 46.55Q18.909374 46.175 19.034374 45.815624Q19.253124 45.2375 19.721874 44.675Q20.20625 44.1125 21.1125 43.378124Q22.51875 42.221874 23.003124 41.55Q23.503124 40.878124 23.503124 40.284374Q23.503124 39.659374 23.05 39.2375Q22.596874 38.8 21.878124 38.8Q21.1125 38.8 20.659374 39.253124Q20.20625 39.70625 20.190624 40.51875L19.1125 40.409374Q19.221874 39.190624 19.940624 38.565624Q20.675 37.925 21.909374 37.925Q23.14375 37.925 23.8625 38.6125Q24.58125 39.3 24.58125 40.315624Q24.58125 40.83125 24.3625 41.33125Q24.159374 41.815624 23.659374 42.378124Q23.175 42.925 22.05 43.878124Q21.096874 44.675 20.815624 44.971874Q20.55 45.253124 20.378124 45.534374L24.596874 45.534374ZM26.64375 46.55L26.64375 45.346874L27.846874 45.346874L27.846874 46.55L26.64375 46.55ZM30.675 41.89375Q30.01875 41.64375 29.690624 41.20625Q29.378124 40.753124 29.378124 40.14375Q29.378124 39.20625 30.05 38.565624Q30.7375 37.925 31.846874 37.925Q32.971874 37.925 33.659374 38.58125Q34.346874 39.2375 34.346874 40.175Q34.346874 40.76875 34.034374 41.20625Q33.721874 41.64375 33.08125 41.89375Q33.878124 42.14375 34.284374 42.721874Q34.690624 43.3 34.690624 44.096874Q34.690624 45.190624 33.909374 45.940624Q33.14375 46.690624 31.8625 46.690624Q30.596874 46.690624 29.815624 45.940624Q29.034374 45.190624 29.034374 44.065624Q29.034374 43.221874 29.45625 42.659374Q29.89375 42.096874 30.675 41.89375ZM30.45625 40.096874Q30.45625 40.70625 30.846874 41.096874Q31.253124 41.4875 31.878124 41.4875Q32.4875 41.4875 32.878124 41.1125Q33.26875 40.721874 33.26875 40.159374Q33.26875 39.58125 32.8625 39.190624Q32.45625 38.784374 31.8625 38.784374Q31.253124 38.784374 30.846874 39.175Q30.45625 39.565624 30.45625 40.096874ZM30.128124 44.065624Q30.128124 44.51875 30.33125 44.940624Q30.55 45.3625 30.971874 45.596874Q31.39375 45.83125 31.878124 45.83125Q32.628124 45.83125 33.1125 45.346874Q33.6125 44.8625 33.6125 44.1125Q33.6125 43.346874 33.1125 42.846874Q32.6125 42.346874 31.846874 42.346874Q31.096874 42.346874 30.6125 42.846874Q30.128124 43.33125 30.128124 44.065624ZM36.253124 40.01875Q36.253124 39.096874 36.70625 38.45625Q37.175 37.815624 38.05 37.815624Q38.8625 37.815624 39.39375 38.39375Q39.925 38.971874 39.925 40.08125Q39.925 41.175 39.378124 41.76875Q38.846874 42.346874 38.065624 42.346874Q37.284374 42.346874 36.76875 41.76875Q36.253124 41.190624 36.253124 40.01875ZM38.08125 38.534374Q37.690624 38.534374 37.425 38.878124Q37.175 39.221874 37.175 40.128124Q37.175 40.95625 37.425 41.3Q37.690624 41.628124 38.08125 41.628124Q38.4875 41.628124 38.7375 41.284374Q39.003124 40.940624 39.003124 40.05Q39.003124 39.20625 38.7375 38.878124Q38.471874 38.534374 38.08125 38.534374ZM38.08125 46.8625L42.784374 37.815624L43.64375 37.815624L38.95625 46.8625L38.08125 46.8625ZM41.8 44.534374Q41.8 43.6125 42.253124 42.971874Q42.721874 42.33125 43.6125 42.33125Q44.425 42.33125 44.95625 42.909374Q45.4875 43.471874 45.4875 44.596874Q45.4875 45.690624 44.940624 46.284374Q44.409374 46.8625 43.6125 46.8625Q42.846874 46.8625 42.315624 46.284374Q41.8 45.70625 41.8 44.534374ZM43.64375 43.05Q43.2375 43.05 42.971874 43.39375Q42.721874 43.7375 42.721874 44.64375Q42.721874 45.45625 42.9875 45.8Q43.253124 46.14375 43.64375 46.14375Q44.034374 46.14375 44.3 45.8Q44.565624 45.45625 44.565624 44.55Q44.565624 43.721874 44.3 43.39375Q44.034374 43.05 43.64375 43.05Z"/><path fill-rule="nonzero" stroke="#757575" stroke-linecap="butt" stroke-width="1" d="M18.55 34.05L127.05 34.05L286.04037 27.513033"/><path fill="#9e9e9e" fill-rule="nonzero" d="M288.04037 27.513033C288.04037 26.408463 287.14493 25.513033 286.04037 25.513033C284.9358 25.513033 284.04037 26.408463 284.04037 27.513033C284.04037 28.617603 284.9358 29.513033 286.04037 29.513033C287.14493 29.513033 288.04037 28.617603 288.04037 27.513033"/><path fill="#1a1a1a" fill-rule="nonzero" d="M19.471874 60.55L19.471874 51.95625L20.628124 51.95625L25.14375 58.70625L25.14375 51.95625L26.2375 51.95625L26.2375 60.55L25.065624 60.55L20.55 53.8L20.55 60.55L19.471874 60.55ZM27.95625 57.440624Q27.95625 55.70625 28.909374 54.878124Q29.70625 54.190624 30.8625 54.190624Q32.14375 54.190624 32.95625 55.034374Q33.784374 55.8625 33.784374 57.346874Q33.784374 58.55 33.425 59.2375Q33.065624 59.925 32.3625 60.315624Q31.675 60.690624 30.8625 60.690624Q29.565624 60.690624 28.753124 59.8625Q27.95625 59.01875 27.95625 57.440624ZM29.034374 57.440624Q29.034374 58.628124 29.55 59.221874Q30.08125 59.815624 30.8625 59.815624Q31.659374 59.815624 32.175 59.221874Q32.690624 58.628124 32.690624 57.409374Q32.690624 56.253124 32.159374 55.659374Q31.64375 55.065624 30.8625 55.065624Q30.08125 55.065624 29.55 55.659374Q29.034374 56.2375 29.034374 57.440624ZM35.346874 60.55L35.346874 54.33125L36.284374 54.33125L36.284374 55.20625Q36.971874 54.190624 38.26875 54.190624Q38.83125 54.190624 39.3 54.39375Q39.784374 54.596874 40.01875 54.925Q40.253124 55.253124 40.346874 55.690624Q40.39375 55.9875 40.39375 56.721874L40.39375 60.55L39.346874 60.55L39.346874 56.76875Q39.346874 56.1125 39.221874 55.8Q39.096874 55.4875 38.784374 55.3Q38.471874 55.096874 38.05 55.096874Q37.378124 55.096874 36.878124 55.534374Q36.39375 55.95625 36.39375 57.14375L36.39375 60.55L35.346874 60.55ZM41.925 57.971874L41.925 56.909374L45.175 56.909374L45.175 57.971874L41.925 57.971874ZM47.315624 60.55L46.33125 60.55L46.33125 51.95625L47.39375 51.95625L47.39375 55.01875Q48.065624 54.190624 49.096874 54.190624Q49.675 54.190624 50.175 54.425Q50.690624 54.64375 51.01875 55.065624Q51.3625 55.4875 51.55 56.08125Q51.7375 56.675 51.7375 57.346874Q51.7375 58.940624 50.940624 59.815624Q50.14375 60.690624 49.05 60.690624Q47.940624 60.690624 47.315624 59.76875L47.315624 60.55ZM47.3 57.39375Q47.3 58.503124 47.6125 59.003124Q48.1125 59.815624 48.95625 59.815624Q49.64375 59.815624 50.14375 59.221874Q50.659374 58.628124 50.659374 57.425Q50.659374 56.20625 50.175 55.628124Q49.690624 55.05 49.003124 55.05Q48.315624 55.05 47.8 55.659374Q47.3 56.253124 47.3 57.39375ZM53.346874 53.175L53.346874 51.95625L54.409374 51.95625L54.409374 53.175L53.346874 53.175ZM53.346874 60.55L53.346874 54.33125L54.409374 54.33125L54.409374 60.55L53.346874 60.55ZM56.346874 60.55L56.346874 54.33125L57.284374 54.33125L57.284374 55.20625Q57.971874 54.190624 59.26875 54.190624Q59.83125 54.190624 60.3 54.39375Q60.784374 54.596874 61.01875 54.925Q61.253124 55.253124 61.346874 55.690624Q61.39375 55.9875 61.39375 56.721874L61.39375 60.55L60.346874 60.55L60.346874 56.76875Q60.346874 56.1125 60.221874 55.8Q60.096874 55.4875 59.784374 55.3Q59.471874 55.096874 59.05 55.096874Q58.378124 55.096874 57.878124 55.534374Q57.39375 55.95625 57.39375 57.14375L57.39375 60.55L56.346874 60.55ZM67.40938 59.784374Q66.81563 60.284374 66.26875 60.4875Q65.7375 60.690624 65.1125 60.690624Q64.08125 60.690624 63.534374 60.190624Q62.9875 59.690624 62.9875 58.909374Q62.9875 58.45625 63.190624 58.08125Q63.39375 57.690624 63.7375 57.471874Q64.08125 57.2375 64.50313 57.128124Q64.8 57.034374 65.44063 56.95625Q66.70625 56.815624 67.31563 56.596874Q67.31563 56.378124 67.31563 56.33125Q67.31563 55.675 67.01875 55.409374Q66.6125 55.065624 65.81563 55.065624Q65.08125 55.065624 64.72188 55.33125Q64.3625 55.58125 64.19063 56.2375L63.159374 56.096874Q63.3 55.440624 63.628124 55.034374Q63.95625 54.628124 64.56563 54.409374Q65.175 54.190624 65.97188 54.190624Q66.76875 54.190624 67.26875 54.378124Q67.76875 54.565624 68.00313 54.846874Q68.2375 55.128124 68.33125 55.565624Q68.37813 55.83125 68.37813 56.534374L68.37813 57.940624Q68.37813 59.409374 68.44063 59.8Q68.51875 60.190624 68.72188 60.55L67.6125 60.55Q67.45625 60.221874 67.40938 59.784374ZM67.31563 57.425Q66.7375 57.659374 65.59688 57.83125Q64.94063 57.925 64.675 58.05Q64.40938 58.159374 64.25313 58.378124Q64.1125 58.596874 64.1125 58.878124Q64.1125 59.3 64.425 59.58125Q64.75313 59.8625 65.3625 59.8625Q65.97188 59.8625 66.44063 59.596874Q66.925 59.33125 67.14375 58.8625Q67.31563 58.503124 67.31563 57.815624L67.31563 57.425ZM70.33125 60.55L70.33125 54.33125L71.28438 54.33125L71.28438 55.26875Q71.64375 54.6125 71.94063 54.409374Q72.25313 54.190624 72.62813 54.190624Q73.15938 54.190624 73.70625 54.51875L73.34688 55.503124Q72.95625 55.26875 72.58125 55.26875Q72.22188 55.26875 71.94063 55.4875Q71.675 55.690624 71.56563 56.065624Q71.37813 56.628124 71.37813 57.284374L71.37813 60.55L70.33125 60.55ZM74.3 62.940624L74.175 61.95625Q74.51875 62.05 74.78438 62.05Q75.12813 62.05 75.33125 61.925Q75.55 61.815624 75.69063 61.6125Q75.78438 61.440624 76.01875 60.815624Q76.03438 60.7375 76.1125 60.565624L73.7375 54.33125L74.87813 54.33125L76.175 57.925Q76.425 58.6125 76.62813 59.378124Q76.81563 58.64375 77.06563 57.95625L78.39375 54.33125L79.44063 54.33125L77.08125 60.659374Q76.69063 61.675 76.4875 62.065624Q76.20625 62.596874 75.83125 62.83125Q75.47188 63.08125 74.97188 63.08125Q74.675 63.08125 74.3 62.940624ZM81.55 60.690624L84.03438 51.815624L84.87813 51.815624L82.39375 60.690624L81.55 60.690624Z"/><path fill="#1a1a1a" fill-rule="nonzero" d="M92.94063 57.878124Q92.94063 60.690624 89.425 61.675L88.95625 60.7375Q91.8625 59.846874 91.95625 58.159374L88.8625 59.05Q88.81563 59.378124 88.62813 59.190624L88.39375 58.1125L92.00313 57.26875L92.00313 56.190624L89.28438 56.190624L89.28438 55.3L92.00313 55.3L92.00313 53.8L88.72188 53.8L88.72188 52.909374L92.00313 52.909374L92.00313 51.08125L92.89375 51.08125Q93.26875 51.128124 92.94063 51.3625L92.94063 57.878124ZM98.47188 52.909374L98.47188 53.8L95.2375 53.8L95.2375 55.3L97.95625 55.3L97.95625 56.190624L95.2375 56.190624L95.2375 57.83125L98.94063 57.83125L98.94063 58.721874L95.2375 58.721874L95.2375 61.440624L94.3 61.440624L94.3 51.08125L95.19063 51.08125Q95.56563 51.128124 95.2375 51.3625L95.2375 52.909374L98.47188 52.909374ZM109.39375 52.4875L109.39375 53.51875L101.70625 53.51875L101.70625 52.4875L109.39375 52.4875ZM110.56563 58.8625L110.56563 59.89375L100.44063 59.89375L100.44063 58.8625L110.56563 58.8625ZM122.89375 58.675L122.70625 59.659374Q122.47188 60.925 121.39375 60.925L119.19063 60.925Q118.3 60.925 118.3 59.846874L118.3 55.628124L116.70625 55.628124L116.70625 56.70625Q116.70625 60.3625 112.8625 61.346874L112.39375 60.221874Q115.62813 59.425 115.62813 56.753124L115.62813 55.628124L112.53438 55.628124L112.53438 54.7375L122.6125 54.7375L122.6125 55.628124L119.37813 55.628124L119.37813 59.51875Q119.37813 59.89375 119.70625 59.89375L120.97188 59.89375Q121.53438 59.89375 121.62813 59.425L121.81563 58.346874L122.89375 58.675ZM121.44063 52.628124L113.75313 52.628124L113.75313 51.7375L121.44063 51.7375L121.44063 52.628124Z"/><path fill="#9e9e9e" fill-rule="nonzero" d="M24.596874 76.53438L24.596874 77.55L18.909374 77.55Q18.909374 77.175 19.034374 76.81563Q19.253124 76.2375 19.721874 75.675Q20.20625 75.1125 21.1125 74.37813Q22.51875 73.22188 23.003124 72.55Q23.503124 71.87813 23.503124 71.28438Q23.503124 70.65938 23.05 70.2375Q22.596874 69.8 21.878124 69.8Q21.1125 69.8 20.659374 70.25313Q20.20625 70.70625 20.190624 71.51875L19.1125 71.40938Q19.221874 70.19063 19.940624 69.56563Q20.675 68.925 21.909374 68.925Q23.14375 68.925 23.8625 69.6125Q24.58125 70.3 24.58125 71.31563Q24.58125 71.83125 24.3625 72.33125Q24.159374 72.81563 23.659374 73.37813Q23.175 73.925 22.05 74.87813Q21.096874 75.675 20.815624 75.97188Q20.55 76.25313 20.378124 76.53438L24.596874 76.53438ZM26.64375 77.55L26.64375 76.34688L27.846874 76.34688L27.846874 77.55L26.64375 77.55ZM30.675 72.89375Q30.01875 72.64375 29.690624 72.20625Q29.378124 71.75313 29.378124 71.14375Q29.378124 70.20625 30.05 69.56563Q30.7375 68.925 31.846874 68.925Q32.971874 68.925 33.659374 69.58125Q34.346874 70.2375 34.346874 71.175Q34.346874 71.76875 34.034374 72.20625Q33.721874 72.64375 33.08125 72.89375Q33.878124 73.14375 34.284374 73.72188Q34.690624 74.3 34.690624 75.09688Q34.690624 76.19063 33.909374 76.94063Q33.14375 77.69063 31.8625 77.69063Q30.596874 77.69063 29.815624 76.94063Q29.034374 76.19063 29.034374 75.06563Q29.034374 74.22188 29.45625 73.65938Q29.89375 73.09688 30.675 72.89375ZM30.45625 71.09688Q30.45625 71.70625 30.846874 72.09688Q31.253124 72.4875 31.878124 72.4875Q32.4875 72.4875 32.878124 72.1125Q33.26875 71.72188 33.26875 71.15938Q33.26875 70.58125 32.8625 70.19063Q32.45625 69.78438 31.8625 69.78438Q31.253124 69.78438 30.846874 70.175Q30.45625 70.56563 30.45625 71.09688ZM30.128124 75.06563Q30.128124 75.51875 30.33125 75.94063Q30.55 76.3625 30.971874 76.59688Q31.39375 76.83125 31.878124 76.83125Q32.628124 76.83125 33.1125 76.34688Q33.6125 75.8625 33.6125 75.1125Q33.6125 74.34688 33.1125 73.84688Q32.6125 73.34688 31.846874 73.34688Q31.096874 73.34688 30.6125 73.84688Q30.128124 74.33125 30.128124 75.06563ZM36.253124 71.01875Q36.253124 70.09688 36.70625 69.45625Q37.175 68.81563 38.05 68.81563Q38.8625 68.81563 39.39375 69.39375Q39.925 69.97188 39.925 71.08125Q39.925 72.175 39.378124 72.76875Q38.846874 73.34688 38.065624 73.34688Q37.284374 73.34688 36.76875 72.76875Q36.253124 72.19063 36.253124 71.01875ZM38.08125 69.53438Q37.690624 69.53438 37.425 69.87813Q37.175 70.22188 37.175 71.12813Q37.175 71.95625 37.425 72.3Q37.690624 72.62813 38.08125 72.62813Q38.4875 72.62813 38.7375 72.28438Q39.003124 71.94063 39.003124 71.05Q39.003124 70.20625 38.7375 69.87813Q38.471874 69.53438 38.08125 69.53438ZM38.08125 77.8625L42.784374 68.81563L43.64375 68.81563L38.95625 77.8625L38.08125 77.8625ZM41.8 75.53438Q41.8 74.6125 42.253124 73.97188Q42.721874 73.33125 43.6125 73.33125Q44.425 73.33125 44.95625 73.90938Q45.4875 74.47188 45.4875 75.59688Q45.4875 76.69063 44.940624 77.28438Q44.409374 77.8625 43.6125 77.8625Q42.846874 77.8625 42.315624 77.28438Q41.8 76.70625 41.8 75.53438ZM43.64375 74.05Q43.2375 74.05 42.971874 74.39375Q42.721874 74.7375 42.721874 75.64375Q42.721874 76.45625 42.9875 76.8Q43.253124 77.14375 43.64375 77.14375Q44.034374 77.14375 44.3 76.8Q44.565624 76.45625 44.565624 75.55Q44.565624 74.72188 44.3 74.39375Q44.034374 74.05 43.64375 74.05Z"/><path fill-rule="nonzero" stroke="#757575" stroke-linecap="butt" stroke-width="1" d="M18.55 65.05L127.05 65.05L239.87563 38.73552"/><path fill="#9e9e9e" fill-rule="nonzero" d="M241.87563 38.73552C241.87563 37.630947 240.9802 36.73552 239.87563 36.73552C238.77106 36.73552 237.87563 37.630947 237.87563 38.73552C237.87563 39.840088 238.77106 40.73552 239.87563 40.73552C240.9802 40.73552 241.87563 39.840088 241.87563 38.73552"/><path fill="#1a1a1a" fill-rule="nonzero" d="M523.34064 332.45L523.34064 323.85626L525.0594 323.85626L527.09064 329.9344Q527.3719 330.79376 527.4969 331.21564Q527.6375 330.7469 527.95 329.84064L530.0125 323.85626L531.54376 323.85626L531.54376 332.45L530.45 332.45L530.45 325.2625L527.95 332.45L526.91876 332.45L524.4344 325.1375L524.4344 332.45L523.34064 332.45ZM536.3094 331.6844Q535.71564 332.1844 535.16876 332.3875Q534.6375 332.59064 534.0125 332.59064Q532.98126 332.59064 532.4344 332.09064Q531.8875 331.59064 531.8875 330.8094Q531.8875 330.35626 532.09064 329.98126Q532.29376 329.59064 532.6375 329.3719Q532.98126 329.1375 533.40314 329.02814Q533.7 328.9344 534.34064 328.85626Q535.60626 328.71564 536.21564 328.4969Q536.21564 328.27814 536.21564 328.23126Q536.21564 327.575 535.91876 327.3094Q535.5125 326.96564 534.71564 326.96564Q533.98126 326.96564 533.6219 327.23126Q533.2625 327.48126 533.09064 328.1375L532.0594 327.9969Q532.2 327.34064 532.52814 326.9344Q532.85626 326.52814 533.46564 326.3094Q534.075 326.09064 534.8719 326.09064Q535.66876 326.09064 536.16876 326.27814Q536.66876 326.46564 536.90314 326.7469Q537.1375 327.02814 537.23126 327.46564Q537.27814 327.73126 537.27814 328.4344L537.27814 329.84064Q537.27814 331.3094 537.34064 331.7Q537.41876 332.09064 537.6219 332.45L536.5125 332.45Q536.35626 332.1219 536.3094 331.6844ZM536.21564 329.325Q535.6375 329.5594 534.4969 329.73126Q533.84064 329.825 533.575 329.95Q533.3094 330.0594 533.15314 330.27814Q533.0125 330.4969 533.0125 330.77814Q533.0125 331.2 533.325 331.48126Q533.65314 331.7625 534.2625 331.7625Q534.8719 331.7625 535.34064 331.4969Q535.825 331.23126 536.04376 330.7625Q536.21564 330.40314 536.21564 329.71564L536.21564 329.325ZM539.21564 332.45L539.21564 323.85626L540.27814 323.85626L540.27814 332.45L539.21564 332.45ZM546.4969 330.45L547.59064 330.575Q547.34064 331.52814 546.6375 332.0594Q545.9344 332.59064 544.85626 332.59064Q543.4969 332.59064 542.6844 331.7469Q541.8875 330.90314 541.8875 329.3875Q541.8875 327.825 542.7 326.96564Q543.5125 326.09064 544.79376 326.09064Q546.04376 326.09064 546.825 326.9344Q547.6219 327.77814 547.6219 329.325Q547.6219 329.41876 547.6219 329.60626L542.98126 329.60626Q543.04376 330.6375 543.5594 331.1844Q544.075 331.71564 544.85626 331.71564Q545.4344 331.71564 545.84064 331.41876Q546.2625 331.10626 546.4969 330.45ZM543.04376 328.7469L546.5125 328.7469Q546.45 327.95 546.1219 327.5594Q545.60626 326.95 544.8094 326.95Q544.075 326.95 543.575 327.4344Q543.09064 327.91876 543.04376 328.7469ZM551.45 332.59064L553.9344 323.71564L554.77814 323.71564L552.29376 332.59064L551.45 332.59064Z"/><path fill="#1a1a1a" fill-rule="nonzero" d="M566.96564 329.825L563.6844 329.825Q563.21564 333.0125 558.85626 333.66876L558.48126 332.6375Q562.09064 332.35626 562.7469 329.825L558.9969 329.825L558.9969 329.075L562.8875 329.075Q562.9344 328.5125 562.98126 327.90314L560.4969 327.90314L560.4969 328.325L559.5594 328.325L559.5594 323.1219L567.3875 323.1219L567.3875 328.1844L566.45 328.1844L566.45 327.90314L563.91876 327.90314Q563.8719 328.5125 563.825 329.075L568.09064 329.075L567.575 332.40314Q567.4344 333.34064 566.02814 333.34064L564.71564 333.34064L564.71564 332.45L565.98126 332.45Q566.59064 332.45 566.6375 332.02814L566.96564 329.825ZM566.45 323.8719L563.96564 323.8719L563.96564 325.09064L566.45 325.09064L566.45 323.8719ZM563.02814 323.8719L560.4969 323.8719L560.4969 325.09064L563.02814 325.09064L563.02814 323.8719ZM563.02814 325.84064L560.4969 325.84064L560.4969 327.15314L563.02814 327.15314L563.02814 325.84064ZM563.96564 325.84064L563.96564 327.15314L566.45 327.15314L566.45 325.84064L563.96564 325.84064ZM575.59064 325.325L576.85626 325.325L576.85626 322.8875L577.7469 322.8875Q578.1219 322.9344 577.79376 323.16876L577.79376 325.325L580.325 325.325L580.325 326.21564L577.79376 326.21564L577.79376 328.46564L580.1844 328.46564L580.1844 329.35626L577.79376 329.35626L577.79376 332.1219L580.8875 332.1219L580.8875 333.0125L573.71564 333.0125L573.71564 332.1219L576.85626 332.1219L576.85626 329.35626L574.5594 329.35626L574.5594 328.46564L576.85626 328.46564L576.85626 326.21564L575.3094 326.21564Q574.98126 327.15314 574.27814 328.09064L573.48126 327.48126Q574.7 325.8875 575.075 323.6375L575.96564 323.825Q576.34064 323.96564 575.96564 324.10626L575.59064 325.325ZM571.60626 322.7469L572.4969 322.7469Q572.8719 322.79376 572.54376 323.02814L572.54376 333.4344L571.60626 333.4344L571.60626 322.7469ZM573.3875 324.66876Q573.8094 325.23126 574.09064 325.9344L573.34064 326.45Q573.0125 325.65314 572.6844 325.1375L573.3875 324.66876ZM571.325 325.1844Q571.65314 325.27814 571.325 325.46564Q571.23126 326.96564 570.90314 328.27814L570.0125 327.9969Q570.3875 326.825 570.4344 325.04376L571.325 325.1844Z"/><path fill="#9e9e9e" fill-rule="nonzero" d="M547.10626 347.46564L548.1219 347.3719Q548.2469 348.09064 548.60626 348.41876Q548.98126 348.73126 549.54376 348.73126Q550.02814 348.73126 550.3875 348.5125Q550.7625 348.27814 550.9969 347.91876Q551.23126 347.54376 551.3875 346.91876Q551.54376 346.27814 551.54376 345.6219Q551.54376 345.54376 551.54376 345.40314Q551.23126 345.90314 550.6844 346.23126Q550.1375 346.54376 549.4969 346.54376Q548.41876 346.54376 547.6844 345.77814Q546.95 344.9969 546.95 343.73126Q546.95 342.41876 547.71564 341.6219Q548.4969 340.825 549.65314 340.825Q550.48126 340.825 551.16876 341.27814Q551.8719 341.73126 552.23126 342.575Q552.59064 343.40314 552.59064 344.98126Q552.59064 346.6219 552.23126 347.60626Q551.8875 348.575 551.16876 349.09064Q550.46564 349.59064 549.52814 349.59064Q548.5125 349.59064 547.8719 349.04376Q547.23126 348.48126 547.10626 347.46564ZM551.41876 343.66876Q551.41876 342.7625 550.9344 342.23126Q550.46564 341.7 549.77814 341.7Q549.075 341.7 548.54376 342.27814Q548.02814 342.84064 548.02814 343.7625Q548.02814 344.575 548.52814 345.09064Q549.02814 345.60626 549.7469 345.60626Q550.48126 345.60626 550.95 345.09064Q551.41876 344.575 551.41876 343.66876ZM559.4969 348.4344L559.4969 349.45L553.8094 349.45Q553.8094 349.075 553.9344 348.71564Q554.15314 348.1375 554.6219 347.575Q555.10626 347.0125 556.0125 346.27814Q557.41876 345.1219 557.90314 344.45Q558.40314 343.77814 558.40314 343.1844Q558.40314 342.5594 557.95 342.1375Q557.4969 341.7 556.77814 341.7Q556.0125 341.7 555.5594 342.15314Q555.10626 342.60626 555.09064 343.41876L554.0125 343.3094Q554.1219 342.09064 554.84064 341.46564Q555.575 340.825 556.8094 340.825Q558.04376 340.825 558.7625 341.5125Q559.48126 342.2 559.48126 343.21564Q559.48126 343.73126 559.2625 344.23126Q559.0594 344.71564 558.5594 345.27814Q558.075 345.825 556.95 346.77814Q555.9969 347.575 555.71564 347.8719Q555.45 348.15314 555.27814 348.4344L559.4969 348.4344ZM561.54376 349.45L561.54376 348.2469L562.7469 348.2469L562.7469 349.45L561.54376 349.45ZM567.325 349.45L567.325 347.3875L563.60626 347.3875L563.60626 346.41876L567.52814 340.85626L568.3875 340.85626L568.3875 346.41876L569.54376 346.41876L569.54376 347.3875L568.3875 347.3875L568.3875 349.45L567.325 349.45ZM567.325 346.41876L567.325 342.5594L564.6375 346.41876L567.325 346.41876ZM571.15314 342.91876Q571.15314 341.9969 571.60626 341.35626Q572.075 340.71564 572.95 340.71564Q573.7625 340.71564 574.29376 341.29376Q574.825 341.8719 574.825 342.98126Q574.825 344.075 574.27814 344.66876Q573.7469 345.2469 572.96564 345.2469Q572.1844 345.2469 571.66876 344.66876Q571.15314 344.09064 571.15314 342.91876ZM572.98126 341.4344Q572.59064 341.4344 572.325 341.77814Q572.075 342.1219 572.075 343.02814Q572.075 343.85626 572.325 344.2Q572.59064 344.52814 572.98126 344.52814Q573.3875 344.52814 573.6375 344.1844Q573.90314 343.84064 573.90314 342.95Q573.90314 342.10626 573.6375 341.77814Q573.3719 341.4344 572.98126 341.4344ZM572.98126 349.7625L577.6844 340.71564L578.54376 340.71564L573.85626 349.7625L572.98126 349.7625ZM576.7 347.4344Q576.7 346.5125 577.15314 345.8719Q577.6219 345.23126 578.5125 345.23126Q579.325 345.23126 579.85626 345.8094Q580.3875 346.3719 580.3875 347.4969Q580.3875 348.59064 579.84064 349.1844Q579.3094 349.7625 578.5125 349.7625Q577.7469 349.7625 577.21564 349.1844Q576.7 348.60626 576.7 347.4344ZM578.54376 345.95Q578.1375 345.95 577.8719 346.29376Q577.6219 346.6375 577.6219 347.54376Q577.6219 348.35626 577.8875 348.7Q578.15314 349.04376 578.54376 349.04376Q578.9344 349.04376 579.2 348.7Q579.46564 348.35626 579.46564 347.45Q579.46564 346.6219 579.2 346.29376Q578.9344 345.95 578.54376 345.95Z"/><path fill-rule="nonzero" stroke="#757575" stroke-linecap="butt" stroke-width="1" d="M581.45 336.95L472.95 336.95L337.4646 339.6141"/><path fill="#9e9e9e" fill-rule="nonzero" d="M339.4646 339.6141C339.4646 338.50952 338.56915 337.6141 337.4646 337.6141C336.36002 337.6141 335.4646 338.50952 335.4646 339.6141C335.4646 340.7187 336.36002 341.6141 337.4646 341.6141C338.56915 341.6141 339.4646 340.7187 339.4646 339.6141"/></svg>