<svg xmlns="http://www.w3.org/2000/svg" xmlns:xlink="http://www.w3.org/1999/xlink" width="745" height="371" fill="none" stroke="none" stroke-linecap="square" stroke-miterlimit="10" version="1.1" viewBox="0 0 745 371"><path fill="#fff" fill-rule="nonzero" d="M0 0L745.0 0L745.0 371.0L0 371.0L0 0Z"/><path fill="#4285f4" fill-rule="nonzero" d="M372.5 18.55C451.1309 18.55 519.1035 73.41729 535.6923 150.2784L372.5 185.5Z"/><path fill="#ea4335" fill-rule="nonzero" d="M535.6923 150.2784C539.0689 165.92305 540.1783 181.97195 538.98645 197.93242L372.5 185.5Z"/><path fill="#ff6d01" fill-rule="nonzero" d="M313.0005 29.512468C332.0005 22.265148 352.1647 18.55 372.5 18.55L372.5 185.5Z"/><path fill="#34a853" fill-rule="nonzero" d="M217.01057 246.28934C200.801 204.82782 201.8219 158.60956 219.84644 117.90422C237.87096 77.19888 271.40613 45.378117 313.0005 29.512468L372.5 185.5Z"/><path fill="#fbbc04" fill-rule="nonzero" d="M538.98645 197.93242C533.1824 275.6564 474.37173 339.0225 397.2958 350.59836C320.21985 362.17426 245.39 318.87936 217.01057 246.28934L372.5 185.5Z"/><path fill="#000" fill-rule="nonzero" d="M447.10306 89.676674L445.86868 89.676674L445.86868 81.832924Q445.43118 82.2548 444.6968 82.6923Q443.97806 83.114174 443.41556 83.3173L443.41556 82.1298Q444.4468 81.645424 445.21243 80.957924Q445.99368 80.270424 446.30618 79.614174L447.10306 79.614174L447.10306 89.676674ZM456.93118 88.489174L456.93118 89.676674L450.30618 89.676674Q450.29056 89.239174 450.4468 88.8173Q450.71243 88.145424 451.2593 87.489174Q451.8218 86.832924 452.86868 85.97355Q454.5093 84.6298 455.0718 83.84855Q455.64993 83.0673 455.64993 82.364174Q455.64993 81.6298 455.11868 81.1298Q454.60306 80.6298 453.77493 80.6298Q452.8843 80.6298 452.33743 81.16105Q451.80618 81.6923 451.80618 82.645424L450.54056 82.5048Q450.66556 81.09855 451.5093 80.364174Q452.36868 79.614174 453.79056 79.614174Q455.24368 79.614174 456.0718 80.41105Q456.91556 81.207924 456.91556 82.395424Q456.91556 83.0048 456.66556 83.582924Q456.43118 84.16105 455.85306 84.801674Q455.29056 85.4423 453.96243 86.5673Q452.85306 87.489174 452.54056 87.832924Q452.22806 88.16105 452.02493 88.489174L456.93118 88.489174ZM458.47806 87.03605L459.6968 86.864174Q459.91556 87.91105 460.41556 88.3798Q460.93118 88.832924 461.66556 88.832924Q462.54056 88.832924 463.1343 88.239174Q463.72806 87.6298 463.72806 86.739174Q463.72806 85.895424 463.16556 85.34855Q462.61868 84.801674 461.77493 84.801674Q461.41556 84.801674 460.89993 84.926674L461.04056 83.84855Q461.16556 83.864174 461.22806 83.864174Q462.02493 83.864174 462.64993 83.457924Q463.27493 83.051674 463.27493 82.1923Q463.27493 81.520424 462.8218 81.082924Q462.36868 80.6298 461.6343 80.6298Q460.91556 80.6298 460.43118 81.082924Q459.96243 81.520424 459.8218 82.426674L458.60306 82.207924Q458.8218 80.97355 459.61868 80.301674Q460.41556 79.614174 461.60306 79.614174Q462.43118 79.614174 463.11868 79.97355Q463.80618 80.3173 464.16556 80.926674Q464.54056 81.53605 464.54056 82.22355Q464.54056 82.864174 464.1968 83.395424Q463.85306 83.926674 463.16556 84.2548Q464.05618 84.457924 464.54056 85.09855Q465.04056 85.739174 465.04056 86.72355Q465.04056 88.03605 464.0718 88.9423Q463.11868 89.84855 461.66556 89.84855Q460.33743 89.84855 459.46243 89.0673Q458.60306 88.28605 458.47806 87.03605Z"/><path fill="#000" fill-rule="nonzero" d="M510.24408 179.72499L510.24408 180.91249L503.61908 180.91249Q503.60345 180.47499 503.7597 180.05312Q504.02533 179.38124 504.5722 178.72499Q505.1347 178.06874 506.18158 177.20937Q507.8222 175.86562 508.3847 175.08437Q508.96283 174.30312 508.96283 173.59999Q508.96283 172.86562 508.43158 172.36562Q507.91595 171.86562 507.08783 171.86562Q506.1972 171.86562 505.65033 172.39687Q505.11908 172.92812 505.11908 173.88124L503.85345 173.74062Q503.97845 172.33437 504.8222 171.59999Q505.68158 170.84999 507.10345 170.84999Q508.55658 170.84999 509.3847 171.64687Q510.22845 172.44374 510.22845 173.63124Q510.22845 174.24062 509.97845 174.81874Q509.74408 175.39687 509.16595 176.03749Q508.60345 176.67812 507.27533 177.80312Q506.16595 178.72499 505.85345 179.06874Q505.54095 179.39687 505.33783 179.72499L510.24408 179.72499ZM518.16595 173.34999L516.9472 173.44374Q516.7753 172.70937 516.47845 172.38124Q515.97845 171.86562 515.2441 171.86562Q514.6503 171.86562 514.2128 172.19374Q513.6347 172.61562 513.29095 173.42812Q512.9628 174.24062 512.9472 175.74062Q513.3847 175.06874 514.0253 174.74062Q514.6816 174.41249 515.3847 174.41249Q516.6191 174.41249 517.47845 175.31874Q518.3378 176.22499 518.3378 177.66249Q518.3378 178.59999 517.9316 179.41249Q517.5253 180.22499 516.8066 180.66249Q516.10345 181.08437 515.1972 181.08437Q513.66595 181.08437 512.6972 179.95937Q511.72845 178.81874 511.72845 176.22499Q511.72845 173.31874 512.79095 171.99062Q513.72845 170.84999 515.3222 170.84999Q516.5097 170.84999 517.2597 171.52187Q518.0097 172.17812 518.16595 173.34999ZM513.1347 177.66249Q513.1347 178.30312 513.4003 178.88124Q513.6816 179.45937 514.16595 179.77187Q514.6503 180.06874 515.1816 180.06874Q515.9628 180.06874 516.5253 179.44374Q517.0878 178.81874 517.0878 177.74062Q517.0878 176.69374 516.5253 176.09999Q515.97845 175.49062 515.1347 175.49062Q514.3066 175.49062 513.7128 176.09999Q513.1347 176.69374 513.1347 177.66249Z"/><path fill="#000" fill-rule="nonzero" d="M387.80954 324.2278L387.80954 325.4153L381.18454 325.4153Q381.1689 324.9778 381.32516 324.55594Q381.5908 323.88406 382.13766 323.2278Q382.70016 322.57156 383.74704 321.7122Q385.38766 320.36844 385.95016 319.5872Q386.5283 318.80594 386.5283 318.1028Q386.5283 317.36844 385.99704 316.86844Q385.4814 316.36844 384.6533 316.36844Q383.76266 316.36844 383.2158 316.8997Q382.68454 317.43094 382.68454 318.38406L381.4189 318.24344Q381.5439 316.8372 382.38766 316.1028Q383.24704 315.3528 384.6689 315.3528Q386.12204 315.3528 386.95016 316.1497Q387.7939 316.94656 387.7939 318.13406Q387.7939 318.74344 387.5439 319.32156Q387.30954 319.8997 386.7314 320.5403Q386.1689 321.18094 384.8408 322.30594Q383.7314 323.2278 383.4189 323.57156Q383.1064 323.8997 382.9033 324.2278L387.80954 324.2278ZM393.2939 325.4153L393.2939 323.00906L388.93454 323.00906L388.93454 321.88406L393.51266 315.3997L394.51266 315.3997L394.51266 321.88406L395.87204 321.88406L395.87204 323.00906L394.51266 323.00906L394.51266 325.4153L393.2939 325.4153ZM393.2939 321.88406L393.2939 317.36844L390.1533 321.88406L393.2939 321.88406ZM401.2939 325.4153L401.2939 323.00906L396.93454 323.00906L396.93454 321.88406L401.51266 315.3997L402.51266 315.3997L402.51266 321.88406L403.87204 321.88406L403.87204 323.00906L402.51266 323.00906L402.51266 325.4153L401.2939 325.4153ZM401.2939 321.88406L401.2939 317.36844L398.1533 321.88406L401.2939 321.88406Z"/><path fill="#000" fill-rule="nonzero" d="M246.528 137.72173L245.29362 137.72173L245.29362 129.87798Q244.85612 130.29985 244.12175 130.73735Q243.403 131.15923 242.8405 131.36235L242.8405 130.17485Q243.87175 129.69048 244.63737 129.00298Q245.41862 128.31548 245.73112 127.659225L246.528 127.659225L246.528 137.72173ZM253.8405 137.72173L253.8405 135.31548L249.48112 135.31548L249.48112 134.19048L254.05925 127.7061L255.05925 127.7061L255.05925 134.19048L256.41864 134.19048L256.41864 135.31548L255.05925 135.31548L255.05925 137.72173L253.8405 137.72173ZM253.8405 134.19048L253.8405 129.67485L250.69987 134.19048L253.8405 134.19048ZM257.903 135.0811L259.12177 134.90923Q259.3405 135.9561 259.8405 136.42485Q260.35614 136.87798 261.0905 136.87798Q261.9655 136.87798 262.55927 136.28423Q263.153 135.67485 263.153 134.78423Q263.153 133.94048 262.5905 133.3936Q262.04364 132.84673 261.1999 132.84673Q260.8405 132.84673 260.3249 132.97173L260.4655 131.8936Q260.5905 131.90923 260.653 131.90923Q261.4499 131.90923 262.0749 131.50298Q262.6999 131.09673 262.6999 130.23735Q262.6999 129.56548 262.24677 129.12798Q261.79364 128.67485 261.05927 128.67485Q260.3405 128.67485 259.85614 129.12798Q259.3874 129.56548 259.24677 130.47173L258.028 130.25298Q258.24677 129.0186 259.04364 128.34673Q259.8405 127.659225 261.028 127.659225Q261.85614 127.659225 262.54364 128.0186Q263.23114 128.36235 263.5905 128.97173Q263.9655 129.5811 263.9655 130.2686Q263.9655 130.90923 263.62177 131.44048Q263.278 131.97173 262.5905 132.29985Q263.48114 132.50298 263.9655 133.1436Q264.4655 133.78423 264.4655 134.7686Q264.4655 136.0811 263.49677 136.98735Q262.54364 137.8936 261.0905 137.8936Q259.7624 137.8936 258.8874 137.11235Q258.028 136.3311 257.903 135.0811Z"/><path fill="#000" fill-rule="nonzero" d="M340.26834 53.11777L341.4871 52.945896Q341.70584 53.99277 342.20584 54.46152Q342.72147 54.914646 343.45584 54.914646Q344.33084 54.914646 344.9246 54.320896Q345.51834 53.71152 345.51834 52.820896Q345.51834 51.977146 344.95584 51.43027Q344.40897 50.883396 343.56522 50.883396Q343.20584 50.883396 342.69022 51.008396L342.83084 49.93027Q342.95584 49.945896 343.01834 49.945896Q343.81522 49.945896 344.44022 49.539646Q345.06522 49.133396 345.06522 48.27402Q345.06522 47.602146 344.6121 47.164646Q344.15897 46.71152 343.4246 46.71152Q342.70584 46.71152 342.22147 47.164646Q341.75272 47.602146 341.6121 48.508396L340.39334 48.289646Q340.6121 47.05527 341.40897 46.383396Q342.20584 45.695896 343.39334 45.695896Q344.22147 45.695896 344.90897 46.05527Q345.59647 46.39902 345.95584 47.008396Q346.33084 47.61777 346.33084 48.30527Q346.33084 48.945896 345.9871 49.477146Q345.64334 50.008396 344.95584 50.33652Q345.84647 50.539646 346.33084 51.18027Q346.83084 51.820896 346.83084 52.80527Q346.83084 54.11777 345.8621 55.02402Q344.90897 55.93027 343.45584 55.93027Q342.12772 55.93027 341.25272 55.14902Q340.39334 54.36777 340.26834 53.11777ZM348.26834 53.11777L349.4871 52.945896Q349.70584 53.99277 350.20584 54.46152Q350.72147 54.914646 351.45584 54.914646Q352.33084 54.914646 352.9246 54.320896Q353.51834 53.71152 353.51834 52.820896Q353.51834 51.977146 352.95584 51.43027Q352.40897 50.883396 351.56522 50.883396Q351.20584 50.883396 350.69022 51.008396L350.83084 49.93027Q350.95584 49.945896 351.01834 49.945896Q351.81522 49.945896 352.44022 49.539646Q353.06522 49.133396 353.06522 48.27402Q353.06522 47.602146 352.6121 47.164646Q352.15897 46.71152 351.4246 46.71152Q350.70584 46.71152 350.22147 47.164646Q349.75272 47.602146 349.6121 48.508396L348.39334 48.289646Q348.6121 47.05527 349.40897 46.383396Q350.20584 45.695896 351.39334 45.695896Q352.22147 45.695896 352.90897 46.05527Q353.59647 46.39902 353.95584 47.008396Q354.33084 47.61777 354.33084 48.30527Q354.33084 48.945896 353.9871 49.477146Q353.64334 50.008396 352.95584 50.33652Q353.84647 50.539646 354.33084 51.18027Q354.83084 51.820896 354.83084 52.80527Q354.83084 54.11777 353.8621 55.02402Q352.90897 55.93027 351.45584 55.93027Q350.12772 55.93027 349.25272 55.14902Q348.39334 54.36777 348.26834 53.11777Z"/><path fill="#1a1a1a" fill-rule="nonzero" d="M22.425 29.55L22.425 27.4875L18.70625 27.4875L18.70625 26.51875L22.628124 20.95625L23.4875 20.95625L23.4875 26.51875L24.64375 26.51875L24.64375 27.4875L23.4875 27.4875L23.4875 29.55L22.425 29.55ZM22.425 26.51875L22.425 22.659374L19.7375 26.51875L22.425 26.51875ZM31.3625 32.08125Q30.4875 30.971874 29.878124 29.503124Q29.284374 28.01875 29.284374 26.440624Q29.284374 25.05 29.721874 23.76875Q30.253124 22.284374 31.3625 20.815624L32.1125 20.815624Q31.409374 22.034374 31.175 22.55Q30.815624 23.3625 30.6125 24.2375Q30.3625 25.33125 30.3625 26.440624Q30.3625 29.26875 32.1125 32.08125L31.3625 32.08125ZM35.89375 29.55L35.89375 25.909374L32.58125 20.95625L33.971874 20.95625L35.659374 23.55Q36.128124 24.26875 36.534374 25.003124Q36.925 24.33125 37.471874 23.4875L39.14375 20.95625L40.45625 20.95625L37.034374 25.909374L37.034374 29.55L35.89375 29.55ZM44.425 29.55L44.425 28.628124Q43.690624 29.690624 42.440624 29.690624Q41.89375 29.690624 41.409374 29.4875Q40.940624 29.26875 40.70625 28.95625Q40.471874 28.628124 40.378124 28.159374Q40.315624 27.8625 40.315624 27.175L40.315624 23.33125L41.378124 23.33125L41.378124 26.784374Q41.378124 27.596874 41.440624 27.89375Q41.534374 28.3 41.846874 28.55Q42.175 28.784374 42.659374 28.784374Q43.128124 28.784374 43.534374 28.55Q43.95625 28.3 44.128124 27.878124Q44.315624 27.45625 44.315624 26.659374L44.315624 23.33125L45.3625 23.33125L45.3625 29.55L44.425 29.55ZM47.346874 22.175L47.346874 20.95625L48.409374 20.95625L48.409374 22.175L47.346874 22.175ZM47.346874 29.55L47.346874 23.33125L48.409374 23.33125L48.409374 29.55L47.346874 29.55ZM55.659374 29.55L55.659374 21.971874L52.83125 21.971874L52.83125 20.95625L59.64375 20.95625L59.64375 21.971874L56.8 21.971874L56.8 29.55L55.659374 29.55ZM59.95625 26.440624Q59.95625 24.70625 60.909374 23.878124Q61.70625 23.190624 62.8625 23.190624Q64.14375 23.190624 64.95625 24.034374Q65.78438 24.8625 65.78438 26.346874Q65.78438 27.55 65.425 28.2375Q65.06563 28.925 64.3625 29.315624Q63.675 29.690624 62.8625 29.690624Q61.565624 29.690624 60.753124 28.8625Q59.95625 28.01875 59.95625 26.440624ZM61.034374 26.440624Q61.034374 27.628124 61.55 28.221874Q62.08125 28.815624 62.8625 28.815624Q63.659374 28.815624 64.175 28.221874Q64.69063 27.628124 64.69063 26.409374Q64.69063 25.253124 64.15938 24.659374Q63.64375 24.065624 62.8625 24.065624Q62.08125 24.065624 61.55 24.659374Q61.034374 25.2375 61.034374 26.440624ZM67.34688 22.175L67.34688 20.95625L68.40938 20.95625L68.40938 22.175L67.34688 22.175ZM67.34688 29.55L67.34688 23.33125L68.40938 23.33125L68.40938 29.55L67.34688 29.55ZM72.64375 28.6125L72.8 29.534374Q72.34688 29.628124 72.00313 29.628124Q71.425 29.628124 71.1125 29.45625Q70.8 29.26875 70.65938 28.971874Q70.53438 28.675 70.53438 27.721874L70.53438 24.14375L69.76875 24.14375L69.76875 23.33125L70.53438 23.33125L70.53438 21.784374L71.58125 21.159374L71.58125 23.33125L72.64375 23.33125L72.64375 24.14375L71.58125 24.14375L71.58125 27.784374Q71.58125 28.2375 71.62813 28.3625Q71.69063 28.4875 71.81563 28.565624Q71.94063 28.64375 72.175 28.64375Q72.3625 28.64375 72.64375 28.6125ZM77.40938 28.784374Q76.81563 29.284374 76.26875 29.4875Q75.7375 29.690624 75.1125 29.690624Q74.08125 29.690624 73.53438 29.190624Q72.9875 28.690624 72.9875 27.909374Q72.9875 27.45625 73.19063 27.08125Q73.39375 26.690624 73.7375 26.471874Q74.08125 26.2375 74.50313 26.128124Q74.8 26.034374 75.44063 25.95625Q76.70625 25.815624 77.31563 25.596874Q77.31563 25.378124 77.31563 25.33125Q77.31563 24.675 77.01875 24.409374Q76.6125 24.065624 75.81563 24.065624Q75.08125 24.065624 74.72188 24.33125Q74.3625 24.58125 74.19063 25.2375L73.15938 25.096874Q73.3 24.440624 73.62813 24.034374Q73.95625 23.628124 74.56563 23.409374Q75.175 23.190624 75.97188 23.190624Q76.76875 23.190624 77.26875 23.378124Q77.76875 23.565624 78.00313 23.846874Q78.2375 24.128124 78.33125 24.565624Q78.37813 24.83125 78.37813 25.534374L78.37813 26.940624Q78.37813 28.409374 78.44063 28.8Q78.51875 29.190624 78.72188 29.55L77.6125 29.55Q77.45625 29.221874 77.40938 28.784374ZM77.31563 26.425Q76.7375 26.659374 75.59688 26.83125Q74.94063 26.925 74.675 27.05Q74.40938 27.159374 74.25313 27.378124Q74.1125 27.596874 74.1125 27.878124Q74.1125 28.3 74.425 28.58125Q74.75313 28.8625 75.3625 28.8625Q75.97188 28.8625 76.44063 28.596874Q76.925 28.33125 77.14375 27.8625Q77.31563 27.503124 77.31563 26.815624L77.31563 26.425Z"/><path fill="#1a1a1a" fill-rule="nonzero" d="M91.45625 26.83125L91.45625 26.26875L85.87813 26.26875L85.87813 26.690624Q85.87813 28.940624 84.37813 30.628124L83.4875 29.784374Q84.8 28.378124 84.8 26.3625L84.8 22.70625L92.53438 22.70625L92.53438 26.83125L91.45625 26.83125ZM83.76875 20.45625L93.28438 20.45625L93.28438 21.4875L83.76875 21.4875L83.76875 20.45625ZM85.87813 23.596874L85.87813 25.378124L91.45625 25.378124L91.45625 23.596874L85.87813 23.596874ZM102.37813 24.534374Q102.6125 25.9875 103.22188 27.01875Q103.83125 26.128124 104.06563 24.534374L102.37813 24.534374ZM100.55 29.503124Q101.8625 28.89375 102.6125 27.909374Q101.72188 26.175 101.4875 24.534374L100.97188 24.534374L100.97188 25.51875Q100.97188 29.221874 99.37813 30.534374L98.81563 29.596874Q100.03438 28.378124 100.03438 25.565624L100.03438 20.64375L105.6125 20.64375L105.6125 21.534374L100.97188 21.534374L100.97188 23.64375L104.20625 23.64375L104.44063 23.409374L105.2375 23.971874Q105.425 24.1125 105.09688 24.3Q104.72188 26.315624 103.83125 27.8625Q104.34688 28.6125 105.89375 29.3625L105.51875 30.346874Q104.39375 29.878124 103.22188 28.659374Q102.37813 29.7375 100.925 30.4875L100.55 29.503124ZM97.175 30.675L97.175 25.8Q96.47188 27.440624 95.675 28.096874L95.20625 27.253124Q96.75313 25.471874 97.175 23.128124L95.4875 23.128124L95.4875 22.2375L97.175 22.2375L97.175 19.8L98.06563 19.8Q98.44063 19.846874 98.1125 20.08125L98.1125 22.2375L99.65938 22.2375L99.65938 23.128124L98.1125 23.128124L98.1125 24.76875Q99.09688 25.33125 99.65938 25.846874L99.2375 26.784374Q98.675 26.3625 98.1125 25.846874L98.1125 30.675L97.175 30.675ZM106.925 25.003124Q108.56563 23.08125 108.84688 19.89375L109.87813 20.08125Q110.06563 20.26875 109.7375 20.315624Q109.50313 21.815624 109.12813 22.940624Q109.7375 23.034374 109.31563 23.26875L109.31563 30.628124L108.37813 30.628124L108.37813 24.534374Q107.95625 25.378124 107.44063 25.846874L106.925 25.003124ZM114.70625 29.175Q115.925 29.596874 117.94063 29.690624L117.65938 30.628124Q115.55 30.440624 113.90938 29.64375Q112.22188 30.440624 110.01875 30.628124L109.7375 29.7375Q112.03438 29.64375 113.15938 29.128124Q112.45625 28.659374 112.175 28.2375Q111.33125 28.89375 110.3 29.26875L109.87813 28.565624Q111.8 27.76875 112.50313 26.64375Q112.175 26.503124 112.175 25.940624L112.175 24.675L110.58125 24.675L110.58125 25.753124L109.78438 25.753124L109.78438 24.1125L111.00313 24.1125L111.00313 21.346874L112.925 21.346874L112.97188 20.690624L110.06563 20.690624L110.06563 20.128124L117.51875 20.128124L117.51875 20.690624L114.00313 20.690624L113.76875 21.346874L116.20625 21.346874L116.20625 24.1125L117.8 24.1125L117.8 25.70625L117.00313 25.70625L117.00313 24.675L113.8625 24.675Q114.2375 25.003124 114.51875 25.51875L113.81563 25.940624Q113.58125 25.471874 113.20625 25.003124L113.675 24.675L112.97188 24.675L112.97188 25.846874Q112.97188 26.221874 113.34688 26.221874L114.37813 26.221874Q114.70625 26.221874 114.75313 25.940624L114.84688 25.471874L115.69063 25.70625Q115.55 26.784374 114.9875 26.784374L113.44063 26.784374L113.01875 27.3L115.55 27.3L115.78438 27.1125L116.53438 27.675Q116.90938 27.909374 116.34688 27.95625Q115.59688 28.753124 114.70625 29.175ZM116.06563 24.8625Q116.81563 25.51875 117.09688 26.315624L116.39375 26.7375Q116.1125 26.034374 115.45625 25.284374L116.06563 24.8625ZM110.3 26.64375Q110.95625 25.9875 111.28438 25.14375L111.94063 25.471874Q112.22188 25.659374 111.84688 25.70625Q111.56563 26.45625 110.95625 27.1125L110.3 26.64375ZM115.40938 22.2375L115.40938 21.675L111.8 21.675L111.8 22.2375L115.40938 22.2375ZM115.40938 22.565624L111.8 22.565624L111.8 23.175L115.40938 23.175L115.40938 22.565624ZM115.40938 23.503124L111.8 23.503124L111.8 24.1125L115.40938 24.1125L115.40938 23.503124ZM112.78438 27.8625Q113.1125 28.284374 113.90938 28.753124Q114.6125 28.425 115.22188 27.8625L112.78438 27.8625ZM125.01875 21.8625L129.70625 21.8625L129.70625 22.753124L125.20625 22.753124Q125.44063 24.065624 126.09688 25.425Q127.22188 24.58125 128.25313 23.7375L129.05 24.534374Q129.2375 24.721874 128.76875 24.721874Q127.55 25.6125 126.56563 26.175Q127.55 27.8625 130.03438 29.128124L129.37813 30.20625Q125.58125 28.05 124.45625 23.3625Q124.08125 24.346874 123.05 25.425L123.05 28.940624Q124.50313 28.70625 125.95625 28.471874L126.09688 29.3625Q123.425 29.83125 120.75313 30.253124Q120.70625 30.4875 120.51875 30.346874L120.19063 29.315624Q121.08125 29.221874 121.97188 29.08125L121.97188 26.315624Q120.89375 27.159374 119.44063 27.815624L119.01875 26.784374Q122.675 25.378124 123.84688 22.753124L119.34688 22.753124L119.34688 21.8625L123.94063 21.8625L123.94063 20.26875L124.97188 20.26875Q125.44063 20.3625 125.01875 20.64375L125.01875 21.8625Z"/><path fill="#1a1a1a" fill-rule="nonzero" d="M132.03438 32.08125L131.28438 32.08125Q133.03438 29.26875 133.03438 26.440624Q133.03438 25.346874 132.78438 24.253124Q132.58125 23.378124 132.22188 22.565624Q131.9875 22.05 131.28438 20.815624L132.03438 20.815624Q133.12813 22.284374 133.65938 23.76875Q134.1125 25.05 134.1125 26.440624Q134.1125 28.01875 133.50313 29.503124Q132.89375 30.971874 132.03438 32.08125Z"/><path fill="#9e9e9e" fill-rule="nonzero" d="M19.05 44.3L20.159374 44.20625Q20.284374 45.01875 20.721874 45.425Q21.175 45.83125 21.815624 45.83125Q22.565624 45.83125 23.096874 45.253124Q23.628124 44.675 23.628124 43.7375Q23.628124 42.83125 23.1125 42.315624Q22.6125 41.784374 21.784374 41.784374Q21.284374 41.784374 20.8625 42.01875Q20.45625 42.253124 20.221874 42.6125L19.2375 42.4875L20.065624 38.08125L24.346874 38.08125L24.346874 39.08125L20.909374 39.08125L20.45625 41.39375Q21.221874 40.846874 22.065624 40.846874Q23.190624 40.846874 23.95625 41.628124Q24.7375 42.409374 24.7375 43.64375Q24.7375 44.8 24.065624 45.659374Q23.2375 46.690624 21.815624 46.690624Q20.64375 46.690624 19.89375 46.034374Q19.159374 45.378124 19.05 44.3ZM26.64375 46.55L26.64375 45.346874L27.846874 45.346874L27.846874 46.55L26.64375 46.55ZM30.675 41.89375Q30.01875 41.64375 29.690624 41.20625Q29.378124 40.753124 29.378124 40.14375Q29.378124 39.20625 30.05 38.565624Q30.7375 37.925 31.846874 37.925Q32.971874 37.925 33.659374 38.58125Q34.346874 39.2375 34.346874 40.175Q34.346874 40.76875 34.034374 41.20625Q33.721874 41.64375 33.08125 41.89375Q33.878124 42.14375 34.284374 42.721874Q34.690624 43.3 34.690624 44.096874Q34.690624 45.190624 33.909374 45.940624Q33.14375 46.690624 31.8625 46.690624Q30.596874 46.690624 29.815624 45.940624Q29.034374 45.190624 29.034374 44.065624Q29.034374 43.221874 29.45625 42.659374Q29.89375 42.096874 30.675 41.89375ZM30.45625 40.096874Q30.45625 40.70625 30.846874 41.096874Q31.253124 41.4875 31.878124 41.4875Q32.4875 41.4875 32.878124 41.1125Q33.26875 40.721874 33.26875 40.159374Q33.26875 39.58125 32.8625 39.190624Q32.45625 38.784374 31.8625 38.784374Q31.253124 38.784374 30.846874 39.175Q30.45625 39.565624 30.45625 40.096874ZM30.128124 44.065624Q30.128124 44.51875 30.33125 44.940624Q30.55 45.3625 30.971874 45.596874Q31.39375 45.83125 31.878124 45.83125Q32.628124 45.83125 33.1125 45.346874Q33.6125 44.8625 33.6125 44.1125Q33.6125 43.346874 33.1125 42.846874Q32.6125 42.346874 31.846874 42.346874Q31.096874 42.346874 30.6125 42.846874Q30.128124 43.33125 30.128124 44.065624ZM36.253124 40.01875Q36.253124 39.096874 36.70625 38.45625Q37.175 37.815624 38.05 37.815624Q38.8625 37.815624 39.39375 38.39375Q39.925 38.971874 39.925 40.08125Q39.925 41.175 39.378124 41.76875Q38.846874 42.346874 38.065624 42.346874Q37.284374 42.346874 36.76875 41.76875Q36.253124 41.190624 36.253124 40.01875ZM38.08125 38.534374Q37.690624 38.534374 37.425 38.878124Q37.175 39.221874 37.175 40.128124Q37.175 40.95625 37.425 41.3Q37.690624 41.628124 38.08125 41.628124Q38.4875 41.628124 38.7375 41.284374Q39.003124 40.940624 39.003124 40.05Q39.003124 39.20625 38.7375 38.878124Q38.471874 38.534374 38.08125 38.534374ZM38.08125 46.8625L42.784374 37.815624L43.64375 37.815624L38.95625 46.8625L38.08125 46.8625ZM41.8 44.534374Q41.8 43.6125 42.253124 42.971874Q42.721874 42.33125 43.6125 42.33125Q44.425 42.33125 44.95625 42.909374Q45.4875 43.471874 45.4875 44.596874Q45.4875 45.690624 44.940624 46.284374Q44.409374 46.8625 43.6125 46.8625Q42.846874 46.8625 42.315624 46.284374Q41.8 45.70625 41.8 44.534374ZM43.64375 43.05Q43.2375 43.05 42.971874 43.39375Q42.721874 43.7375 42.721874 44.64375Q42.721874 45.45625 42.9875 45.8Q43.253124 46.14375 43.64375 46.14375Q44.034374 46.14375 44.3 45.8Q44.565624 45.45625 44.565624 44.55Q44.565624 43.721874 44.3 43.39375Q44.034374 43.05 43.64375 43.05Z"/><path fill-rule="nonzero" stroke="#757575" stroke-linecap="butt" stroke-width="1" d="M18.55 34.05L199.55 34.05L343.76202 29.522814"/><path fill="#9e9e9e" fill-rule="nonzero" d="M345.76202 29.522814C345.76202 28.418245 344.8666 27.522814 343.76202 27.522814C342.65747 27.522814 341.76202 28.418245 341.76202 29.522814C341.76202 30.627384 342.65747 31.522814 343.76202 31.522814C344.8666 31.522814 345.76202 30.627384 345.76202 29.522814"/><path fill="#1a1a1a" fill-rule="nonzero" d="M24.596874 115.76839L24.596874 116.78401L18.909374 116.78401Q18.909374 116.40901 19.034374 116.04964Q19.253124 115.47151 19.721874 114.90901Q20.20625 114.34651 21.1125 113.61214Q22.51875 112.45589 23.003124 111.78401Q23.503124 111.11214 23.503124 110.51839Q23.503124 109.89339 23.05 109.47151Q22.596874 109.03401 21.878124 109.03401Q21.1125 109.03401 20.659374 109.48714Q20.20625 109.94026 20.190624 110.75276L19.1125 110.64339Q19.221874 109.42464 19.940624 108.79964Q20.675 108.15901 21.909374 108.15901Q23.14375 108.15901 23.8625 108.84651Q24.58125 109.53401 24.58125 110.54964Q24.58125 111.06526 24.3625 111.56526Q24.159374 112.04964 23.659374 112.61214Q23.175 113.15901 22.05 114.11214Q21.096874 114.90901 20.815624 115.20589Q20.55 115.48714 20.378124 115.76839L24.596874 115.76839ZM31.3625 119.31526Q30.4875 118.20589 29.878124 116.73714Q29.284374 115.25276 29.284374 113.67464Q29.284374 112.28401 29.721874 111.00276Q30.253124 109.51839 31.3625 108.04964L32.1125 108.04964Q31.409374 109.26839 31.175 109.78401Q30.815624 110.59651 30.6125 111.47151Q30.3625 112.56526 30.3625 113.67464Q30.3625 116.50276 32.1125 119.31526L31.3625 119.31526ZM33.675 116.78401L33.675 108.19026L34.8 108.19026L34.8 116.78401L33.675 116.78401ZM37.4875 116.78401L35.58125 110.56526L36.675 110.56526L37.659374 114.15901L38.034374 115.48714Q38.065624 115.39339 38.3625 114.20589L39.346874 110.56526L40.425 110.56526L41.3625 114.17464L41.675 115.36214L42.034374 114.15901L43.096874 110.56526L44.128124 110.56526L42.175 116.78401L41.08125 116.78401L40.096874 113.04964L39.846874 112.00276L38.596874 116.78401L37.4875 116.78401ZM49.409374 116.01839Q48.815624 116.51839 48.26875 116.72151Q47.7375 116.92464 47.1125 116.92464Q46.08125 116.92464 45.534374 116.42464Q44.9875 115.92464 44.9875 115.14339Q44.9875 114.69026 45.190624 114.31526Q45.39375 113.92464 45.7375 113.70589Q46.08125 113.47151 46.503124 113.36214Q46.8 113.26839 47.440624 113.19026Q48.70625 113.04964 49.315624 112.83089Q49.315624 112.61214 49.315624 112.56526Q49.315624 111.90901 49.01875 111.64339Q48.6125 111.29964 47.815624 111.29964Q47.08125 111.29964 46.721874 111.56526Q46.3625 111.81526 46.190624 112.47151L45.159374 112.33089Q45.3 111.67464 45.628124 111.26839Q45.95625 110.86214 46.565624 110.64339Q47.175 110.42464 47.971874 110.42464Q48.76875 110.42464 49.26875 110.61214Q49.76875 110.79964 50.003124 111.08089Q50.2375 111.36214 50.33125 111.79964Q50.378124 112.06526 50.378124 112.76839L50.378124 114.17464Q50.378124 115.64339 50.440624 116.03401Q50.51875 116.42464 50.721874 116.78401L49.6125 116.78401Q49.45625 116.45589 49.409374 116.01839ZM49.315624 113.65901Q48.7375 113.89339 47.596874 114.06526Q46.940624 114.15901 46.675 114.28401Q46.409374 114.39339 46.253124 114.61214Q46.1125 114.83089 46.1125 115.11214Q46.1125 115.53401 46.425 115.81526Q46.753124 116.09651 47.3625 116.09651Q47.971874 116.09651 48.440624 115.83089Q48.925 115.56526 49.14375 115.09651Q49.315624 114.73714 49.315624 114.04964L49.315624 113.65901ZM52.346874 116.78401L52.346874 110.56526L53.284374 110.56526L53.284374 111.44026Q53.971874 110.42464 55.26875 110.42464Q55.83125 110.42464 56.3 110.62776Q56.784374 110.83089 57.01875 111.15901Q57.253124 111.48714 57.346874 111.92464Q57.39375 112.22151 57.39375 112.95589L57.39375 116.78401L56.346874 116.78401L56.346874 113.00276Q56.346874 112.34651 56.221874 112.03401Q56.096874 111.72151 55.784374 111.53401Q55.471874 111.33089 55.05 111.33089Q54.378124 111.33089 53.878124 111.76839Q53.39375 112.19026 53.39375 113.37776L53.39375 116.78401L52.346874 116.78401ZM63.409374 116.01839Q62.815624 116.51839 62.26875 116.72151Q61.7375 116.92464 61.1125 116.92464Q60.08125 116.92464 59.534374 116.42464Q58.9875 115.92464 58.9875 115.14339Q58.9875 114.69026 59.190624 114.31526Q59.39375 113.92464 59.7375 113.70589Q60.08125 113.47151 60.503124 113.36214Q60.8 113.26839 61.440624 113.19026Q62.70625 113.04964 63.315624 112.83089Q63.315624 112.61214 63.315624 112.56526Q63.315624 111.90901 63.01875 111.64339Q62.6125 111.29964 61.815624 111.29964Q61.08125 111.29964 60.721874 111.56526Q60.3625 111.81526 60.190624 112.47151L59.159374 112.33089Q59.3 111.67464 59.628124 111.26839Q59.95625 110.86214 60.565624 110.64339Q61.175 110.42464 61.971874 110.42464Q62.76875 110.42464 63.26875 110.61214Q63.76875 110.79964 64.00313 111.08089Q64.2375 111.36214 64.33125 111.79964Q64.37813 112.06526 64.37813 112.76839L64.37813 114.17464Q64.37813 115.64339 64.44063 116.03401Q64.51875 116.42464 64.72188 116.78401L63.6125 116.78401Q63.45625 116.45589 63.409374 116.01839ZM63.315624 113.65901Q62.7375 113.89339 61.596874 114.06526Q60.940624 114.15901 60.675 114.28401Q60.409374 114.39339 60.253124 114.61214Q60.1125 114.83089 60.1125 115.11214Q60.1125 115.53401 60.425 115.81526Q60.753124 116.09651 61.3625 116.09651Q61.971874 116.09651 62.440624 115.83089Q62.925 115.56526 63.14375 115.09651Q63.315624 114.73714 63.315624 114.04964L63.315624 113.65901ZM66.14375 117.29964L67.175 117.45589Q67.2375 117.92464 67.53438 118.14339Q67.925 118.44026 68.59688 118.44026Q69.33125 118.44026 69.72188 118.14339Q70.12813 117.84651 70.26875 117.33089Q70.3625 117.00276 70.34688 115.97151Q69.65938 116.78401 68.62813 116.78401Q67.34688 116.78401 66.64375 115.86214Q65.94063 114.92464 65.94063 113.64339Q65.94063 112.75276 66.25313 112.00276Q66.58125 111.23714 67.19063 110.83089Q67.8 110.42464 68.62813 110.42464Q69.7375 110.42464 70.45625 111.31526L70.45625 110.56526L71.425 110.56526L71.425 115.94026Q71.425 117.39339 71.12813 118.00276Q70.83125 118.61214 70.19063 118.95589Q69.55 119.31526 68.6125 119.31526Q67.50313 119.31526 66.81563 118.81526Q66.12813 118.31526 66.14375 117.29964ZM67.01875 113.56526Q67.01875 114.78401 67.50313 115.34651Q67.9875 115.90901 68.72188 115.90901Q69.45625 115.90901 69.94063 115.34651Q70.44063 114.78401 70.44063 113.59651Q70.44063 112.45589 69.925 111.87776Q69.425 111.29964 68.70625 111.29964Q68.00313 111.29964 67.50313 111.87776Q67.01875 112.44026 67.01875 113.56526ZM77.40938 116.01839Q76.81563 116.51839 76.26875 116.72151Q75.7375 116.92464 75.1125 116.92464Q74.08125 116.92464 73.53438 116.42464Q72.9875 115.92464 72.9875 115.14339Q72.9875 114.69026 73.19063 114.31526Q73.39375 113.92464 73.7375 113.70589Q74.08125 113.47151 74.50313 113.36214Q74.8 113.26839 75.44063 113.19026Q76.70625 113.04964 77.31563 112.83089Q77.31563 112.61214 77.31563 112.56526Q77.31563 111.90901 77.01875 111.64339Q76.6125 111.29964 75.81563 111.29964Q75.08125 111.29964 74.72188 111.56526Q74.3625 111.81526 74.19063 112.47151L73.15938 112.33089Q73.3 111.67464 73.62813 111.26839Q73.95625 110.86214 74.56563 110.64339Q75.175 110.42464 75.97188 110.42464Q76.76875 110.42464 77.26875 110.61214Q77.76875 110.79964 78.00313 111.08089Q78.2375 111.36214 78.33125 111.79964Q78.37813 112.06526 78.37813 112.76839L78.37813 114.17464Q78.37813 115.64339 78.44063 116.03401Q78.51875 116.42464 78.72188 116.78401L77.6125 116.78401Q77.45625 116.45589 77.40938 116.01839ZM77.31563 113.65901Q76.7375 113.89339 75.59688 114.06526Q74.94063 114.15901 74.675 114.28401Q74.40938 114.39339 74.25313 114.61214Q74.1125 114.83089 74.1125 115.11214Q74.1125 115.53401 74.425 115.81526Q74.75313 116.09651 75.3625 116.09651Q75.97188 116.09651 76.44063 115.83089Q76.925 115.56526 77.14375 115.09651Q77.31563 114.73714 77.31563 114.04964L77.31563 113.65901ZM85.89375 116.78401L85.89375 113.14339L82.58125 108.19026L83.97188 108.19026L85.65938 110.78401Q86.12813 111.50276 86.53438 112.23714Q86.925 111.56526 87.47188 110.72151L89.14375 108.19026L90.45625 108.19026L87.03438 113.14339L87.03438 116.78401L85.89375 116.78401ZM94.425 116.78401L94.425 115.86214Q93.69063 116.92464 92.44063 116.92464Q91.89375 116.92464 91.40938 116.72151Q90.94063 116.50276 90.70625 116.19026Q90.47188 115.86214 90.37813 115.39339Q90.31563 115.09651 90.31563 114.40901L90.31563 110.56526L91.37813 110.56526L91.37813 114.01839Q91.37813 114.83089 91.44063 115.12776Q91.53438 115.53401 91.84688 115.78401Q92.175 116.01839 92.65938 116.01839Q93.12813 116.01839 93.53438 115.78401Q93.95625 115.53401 94.12813 115.11214Q94.31563 114.69026 94.31563 113.89339L94.31563 110.56526L95.3625 110.56526L95.3625 116.78401L94.425 116.78401ZM97.34688 116.78401L97.34688 108.19026L98.39375 108.19026L98.39375 111.26839Q99.12813 110.42464 100.25313 110.42464Q100.95625 110.42464 101.45625 110.70589Q101.97188 110.97151 102.19063 111.45589Q102.40938 111.92464 102.40938 112.84651L102.40938 116.78401L101.3625 116.78401L101.3625 112.84651Q101.3625 112.04964 101.01875 111.69026Q100.675 111.33089 100.05 111.33089Q99.58125 111.33089 99.15938 111.58089Q98.75313 111.81526 98.56563 112.23714Q98.39375 112.64339 98.39375 113.37776L98.39375 116.78401L97.34688 116.78401ZM108.59688 114.78401L109.69063 114.90901Q109.44063 115.86214 108.7375 116.39339Q108.03438 116.92464 106.95625 116.92464Q105.59688 116.92464 104.78438 116.08089Q103.9875 115.23714 103.9875 113.72151Q103.9875 112.15901 104.8 111.29964Q105.6125 110.42464 106.89375 110.42464Q108.14375 110.42464 108.925 111.26839Q109.72188 112.11214 109.72188 113.65901Q109.72188 113.75276 109.72188 113.94026L105.08125 113.94026Q105.14375 114.97151 105.65938 115.51839Q106.175 116.04964 106.95625 116.04964Q107.53438 116.04964 107.94063 115.75276Q108.3625 115.44026 108.59688 114.78401ZM105.14375 113.08089L108.6125 113.08089Q108.55 112.28401 108.22188 111.89339Q107.70625 111.28401 106.90938 111.28401Q106.175 111.28401 105.675 111.76839Q105.19063 112.25276 105.14375 113.08089ZM111.34688 109.40901L111.34688 108.19026L112.40938 108.19026L112.40938 109.40901L111.34688 109.40901ZM111.34688 116.78401L111.34688 110.56526L112.40938 110.56526L112.40938 116.78401L111.34688 116.78401Z"/><path fill="#1a1a1a" fill-rule="nonzero" d="M125.69063 114.39339L121.00313 114.39339L121.00313 116.22151L125.69063 116.22151L125.69063 114.39339ZM117.15938 115.98714Q119.78438 114.48714 120.39375 112.33089L117.62813 112.33089L117.62813 111.44026L127.84688 111.44026L127.84688 112.33089L121.37813 112.33089Q121.14375 113.17464 120.90938 113.50276L126.62813 113.50276L126.62813 117.62776L125.69063 117.62776L125.69063 117.11214L121.00313 117.11214L121.00313 117.81526L120.06563 117.81526L120.06563 114.81526Q119.26875 115.89339 117.76875 116.78401L117.15938 115.98714ZM125.64375 110.31526L119.45625 110.31526L119.45625 110.69026L118.51875 110.69026L118.51875 107.73714L119.40938 107.73714Q119.87813 107.78401 119.45625 108.01839L119.45625 109.56526L122.08125 109.56526L122.08125 107.17464L122.97188 107.17464Q123.44063 107.22151 123.01875 107.45589L123.01875 109.56526L125.64375 109.56526L125.64375 107.73714L126.53438 107.73714Q127.00313 107.78401 126.58125 108.01839L126.58125 110.64339L125.64375 110.64339L125.64375 110.31526ZM136.09688 112.65901Q137.12813 114.72151 139.8 116.08089L139.28438 117.11214Q136.56563 115.65901 135.1125 112.65901L135.1125 117.01839Q135.1125 117.76839 134.3625 117.76839L133.37813 117.76839L133.05 116.73714L133.9875 116.73714Q134.175 116.73714 134.175 116.54964L134.175 110.22151L130.89375 110.22151L130.89375 109.33089L135.1125 109.33089L135.1125 110.12776Q135.20625 111.01839 135.675 111.95589Q137.175 111.15901 138.15938 109.89339L139.05 110.73714Q139.09688 111.01839 138.76875 110.92464Q137.175 112.23714 136.09688 112.65901ZM129.44063 112.47151L129.44063 111.58089L132.53438 111.58089L132.76875 111.34651L133.6125 111.81526L133.425 112.04964Q132.53438 115.56526 129.62813 117.34651L128.97188 116.36214Q131.50313 115.23714 132.25313 112.47151L129.44063 112.47151ZM132.76875 107.08089Q134.925 107.59651 136.09688 108.20589L135.62813 109.14339Q133.51875 108.20589 132.34688 108.01839L132.76875 107.08089ZM146.97188 115.79964Q146.55 115.19026 145.9875 114.67464L146.64375 114.11214Q147.25313 114.53401 147.72188 115.19026L146.97188 115.79964ZM147.81563 108.48714L151.6125 108.48714L151.6125 109.23714L150.53438 109.23714Q150.20625 110.69026 149.31563 111.81526Q150.01875 112.42464 151.8 112.84651L151.37813 113.83089Q149.59688 113.31526 148.65938 112.51839Q147.53438 113.54964 145.37813 114.06526L145.05 113.08089Q147.06563 112.65901 147.95625 111.81526Q147.25313 110.92464 146.83125 109.98714Q146.31563 110.69026 145.94063 111.01839L145.33125 110.31526Q146.78438 108.86214 147.44063 107.03401L148.425 107.26839Q148.6125 107.45589 148.28438 107.50276L147.81563 108.48714ZM143.55 113.92464L142.6125 113.92464L142.6125 110.22151Q142.09688 110.83089 141.53438 111.15901L141.06563 110.31526Q142.89375 108.86214 143.64375 107.03401L144.53438 107.40901Q144.76875 107.59651 144.39375 107.69026Q144.01875 108.44026 143.55 109.09651Q143.925 109.19026 143.55 109.33089L143.55 113.92464ZM148.65938 111.15901Q149.31563 110.26839 149.55 109.23714L147.4875 109.23714Q147.8625 110.26839 148.65938 111.15901ZM144.34688 112.70589L144.34688 108.62776L145.2375 108.62776Q145.6125 108.67464 145.28438 108.90901L145.28438 112.70589L144.34688 112.70589ZM149.78438 114.20589Q151.00313 115.09651 151.75313 116.54964L150.81563 117.25276Q150.15938 115.79964 149.08125 114.81526L149.78438 114.20589ZM145.14375 114.48714Q145.51875 114.53401 145.19063 114.76839L145.19063 116.31526Q145.19063 116.69026 145.51875 116.69026L147.90938 116.69026Q148.425 116.69026 148.47188 116.40901L148.65938 115.65901L149.69063 115.89339Q149.45625 117.58089 148.33125 117.58089L145.09688 117.58089Q144.25313 117.58089 144.25313 116.78401L144.25313 114.48714L145.14375 114.48714ZM143.64375 115.14339Q143.87813 115.33089 143.55 115.33089Q143.175 116.50276 142.33125 117.48714L141.4875 116.87776Q142.28438 115.94026 142.75313 114.67464L143.64375 115.14339ZM160.2375 112.04964Q160.84688 110.78401 161.26875 109.42464L162.34688 109.79964Q162.72188 109.98714 162.25313 110.08089Q161.87813 111.25276 161.26875 112.47151L160.2375 112.04964ZM158.08125 113.78401L153.4875 113.78401L153.4875 112.89339L158.08125 112.89339L158.08125 108.72151L154.05 108.72151L154.05 107.83089L163.00313 107.83089L163.00313 108.72151L159.01875 108.72151L159.01875 112.89339L163.65938 112.89339L163.65938 113.78401L159.01875 113.78401L159.01875 117.58089L158.08125 117.58089L158.08125 113.78401ZM155.50313 109.47151Q156.4875 110.78401 156.76875 111.81526L155.7375 112.28401Q155.22188 110.83089 154.56563 109.94026L155.50313 109.47151Z"/><path fill="#1a1a1a" fill-rule="nonzero" d="M166.03438 119.31526L165.28438 119.31526Q167.03438 116.50276 167.03438 113.67464Q167.03438 112.58089 166.78438 111.48714Q166.58125 110.61214 166.22188 109.79964Q165.9875 109.28401 165.28438 108.04964L166.03438 108.04964Q167.12813 109.51839 167.65938 111.00276Q168.1125 112.28401 168.1125 113.67464Q168.1125 115.25276 167.50313 116.73714Q166.89375 118.20589 166.03438 119.31526Z"/><path fill="#9e9e9e" fill-rule="nonzero" d="M24.596874 132.76839L24.596874 133.78401L18.909374 133.78401Q18.909374 133.40901 19.034374 133.04964Q19.253124 132.47151 19.721874 131.90901Q20.20625 131.34651 21.1125 130.61214Q22.51875 129.45589 23.003124 128.78401Q23.503124 128.11214 23.503124 127.51839Q23.503124 126.89339 23.05 126.47151Q22.596874 126.03401 21.878124 126.03401Q21.1125 126.03401 20.659374 126.48714Q20.20625 126.94026 20.190624 127.75276L19.1125 127.64339Q19.221874 126.42464 19.940624 125.79964Q20.675 125.15901 21.909374 125.15901Q23.14375 125.15901 23.8625 125.84651Q24.58125 126.53401 24.58125 127.54964Q24.58125 128.06526 24.3625 128.56526Q24.159374 129.04964 23.659374 129.61214Q23.175 130.15901 22.05 131.11214Q21.096874 131.90901 20.815624 132.20589Q20.55 132.48714 20.378124 132.76839L24.596874 132.76839ZM26.05 131.53401L27.159374 131.44026Q27.284374 132.25276 27.721874 132.65901Q28.175 133.06526 28.815624 133.06526Q29.565624 133.06526 30.096874 132.48714Q30.628124 131.90901 30.628124 130.97151Q30.628124 130.06526 30.1125 129.54964Q29.6125 129.01839 28.784374 129.01839Q28.284374 129.01839 27.8625 129.25276Q27.45625 129.48714 27.221874 129.84651L26.2375 129.72151L27.065624 125.31526L31.346874 125.31526L31.346874 126.31526L27.909374 126.31526L27.45625 128.62776Q28.221874 128.08089 29.065624 128.08089Q30.190624 128.08089 30.95625 128.86214Q31.7375 129.64339 31.7375 130.87776Q31.7375 132.03401 31.065624 132.89339Q30.2375 133.92464 28.815624 133.92464Q27.64375 133.92464 26.89375 133.26839Q26.159374 132.61214 26.05 131.53401ZM33.64375 133.78401L33.64375 132.58089L34.846874 132.58089L34.846874 133.78401L33.64375 133.78401ZM40.01875 133.78401L38.971874 133.78401L38.971874 127.06526Q38.58125 127.42464 37.95625 127.79964Q37.346874 128.15901 36.8625 128.33089L36.8625 127.31526Q37.7375 126.89339 38.39375 126.31526Q39.065624 125.72151 39.346874 125.15901L40.01875 125.15901L40.01875 133.78401ZM43.253124 127.25276Q43.253124 126.33089 43.70625 125.69026Q44.175 125.04964 45.05 125.04964Q45.8625 125.04964 46.39375 125.62776Q46.925 126.20589 46.925 127.31526Q46.925 128.40901 46.378124 129.00276Q45.846874 129.58089 45.065624 129.58089Q44.284374 129.58089 43.76875 129.00276Q43.253124 128.42464 43.253124 127.25276ZM45.08125 125.76839Q44.690624 125.76839 44.425 126.11214Q44.175 126.45589 44.175 127.36214Q44.175 128.19026 44.425 128.53401Q44.690624 128.86214 45.08125 128.86214Q45.4875 128.86214 45.7375 128.51839Q46.003124 128.17464 46.003124 127.28401Q46.003124 126.44026 45.7375 126.11214Q45.471874 125.76839 45.08125 125.76839ZM45.08125 134.09651L49.784374 125.04964L50.64375 125.04964L45.95625 134.09651L45.08125 134.09651ZM48.8 131.76839Q48.8 130.84651 49.253124 130.20589Q49.721874 129.56526 50.6125 129.56526Q51.425 129.56526 51.95625 130.14339Q52.4875 130.70589 52.4875 131.83089Q52.4875 132.92464 51.940624 133.51839Q51.409374 134.09651 50.6125 134.09651Q49.846874 134.09651 49.315624 133.51839Q48.8 132.94026 48.8 131.76839ZM50.64375 130.28401Q50.2375 130.28401 49.971874 130.62776Q49.721874 130.97151 49.721874 131.87776Q49.721874 132.69026 49.9875 133.03401Q50.253124 133.37776 50.64375 133.37776Q51.034374 133.37776 51.3 133.03401Q51.565624 132.69026 51.565624 131.78401Q51.565624 130.95589 51.3 130.62776Q51.034374 130.28401 50.64375 130.28401Z"/><path fill-rule="nonzero" stroke="#757575" stroke-linecap="butt" stroke-width="1" d="M18.55 121.28401L199.55 121.28401L227.47911 121.28401"/><path fill="#9e9e9e" fill-rule="nonzero" d="M229.47911 121.28401C229.47911 120.179436 228.58368 119.28401 227.47911 119.28401C226.37454 119.28401 225.47911 120.179436 225.47911 121.28401C225.47911 122.38858 226.37454 123.28401 227.47911 123.28401C228.58368 123.28401 229.47911 122.38858 229.47911 121.28401"/><path fill="#1a1a1a" fill-rule="nonzero" d="M602.95 55.32109L604.0125 55.180466Q604.1844 56.07109 604.6219 56.47734Q605.0594 56.867966 605.6844 56.867966Q606.4344 56.867966 606.95 56.35234Q607.46564 55.836716 607.46564 55.07109Q607.46564 54.35234 606.98126 53.88359Q606.5125 53.399216 605.77814 53.399216Q605.48126 53.399216 605.02814 53.524216L605.15314 52.586716Q605.2625 52.60234 605.325 52.60234Q605.9969 52.60234 606.52814 52.25859Q607.075 51.899216 607.075 51.16484Q607.075 50.586716 606.6844 50.211716Q606.29376 49.82109 605.66876 49.82109Q605.0594 49.82109 604.6375 50.211716Q604.23126 50.60234 604.1219 51.367966L603.0594 51.180466Q603.2469 50.13359 603.9344 49.555466Q604.6219 48.961716 605.6375 48.961716Q606.34064 48.961716 606.9344 49.274216Q607.52814 49.57109 607.84064 50.086716Q608.15314 50.60234 608.15314 51.19609Q608.15314 51.742966 607.85626 52.211716Q607.5594 52.66484 606.98126 52.930466Q607.73126 53.10234 608.15314 53.66484Q608.575 54.211716 608.575 55.055466Q608.575 56.180466 607.7469 56.961716Q606.9344 57.742966 605.6844 57.742966Q604.5594 57.742966 603.8094 57.07109Q603.0594 56.38359 602.95 55.32109ZM615.2625 60.117966Q614.3875 59.00859 613.77814 57.53984Q613.1844 56.055466 613.1844 54.47734Q613.1844 53.086716 613.6219 51.805466Q614.15314 50.32109 615.2625 48.85234L616.0125 48.85234Q615.3094 50.07109 615.075 50.586716Q614.71564 51.399216 614.5125 52.274216Q614.2625 53.367966 614.2625 54.47734Q614.2625 57.305466 616.0125 60.117966L615.2625 60.117966ZM619.79376 57.586716L619.79376 53.94609L616.48126 48.992966L617.8719 48.992966L619.5594 51.586716Q620.02814 52.305466 620.4344 53.03984Q620.825 52.367966 621.3719 51.524216L623.04376 48.992966L624.35626 48.992966L620.9344 53.94609L620.9344 57.586716L619.79376 57.586716ZM628.325 57.586716L628.325 56.66484Q627.59064 57.72734 626.34064 57.72734Q625.79376 57.72734 625.3094 57.524216Q624.84064 57.305466 624.60626 56.992966Q624.3719 56.66484 624.27814 56.19609Q624.21564 55.899216 624.21564 55.211716L624.21564 51.367966L625.27814 51.367966L625.27814 54.82109Q625.27814 55.63359 625.34064 55.930466Q625.4344 56.336716 625.7469 56.586716Q626.075 56.82109 626.5594 56.82109Q627.02814 56.82109 627.4344 56.586716Q627.85626 56.336716 628.02814 55.91484Q628.21564 55.492966 628.21564 54.69609L628.21564 51.367966L629.2625 51.367966L629.2625 57.586716L628.325 57.586716ZM633.4344 57.586716L636.73126 48.992966L637.95 48.992966L641.46564 57.586716L640.1844 57.586716L639.16876 54.97734L635.59064 54.97734L634.6375 57.586716L633.4344 57.586716ZM635.91876 54.055466L638.825 54.055466L637.9344 51.680466Q637.5125 50.60234 637.325 49.899216Q637.15314 50.72734 636.85626 51.53984L635.91876 54.055466ZM641.2469 57.586716L641.2469 51.367966L642.1844 51.367966L642.1844 52.242966Q642.48126 51.774216 642.96564 51.50859Q643.45 51.22734 644.075 51.22734Q644.7625 51.22734 645.2 51.50859Q645.65314 51.78984 645.825 52.305466Q646.575 51.22734 647.7469 51.22734Q648.6844 51.22734 649.16876 51.742966Q649.66876 52.242966 649.66876 53.32109L649.66876 57.586716L648.6219 57.586716L648.6219 53.66484Q648.6219 53.03984 648.5125 52.75859Q648.41876 52.47734 648.15314 52.305466Q647.8875 52.13359 647.5125 52.13359Q646.85626 52.13359 646.41876 52.57109Q645.9969 53.00859 645.9969 53.97734L645.9969 57.586716L644.9344 57.586716L644.9344 53.53984Q644.9344 52.836716 644.66876 52.492966Q644.41876 52.13359 643.84064 52.13359Q643.3875 52.13359 643.0125 52.367966Q642.6375 52.60234 642.46564 53.055466Q642.29376 53.50859 642.29376 54.35234L642.29376 57.586716L641.2469 57.586716ZM656.3094 56.82109Q655.71564 57.32109 655.16876 57.524216Q654.6375 57.72734 654.0125 57.72734Q652.98126 57.72734 652.4344 57.22734Q651.8875 56.72734 651.8875 55.94609Q651.8875 55.492966 652.09064 55.117966Q652.29376 54.72734 652.6375 54.50859Q652.98126 54.274216 653.40314 54.16484Q653.7 54.07109 654.34064 53.992966Q655.60626 53.85234 656.21564 53.63359Q656.21564 53.41484 656.21564 53.367966Q656.21564 52.711716 655.91876 52.44609Q655.5125 52.10234 654.71564 52.10234Q653.98126 52.10234 653.6219 52.367966Q653.2625 52.617966 653.09064 53.274216L652.0594 53.13359Q652.2 52.47734 652.52814 52.07109Q652.85626 51.66484 653.46564 51.44609Q654.075 51.22734 654.8719 51.22734Q655.66876 51.22734 656.16876 51.41484Q656.66876 51.60234 656.90314 51.88359Q657.1375 52.16484 657.23126 52.60234Q657.27814 52.867966 657.27814 53.57109L657.27814 54.97734Q657.27814 56.44609 657.34064 56.836716Q657.41876 57.22734 657.6219 57.586716L656.5125 57.586716Q656.35626 57.25859 656.3094 56.82109ZM656.21564 54.461716Q655.6375 54.69609 654.4969 54.867966Q653.84064 54.961716 653.575 55.086716Q653.3094 55.19609 653.15314 55.41484Q653.0125 55.63359 653.0125 55.91484Q653.0125 56.336716 653.325 56.617966Q653.65314 56.899216 654.2625 56.899216Q654.8719 56.899216 655.34064 56.63359Q655.825 56.367966 656.04376 55.899216Q656.21564 55.53984 656.21564 54.85234L656.21564 54.461716ZM659.2469 57.586716L659.2469 51.367966L660.1844 51.367966L660.1844 52.242966Q660.8719 51.22734 662.16876 51.22734Q662.73126 51.22734 663.2 51.430466Q663.6844 51.63359 663.91876 51.961716Q664.15314 52.28984 664.2469 52.72734Q664.29376 53.024216 664.29376 53.75859L664.29376 57.586716L663.2469 57.586716L663.2469 53.805466Q663.2469 53.149216 663.1219 52.836716Q662.9969 52.524216 662.6844 52.336716Q662.3719 52.13359 661.95 52.13359Q661.27814 52.13359 660.77814 52.57109Q660.29376 52.992966 660.29376 54.180466L660.29376 57.586716L659.2469 57.586716ZM665.85626 54.47734Q665.85626 52.742966 666.8094 51.91484Q667.60626 51.22734 668.7625 51.22734Q670.04376 51.22734 670.85626 52.07109Q671.6844 52.899216 671.6844 54.38359Q671.6844 55.586716 671.325 56.274216Q670.96564 56.961716 670.2625 57.35234Q669.575 57.72734 668.7625 57.72734Q667.46564 57.72734 666.65314 56.899216Q665.85626 56.055466 665.85626 54.47734ZM666.9344 54.47734Q666.9344 55.66484 667.45 56.25859Q667.98126 56.85234 668.7625 56.85234Q669.5594 56.85234 670.075 56.25859Q670.59064 55.66484 670.59064 54.44609Q670.59064 53.28984 670.0594 52.69609Q669.54376 52.10234 668.7625 52.10234Q667.98126 52.10234 667.45 52.69609Q666.9344 53.274216 666.9344 54.47734Z"/><path fill="#1a1a1a" fill-rule="nonzero" d="M686.46564 58.336716Q682.90314 57.25859 681.45 54.117966Q680.60626 57.25859 676.3875 58.47734L676.0594 57.305466Q680.27814 56.22734 680.65314 53.086716L676.8094 53.086716L676.8094 52.19609L680.7469 52.19609L680.7469 49.85234L676.34064 49.85234L676.34064 48.961716L686.5125 48.961716L686.5125 49.85234L681.825 49.85234L681.825 52.19609L685.9969 52.19609L685.9969 53.086716L681.96564 53.086716Q683.1844 56.22734 686.8875 57.117966L686.46564 58.336716ZM696.6375 55.00859Q697.4344 53.930466 697.8094 53.22734L696.4969 53.22734L696.4969 57.867966Q696.4969 58.66484 695.7469 58.66484L694.90314 58.66484L694.71564 57.774216L695.41876 57.774216Q695.5594 57.774216 695.5594 57.63359L695.5594 53.22734L694.0125 53.22734L694.0125 52.336716L698.09064 52.336716L698.325 52.10234L699.075 52.75859Q699.2625 52.94609 698.9344 52.992966Q698.3719 54.25859 697.4344 55.524216L696.6375 55.00859ZM695.27814 49.805466Q695.60626 49.992966 696.075 50.367966L696.91876 49.28984L694.0594 49.28984L694.0594 48.399216L697.575 48.399216L697.71564 48.25859L698.41876 48.961716Q698.60626 49.149216 698.27814 49.19609L696.6375 50.836716L697.15314 51.35234L696.4969 52.00859Q695.60626 51.024216 694.71564 50.367966L695.27814 49.805466ZM693.8719 57.399216L688.6219 58.19609Q688.575 58.524216 688.3875 58.336716L688.10626 57.16484L690.59064 56.97734L690.59064 55.524216L688.48126 55.524216L688.48126 54.63359L690.59064 54.63359L690.59064 53.367966L689.5594 53.367966L688.52814 53.367966L688.52814 48.35234L693.59064 48.35234L693.59064 53.367966L691.52814 53.367966L691.52814 54.63359L693.6375 54.63359L693.6375 55.524216L691.52814 55.524216L691.52814 56.88359L693.825 56.60234L693.8719 57.399216ZM690.59064 49.10234L689.46564 49.10234L689.46564 50.50859L690.59064 50.50859L690.59064 49.10234ZM690.59064 52.617966L690.59064 51.25859L689.46564 51.25859L689.46564 52.617966L690.59064 52.617966ZM692.65314 50.50859L692.65314 49.10234L691.52814 49.10234L691.52814 50.50859L692.65314 50.50859ZM692.65314 52.617966L692.65314 51.25859L691.52814 51.25859L691.52814 52.617966L692.65314 52.617966ZM710.23126 56.836716L700.10626 56.836716L700.10626 55.805466L706.15314 55.805466L706.29376 51.399216L701.7 51.399216L701.7 50.367966L707.41876 50.367966L707.27814 55.805466L710.23126 55.805466L710.23126 56.836716ZM721.48126 50.97734Q721.48126 56.086716 716.5594 58.524216L715.66876 57.63359Q720.21564 55.57109 720.2625 51.44609L713.7469 51.44609L713.84064 54.211716L712.7625 54.211716L712.6219 50.41484L716.325 50.41484L716.325 48.07109L717.2625 48.07109Q717.825 48.117966 717.40314 48.44609L717.40314 50.41484L720.91876 50.41484L721.48126 50.97734Z"/><path fill="#1a1a1a" fill-rule="nonzero" d="M723.9344 60.117966L723.1844 60.117966Q724.9344 57.305466 724.9344 54.47734Q724.9344 53.38359 724.6844 52.28984Q724.48126 51.41484 724.1219 50.60234Q723.8875 50.086716 723.1844 48.85234L723.9344 48.85234Q725.02814 50.32109 725.5594 51.805466Q726.0125 53.086716 726.0125 54.47734Q726.0125 56.055466 725.40314 57.53984Q724.79376 59.00859 723.9344 60.117966Z"/><path fill="#9e9e9e" fill-rule="nonzero" d="M697.4969 73.57109L697.4969 74.586716L691.8094 74.586716Q691.8094 74.211716 691.9344 73.85234Q692.15314 73.274216 692.6219 72.711716Q693.10626 72.149216 694.0125 71.41484Q695.41876 70.25859 695.90314 69.586716Q696.40314 68.91484 696.40314 68.32109Q696.40314 67.69609 695.95 67.274216Q695.4969 66.836716 694.77814 66.836716Q694.0125 66.836716 693.5594 67.28984Q693.10626 67.742966 693.09064 68.555466L692.0125 68.44609Q692.1219 67.22734 692.84064 66.60234Q693.575 65.961716 694.8094 65.961716Q696.04376 65.961716 696.7625 66.649216Q697.48126 67.336716 697.48126 68.35234Q697.48126 68.867966 697.2625 69.367966Q697.0594 69.85234 696.5594 70.41484Q696.075 70.961716 694.95 71.91484Q693.9969 72.711716 693.71564 73.00859Q693.45 73.28984 693.27814 73.57109L697.4969 73.57109ZM702.91876 74.586716L701.8719 74.586716L701.8719 67.867966Q701.48126 68.22734 700.85626 68.60234Q700.2469 68.961716 699.7625 69.13359L699.7625 68.117966Q700.6375 67.69609 701.29376 67.117966Q701.96564 66.524216 702.2469 65.961716L702.91876 65.961716L702.91876 74.586716ZM706.54376 74.586716L706.54376 73.38359L707.7469 73.38359L707.7469 74.586716L706.54376 74.586716ZM714.41876 68.10234L713.3719 68.180466Q713.23126 67.555466 712.98126 67.274216Q712.54376 66.82109 711.91876 66.82109Q711.41876 66.82109 711.02814 67.10234Q710.54376 67.47734 710.2469 68.180466Q709.96564 68.867966 709.95 70.149216Q710.325 69.57109 710.8719 69.28984Q711.4344 69.00859 712.04376 69.00859Q713.09064 69.00859 713.825 69.78984Q714.575 70.57109 714.575 71.78984Q714.575 72.60234 714.21564 73.305466Q713.8719 73.992966 713.2625 74.367966Q712.65314 74.72734 711.8875 74.72734Q710.5594 74.72734 709.73126 73.75859Q708.90314 72.78984 708.90314 70.57109Q708.90314 68.07109 709.825 66.94609Q710.6219 65.961716 711.98126 65.961716Q712.9969 65.961716 713.6375 66.53984Q714.29376 67.10234 714.41876 68.10234ZM710.1219 71.805466Q710.1219 72.35234 710.34064 72.85234Q710.575 73.336716 710.98126 73.60234Q711.40314 73.867966 711.8719 73.867966Q712.52814 73.867966 713.0125 73.336716Q713.4969 72.78984 713.4969 71.867966Q713.4969 70.97734 713.0125 70.461716Q712.54376 69.94609 711.825 69.94609Q711.10626 69.94609 710.60626 70.461716Q710.1219 70.97734 710.1219 71.805466ZM716.15314 68.055466Q716.15314 67.13359 716.60626 66.492966Q717.075 65.85234 717.95 65.85234Q718.7625 65.85234 719.29376 66.430466Q719.825 67.00859 719.825 68.117966Q719.825 69.211716 719.27814 69.805466Q718.7469 70.38359 717.96564 70.38359Q717.1844 70.38359 716.66876 69.805466Q716.15314 69.22734 716.15314 68.055466ZM717.98126 66.57109Q717.59064 66.57109 717.325 66.91484Q717.075 67.25859 717.075 68.16484Q717.075 68.992966 717.325 69.336716Q717.59064 69.66484 717.98126 69.66484Q718.3875 69.66484 718.6375 69.32109Q718.90314 68.97734 718.90314 68.086716Q718.90314 67.242966 718.6375 66.91484Q718.3719 66.57109 717.98126 66.57109ZM717.98126 74.899216L722.6844 65.85234L723.54376 65.85234L718.85626 74.899216L717.98126 74.899216ZM721.7 72.57109Q721.7 71.649216 722.15314 71.00859Q722.6219 70.367966 723.5125 70.367966Q724.325 70.367966 724.85626 70.94609Q725.3875 71.50859 725.3875 72.63359Q725.3875 73.72734 724.84064 74.32109Q724.3094 74.899216 723.5125 74.899216Q722.7469 74.899216 722.21564 74.32109Q721.7 73.742966 721.7 72.57109ZM723.54376 71.086716Q723.1375 71.086716 722.8719 71.430466Q722.6219 71.774216 722.6219 72.680466Q722.6219 73.492966 722.8875 73.836716Q723.15314 74.180466 723.54376 74.180466Q723.9344 74.180466 724.2 73.836716Q724.46564 73.492966 724.46564 72.586716Q724.46564 71.75859 724.2 71.430466Q723.9344 71.086716 723.54376 71.086716Z"/><path fill-rule="nonzero" stroke="#757575" stroke-linecap="butt" stroke-width="1" d="M726.45 62.086716L545.45 62.086716L472.11884 62.086716"/><path fill="#9e9e9e" fill-rule="nonzero" d="M474.11884 62.086716C474.11884 60.982147 473.22342 60.086716 472.11884 60.086716C471.01428 60.086716 470.11884 60.982147 470.11884 62.086716C470.11884 63.191288 471.01428 64.086716 472.11884 64.086716C473.22342 64.086716 474.11884 63.191288 474.11884 62.086716"/><path fill="#1a1a1a" fill-rule="nonzero" d="M585.95 167.81264L587.0594 167.71889Q587.1844 168.53139 587.6219 168.93764Q588.075 169.34389 588.71564 169.34389Q589.46564 169.34389 589.9969 168.76576Q590.52814 168.18764 590.52814 167.25014Q590.52814 166.34389 590.0125 165.82826Q589.5125 165.29701 588.6844 165.29701Q588.1844 165.29701 587.7625 165.53139Q587.35626 165.76576 587.1219 166.12514L586.1375 166.00014L586.96564 161.59389L591.2469 161.59389L591.2469 162.59389L587.8094 162.59389L587.35626 164.90639Q588.1219 164.35951 588.96564 164.35951Q590.09064 164.35951 590.85626 165.14076Q591.6375 165.92201 591.6375 167.15639Q591.6375 168.31264 590.96564 169.17201Q590.1375 170.20326 588.71564 170.20326Q587.54376 170.20326 586.79376 169.54701Q586.0594 168.89076 585.95 167.81264ZM598.2625 172.59389Q597.3875 171.48451 596.77814 170.01576Q596.1844 168.53139 596.1844 166.95326Q596.1844 165.56264 596.6219 164.28139Q597.15314 162.79701 598.2625 161.32826L599.0125 161.32826Q598.3094 162.54701 598.075 163.06264Q597.71564 163.87514 597.5125 164.75014Q597.2625 165.84389 597.2625 166.95326Q597.2625 169.78139 599.0125 172.59389L598.2625 172.59389ZM600.02814 165.87514Q600.02814 163.73451 601.16876 162.53139Q602.325 161.31264 604.1375 161.31264Q605.34064 161.31264 606.29376 161.89076Q607.2469 162.45326 607.7469 163.46889Q608.2469 164.48451 608.2469 165.78139Q608.2469 167.07826 607.71564 168.10951Q607.1844 169.14076 606.21564 169.67201Q605.2625 170.20326 604.1375 170.20326Q602.91876 170.20326 601.96564 169.62514Q601.0125 169.03139 600.5125 168.03139Q600.02814 167.01576 600.02814 165.87514ZM601.2 165.89076Q601.2 167.45326 602.02814 168.34389Q602.8719 169.23451 604.1375 169.23451Q605.41876 169.23451 606.2469 168.34389Q607.075 167.43764 607.075 165.76576Q607.075 164.71889 606.71564 163.93764Q606.3719 163.15639 605.6844 162.73451Q604.9969 162.29701 604.15314 162.29701Q602.95 162.29701 602.075 163.12514Q601.2 163.95326 601.2 165.89076ZM609.23126 170.06264L609.23126 163.84389L610.1844 163.84389L610.1844 164.78139Q610.54376 164.12514 610.84064 163.92201Q611.15314 163.70326 611.52814 163.70326Q612.0594 163.70326 612.60626 164.03139L612.2469 165.01576Q611.85626 164.78139 611.48126 164.78139Q611.1219 164.78139 610.84064 165.00014Q610.575 165.20326 610.46564 165.57826Q610.27814 166.14076 610.27814 166.79701L610.27814 170.06264L609.23126 170.06264ZM613.2469 162.68764L613.2469 161.46889L614.3094 161.46889L614.3094 162.68764L613.2469 162.68764ZM613.2469 170.06264L613.2469 163.84389L614.3094 163.84389L614.3094 170.06264L613.2469 170.06264ZM620.4969 168.06264L621.59064 168.18764Q621.34064 169.14076 620.6375 169.67201Q619.9344 170.20326 618.85626 170.20326Q617.4969 170.20326 616.6844 169.35951Q615.8875 168.51576 615.8875 167.00014Q615.8875 165.43764 616.7 164.57826Q617.5125 163.70326 618.79376 163.70326Q620.04376 163.70326 620.825 164.54701Q621.6219 165.39076 621.6219 166.93764Q621.6219 167.03139 621.6219 167.21889L616.98126 167.21889Q617.04376 168.25014 617.5594 168.79701Q618.075 169.32826 618.85626 169.32826Q619.4344 169.32826 619.84064 169.03139Q620.2625 168.71889 620.4969 168.06264ZM617.04376 166.35951L620.5125 166.35951Q620.45 165.56264 620.1219 165.17201Q619.60626 164.56264 618.8094 164.56264Q618.075 164.56264 617.575 165.04701Q617.09064 165.53139 617.04376 166.35951ZM626.325 170.06264L626.325 161.46889L627.46564 161.46889L627.46564 165.73451L631.73126 161.46889L633.27814 161.46889L629.66876 164.95326L633.4344 170.06264L631.9344 170.06264L628.8719 165.71889L627.46564 167.07826L627.46564 170.06264L626.325 170.06264ZM634.2469 162.68764L634.2469 161.46889L635.3094 161.46889L635.3094 162.68764L634.2469 162.68764ZM634.2469 170.06264L634.2469 163.84389L635.3094 163.84389L635.3094 170.06264L634.2469 170.06264ZM637.2469 170.06264L637.2469 163.84389L638.1844 163.84389L638.1844 164.71889Q638.48126 164.25014 638.96564 163.98451Q639.45 163.70326 640.075 163.70326Q640.7625 163.70326 641.2 163.98451Q641.65314 164.26576 641.825 164.78139Q642.575 163.70326 643.7469 163.70326Q644.6844 163.70326 645.16876 164.21889Q645.66876 164.71889 645.66876 165.79701L645.66876 170.06264L644.6219 170.06264L644.6219 166.14076Q644.6219 165.51576 644.5125 165.23451Q644.41876 164.95326 644.15314 164.78139Q643.8875 164.60951 643.5125 164.60951Q642.85626 164.60951 642.41876 165.04701Q641.9969 165.48451 641.9969 166.45326L641.9969 170.06264L640.9344 170.06264L640.9344 166.01576Q640.9344 165.31264 640.66876 164.96889Q640.41876 164.60951 639.84064 164.60951Q639.3875 164.60951 639.0125 164.84389Q638.6375 165.07826 638.46564 165.53139Q638.29376 165.98451 638.29376 166.82826L638.29376 170.06264L637.2469 170.06264ZM647.85626 166.95326Q647.85626 165.21889 648.8094 164.39076Q649.60626 163.70326 650.7625 163.70326Q652.04376 163.70326 652.85626 164.54701Q653.6844 165.37514 653.6844 166.85951Q653.6844 168.06264 653.325 168.75014Q652.96564 169.43764 652.2625 169.82826Q651.575 170.20326 650.7625 170.20326Q649.46564 170.20326 648.65314 169.37514Q647.85626 168.53139 647.85626 166.95326ZM648.9344 166.95326Q648.9344 168.14076 649.45 168.73451Q649.98126 169.32826 650.7625 169.32826Q651.5594 169.32826 652.075 168.73451Q652.59064 168.14076 652.59064 166.92201Q652.59064 165.76576 652.0594 165.17201Q651.54376 164.57826 650.7625 164.57826Q649.98126 164.57826 649.45 165.17201Q648.9344 165.75014 648.9344 166.95326ZM657.54376 169.12514L657.7 170.04701Q657.2469 170.14076 656.90314 170.14076Q656.325 170.14076 656.0125 169.96889Q655.7 169.78139 655.5594 169.48451Q655.4344 169.18764 655.4344 168.23451L655.4344 164.65639L654.66876 164.65639L654.66876 163.84389L655.4344 163.84389L655.4344 162.29701L656.48126 161.67201L656.48126 163.84389L657.54376 163.84389L657.54376 164.65639L656.48126 164.65639L656.48126 168.29701Q656.48126 168.75014 656.52814 168.87514Q656.59064 169.00014 656.71564 169.07826Q656.84064 169.15639 657.075 169.15639Q657.2625 169.15639 657.54376 169.12514ZM657.85626 166.95326Q657.85626 165.21889 658.8094 164.39076Q659.60626 163.70326 660.7625 163.70326Q662.04376 163.70326 662.85626 164.54701Q663.6844 165.37514 663.6844 166.85951Q663.6844 168.06264 663.325 168.75014Q662.96564 169.43764 662.2625 169.82826Q661.575 170.20326 660.7625 170.20326Q659.46564 170.20326 658.65314 169.37514Q657.85626 168.53139 657.85626 166.95326ZM658.9344 166.95326Q658.9344 168.14076 659.45 168.73451Q659.98126 169.32826 660.7625 169.32826Q661.5594 169.32826 662.075 168.73451Q662.59064 168.14076 662.59064 166.92201Q662.59064 165.76576 662.0594 165.17201Q661.54376 164.57826 660.7625 164.57826Q659.98126 164.57826 659.45 165.17201Q658.9344 165.75014 658.9344 166.95326Z"/><path fill="#1a1a1a" fill-rule="nonzero" d="M672.7 168.09389Q672.98126 168.60951 673.075 169.21889L672.1844 169.45326Q672.09064 168.84389 671.8094 168.37514L672.7 168.09389ZM671.66876 170.71889Q671.6219 171.04701 671.4344 170.85951L671.2 169.82826Q672.3719 169.73451 673.54376 169.50014Q673.825 168.70326 673.96564 167.90639L674.71564 168.09389Q675.09064 168.28139 674.71564 168.32826Q674.575 168.84389 674.34064 169.35951Q674.95 169.26576 675.5125 169.17201L675.65314 169.92201Q673.45 170.43764 671.66876 170.71889ZM670.40314 165.04701Q671.0594 165.37514 671.52814 165.89076L671.2 166.96889Q670.77814 166.35951 670.40314 166.17201L670.40314 171.23451L669.60626 171.23451L669.60626 166.31264Q669.09064 167.43764 668.3875 168.32826L667.8719 167.34389Q669.1844 165.79701 669.5125 163.64076L668.2469 163.64076L668.2469 162.89076L669.60626 162.89076L669.60626 160.54701L670.35626 160.54701Q670.73126 160.59389 670.40314 160.82826L670.40314 162.89076L671.34064 162.89076L671.34064 163.64076L670.40314 163.64076L670.40314 165.04701ZM675.27814 162.65639L673.825 162.65639L673.825 163.73451L674.9969 163.73451L674.9969 164.48451L671.8094 164.48451L671.8094 163.73451L673.02814 163.73451L673.02814 162.65639L671.575 162.65639L671.575 161.90639L673.02814 161.90639L673.02814 160.59389L673.77814 160.59389Q674.15314 160.64076 673.825 160.87514L673.825 161.90639L675.27814 161.90639L675.27814 162.65639ZM671.8094 165.14076L675.09064 165.14076L675.09064 167.67201L671.8094 167.67201L671.8094 165.14076ZM674.29376 165.89076L672.60626 165.89076L672.60626 166.92201L674.29376 166.92201L674.29376 165.89076ZM675.79376 168.09389Q675.65314 166.54701 675.27814 165.46889L676.02814 165.18764Q676.45 166.26576 676.59064 167.90639L675.79376 168.09389ZM677.7625 160.68764Q678.1375 160.73451 677.8094 160.96889L677.8094 163.12514L678.79376 163.12514L678.79376 164.01576L677.8094 164.01576L677.8094 170.34389Q677.8094 171.14076 677.0125 171.14076L676.21564 171.14076L676.075 170.25014L676.73126 170.25014Q676.8719 170.25014 676.8719 170.10951L676.8719 164.01576L675.46564 164.01576L675.46564 163.12514L676.8719 163.12514L676.8719 160.68764L677.7625 160.68764ZM690.79376 168.18764L690.60626 169.17201Q690.3719 170.43764 689.29376 170.43764L687.09064 170.43764Q686.2 170.43764 686.2 169.35951L686.2 165.14076L684.60626 165.14076L684.60626 166.21889Q684.60626 169.87514 680.7625 170.85951L680.29376 169.73451Q683.52814 168.93764 683.52814 166.26576L683.52814 165.14076L680.4344 165.14076L680.4344 164.25014L690.5125 164.25014L690.5125 165.14076L687.27814 165.14076L687.27814 169.03139Q687.27814 169.40639 687.60626 169.40639L688.8719 169.40639Q689.4344 169.40639 689.52814 168.93764L689.71564 167.85951L690.79376 168.18764ZM689.34064 162.14076L681.65314 162.14076L681.65314 161.25014L689.34064 161.25014L689.34064 162.14076ZM691.73126 168.84389Q694.73126 166.92201 696.41876 164.25014L692.0125 164.25014L692.0125 163.21889L696.98126 163.21889L696.98126 160.64076L697.96564 160.64076Q698.3875 160.73451 698.0594 161.01576L698.0594 163.21889L701.9969 163.21889L701.9969 164.25014L698.0594 164.25014L698.0594 169.73451Q698.0594 170.85951 696.98126 170.85951L695.66876 170.85951L695.48126 169.82826L696.41876 169.82826Q696.98126 169.73451 696.98126 169.21889L696.98126 165.28139Q695.2 167.90639 692.66876 169.68764L691.73126 168.84389ZM709.71564 165.93764Q709.71564 169.45326 706.4344 171.00014L705.4969 170.20326Q708.59064 168.79701 708.6375 165.89076L708.6375 161.20326L709.6219 161.20326Q710.09064 161.29701 709.71564 161.57826L709.71564 165.93764ZM704.8875 166.96889L703.8094 166.96889L703.8094 161.67201L704.84064 161.67201Q705.3094 161.71889 704.8875 162.04701L704.8875 166.96889ZM721.4344 168.09389L721.4344 169.12514L712.10626 169.12514L712.10626 168.09389L716.1844 168.09389L716.1844 163.45326L712.90314 163.45326L712.90314 162.42201L720.4969 162.42201L720.4969 163.45326L717.2625 163.45326L717.2625 168.09389L721.4344 168.09389Z"/><path fill="#1a1a1a" fill-rule="nonzero" d="M723.9344 172.59389L723.1844 172.59389Q724.9344 169.78139 724.9344 166.95326Q724.9344 165.85951 724.6844 164.76576Q724.48126 163.89076 724.1219 163.07826Q723.8875 162.56264 723.1844 161.32826L723.9344 161.32826Q725.02814 162.79701 725.5594 164.28139Q726.0125 165.56264 726.0125 166.95326Q726.0125 168.53139 725.40314 170.01576Q724.79376 171.48451 723.9344 172.59389Z"/><path fill="#9e9e9e" fill-rule="nonzero" d="M702.325 187.06264L702.325 185.00014L698.60626 185.00014L698.60626 184.03139L702.52814 178.46889L703.3875 178.46889L703.3875 184.03139L704.54376 184.03139L704.54376 185.00014L703.3875 185.00014L703.3875 187.06264L702.325 187.06264ZM702.325 184.03139L702.325 180.17201L699.6375 184.03139L702.325 184.03139ZM706.54376 187.06264L706.54376 185.85951L707.7469 185.85951L707.7469 187.06264L706.54376 187.06264ZM714.41876 180.57826L713.3719 180.65639Q713.23126 180.03139 712.98126 179.75014Q712.54376 179.29701 711.91876 179.29701Q711.41876 179.29701 711.02814 179.57826Q710.54376 179.95326 710.2469 180.65639Q709.96564 181.34389 709.95 182.62514Q710.325 182.04701 710.8719 181.76576Q711.4344 181.48451 712.04376 181.48451Q713.09064 181.48451 713.825 182.26576Q714.575 183.04701 714.575 184.26576Q714.575 185.07826 714.21564 185.78139Q713.8719 186.46889 713.2625 186.84389Q712.65314 187.20326 711.8875 187.20326Q710.5594 187.20326 709.73126 186.23451Q708.90314 185.26576 708.90314 183.04701Q708.90314 180.54701 709.825 179.42201Q710.6219 178.43764 711.98126 178.43764Q712.9969 178.43764 713.6375 179.01576Q714.29376 179.57826 714.41876 180.57826ZM710.1219 184.28139Q710.1219 184.82826 710.34064 185.32826Q710.575 185.81264 710.98126 186.07826Q711.40314 186.34389 711.8719 186.34389Q712.52814 186.34389 713.0125 185.81264Q713.4969 185.26576 713.4969 184.34389Q713.4969 183.45326 713.0125 182.93764Q712.54376 182.42201 711.825 182.42201Q711.10626 182.42201 710.60626 182.93764Q710.1219 183.45326 710.1219 184.28139ZM716.15314 180.53139Q716.15314 179.60951 716.60626 178.96889Q717.075 178.32826 717.95 178.32826Q718.7625 178.32826 719.29376 178.90639Q719.825 179.48451 719.825 180.59389Q719.825 181.68764 719.27814 182.28139Q718.7469 182.85951 717.96564 182.85951Q717.1844 182.85951 716.66876 182.28139Q716.15314 181.70326 716.15314 180.53139ZM717.98126 179.04701Q717.59064 179.04701 717.325 179.39076Q717.075 179.73451 717.075 180.64076Q717.075 181.46889 717.325 181.81264Q717.59064 182.14076 717.98126 182.14076Q718.3875 182.14076 718.6375 181.79701Q718.90314 181.45326 718.90314 180.56264Q718.90314 179.71889 718.6375 179.39076Q718.3719 179.04701 717.98126 179.04701ZM717.98126 187.37514L722.6844 178.32826L723.54376 178.32826L718.85626 187.37514L717.98126 187.37514ZM721.7 185.04701Q721.7 184.12514 722.15314 183.48451Q722.6219 182.84389 723.5125 182.84389Q724.325 182.84389 724.85626 183.42201Q725.3875 183.98451 725.3875 185.10951Q725.3875 186.20326 724.84064 186.79701Q724.3094 187.37514 723.5125 187.37514Q722.7469 187.37514 722.21564 186.79701Q721.7 186.21889 721.7 185.04701ZM723.54376 183.56264Q723.1375 183.56264 722.8719 183.90639Q722.6219 184.25014 722.6219 185.15639Q722.6219 185.96889 722.8875 186.31264Q723.15314 186.65639 723.54376 186.65639Q723.9344 186.65639 724.2 186.31264Q724.46564 185.96889 724.46564 185.06264Q724.46564 184.23451 724.2 183.90639Q723.9344 183.56264 723.54376 183.56264Z"/><path fill-rule="nonzero" stroke="#757575" stroke-linecap="butt" stroke-width="1" d="M726.45 174.56264L545.45 174.56264L530.7249 174.56264"/><path fill="#9e9e9e" fill-rule="nonzero" d="M532.7249 174.56264C532.7249 173.45807 531.82947 172.56264 530.7249 172.56264C529.62036 172.56264 528.7249 173.45807 528.7249 174.56264C528.7249 175.6672 529.62036 176.56264 530.7249 176.56264C531.82947 176.56264 532.7249 175.6672 532.7249 174.56264"/><path fill="#1a1a1a" fill-rule="nonzero" d="M593.91876 332.45L592.8719 332.45L592.8719 325.73126Q592.48126 326.09064 591.85626 326.46564Q591.2469 326.825 590.7625 326.9969L590.7625 325.98126Q591.6375 325.5594 592.29376 324.98126Q592.96564 324.3875 593.2469 323.825L593.91876 323.825L593.91876 332.45ZM602.2625 334.98126Q601.3875 333.8719 600.77814 332.40314Q600.1844 330.91876 600.1844 329.34064Q600.1844 327.95 600.6219 326.66876Q601.15314 325.1844 602.2625 323.71564L603.0125 323.71564Q602.3094 324.9344 602.075 325.45Q601.71564 326.2625 601.5125 327.1375Q601.2625 328.23126 601.2625 329.34064Q601.2625 332.16876 603.0125 334.98126L602.2625 334.98126ZM604.41876 332.45L604.41876 323.85626L605.54376 323.85626L605.54376 327.3875L610.0125 327.3875L610.0125 323.85626L611.15314 323.85626L611.15314 332.45L610.0125 332.45L610.0125 328.40314L605.54376 328.40314L605.54376 332.45L604.41876 332.45ZM613.2469 325.075L613.2469 323.85626L614.3094 323.85626L614.3094 325.075L613.2469 325.075ZM613.2469 332.45L613.2469 326.23126L614.3094 326.23126L614.3094 332.45L613.2469 332.45ZM616.23126 332.45L616.23126 326.23126L617.1844 326.23126L617.1844 327.16876Q617.54376 326.5125 617.84064 326.3094Q618.15314 326.09064 618.52814 326.09064Q619.0594 326.09064 619.60626 326.41876L619.2469 327.40314Q618.85626 327.16876 618.48126 327.16876Q618.1219 327.16876 617.84064 327.3875Q617.575 327.59064 617.46564 327.96564Q617.27814 328.52814 617.27814 329.1844L617.27814 332.45L616.23126 332.45ZM619.85626 329.34064Q619.85626 327.60626 620.8094 326.77814Q621.60626 326.09064 622.7625 326.09064Q624.04376 326.09064 624.85626 326.9344Q625.6844 327.7625 625.6844 329.2469Q625.6844 330.45 625.325 331.1375Q624.96564 331.825 624.2625 332.21564Q623.575 332.59064 622.7625 332.59064Q621.46564 332.59064 620.65314 331.7625Q619.85626 330.91876 619.85626 329.34064ZM620.9344 329.34064Q620.9344 330.52814 621.45 331.1219Q621.98126 331.71564 622.7625 331.71564Q623.5594 331.71564 624.075 331.1219Q624.59064 330.52814 624.59064 329.3094Q624.59064 328.15314 624.0594 327.5594Q623.54376 326.96564 622.7625 326.96564Q621.98126 326.96564 621.45 327.5594Q620.9344 328.1375 620.9344 329.34064ZM627.2469 332.45L627.2469 323.85626L628.3094 323.85626L628.3094 328.7625L630.79376 326.23126L632.16876 326.23126L629.77814 328.52814L632.40314 332.45L631.10626 332.45L629.04376 329.2625L628.3094 329.98126L628.3094 332.45L627.2469 332.45ZM633.2469 325.075L633.2469 323.85626L634.3094 323.85626L634.3094 325.075L633.2469 325.075ZM633.2469 332.45L633.2469 326.23126L634.3094 326.23126L634.3094 332.45L633.2469 332.45ZM643.40314 329.075L643.40314 328.075L647.02814 328.0594L647.02814 331.2469Q646.2 331.91876 645.3094 332.2625Q644.41876 332.59064 643.48126 332.59064Q642.21564 332.59064 641.16876 332.0594Q640.1375 331.5125 639.60626 330.4969Q639.09064 329.46564 639.09064 328.2Q639.09064 326.9344 639.60626 325.85626Q640.1375 324.7625 641.1219 324.2469Q642.10626 323.71564 643.3875 323.71564Q644.325 323.71564 645.075 324.0125Q645.825 324.3094 646.2469 324.85626Q646.6844 325.3875 646.90314 326.2625L645.8875 326.54376Q645.6844 325.8875 645.3875 325.5125Q645.10626 325.1375 644.575 324.91876Q644.04376 324.6844 643.40314 324.6844Q642.6219 324.6844 642.04376 324.91876Q641.48126 325.15314 641.1219 325.54376Q640.77814 325.9344 640.59064 326.40314Q640.2625 327.2 640.2625 328.1219Q640.2625 329.27814 640.65314 330.0594Q641.0594 330.825 641.8094 331.2Q642.5594 331.575 643.41876 331.575Q644.15314 331.575 644.85626 331.29376Q645.5594 330.9969 645.91876 330.6844L645.91876 329.075L643.40314 329.075ZM647.85626 329.34064Q647.85626 327.60626 648.8094 326.77814Q649.60626 326.09064 650.7625 326.09064Q652.04376 326.09064 652.85626 326.9344Q653.6844 327.7625 653.6844 329.2469Q653.6844 330.45 653.325 331.1375Q652.96564 331.825 652.2625 332.21564Q651.575 332.59064 650.7625 332.59064Q649.46564 332.59064 648.65314 331.7625Q647.85626 330.91876 647.85626 329.34064ZM648.9344 329.34064Q648.9344 330.52814 649.45 331.1219Q649.98126 331.71564 650.7625 331.71564Q651.5594 331.71564 652.075 331.1219Q652.59064 330.52814 652.59064 329.3094Q652.59064 328.15314 652.0594 327.5594Q651.54376 326.96564 650.7625 326.96564Q649.98126 326.96564 649.45 327.5594Q648.9344 328.1375 648.9344 329.34064ZM657.54376 331.5125L657.7 332.4344Q657.2469 332.52814 656.90314 332.52814Q656.325 332.52814 656.0125 332.35626Q655.7 332.16876 655.5594 331.8719Q655.4344 331.575 655.4344 330.6219L655.4344 327.04376L654.66876 327.04376L654.66876 326.23126L655.4344 326.23126L655.4344 324.6844L656.48126 324.0594L656.48126 326.23126L657.54376 326.23126L657.54376 327.04376L656.48126 327.04376L656.48126 330.6844Q656.48126 331.1375 656.52814 331.2625Q656.59064 331.3875 656.71564 331.46564Q656.84064 331.54376 657.075 331.54376Q657.2625 331.54376 657.54376 331.5125ZM657.85626 329.34064Q657.85626 327.60626 658.8094 326.77814Q659.60626 326.09064 660.7625 326.09064Q662.04376 326.09064 662.85626 326.9344Q663.6844 327.7625 663.6844 329.2469Q663.6844 330.45 663.325 331.1375Q662.96564 331.825 662.2625 332.21564Q661.575 332.59064 660.7625 332.59064Q659.46564 332.59064 658.65314 331.7625Q657.85626 330.91876 657.85626 329.34064ZM658.9344 329.34064Q658.9344 330.52814 659.45 331.1219Q659.98126 331.71564 660.7625 331.71564Q661.5594 331.71564 662.075 331.1219Q662.59064 330.52814 662.59064 329.3094Q662.59064 328.15314 662.0594 327.5594Q661.54376 326.96564 660.7625 326.96564Q659.98126 326.96564 659.45 327.5594Q658.9344 328.1375 658.9344 329.34064Z"/><path fill="#1a1a1a" fill-rule="nonzero" d="M674.9969 331.9344Q673.54376 332.96564 671.10626 333.4344L670.77814 332.45Q673.02814 332.16876 674.29376 331.27814Q673.77814 330.66876 673.40314 329.91876Q672.7469 330.85626 671.575 331.60626L671.0125 330.85626Q672.84064 329.6844 673.40314 328.09064L671.6219 328.1844Q671.575 328.5125 671.3875 328.325L671.0594 327.2469L672.9344 327.2L673.825 326.45Q672.7469 325.7 671.85626 325.27814L672.3719 324.48126L672.84064 324.71564Q673.6375 323.73126 674.2469 322.5594L675.04376 323.02814Q675.46564 323.2625 674.9969 323.35626Q674.3875 324.2 673.54376 325.1844Q674.0125 325.46564 674.4344 325.7469Q675.27814 324.95 676.16876 323.6844L677.0125 324.2Q677.2 324.3875 676.8719 324.4344Q675.98126 325.65314 674.15314 327.2L676.96564 327.0125Q676.59064 326.59064 676.21564 326.21564L676.8719 325.65314Q677.95 326.45 678.65314 327.7625L677.85626 328.3719L677.48126 327.71564L674.4344 327.9969L674.0594 328.79376L676.40314 328.79376L676.54376 328.5594L677.34064 329.02814Q677.66876 329.16876 677.15314 329.3094Q676.4969 330.52814 675.7 331.27814Q676.91876 332.02814 678.7469 332.3094L678.3719 333.3875Q676.4969 332.96564 674.9969 331.9344ZM674.9969 330.7625Q675.5125 330.2469 675.98126 329.54376L674.15314 329.54376Q674.4344 330.2 674.9969 330.7625ZM670.45 333.4344L669.5125 333.4344L669.5125 328.60626Q669.09064 329.02814 668.52814 329.4969L668.10626 328.5594Q669.65314 327.34064 670.6375 325.41876L671.48126 325.98126Q671.66876 326.16876 671.34064 326.21564Q671.0125 326.77814 670.45 327.52814L670.45 333.4344ZM671.29376 323.73126Q670.45 324.95 668.8094 326.075L668.29376 325.1375Q669.7 324.2 670.73126 322.8875L671.575 323.54376Q671.6219 323.77814 671.29376 323.73126ZM686.8094 331.79376L684.84064 332.91876Q684.79376 333.2469 684.60626 333.0594L684.27814 332.16876Q684.84064 331.98126 686.8094 331.09064L686.8094 329.3094L687.5594 329.3094Q687.9344 329.35626 687.60626 329.59064L687.60626 330.8094L688.02814 330.95L688.6844 329.8719L689.34064 330.4344L688.6844 331.27814Q689.90314 331.8875 690.325 332.2625L689.95 333.0594Q689.3875 332.54376 687.60626 331.5594L687.60626 332.73126Q687.60626 333.4344 687.04376 333.4344L686.3875 333.4344L686.2 332.6844L686.6219 332.6844Q686.8094 332.6844 686.8094 332.4969L686.8094 331.79376ZM685.77814 331.23126Q685.73126 330.85626 685.3094 330.29376L685.96564 329.8719Q686.29376 330.15314 686.48126 330.8094L685.77814 331.23126ZM690.41876 331.04376Q689.10626 330.29376 688.21564 328.8875L686.29376 328.8875Q685.4969 330.34064 683.9969 331.1844L683.6219 330.66876L683.6219 332.77814Q683.6219 333.4344 683.0594 333.4344L682.2625 333.4344L682.075 332.6844L682.6375 332.6844Q682.825 332.6844 682.825 332.4969L682.825 330.3875L681.65314 330.3875Q681.5125 332.40314 680.575 333.3875L679.96564 332.73126Q680.85626 331.60626 680.85626 330.0125L680.85626 325.7469L683.6219 325.7469L683.6219 330.34064Q684.60626 329.825 685.3094 328.8875L683.9969 328.8875L683.9969 328.1375L685.6844 328.1375L686.0125 327.34064L684.325 327.34064L684.325 326.59064L685.1219 326.59064Q684.8875 326.21564 684.46564 325.7L685.16876 325.325Q685.6375 325.79376 685.91876 326.2625L685.40314 326.59064L686.2469 326.59064L686.52814 325.325L687.46564 325.41876Q687.65314 325.60626 687.325 325.65314L687.09064 326.59064L687.79376 326.59064L688.6375 325.27814L689.48126 325.5125Q689.66876 325.7 689.34064 325.7469L688.6844 326.59064L689.95 326.59064L689.95 327.34064L688.2625 327.34064L688.6375 328.1375L690.5125 328.1375L690.5125 328.8875L689.15314 328.8875Q689.66876 329.4969 690.9344 330.29376L690.41876 331.04376ZM687.3719 327.34064L686.90314 327.34064L686.575 328.1375L687.7469 328.1375L687.3719 327.34064ZM682.825 329.6375L682.825 328.5125L681.65314 328.5125L681.65314 329.6375L682.825 329.6375ZM682.825 327.7625L682.825 326.4969L681.65314 326.4969L681.65314 327.7625L682.825 327.7625ZM683.34064 324.575L680.3875 324.575L680.3875 323.6844L683.34064 323.6844L683.34064 322.7469L684.23126 322.7469Q684.60626 322.79376 684.27814 323.02814L684.27814 323.6844L686.66876 323.6844L686.66876 322.7469L687.5594 322.7469Q687.9344 322.79376 687.60626 323.02814L687.60626 323.6844L690.5594 323.6844L690.5594 324.575L687.60626 324.575L687.60626 325.04376L686.66876 325.04376L686.66876 324.575L684.27814 324.575L684.27814 325.41876L683.34064 325.41876L683.34064 324.575ZM699.5594 326.6375Q699.79376 327.0594 699.1375 326.77814Q696.5125 327.48126 693.60626 327.85626L693.60626 330.90314Q693.60626 331.5125 694.21564 331.5125L699.60626 331.5125L699.5125 332.54376L694.02814 332.54376Q692.52814 332.54376 692.52814 331.325L692.52814 323.96564L693.46564 323.96564Q693.98126 324.0594 693.60626 324.34064L693.60626 326.73126Q696.79376 326.35626 699.1844 325.5594L699.5594 326.6375ZM709.2625 331.65314L708.1844 331.65314L708.1844 331.1375L702.98126 331.1375L702.98126 331.8875L701.90314 331.8875L701.90314 324.575L709.2625 324.575L709.2625 331.65314ZM702.98126 325.60626L702.98126 330.10626L708.1844 330.10626L708.1844 325.60626L702.98126 325.60626ZM721.3719 328.79376L717.0125 329.2625L717.90314 333.0594L716.8719 333.29376L715.98126 329.40314L711.2 329.96564L711.0594 328.98126L715.7469 328.46564L715.27814 326.2625L712.09064 326.6375L711.90314 325.65314L714.9969 325.325L714.52814 323.16876L715.5125 322.98126Q715.9344 322.9344 715.65314 323.3094L716.02814 325.1844L719.45 324.71564L719.6375 325.7L716.3094 326.1219L716.77814 328.325L721.1844 327.8094L721.3719 328.79376Z"/><path fill="#1a1a1a" fill-rule="nonzero" d="M723.9344 334.98126L723.1844 334.98126Q724.9344 332.16876 724.9344 329.34064Q724.9344 328.2469 724.6844 327.15314Q724.48126 326.27814 724.1219 325.46564Q723.8875 324.95 723.1844 323.71564L723.9344 323.71564Q725.02814 325.1844 725.5594 326.66876Q726.0125 327.95 726.0125 329.34064Q726.0125 330.91876 725.40314 332.40314Q724.79376 333.8719 723.9344 334.98126Z"/><path fill="#9e9e9e" fill-rule="nonzero" d="M695.325 349.45L695.325 347.3875L691.60626 347.3875L691.60626 346.41876L695.52814 340.85626L696.3875 340.85626L696.3875 346.41876L697.54376 346.41876L697.54376 347.3875L696.3875 347.3875L696.3875 349.45L695.325 349.45ZM695.325 346.41876L695.325 342.5594L692.6375 346.41876L695.325 346.41876ZM704.4969 348.4344L704.4969 349.45L698.8094 349.45Q698.8094 349.075 698.9344 348.71564Q699.15314 348.1375 699.6219 347.575Q700.10626 347.0125 701.0125 346.27814Q702.41876 345.1219 702.90314 344.45Q703.40314 343.77814 703.40314 343.1844Q703.40314 342.5594 702.95 342.1375Q702.4969 341.7 701.77814 341.7Q701.0125 341.7 700.5594 342.15314Q700.10626 342.60626 700.09064 343.41876L699.0125 343.3094Q699.1219 342.09064 699.84064 341.46564Q700.575 340.825 701.8094 340.825Q703.04376 340.825 703.7625 341.5125Q704.48126 342.2 704.48126 343.21564Q704.48126 343.73126 704.2625 344.23126Q704.0594 344.71564 703.5594 345.27814Q703.075 345.825 701.95 346.77814Q700.9969 347.575 700.71564 347.8719Q700.45 348.15314 700.27814 348.4344L704.4969 348.4344ZM706.54376 349.45L706.54376 348.2469L707.7469 348.2469L707.7469 349.45L706.54376 349.45ZM709.10626 347.46564L710.1219 347.3719Q710.2469 348.09064 710.60626 348.41876Q710.98126 348.73126 711.54376 348.73126Q712.02814 348.73126 712.3875 348.5125Q712.7625 348.27814 712.9969 347.91876Q713.23126 347.54376 713.3875 346.91876Q713.54376 346.27814 713.54376 345.6219Q713.54376 345.54376 713.54376 345.40314Q713.23126 345.90314 712.6844 346.23126Q712.1375 346.54376 711.4969 346.54376Q710.41876 346.54376 709.6844 345.77814Q708.95 344.9969 708.95 343.73126Q708.95 342.41876 709.71564 341.6219Q710.4969 340.825 711.65314 340.825Q712.48126 340.825 713.16876 341.27814Q713.8719 341.73126 714.23126 342.575Q714.59064 343.40314 714.59064 344.98126Q714.59064 346.6219 714.23126 347.60626Q713.8875 348.575 713.16876 349.09064Q712.46564 349.59064 711.52814 349.59064Q710.5125 349.59064 709.8719 349.04376Q709.23126 348.48126 709.10626 347.46564ZM713.41876 343.66876Q713.41876 342.7625 712.9344 342.23126Q712.46564 341.7 711.77814 341.7Q711.075 341.7 710.54376 342.27814Q710.02814 342.84064 710.02814 343.7625Q710.02814 344.575 710.52814 345.09064Q711.02814 345.60626 711.7469 345.60626Q712.48126 345.60626 712.95 345.09064Q713.41876 344.575 713.41876 343.66876ZM716.15314 342.91876Q716.15314 341.9969 716.60626 341.35626Q717.075 340.71564 717.95 340.71564Q718.7625 340.71564 719.29376 341.29376Q719.825 341.8719 719.825 342.98126Q719.825 344.075 719.27814 344.66876Q718.7469 345.2469 717.96564 345.2469Q717.1844 345.2469 716.66876 344.66876Q716.15314 344.09064 716.15314 342.91876ZM717.98126 341.4344Q717.59064 341.4344 717.325 341.77814Q717.075 342.1219 717.075 343.02814Q717.075 343.85626 717.325 344.2Q717.59064 344.52814 717.98126 344.52814Q718.3875 344.52814 718.6375 344.1844Q718.90314 343.84064 718.90314 342.95Q718.90314 342.10626 718.6375 341.77814Q718.3719 341.4344 717.98126 341.4344ZM717.98126 349.7625L722.6844 340.71564L723.54376 340.71564L718.85626 349.7625L717.98126 349.7625ZM721.7 347.4344Q721.7 346.5125 722.15314 345.8719Q722.6219 345.23126 723.5125 345.23126Q724.325 345.23126 724.85626 345.8094Q725.3875 346.3719 725.3875 347.4969Q725.3875 348.59064 724.84064 349.1844Q724.3094 349.7625 723.5125 349.7625Q722.7469 349.7625 722.21564 349.1844Q721.7 348.60626 721.7 347.4344ZM723.54376 345.95Q723.1375 345.95 722.8719 346.29376Q722.6219 346.6375 722.6219 347.54376Q722.6219 348.35626 722.8875 348.7Q723.15314 349.04376 723.54376 349.04376Q723.9344 349.04376 724.2 348.7Q724.46564 348.35626 724.46564 347.45Q724.46564 346.6219 724.2 346.29376Q723.9344 345.95 723.54376 345.95Z"/><path fill-rule="nonzero" stroke="#757575" stroke-linecap="butt" stroke-width="1" d="M726.45 336.95L545.45 336.95L396.056 342.34344"/><path fill="#9e9e9e" fill-rule="nonzero" d="M398.056 342.34344C398.056 341.2389 397.16058 340.34344 396.056 340.34344C394.95145 340.34344 394.056 341.2389 394.056 342.34344C394.056 343.44803 394.95145 344.34344 396.056 344.34344C397.16058 344.34344 398.056 343.44803 398.056 342.34344"/></svg>