<svg xmlns="http://www.w3.org/2000/svg" xmlns:xlink="http://www.w3.org/1999/xlink" width="776pt" height="740pt" viewBox="0 0 776 740"><g id="graph0" class="graph" transform="scale(1 1) rotate(0) translate(4 736)"><title>G</title><polygon fill="#fff" stroke="transparent" points="-4 4 -4 -736 772 -736 772 4 -4 4"/><g id="node1" class="node"><title>Sadayoshi</title><path fill="none" stroke="#000" d="M564,-732C564,-732 516,-732 516,-732 510,-732 504,-726 504,-720 504,-720 504,-708 504,-708 504,-702 510,-696 516,-696 516,-696 564,-696 564,-696 570,-696 576,-702 576,-708 576,-708 576,-720 576,-720 576,-726 570,-732 564,-732"/><text x="540" y="-710.3" font-family="Times,serif" font-size="14" text-anchor="middle">Sadayoshi</text></g><g id="node2" class="node"><title>Giansar</title><path fill="none" stroke="#000" d="M484.5,-645C484.5,-645 449.5,-645 449.5,-645 443.5,-645 437.5,-639 437.5,-633 437.5,-633 437.5,-621 437.5,-621 437.5,-615 443.5,-609 449.5,-609 449.5,-609 484.5,-609 484.5,-609 490.5,-609 496.5,-615 496.5,-621 496.5,-621 496.5,-633 496.5,-633 496.5,-639 490.5,-645 484.5,-645"/><text x="467" y="-623.3" font-family="Times,serif" font-size="14" text-anchor="middle">Giansar</text></g><g id="edge1" class="edge"><title>Sadayoshi-&gt;Giansar</title><path fill="none" stroke="#000" d="M503.76,-696.11C496.06,-691.16 488.59,-685.13 483,-678 477.78,-671.34 474.24,-662.94 471.85,-654.93"/><polygon fill="#000" stroke="#000" points="475.23 -654.01 469.4 -645.16 468.44 -655.72 475.23 -654.01"/><text x="504.5" y="-666.8" font-family="Times,serif" font-size="14" text-anchor="middle">63.64%</text></g><g id="node3" class="node"><title>Roudin</title><path fill="none" stroke="#000" d="M436,-123C436,-123 404,-123 404,-123 398,-123 392,-117 392,-111 392,-111 392,-99 392,-99 392,-93 398,-87 404,-87 404,-87 436,-87 436,-87 442,-87 448,-93 448,-99 448,-99 448,-111 448,-111 448,-117 442,-123 436,-123"/><text x="420" y="-101.3" font-family="Times,serif" font-size="14" text-anchor="middle">Roudin</text></g><g id="edge2" class="edge"><title>Sadayoshi-&gt;Roudin</title><path fill="none" stroke="#000" d="M576.05,-705.2C613.6,-694.71 667,-672.04 667,-628 667,-628 667,-628 667,-191 667,-147.43 527.86,-121.38 458.45,-111.1"/><polygon fill="#000" stroke="#000" points="458.73 -107.6 448.33 -109.64 457.73 -114.53 458.73 -107.6"/><text x="688.5" y="-405.8" font-family="Times,serif" font-size="14" text-anchor="middle">63.64%</text></g><g id="node4" class="node"><title>Monomasa</title><path fill="none" stroke="#000" d="M491,-471C491,-471 437,-471 437,-471 431,-471 425,-465 425,-459 425,-459 425,-447 425,-447 425,-441 431,-435 437,-435 437,-435 491,-435 491,-435 497,-435 503,-441 503,-447 503,-447 503,-459 503,-459 503,-465 497,-471 491,-471"/><text x="464" y="-449.3" font-family="Times,serif" font-size="14" text-anchor="middle">Monomasa</text></g><g id="edge3" class="edge"><title>Sadayoshi-&gt;Monomasa</title><path fill="none" stroke="#000" d="M548.33,-695.95C550.64,-690.36 552.84,-684.04 554,-678 555.26,-671.45 554.96,-669.6 554,-663 542.32,-583.14 544.77,-557.45 502,-489 499.7,-485.32 496.91,-481.78 493.91,-478.46"/><polygon fill="#000" stroke="#000" points="496.15 -475.76 486.61 -471.15 491.2 -480.7 496.15 -475.76"/><text x="565.5" y="-579.8" font-family="Times,serif" font-size="14" text-anchor="middle">60.00%</text></g><g id="node5" class="node"><title>Theoreol</title><path fill="none" stroke="#000" d="M380.5,-36C380.5,-36 339.5,-36 339.5,-36 333.5,-36 327.5,-30 327.5,-24 327.5,-24 327.5,-12 327.5,-12 327.5,-6 333.5,0 339.5,0 339.5,0 380.5,0 380.5,0 386.5,0 392.5,-6 392.5,-12 392.5,-12 392.5,-24 392.5,-24 392.5,-30 386.5,-36 380.5,-36"/><text x="360" y="-14.3" font-family="Times,serif" font-size="14" text-anchor="middle">Theoreol</text></g><g id="edge4" class="edge"><title>Sadayoshi-&gt;Theoreol</title><path fill="none" stroke="#000" d="M576.11,-712.02C629.95,-708.41 725,-692.86 725,-628 725,-628 725,-628 725,-104 725,-38.48 499.07,-23.44 402.71,-20.01"/><polygon fill="#000" stroke="#000" points="402.82 -16.51 392.71 -19.68 402.59 -23.51 402.82 -16.51"/><text x="746.5" y="-362.3" font-family="Times,serif" font-size="14" text-anchor="middle">58.33%</text></g><g id="node6" class="node"><title>Tsuneaki</title><path fill="none" stroke="#000" d="M293.5,-384C293.5,-384 252.5,-384 252.5,-384 246.5,-384 240.5,-378 240.5,-372 240.5,-372 240.5,-360 240.5,-360 240.5,-354 246.5,-348 252.5,-348 252.5,-348 293.5,-348 293.5,-348 299.5,-348 305.5,-354 305.5,-360 305.5,-360 305.5,-372 305.5,-372 305.5,-378 299.5,-384 293.5,-384"/><text x="273" y="-362.3" font-family="Times,serif" font-size="14" text-anchor="middle">Tsuneaki</text></g><g id="edge5" class="edge"><title>Sadayoshi-&gt;Tsuneaki</title><path fill="none" stroke="#000" d="M503.97,-713.07C404.61,-712.29 134,-703.25 134,-628 134,-628 134,-628 134,-452 134,-406.14 189.75,-384.27 230.64,-374.41"/><polygon fill="#000" stroke="#000" points="231.43 -377.82 240.41 -372.2 229.89 -370.99 231.43 -377.82"/><text x="155.5" y="-536.3" font-family="Times,serif" font-size="14" text-anchor="middle">54.55%</text></g><g id="node7" class="node"><title>Player</title><path fill="none" stroke="#000" d="M378,-210C378,-210 348,-210 348,-210 342,-210 336,-204 336,-198 336,-198 336,-186 336,-186 336,-180 342,-174 348,-174 348,-174 378,-174 378,-174 384,-174 390,-180 390,-186 390,-186 390,-198 390,-198 390,-204 384,-210 378,-210"/><text x="363" y="-188.3" font-family="Times,serif" font-size="14" text-anchor="middle">Player</text></g><g id="edge6" class="edge"><title>Sadayoshi-&gt;Player</title><path fill="none" stroke="#000" d="M541.81,-695.6C544.66,-669.49 550.73,-618.67 559,-576 588.48,-423.85 693.51,-334.58 581,-228 555.57,-203.92 455.38,-196.38 400.11,-194.04"/><polygon fill="#000" stroke="#000" points="400.14 -190.54 390.01 -193.65 399.87 -197.54 400.14 -190.54"/><text x="627.5" y="-449.3" font-family="Times,serif" font-size="14" text-anchor="middle">54.55%</text></g><g id="node8" class="node"><title>Akashi</title><path fill="none" stroke="#000" d="M137.5,-210C137.5,-210 106.5,-210 106.5,-210 100.5,-210 94.5,-204 94.5,-198 94.5,-198 94.5,-186 94.5,-186 94.5,-180 100.5,-174 106.5,-174 106.5,-174 137.5,-174 137.5,-174 143.5,-174 149.5,-180 149.5,-186 149.5,-186 149.5,-198 149.5,-198 149.5,-204 143.5,-210 137.5,-210"/><text x="122" y="-188.3" font-family="Times,serif" font-size="14" text-anchor="middle">Akashi</text></g><g id="edge7" class="edge"><title>Sadayoshi-&gt;Akashi</title><path fill="none" stroke="#000" d="M503.73,-711.13C382.66,-704.41 0,-679.13 0,-628 0,-628 0,-628 0,-321.5 0,-294.9 55.66,-245.61 91.79,-216.41"/><polygon fill="#000" stroke="#000" points="94 -219.13 99.62 -210.15 89.63 -213.66 94 -219.13"/><text x="21.5" y="-449.3" font-family="Times,serif" font-size="14" text-anchor="middle">53.85%</text></g><g id="edge28" class="edge"><title>Giansar-&gt;Roudin</title><path fill="none" stroke="#000" d="M489.28,-608.93C494.81,-603.72 500.22,-597.6 504,-591 513.85,-573.78 581.76,-262.71 584,-243 584.75,-236.38 586.99,-233.96 584,-228 557.67,-175.6 497,-140.01 457.29,-121.37"/><polygon fill="#000" stroke="#000" points="458.72 -118.18 448.17 -117.21 455.82 -124.55 458.72 -118.18"/><text x="584.5" y="-362.3" font-family="Times,serif" font-size="14" text-anchor="middle">54.55%</text></g><g id="edge27" class="edge"><title>Giansar-&gt;Akashi</title><path fill="none" stroke="#000" d="M437.45,-619.65C364.59,-602.21 176.8,-546.03 102,-417 65.48,-354.01 92.78,-263.94 110.3,-219.65"/><polygon fill="#000" stroke="#000" points="113.63 -220.75 114.18 -210.17 107.15 -218.1 113.63 -220.75"/><text x="123.5" y="-405.8" font-family="Times,serif" font-size="14" text-anchor="middle">54.55%</text></g><g id="node10" class="node"><title>Pubraseer</title><path fill="none" stroke="#000" d="M466,-558C466,-558 420,-558 420,-558 414,-558 408,-552 408,-546 408,-546 408,-534 408,-534 408,-528 414,-522 420,-522 420,-522 466,-522 466,-522 472,-522 478,-528 478,-534 478,-534 478,-546 478,-546 478,-552 472,-558 466,-558"/><text x="443" y="-536.3" font-family="Times,serif" font-size="14" text-anchor="middle">Pubraseer</text></g><g id="edge26" class="edge"><title>Giansar-&gt;Pubraseer</title><path fill="none" stroke="#000" d="M462.14,-608.8C458.83,-597.05 454.36,-581.24 450.58,-567.84"/><polygon fill="#000" stroke="#000" points="453.94 -566.85 447.85 -558.18 447.2 -568.75 453.94 -566.85"/><text x="478.5" y="-579.8" font-family="Times,serif" font-size="14" text-anchor="middle">60.00%</text></g><g id="edge29" class="edge"><title>Roudin-&gt;Theoreol</title><path fill="none" stroke="#000" d="M407.86,-86.8C399.32,-74.7 387.74,-58.3 378.12,-44.67"/><polygon fill="#000" stroke="#000" points="380.75 -42.33 372.12 -36.18 375.03 -46.36 380.75 -42.33"/><text x="415.5" y="-57.8" font-family="Times,serif" font-size="14" text-anchor="middle">54.55%</text></g><g id="edge20" class="edge"><title>Monomasa-&gt;Roudin</title><path fill="none" stroke="#000" d="M464.13,-434.8C464.08,-387.2 461.2,-250.06 432,-141 431.29,-138.36 430.49,-135.62 429.64,-132.91"/><polygon fill="#000" stroke="#000" points="432.92 -131.69 426.46 -123.3 426.28 -133.89 432.92 -131.69"/><text x="479.5" y="-275.3" font-family="Times,serif" font-size="14" text-anchor="middle">53.85%</text></g><g id="edge19" class="edge"><title>Monomasa-&gt;Theoreol</title><path fill="none" stroke="#000" d="M474.15,-434.79C494.21,-399.11 537,-313.92 537,-236.5 537,-236.5 537,-236.5 537,-104 537,-44.72 455.32,-26.75 402.93,-21.33"/><polygon fill="#000" stroke="#000" points="403.16 -17.83 392.88 -20.4 402.51 -24.8 403.16 -17.83"/><text x="558.5" y="-231.8" font-family="Times,serif" font-size="14" text-anchor="middle">53.85%</text></g><g id="edge18" class="edge"><title>Monomasa-&gt;Tsuneaki</title><path fill="none" stroke="#000" d="M424.54,-440.09C405.62,-433.93 382.82,-425.86 363,-417 344.99,-408.95 325.79,-398.55 309.76,-389.32"/><polygon fill="#000" stroke="#000" points="311.13 -386.07 300.73 -384.05 307.6 -392.11 311.13 -386.07"/><text x="384.5" y="-405.8" font-family="Times,serif" font-size="14" text-anchor="middle">55.56%</text></g><g id="edge17" class="edge"><title>Monomasa-&gt;Akashi</title><path fill="none" stroke="#000" d="M446.26,-434.97C435.17,-424.77 420.32,-411.91 406,-402 392.26,-392.49 387.47,-392.35 373,-384 346.4,-368.64 342.76,-358.79 314,-348 269.67,-331.37 246.25,-359.22 209,-330 182.69,-309.36 197.82,-288.64 179,-261 172.63,-251.65 168.49,-251.48 161,-243 154.07,-235.16 146.92,-226.26 140.65,-218.16"/><polygon fill="#000" stroke="#000" points="143.35 -215.91 134.5 -210.08 137.78 -220.16 143.35 -215.91"/><text x="230.5" y="-318.8" font-family="Times,serif" font-size="14" text-anchor="middle">58.33%</text></g><g id="edge11" class="edge"><title>Tsuneaki-&gt;Roudin</title><path fill="none" stroke="#000" d="M305.56,-348.44C326,-336.58 351.52,-318.87 368,-297 405.33,-247.48 415.87,-172.87 418.84,-133.14"/><polygon fill="#000" stroke="#000" points="422.33 -133.35 419.48 -123.14 415.35 -132.9 422.33 -133.35"/><text x="423.5" y="-231.8" font-family="Times,serif" font-size="14" text-anchor="middle">58.33%</text></g><g id="edge12" class="edge"><title>Tsuneaki-&gt;Theoreol</title><path fill="none" stroke="#000" d="M240.36,-361.47C213.13,-357.32 174.2,-348.48 145,-330 74.79,-285.57 -2.04,-244.45 42,-174 103.12,-76.21 245.66,-38.49 317.29,-25.32"/><polygon fill="#000" stroke="#000" points="318.09 -28.74 327.33 -23.56 316.88 -21.84 318.09 -28.74"/><text x="63.5" y="-188.3" font-family="Times,serif" font-size="14" text-anchor="middle">53.85%</text></g><g id="edge10" class="edge"><title>Tsuneaki-&gt;Player</title><path fill="none" stroke="#000" d="M290.06,-347.87C294.74,-342.48 299.49,-336.29 303,-330 318.68,-301.89 309.52,-289.22 325,-261 330.01,-251.87 334.44,-251.81 340,-243 344.59,-235.73 348.79,-227.39 352.32,-219.63"/><polygon fill="#000" stroke="#000" points="355.62 -220.81 356.4 -210.24 349.2 -218.02 355.62 -220.81"/><text x="346.5" y="-275.3" font-family="Times,serif" font-size="14" text-anchor="middle">58.33%</text></g><g id="edge9" class="edge"><title>Tsuneaki-&gt;Akashi</title><path fill="none" stroke="#000" d="M240.34,-359.98C206.52,-352.75 155.89,-335.74 136,-297 123.76,-273.15 120.96,-242.36 120.8,-220.49"/><polygon fill="#000" stroke="#000" points="124.3 -220.28 120.91 -210.24 117.3 -220.2 124.3 -220.28"/><text x="157.5" y="-275.3" font-family="Times,serif" font-size="14" text-anchor="middle">58.33%</text></g><g id="node9" class="node"><title>Exio</title><path fill="none" stroke="#000" d="M263,-297C263,-297 233,-297 233,-297 227,-297 221,-291 221,-285 221,-285 221,-273 221,-273 221,-267 227,-261 233,-261 233,-261 263,-261 263,-261 269,-261 275,-267 275,-273 275,-273 275,-285 275,-285 275,-291 269,-297 263,-297"/><text x="248" y="-275.3" font-family="Times,serif" font-size="14" text-anchor="middle">Exio</text></g><g id="edge8" class="edge"><title>Tsuneaki-&gt;Exio</title><path fill="none" stroke="#000" d="M266.1,-347.69C264,-342.1 261.77,-335.83 260,-330 257.77,-322.69 255.69,-314.67 253.91,-307.24"/><polygon fill="#000" stroke="#000" points="257.27 -306.22 251.61 -297.26 250.45 -307.79 257.27 -306.22"/><text x="281.5" y="-318.8" font-family="Times,serif" font-size="14" text-anchor="middle">58.33%</text></g><g id="edge24" class="edge"><title>Player-&gt;Roudin</title><path fill="none" stroke="#000" d="M359,-173.74C357.58,-163.59 357.49,-150.85 363,-141 367.62,-132.74 375.08,-126.19 383.1,-121.1"/><polygon fill="#000" stroke="#000" points="384.92 -124.09 391.91 -116.14 381.48 -117.99 384.92 -124.09"/><text x="384.5" y="-144.8" font-family="Times,serif" font-size="14" text-anchor="middle">55.56%</text></g><g id="edge25" class="edge"><title>Player-&gt;Theoreol</title><path fill="none" stroke="#000" d="M355.43,-173.79C349.92,-160.28 342.93,-140.83 340,-123 335.66,-96.65 342.69,-66.73 349.57,-45.76"/><polygon fill="#000" stroke="#000" points="352.9 -46.84 352.89 -36.25 346.29 -44.54 352.9 -46.84"/><text x="361.5" y="-101.3" font-family="Times,serif" font-size="14" text-anchor="middle">54.55%</text></g><g id="edge13" class="edge"><title>Exio-&gt;Roudin</title><path fill="none" stroke="#000" d="M249.89,-260.89C253.19,-238.48 261.9,-199.09 284,-174 315.65,-138.06 338.41,-144.93 382.76,-124.89"/><polygon fill="#000" stroke="#000" points="384.42 -127.97 391.93 -120.5 381.4 -121.66 384.42 -127.97"/><text x="305.5" y="-188.3" font-family="Times,serif" font-size="14" text-anchor="middle">63.64%</text></g><g id="edge16" class="edge"><title>Exio-&gt;Theoreol</title><path fill="none" stroke="#000" d="M245.98,-260.8C243.55,-234.08 241.63,-181.45 258,-141 273.89,-101.74 307.36,-65.73 331.64,-43.17"/><polygon fill="#000" stroke="#000" points="334.12 -45.64 339.16 -36.32 329.41 -40.46 334.12 -45.64"/><text x="279.5" y="-144.8" font-family="Times,serif" font-size="14" text-anchor="middle">53.85%</text></g><g id="edge15" class="edge"><title>Exio-&gt;Player</title><path fill="none" stroke="#000" d="M262.3,-260.93C271.52,-250.59 284.15,-237.6 297,-228 306.15,-221.17 316.81,-214.89 326.86,-209.6"/><polygon fill="#000" stroke="#000" points="328.53 -212.68 335.87 -205.03 325.36 -206.44 328.53 -212.68"/><text x="318.5" y="-231.8" font-family="Times,serif" font-size="14" text-anchor="middle">54.55%</text></g><g id="edge14" class="edge"><title>Exio-&gt;Akashi</title><path fill="none" stroke="#000" d="M220.81,-265.51C208.31,-259.34 193.52,-251.42 181,-243 169.48,-235.25 157.65,-225.61 147.63,-216.87"/><polygon fill="#000" stroke="#000" points="149.82 -214.13 140.02 -210.1 145.17 -219.36 149.82 -214.13"/><text x="202.5" y="-231.8" font-family="Times,serif" font-size="14" text-anchor="middle">58.33%</text></g><g id="edge22" class="edge"><title>Pubraseer-&gt;Monomasa</title><path fill="none" stroke="#000" d="M447.25,-521.8C450.12,-510.16 453.98,-494.55 457.27,-481.24"/><polygon fill="#000" stroke="#000" points="460.76 -481.72 459.76 -471.18 453.96 -480.04 460.76 -481.72"/><text x="476.5" y="-492.8" font-family="Times,serif" font-size="14" text-anchor="middle">55.56%</text></g><g id="edge21" class="edge"><title>Pubraseer-&gt;Tsuneaki</title><path fill="none" stroke="#000" d="M410.63,-521.86C400.93,-516.42 390.38,-510.2 381,-504 360.91,-490.71 354.2,-488.83 338,-471 316.43,-447.25 297.73,-415.42 285.99,-393.26"/><polygon fill="#000" stroke="#000" points="288.96 -391.38 281.26 -384.11 282.75 -394.6 288.96 -391.38"/><text x="359.5" y="-449.3" font-family="Times,serif" font-size="14" text-anchor="middle">60.00%</text></g><g id="edge23" class="edge"><title>Pubraseer-&gt;Player</title><path fill="none" stroke="#000" d="M435.2,-521.99C429.23,-508.42 421.18,-488.81 416,-471 389.78,-380.9 373.18,-270.51 366.45,-220.25"/><polygon fill="#000" stroke="#000" points="369.9 -219.65 365.12 -210.19 362.96 -220.56 369.9 -219.65"/><text x="416.5" y="-362.3" font-family="Times,serif" font-size="14" text-anchor="middle">54.55%</text></g></g></svg>