<svg xmlns="http://www.w3.org/2000/svg" xmlns:xlink="http://www.w3.org/1999/xlink" width="1072pt" height="827pt" viewBox="0 0 1072 827"><g id="graph0" class="graph" transform="scale(1 1) rotate(0) translate(4 823)"><title>G</title><polygon fill="#fff" stroke="transparent" points="-4 4 -4 -823 1068 -823 1068 4 -4 4"/><g id="node1" class="node"><title>Pubraseer</title><path fill="none" stroke="#000" d="M486,-819C486,-819 440,-819 440,-819 434,-819 428,-813 428,-807 428,-807 428,-795 428,-795 428,-789 434,-783 440,-783 440,-783 486,-783 486,-783 492,-783 498,-789 498,-795 498,-795 498,-807 498,-807 498,-813 492,-819 486,-819"/><text x="463" y="-797.3" font-family="Times,serif" font-size="14" text-anchor="middle">Pubraseer</text></g><g id="node2" class="node"><title>Toshu</title><path fill="none" stroke="#000" d="M257,-471C257,-471 227,-471 227,-471 221,-471 215,-465 215,-459 215,-459 215,-447 215,-447 215,-441 221,-435 227,-435 227,-435 257,-435 257,-435 263,-435 269,-441 269,-447 269,-447 269,-459 269,-459 269,-465 263,-471 257,-471"/><text x="242" y="-449.3" font-family="Times,serif" font-size="14" text-anchor="middle">Toshu</text></g><g id="edge1" class="edge"><title>Pubraseer-&gt;Toshu</title><path fill="none" stroke="#000" d="M427.98,-796.41C354.92,-787.95 193,-763.71 193,-715 193,-715 193,-715 193,-539 193,-516.66 205.86,-494.9 218.4,-478.99"/><polygon fill="#000" stroke="#000" points="221.15 -481.16 224.86 -471.24 215.77 -476.68 221.15 -481.16"/><text x="214.5" y="-623.3" font-family="Times,serif" font-size="14" text-anchor="middle">90.57%</text></g><g id="node3" class="node"><title>Obsidius</title><path fill="none" stroke="#000" d="M272.5,-123C272.5,-123 231.5,-123 231.5,-123 225.5,-123 219.5,-117 219.5,-111 219.5,-111 219.5,-99 219.5,-99 219.5,-93 225.5,-87 231.5,-87 231.5,-87 272.5,-87 272.5,-87 278.5,-87 284.5,-93 284.5,-99 284.5,-99 284.5,-111 284.5,-111 284.5,-117 278.5,-123 272.5,-123"/><text x="252" y="-101.3" font-family="Times,serif" font-size="14" text-anchor="middle">Obsidius</text></g><g id="edge2" class="edge"><title>Pubraseer-&gt;Obsidius</title><path fill="none" stroke="#000" d="M427.81,-800.27C327.27,-800.1 46,-792.67 46,-715 46,-715 46,-715 46,-495.5 46,-345.05 92.18,-312.05 152,-174 158.64,-158.67 157.63,-152.23 170,-141 181.16,-130.87 195.69,-123.38 209.41,-117.99"/><polygon fill="#000" stroke="#000" points="211 -121.13 219.21 -114.43 208.61 -114.56 211 -121.13"/><text x="69.5" y="-449.3" font-family="Times,serif" font-size="14" text-anchor="middle">88.24%</text></g><g id="node4" class="node"><title>reXer</title><path fill="none" stroke="#000" d="M574,-297C574,-297 544,-297 544,-297 538,-297 532,-291 532,-285 532,-285 532,-273 532,-273 532,-267 538,-261 544,-261 544,-261 574,-261 574,-261 580,-261 586,-267 586,-273 586,-273 586,-285 586,-285 586,-291 580,-297 574,-297"/><text x="559" y="-275.3" font-family="Times,serif" font-size="14" text-anchor="middle">reXer</text></g><g id="edge3" class="edge"><title>Pubraseer-&gt;reXer</title><path fill="none" stroke="#000" d="M466.14,-782.99C480.11,-707.31 536.71,-400.74 553.98,-307.22"/><polygon fill="#000" stroke="#000" points="557.46 -307.61 555.84 -297.14 550.58 -306.34 557.46 -307.61"/><text x="534.5" y="-536.3" font-family="Times,serif" font-size="14" text-anchor="middle">80.36%</text></g><g id="node5" class="node"><title>Gammei</title><path fill="none" stroke="#000" d="M579.5,-36C579.5,-36 538.5,-36 538.5,-36 532.5,-36 526.5,-30 526.5,-24 526.5,-24 526.5,-12 526.5,-12 526.5,-6 532.5,0 538.5,0 538.5,0 579.5,0 579.5,0 585.5,0 591.5,-6 591.5,-12 591.5,-12 591.5,-24 591.5,-24 591.5,-30 585.5,-36 579.5,-36"/><text x="559" y="-14.3" font-family="Times,serif" font-size="14" text-anchor="middle">Gammei</text></g><g id="edge4" class="edge"><title>Pubraseer-&gt;Gammei</title><path fill="none" stroke="#000" d="M427.82,-799.22C344.12,-797 135.2,-789.14 70,-765 34.15,-751.73 0,-753.23 0,-715 0,-715 0,-715 0,-104 0,-51.85 385.15,-27.71 516.06,-21.01"/><polygon fill="#000" stroke="#000" points="516.31 -24.5 526.12 -20.51 515.96 -17.51 516.31 -24.5"/><text x="21.5" y="-405.8" font-family="Times,serif" font-size="14" text-anchor="middle">79.31%</text></g><g id="node6" class="node"><title>Sadayoshi</title><path fill="none" stroke="#000" d="M666,-210C666,-210 618,-210 618,-210 612,-210 606,-204 606,-198 606,-198 606,-186 606,-186 606,-180 612,-174 618,-174 618,-174 666,-174 666,-174 672,-174 678,-180 678,-186 678,-186 678,-198 678,-198 678,-204 672,-210 666,-210"/><text x="642" y="-188.3" font-family="Times,serif" font-size="14" text-anchor="middle">Sadayoshi</text></g><g id="edge5" class="edge"><title>Pubraseer-&gt;Sadayoshi</title><path fill="none" stroke="#000" d="M498.33,-797.97C615.37,-790.76 983,-764.23 983,-715 983,-715 983,-715 983,-495.5 983,-339.38 780.52,-244.25 687.61,-208.81"/><polygon fill="#000" stroke="#000" points="688.76 -205.5 678.17 -205.27 686.31 -212.06 688.76 -205.5"/><text x="1004.5" y="-492.8" font-family="Times,serif" font-size="14" text-anchor="middle">78.95%</text></g><g id="node7" class="node"><title>Barrel</title><path fill="none" stroke="#000" d="M594,-732C594,-732 564,-732 564,-732 558,-732 552,-726 552,-720 552,-720 552,-708 552,-708 552,-702 558,-696 564,-696 564,-696 594,-696 594,-696 600,-696 606,-702 606,-708 606,-708 606,-720 606,-720 606,-726 600,-732 594,-732"/><text x="579" y="-710.3" font-family="Times,serif" font-size="14" text-anchor="middle">Barrel</text></g><g id="edge6" class="edge"><title>Pubraseer-&gt;Barrel</title><path fill="none" stroke="#000" d="M486.47,-782.8C504.01,-769.95 528.15,-752.26 547.38,-738.17"/><polygon fill="#000" stroke="#000" points="549.56 -740.91 555.56 -732.18 545.43 -735.26 549.56 -740.91"/><text x="548.5" y="-753.8" font-family="Times,serif" font-size="14" text-anchor="middle">76.36%</text></g><g id="node8" class="node"><title>Akashi</title><path fill="none" stroke="#000" d="M658.5,-384C658.5,-384 627.5,-384 627.5,-384 621.5,-384 615.5,-378 615.5,-372 615.5,-372 615.5,-360 615.5,-360 615.5,-354 621.5,-348 627.5,-348 627.5,-348 658.5,-348 658.5,-348 664.5,-348 670.5,-354 670.5,-360 670.5,-360 670.5,-372 670.5,-372 670.5,-378 664.5,-384 658.5,-384"/><text x="643" y="-362.3" font-family="Times,serif" font-size="14" text-anchor="middle">Akashi</text></g><g id="edge7" class="edge"><title>Pubraseer-&gt;Akashi</title><path fill="none" stroke="#000" d="M498.15,-798.66C547.26,-795.99 638.71,-788.09 713,-765 744.32,-755.27 750.94,-748.97 779,-732 814.15,-710.75 835.27,-714.56 854,-678 864.94,-656.65 945.91,-567.78 774,-402 749.17,-378.06 709.86,-370.06 680.77,-367.59"/><polygon fill="#000" stroke="#000" points="680.77 -364.09 670.56 -366.92 680.31 -371.07 680.77 -364.09"/><text x="903.5" y="-579.8" font-family="Times,serif" font-size="14" text-anchor="middle">75.86%</text></g><g id="node9" class="node"><title>Monomasa</title><path fill="none" stroke="#000" d="M413,-645C413,-645 359,-645 359,-645 353,-645 347,-639 347,-633 347,-633 347,-621 347,-621 347,-615 353,-609 359,-609 359,-609 413,-609 413,-609 419,-609 425,-615 425,-621 425,-621 425,-633 425,-633 425,-639 419,-645 413,-645"/><text x="386" y="-623.3" font-family="Times,serif" font-size="14" text-anchor="middle">Monomasa</text></g><g id="edge8" class="edge"><title>Pubraseer-&gt;Monomasa</title><path fill="none" stroke="#000" d="M444.2,-782.76C431.44,-769.99 415.26,-751.48 406,-732 394.38,-707.57 389.51,-676.86 387.47,-655.17"/><polygon fill="#000" stroke="#000" points="390.95 -654.71 386.66 -645.02 383.97 -655.27 390.95 -654.71"/><text x="427.5" y="-710.3" font-family="Times,serif" font-size="14" text-anchor="middle">68.42%</text></g><g id="node10" class="node"><title>Giansar</title><path fill="none" stroke="#000" d="M733.5,-558C733.5,-558 698.5,-558 698.5,-558 692.5,-558 686.5,-552 686.5,-546 686.5,-546 686.5,-534 686.5,-534 686.5,-528 692.5,-522 698.5,-522 698.5,-522 733.5,-522 733.5,-522 739.5,-522 745.5,-528 745.5,-534 745.5,-534 745.5,-546 745.5,-546 745.5,-552 739.5,-558 733.5,-558"/><text x="716" y="-536.3" font-family="Times,serif" font-size="14" text-anchor="middle">Giansar</text></g><g id="edge9" class="edge"><title>Pubraseer-&gt;Giansar</title><path fill="none" stroke="#000" d="M498.03,-799.66C569.57,-796.83 731.54,-779.01 801,-678 827.72,-639.14 782.45,-592.09 748.37,-564.46"/><polygon fill="#000" stroke="#000" points="750.46 -561.64 740.44 -558.2 746.12 -567.14 750.46 -561.64"/><text x="828.5" y="-666.8" font-family="Times,serif" font-size="14" text-anchor="middle">64.91%</text></g><g id="edge36" class="edge"><title>Toshu-&gt;Obsidius</title><path fill="none" stroke="#000" d="M244.17,-434.99C247.11,-410.42 252,-363.55 252,-323.5 252,-323.5 252,-323.5 252,-191 252,-171.75 252,-150.05 252,-133.4"/><polygon fill="#000" stroke="#000" points="255.5 -133.26 252 -123.26 248.5 -133.26 255.5 -133.26"/><text x="273.5" y="-275.3" font-family="Times,serif" font-size="14" text-anchor="middle">51.43%</text></g><g id="edge38" class="edge"><title>Toshu-&gt;reXer</title><path fill="none" stroke="#000" d="M260.39,-434.83C292.27,-405.95 360.96,-347.63 429,-315 458.68,-300.77 495.04,-291.6 521.75,-286.24"/><polygon fill="#000" stroke="#000" points="522.68 -289.62 531.84 -284.3 521.36 -282.75 522.68 -289.62"/><text x="391.5" y="-362.3" font-family="Times,serif" font-size="14" text-anchor="middle">51.28%</text></g><g id="edge37" class="edge"><title>Toshu-&gt;Gammei</title><path fill="none" stroke="#000" d="M216.74,-435C199.15,-422.33 175.91,-403.85 159,-384 85.53,-297.76 16.55,-233.48 82,-141 117.9,-90.27 153.36,-110.25 211,-87 248.58,-71.84 256.75,-64.08 296,-54 371.97,-34.5 463.23,-25.45 515.83,-21.58"/><polygon fill="#000" stroke="#000" points="516.4 -25.05 526.13 -20.86 515.91 -18.07 516.4 -25.05"/><text x="80.5" y="-231.8" font-family="Times,serif" font-size="14" text-anchor="middle">51.35%</text></g><g id="edge35" class="edge"><title>Toshu-&gt;Akashi</title><path fill="none" stroke="#000" d="M269.25,-446.22C339.17,-431.4 525.11,-391.99 605.31,-374.99"/><polygon fill="#000" stroke="#000" points="606.39 -378.34 615.45 -372.84 604.94 -371.49 606.39 -378.34"/><text x="487.5" y="-405.8" font-family="Times,serif" font-size="14" text-anchor="middle">52.38%</text></g><g id="edge39" class="edge"><title>Obsidius-&gt;Gammei</title><path fill="none" stroke="#000" d="M273.2,-86.92C288.19,-75.75 309.23,-61.84 330,-54 392.09,-30.57 469.29,-22.8 516.32,-20.24"/><polygon fill="#000" stroke="#000" points="516.63 -23.73 526.45 -19.74 516.29 -16.74 516.63 -23.73"/><text x="351.5" y="-57.8" font-family="Times,serif" font-size="14" text-anchor="middle">51.35%</text></g><g id="edge34" class="edge"><title>reXer-&gt;Gammei</title><path fill="none" stroke="#000" d="M559,-260.6C559,-216.46 559,-99.83 559,-46.42"/><polygon fill="#000" stroke="#000" points="562.5 -46.32 559 -36.32 555.5 -46.32 562.5 -46.32"/><text x="580.5" y="-144.8" font-family="Times,serif" font-size="14" text-anchor="middle">56.10%</text></g><g id="edge33" class="edge"><title>reXer-&gt;Sadayoshi</title><path fill="none" stroke="#000" d="M568.67,-260.68C574.84,-250.5 583.46,-237.76 593,-228 596.97,-223.93 601.47,-220.02 606.09,-216.37"/><polygon fill="#000" stroke="#000" points="608.53 -218.91 614.44 -210.12 604.34 -213.3 608.53 -218.91"/><text x="614.5" y="-231.8" font-family="Times,serif" font-size="14" text-anchor="middle">60.00%</text></g><g id="edge32" class="edge"><title>Sadayoshi-&gt;Obsidius</title><path fill="none" stroke="#000" d="M605.66,-183.08C533.27,-167.3 371.42,-132.03 294.36,-115.23"/><polygon fill="#000" stroke="#000" points="295.02 -111.79 284.51 -113.08 293.53 -118.63 295.02 -111.79"/><text x="491.5" y="-144.8" font-family="Times,serif" font-size="14" text-anchor="middle">52.38%</text></g><g id="edge31" class="edge"><title>Sadayoshi-&gt;Gammei</title><path fill="none" stroke="#000" d="M633.74,-173.88C619.2,-143.74 588.94,-81.04 571.72,-45.35"/><polygon fill="#000" stroke="#000" points="574.73 -43.54 567.23 -36.05 568.42 -46.58 574.73 -43.54"/><text x="629.5" y="-101.3" font-family="Times,serif" font-size="14" text-anchor="middle">53.49%</text></g><g id="edge20" class="edge"><title>Barrel-&gt;Toshu</title><path fill="none" stroke="#000" d="M551.9,-708.49C506.12,-700.2 411.33,-680.1 338,-645 300.62,-627.11 283.68,-626.31 262,-591 241.37,-557.4 238.96,-510.61 239.9,-481.32"/><polygon fill="#000" stroke="#000" points="243.41 -481.18 240.39 -471.02 236.42 -480.85 243.41 -481.18"/><text x="283.5" y="-579.8" font-family="Times,serif" font-size="14" text-anchor="middle">63.64%</text></g><g id="edge18" class="edge"><title>Barrel-&gt;Obsidius</title><path fill="none" stroke="#000" d="M552,-709.39C463.11,-697.37 184.53,-658.76 171,-645 97.62,-570.36 131.23,-272.37 167,-174 172.94,-157.66 175.31,-152.88 188,-141 194.58,-134.84 202.46,-129.4 210.39,-124.75"/><polygon fill="#000" stroke="#000" points="212.23 -127.73 219.31 -119.85 208.86 -121.6 212.23 -127.73"/><text x="149.5" y="-405.8" font-family="Times,serif" font-size="14" text-anchor="middle">65.12%</text></g><g id="edge19" class="edge"><title>Barrel-&gt;reXer</title><path fill="none" stroke="#000" d="M578.2,-695.76C575.13,-629.22 564.03,-388.84 560.26,-307.28"/><polygon fill="#000" stroke="#000" points="563.76 -307.12 559.8 -297.29 556.76 -307.44 563.76 -307.12"/><text x="590.5" y="-492.8" font-family="Times,serif" font-size="14" text-anchor="middle">64.10%</text></g><g id="edge21" class="edge"><title>Barrel-&gt;Gammei</title><path fill="none" stroke="#000" d="M606.35,-712.29C667.4,-710.28 812.69,-702.93 854,-678 936.65,-628.13 911.53,-571.88 961,-489 983.51,-451.29 1021,-454.41 1021,-410.5 1021,-410.5 1021,-410.5 1021,-104 1021,-54.71 969.35,-67.71 922,-54 809.78,-21.5 670.74,-17.67 601.84,-18.06"/><polygon fill="#000" stroke="#000" points="601.77 -14.56 591.8 -18.15 601.83 -21.56 601.77 -14.56"/><text x="1042.5" y="-362.3" font-family="Times,serif" font-size="14" text-anchor="middle">61.36%</text></g><g id="edge17" class="edge"><title>Barrel-&gt;Sadayoshi</title><path fill="none" stroke="#000" d="M606.32,-704.96C670.54,-684.3 829.46,-622.5 880,-504 932.58,-380.7 763.02,-262.86 682.28,-215.2"/><polygon fill="#000" stroke="#000" points="683.77 -212.01 673.36 -210.01 680.24 -218.06 683.77 -212.01"/><text x="910.5" y="-449.3" font-family="Times,serif" font-size="14" text-anchor="middle">71.79%</text></g><g id="edge22" class="edge"><title>Barrel-&gt;Akashi</title><path fill="none" stroke="#000" d="M586.75,-695.81C589.04,-690.22 591.36,-683.93 593,-678 621.38,-575.44 635.51,-449.1 640.65,-394.39"/><polygon fill="#000" stroke="#000" points="644.16 -394.42 641.59 -384.14 637.19 -393.78 644.16 -394.42"/><text x="645.5" y="-536.3" font-family="Times,serif" font-size="14" text-anchor="middle">57.78%</text></g><g id="edge24" class="edge"><title>Barrel-&gt;Monomasa</title><path fill="none" stroke="#000" d="M551.94,-696.59C542.44,-690.78 531.71,-684.15 522,-678 511.69,-671.47 510.05,-668.19 499,-663 478.71,-653.47 455.18,-645.7 434.87,-639.93"/><polygon fill="#000" stroke="#000" points="435.75 -636.54 425.18 -637.26 433.89 -643.29 435.75 -636.54"/><text x="543.5" y="-666.8" font-family="Times,serif" font-size="14" text-anchor="middle">55.81%</text></g><g id="edge23" class="edge"><title>Barrel-&gt;Giansar</title><path fill="none" stroke="#000" d="M606.21,-701.06C617.31,-695.25 629.7,-687.45 639,-678 670.98,-645.5 694.02,-597.05 706.16,-567.33"/><polygon fill="#000" stroke="#000" points="709.42 -568.6 709.86 -558.01 702.92 -566.02 709.42 -568.6"/><text x="707.5" y="-623.3" font-family="Times,serif" font-size="14" text-anchor="middle">57.14%</text></g><g id="edge41" class="edge"><title>Akashi-&gt;reXer</title><path fill="none" stroke="#000" d="M615.38,-348.32C607.68,-342.99 599.62,-336.71 593,-330 585.96,-322.87 579.44,-314.1 574.04,-305.91"/><polygon fill="#000" stroke="#000" points="576.93 -303.94 568.64 -297.35 571.02 -307.68 576.93 -303.94"/><text x="614.5" y="-318.8" font-family="Times,serif" font-size="14" text-anchor="middle">52.78%</text></g><g id="edge40" class="edge"><title>Akashi-&gt;Gammei</title><path fill="none" stroke="#000" d="M670.79,-362.01C730.57,-353.89 866,-325.64 866,-236.5 866,-236.5 866,-236.5 866,-104 866,-49.78 685.91,-28.75 601.59,-21.88"/><polygon fill="#000" stroke="#000" points="601.81 -18.39 591.56 -21.09 601.26 -25.36 601.81 -18.39"/><text x="887.5" y="-188.3" font-family="Times,serif" font-size="14" text-anchor="middle">53.12%</text></g><g id="edge42" class="edge"><title>Akashi-&gt;Sadayoshi</title><path fill="none" stroke="#000" d="M642.9,-347.88C642.73,-318 642.37,-256.11 642.16,-220.27"/><polygon fill="#000" stroke="#000" points="645.66 -220.03 642.1 -210.05 638.66 -220.07 645.66 -220.03"/><text x="663.5" y="-275.3" font-family="Times,serif" font-size="14" text-anchor="middle">52.50%</text></g><g id="edge10" class="edge"><title>Monomasa-&gt;Toshu</title><path fill="none" stroke="#000" d="M353.46,-608.81C333.28,-596.8 308.05,-579.16 291,-558 272.21,-534.68 258.62,-502.98 250.58,-480.72"/><polygon fill="#000" stroke="#000" points="253.87 -479.53 247.28 -471.23 247.26 -481.82 253.87 -479.53"/><text x="312.5" y="-536.3" font-family="Times,serif" font-size="14" text-anchor="middle">75.00%</text></g><g id="edge12" class="edge"><title>Monomasa-&gt;Obsidius</title><path fill="none" stroke="#000" d="M346.62,-611.49C333.04,-605.84 317.99,-598.83 305,-591 284.97,-578.92 279.78,-575.27 264,-558 189.41,-476.4 181,-434.06 181,-323.5 181,-323.5 181,-323.5 181,-191 181,-166.16 199.09,-144.74 217,-129.61"/><polygon fill="#000" stroke="#000" points="219.52 -132.09 225.16 -123.12 215.16 -126.61 219.52 -132.09"/><text x="203.5" y="-362.3" font-family="Times,serif" font-size="14" text-anchor="middle">70.45%</text></g><g id="edge14" class="edge"><title>Monomasa-&gt;reXer</title><path fill="none" stroke="#000" d="M393.73,-608.81C396.01,-603.22 398.34,-596.92 400,-591 409.47,-557.16 410.84,-466.71 426,-435 430.62,-425.34 437.48,-426.7 442,-417 461.36,-375.47 427.72,-350.25 457,-315 472.8,-295.98 499.45,-287.27 521.55,-283.29"/><polygon fill="#000" stroke="#000" points="522.29 -286.72 531.64 -281.74 521.22 -279.8 522.29 -286.72"/><text x="447.5" y="-449.3" font-family="Times,serif" font-size="14" text-anchor="middle">65.85%</text></g><g id="edge13" class="edge"><title>Monomasa-&gt;Gammei</title><path fill="none" stroke="#000" d="M376.21,-608.79C352.64,-565.22 296.35,-446.97 319,-348 341.8,-248.4 357,-222.21 419,-141 449.49,-101.06 494.74,-64.54 525.48,-42.07"/><polygon fill="#000" stroke="#000" points="527.68 -44.8 533.74 -36.11 523.58 -39.12 527.68 -44.8"/><text x="347.5" y="-318.8" font-family="Times,serif" font-size="14" text-anchor="middle">66.67%</text></g><g id="edge11" class="edge"><title>Monomasa-&gt;Sadayoshi</title><path fill="none" stroke="#000" d="M384.32,-608.68C381.75,-587.41 375.61,-550.62 362,-522 357.65,-512.85 351.29,-513.59 348,-504 337.27,-472.71 338.97,-451.78 371,-402 377.84,-391.38 384.33,-393.19 393,-384 418.98,-356.45 415.78,-341.33 443,-315 473.83,-285.18 486.91,-284.19 523,-261 546.66,-245.79 552.61,-242.01 577,-228 584.51,-223.69 592.58,-219.21 600.4,-214.96"/><polygon fill="#000" stroke="#000" points="602.27 -217.93 609.41 -210.1 598.94 -211.77 602.27 -217.93"/><text x="392.5" y="-405.8" font-family="Times,serif" font-size="14" text-anchor="middle">74.42%</text></g><g id="edge15" class="edge"><title>Monomasa-&gt;Akashi</title><path fill="none" stroke="#000" d="M416.53,-608.97C424.12,-603.84 431.83,-597.75 438,-591 472.88,-552.82 460.95,-528.77 494,-489 527.45,-448.76 575.69,-412.12 608.14,-389.72"/><polygon fill="#000" stroke="#000" points="610.14 -392.59 616.43 -384.07 606.2 -386.81 610.14 -392.59"/><text x="515.5" y="-492.8" font-family="Times,serif" font-size="14" text-anchor="middle">64.00%</text></g><g id="edge16" class="edge"><title>Monomasa-&gt;Giansar</title><path fill="none" stroke="#000" d="M425.31,-618.41C480.86,-607.29 585.24,-584.94 672,-558 673.61,-557.5 675.25,-556.97 676.9,-556.42"/><polygon fill="#000" stroke="#000" points="678.11 -559.7 686.37 -553.07 675.78 -553.1 678.11 -559.7"/><text x="623.5" y="-579.8" font-family="Times,serif" font-size="14" text-anchor="middle">56.10%</text></g><g id="edge27" class="edge"><title>Giansar-&gt;Toshu</title><path fill="none" stroke="#000" d="M686.08,-526.06C681.43,-524.45 676.64,-523.02 672,-522 551.52,-495.46 516.14,-527.34 395,-504 354.15,-496.13 309.06,-480.5 278.48,-468.8"/><polygon fill="#000" stroke="#000" points="279.68 -465.51 269.09 -465.15 277.15 -472.04 279.68 -465.51"/><text x="416.5" y="-492.8" font-family="Times,serif" font-size="14" text-anchor="middle">64.29%</text></g><g id="edge26" class="edge"><title>Giansar-&gt;Obsidius</title><path fill="none" stroke="#000" d="M697.52,-521.76C625.27,-454.33 361.7,-208.37 277.82,-130.09"/><polygon fill="#000" stroke="#000" points="279.98 -127.32 270.28 -123.06 275.2 -132.44 279.98 -127.32"/><text x="511.5" y="-318.8" font-family="Times,serif" font-size="14" text-anchor="middle">65.12%</text></g><g id="edge25" class="edge"><title>Giansar-&gt;reXer</title><path fill="none" stroke="#000" d="M723.31,-521.81C731.15,-500.98 741.4,-464.95 733,-435 714.77,-370.03 697.57,-350.2 640,-315 626.2,-306.56 609.99,-299.12 595.72,-293.3"/><polygon fill="#000" stroke="#000" points="596.79 -289.96 586.2 -289.54 594.22 -296.47 596.79 -289.96"/><text x="748.5" y="-405.8" font-family="Times,serif" font-size="14" text-anchor="middle">66.67%</text></g><g id="edge28" class="edge"><title>Giansar-&gt;Gammei</title><path fill="none" stroke="#000" d="M742.84,-521.73C804.31,-481.21 950,-379.28 950,-323.5 950,-323.5 950,-323.5 950,-104 950,-33.38 703.4,-21.32 601.88,-19.35"/><polygon fill="#000" stroke="#000" points="601.72 -15.84 591.66 -19.17 601.6 -22.84 601.72 -15.84"/><text x="971.5" y="-275.3" font-family="Times,serif" font-size="14" text-anchor="middle">62.50%</text></g><g id="edge29" class="edge"><title>Giansar-&gt;Sadayoshi</title><path fill="none" stroke="#000" d="M731.59,-521.79C752.72,-496.33 786.46,-446.79 774,-402 753.37,-327.81 696.81,-254.95 664.83,-218"/><polygon fill="#000" stroke="#000" points="667.24 -215.45 658.02 -210.24 661.99 -220.07 667.24 -215.45"/><text x="789.5" y="-362.3" font-family="Times,serif" font-size="14" text-anchor="middle">60.00%</text></g><g id="edge30" class="edge"><title>Giansar-&gt;Akashi</title><path fill="none" stroke="#000" d="M708.73,-521.88C695.94,-491.74 669.33,-429.04 654.18,-393.35"/><polygon fill="#000" stroke="#000" points="657.37 -391.89 650.24 -384.05 650.92 -394.62 657.37 -391.89"/><text x="707.5" y="-449.3" font-family="Times,serif" font-size="14" text-anchor="middle">56.82%</text></g></g></svg>