<?xml version="1.0" encoding="UTF-8" standalone="no"?>
<!DOCTYPE svg PUBLIC "-//W3C//DTD SVG 1.1//EN"
 "http://www.w3.org/Graphics/SVG/1.1/DTD/svg11.dtd">
<!-- Generated by graphviz version 2.43.0 (0)
 -->
<!-- Title: G Pages: 1 -->
<svg width="1147pt" height="827pt"
 viewBox="0.00 0.00 1147.00 827.00" xmlns="http://www.w3.org/2000/svg" xmlns:xlink="http://www.w3.org/1999/xlink">
<g id="graph0" class="graph" transform="scale(1 1) rotate(0) translate(4 823)">
<title>G</title>
<polygon fill="white" stroke="transparent" points="-4,4 -4,-823 1143,-823 1143,4 -4,4"/>
<!-- Pubraseer -->
<g id="node1" class="node">
<title>Pubraseer</title>
<path fill="none" stroke="black" d="M245,-819C245,-819 199,-819 199,-819 193,-819 187,-813 187,-807 187,-807 187,-795 187,-795 187,-789 193,-783 199,-783 199,-783 245,-783 245,-783 251,-783 257,-789 257,-795 257,-795 257,-807 257,-807 257,-813 251,-819 245,-819"/>
<text text-anchor="middle" x="222" y="-797.3" font-family="Times,serif" font-size="14.00">Pubraseer</text>
</g>
<!-- Ryekie -->
<g id="node2" class="node">
<title>Ryekie</title>
<path fill="none" stroke="black" d="M380.5,-471C380.5,-471 349.5,-471 349.5,-471 343.5,-471 337.5,-465 337.5,-459 337.5,-459 337.5,-447 337.5,-447 337.5,-441 343.5,-435 349.5,-435 349.5,-435 380.5,-435 380.5,-435 386.5,-435 392.5,-441 392.5,-447 392.5,-447 392.5,-459 392.5,-459 392.5,-465 386.5,-471 380.5,-471"/>
<text text-anchor="middle" x="365" y="-449.3" font-family="Times,serif" font-size="14.00">Ryekie</text>
</g>
<!-- Pubraseer&#45;&gt;Ryekie -->
<g id="edge1" class="edge">
<title>Pubraseer&#45;&gt;Ryekie</title>
<path fill="none" stroke="black" d="M212.83,-782.82C195.74,-748.31 163.09,-668.79 190,-609 218.25,-546.25 285.85,-498.62 328.28,-473.62"/>
<polygon fill="black" stroke="black" points="330.27,-476.51 337.19,-468.48 326.77,-470.45 330.27,-476.51"/>
<text text-anchor="middle" x="211.5" y="-623.3" font-family="Times,serif" font-size="14.00">80.06%</text>
</g>
<!-- reXer -->
<g id="node3" class="node">
<title>reXer</title>
<path fill="none" stroke="black" d="M476,-210C476,-210 446,-210 446,-210 440,-210 434,-204 434,-198 434,-198 434,-186 434,-186 434,-180 440,-174 446,-174 446,-174 476,-174 476,-174 482,-174 488,-180 488,-186 488,-186 488,-198 488,-198 488,-204 482,-210 476,-210"/>
<text text-anchor="middle" x="461" y="-188.3" font-family="Times,serif" font-size="14.00">reXer</text>
</g>
<!-- Pubraseer&#45;&gt;reXer -->
<g id="edge2" class="edge">
<title>Pubraseer&#45;&gt;reXer</title>
<path fill="none" stroke="black" d="M206.86,-782.82C202.42,-777.34 197.75,-771.1 194,-765 185.57,-751.27 183.06,-747.59 179,-732 151.69,-627.17 127.83,-592.44 160,-489 196.54,-371.52 223.25,-340.68 317,-261 348.84,-233.94 393.28,-215.13 424.34,-204.26"/>
<polygon fill="black" stroke="black" points="425.58,-207.54 433.92,-201.01 423.33,-200.91 425.58,-207.54"/>
<text text-anchor="middle" x="181.5" y="-492.8" font-family="Times,serif" font-size="14.00">78.98%</text>
</g>
<!-- Tsuneaki -->
<g id="node4" class="node">
<title>Tsuneaki</title>
<path fill="none" stroke="black" d="M630.5,-36C630.5,-36 589.5,-36 589.5,-36 583.5,-36 577.5,-30 577.5,-24 577.5,-24 577.5,-12 577.5,-12 577.5,-6 583.5,0 589.5,0 589.5,0 630.5,0 630.5,0 636.5,0 642.5,-6 642.5,-12 642.5,-12 642.5,-24 642.5,-24 642.5,-30 636.5,-36 630.5,-36"/>
<text text-anchor="middle" x="610" y="-14.3" font-family="Times,serif" font-size="14.00">Tsuneaki</text>
</g>
<!-- Pubraseer&#45;&gt;Tsuneaki -->
<g id="edge3" class="edge">
<title>Pubraseer&#45;&gt;Tsuneaki</title>
<path fill="none" stroke="black" d="M187,-796.06C155.13,-791.54 107.34,-782.4 69,-765 34.51,-749.35 0,-752.87 0,-715 0,-715 0,-715 0,-104 0,-46.68 427.91,-25.75 566.94,-20.46"/>
<polygon fill="black" stroke="black" points="567.34,-23.95 577.2,-20.08 567.08,-16.96 567.34,-23.95"/>
<text text-anchor="middle" x="21.5" y="-405.8" font-family="Times,serif" font-size="14.00">77.68%</text>
</g>
<!-- Sadayoshi -->
<g id="node5" class="node">
<title>Sadayoshi</title>
<path fill="none" stroke="black" d="M383,-123C383,-123 335,-123 335,-123 329,-123 323,-117 323,-111 323,-111 323,-99 323,-99 323,-93 329,-87 335,-87 335,-87 383,-87 383,-87 389,-87 395,-93 395,-99 395,-99 395,-111 395,-111 395,-117 389,-123 383,-123"/>
<text text-anchor="middle" x="359" y="-101.3" font-family="Times,serif" font-size="14.00">Sadayoshi</text>
</g>
<!-- Pubraseer&#45;&gt;Sadayoshi -->
<g id="edge4" class="edge">
<title>Pubraseer&#45;&gt;Sadayoshi</title>
<path fill="none" stroke="black" d="M186.82,-797.19C138.63,-791.19 58,-772.56 58,-715 58,-715 58,-715 58,-321.5 58,-197.52 228.92,-138.02 313.16,-116.22"/>
<polygon fill="black" stroke="black" points="314.15,-119.59 322.99,-113.75 312.44,-112.8 314.15,-119.59"/>
<text text-anchor="middle" x="79.5" y="-449.3" font-family="Times,serif" font-size="14.00">76.97%</text>
</g>
<!-- Obsidius -->
<g id="node6" class="node">
<title>Obsidius</title>
<path fill="none" stroke="black" d="M679.5,-297C679.5,-297 638.5,-297 638.5,-297 632.5,-297 626.5,-291 626.5,-285 626.5,-285 626.5,-273 626.5,-273 626.5,-267 632.5,-261 638.5,-261 638.5,-261 679.5,-261 679.5,-261 685.5,-261 691.5,-267 691.5,-273 691.5,-273 691.5,-285 691.5,-285 691.5,-291 685.5,-297 679.5,-297"/>
<text text-anchor="middle" x="659" y="-275.3" font-family="Times,serif" font-size="14.00">Obsidius</text>
</g>
<!-- Pubraseer&#45;&gt;Obsidius -->
<g id="edge5" class="edge">
<title>Pubraseer&#45;&gt;Obsidius</title>
<path fill="none" stroke="black" d="M257.02,-800.03C411.57,-799.69 1025,-793.42 1025,-715 1025,-715 1025,-715 1025,-582.5 1025,-495.8 1012.22,-463.4 951,-402 887.42,-338.22 852.93,-344.95 768,-315 740.18,-305.19 729.73,-307.15 701.11,-298.18"/>
<polygon fill="black" stroke="black" points="702.2,-294.85 691.61,-295.02 699.99,-301.49 702.2,-294.85"/>
<text text-anchor="middle" x="1045.5" y="-536.3" font-family="Times,serif" font-size="14.00">75.81%</text>
</g>
<!-- Barrel -->
<g id="node7" class="node">
<title>Barrel</title>
<path fill="none" stroke="black" d="M745,-558C745,-558 715,-558 715,-558 709,-558 703,-552 703,-546 703,-546 703,-534 703,-534 703,-528 709,-522 715,-522 715,-522 745,-522 745,-522 751,-522 757,-528 757,-534 757,-534 757,-546 757,-546 757,-552 751,-558 745,-558"/>
<text text-anchor="middle" x="730" y="-536.3" font-family="Times,serif" font-size="14.00">Barrel</text>
</g>
<!-- Pubraseer&#45;&gt;Barrel -->
<g id="edge6" class="edge">
<title>Pubraseer&#45;&gt;Barrel</title>
<path fill="none" stroke="black" d="M257.01,-797.92C351.27,-791.85 608.28,-771.96 682,-732 728.71,-706.68 744.39,-694.39 764,-645 774.43,-618.74 761.26,-587.88 748.39,-566.64"/>
<polygon fill="black" stroke="black" points="751.31,-564.7 742.97,-558.16 745.41,-568.47 751.31,-564.7"/>
<text text-anchor="middle" x="776.5" y="-666.8" font-family="Times,serif" font-size="14.00">75.38%</text>
</g>
<!-- Akashi -->
<g id="node8" class="node">
<title>Akashi</title>
<path fill="none" stroke="black" d="M818.5,-384C818.5,-384 787.5,-384 787.5,-384 781.5,-384 775.5,-378 775.5,-372 775.5,-372 775.5,-360 775.5,-360 775.5,-354 781.5,-348 787.5,-348 787.5,-348 818.5,-348 818.5,-348 824.5,-348 830.5,-354 830.5,-360 830.5,-360 830.5,-372 830.5,-372 830.5,-378 824.5,-384 818.5,-384"/>
<text text-anchor="middle" x="803" y="-362.3" font-family="Times,serif" font-size="14.00">Akashi</text>
</g>
<!-- Pubraseer&#45;&gt;Akashi -->
<g id="edge7" class="edge">
<title>Pubraseer&#45;&gt;Akashi</title>
<path fill="none" stroke="black" d="M257.04,-799.87C403.92,-799.12 965.79,-794.36 1039,-765 1070.28,-752.46 1096,-748.7 1096,-715 1096,-715 1096,-715 1096,-582.5 1096,-457.1 919.69,-396.58 840.6,-375.73"/>
<polygon fill="black" stroke="black" points="841.12,-372.25 830.56,-373.17 839.38,-379.04 841.12,-372.25"/>
<text text-anchor="middle" x="1117.5" y="-579.8" font-family="Times,serif" font-size="14.00">69.54%</text>
</g>
<!-- Giansar -->
<g id="node9" class="node">
<title>Giansar</title>
<path fill="none" stroke="black" d="M459.5,-645C459.5,-645 424.5,-645 424.5,-645 418.5,-645 412.5,-639 412.5,-633 412.5,-633 412.5,-621 412.5,-621 412.5,-615 418.5,-609 424.5,-609 424.5,-609 459.5,-609 459.5,-609 465.5,-609 471.5,-615 471.5,-621 471.5,-621 471.5,-633 471.5,-633 471.5,-639 465.5,-645 459.5,-645"/>
<text text-anchor="middle" x="442" y="-623.3" font-family="Times,serif" font-size="14.00">Giansar</text>
</g>
<!-- Pubraseer&#45;&gt;Giansar -->
<g id="edge8" class="edge">
<title>Pubraseer&#45;&gt;Giansar</title>
<path fill="none" stroke="black" d="M243.9,-782.88C283.6,-751.84 367.48,-686.26 412.3,-651.22"/>
<polygon fill="black" stroke="black" points="414.47,-653.97 420.19,-645.05 410.16,-648.45 414.47,-653.97"/>
<text text-anchor="middle" x="374.5" y="-710.3" font-family="Times,serif" font-size="14.00">65.47%</text>
</g>
<!-- Monomasa -->
<g id="node10" class="node">
<title>Monomasa</title>
<path fill="none" stroke="black" d="M661,-732C661,-732 607,-732 607,-732 601,-732 595,-726 595,-720 595,-720 595,-708 595,-708 595,-702 601,-696 607,-696 607,-696 661,-696 661,-696 667,-696 673,-702 673,-708 673,-708 673,-720 673,-720 673,-726 667,-732 661,-732"/>
<text text-anchor="middle" x="634" y="-710.3" font-family="Times,serif" font-size="14.00">Monomasa</text>
</g>
<!-- Pubraseer&#45;&gt;Monomasa -->
<g id="edge9" class="edge">
<title>Pubraseer&#45;&gt;Monomasa</title>
<path fill="none" stroke="black" d="M257.13,-792.75C330.62,-777.59 500.73,-742.49 584.95,-725.12"/>
<polygon fill="black" stroke="black" points="585.69,-728.54 594.78,-723.09 584.28,-721.68 585.69,-728.54"/>
<text text-anchor="middle" x="473.5" y="-753.8" font-family="Times,serif" font-size="14.00">65.28%</text>
</g>
<!-- Ryekie&#45;&gt;reXer -->
<g id="edge38" class="edge">
<title>Ryekie&#45;&gt;reXer</title>
<path fill="none" stroke="black" d="M362.7,-434.83C359.71,-408.59 356,-357.12 366,-315 375.97,-273.04 380.6,-260.46 409,-228 413.67,-222.66 419.33,-217.77 425.18,-213.45"/>
<polygon fill="black" stroke="black" points="427.52,-216.09 433.78,-207.54 423.56,-210.32 427.52,-216.09"/>
<text text-anchor="middle" x="387.5" y="-318.8" font-family="Times,serif" font-size="14.00">51.93%</text>
</g>
<!-- Ryekie&#45;&gt;Tsuneaki -->
<g id="edge35" class="edge">
<title>Ryekie&#45;&gt;Tsuneaki</title>
<path fill="none" stroke="black" d="M350.83,-434.87C313.41,-387.45 217.76,-250.72 262,-141 274.46,-110.1 285,-103.41 314,-87 395.6,-40.82 506.66,-25.98 566.88,-21.23"/>
<polygon fill="black" stroke="black" points="567.44,-24.7 577.16,-20.48 566.93,-17.72 567.44,-24.7"/>
<text text-anchor="middle" x="275.5" y="-231.8" font-family="Times,serif" font-size="14.00">56.38%</text>
</g>
<!-- Ryekie&#45;&gt;Sadayoshi -->
<g id="edge36" class="edge">
<title>Ryekie&#45;&gt;Sadayoshi</title>
<path fill="none" stroke="black" d="M358.67,-434.64C348.71,-406.31 329.8,-348.13 323,-297 315.13,-237.84 335.32,-169.25 348.55,-132.51"/>
<polygon fill="black" stroke="black" points="351.87,-133.61 352.07,-123.02 345.31,-131.18 351.87,-133.61"/>
<text text-anchor="middle" x="344.5" y="-275.3" font-family="Times,serif" font-size="14.00">53.01%</text>
</g>
<!-- Ryekie&#45;&gt;Obsidius -->
<g id="edge39" class="edge">
<title>Ryekie&#45;&gt;Obsidius</title>
<path fill="none" stroke="black" d="M392.56,-443.85C427.06,-433 487.29,-411.89 534,-384 544.49,-377.74 597.96,-332.38 631.48,-303.67"/>
<polygon fill="black" stroke="black" points="633.81,-306.28 639.12,-297.12 629.25,-300.97 633.81,-306.28"/>
<text text-anchor="middle" x="599.5" y="-362.3" font-family="Times,serif" font-size="14.00">50.40%</text>
</g>
<!-- Ryekie&#45;&gt;Akashi -->
<g id="edge37" class="edge">
<title>Ryekie&#45;&gt;Akashi</title>
<path fill="none" stroke="black" d="M392.73,-446.62C468.54,-431.91 679.3,-391.01 765.51,-374.28"/>
<polygon fill="black" stroke="black" points="766.24,-377.7 775.39,-372.36 764.91,-370.83 766.24,-377.7"/>
<text text-anchor="middle" x="631.5" y="-405.8" font-family="Times,serif" font-size="14.00">52.12%</text>
</g>
<!-- reXer&#45;&gt;Tsuneaki -->
<g id="edge44" class="edge">
<title>reXer&#45;&gt;Tsuneaki</title>
<path fill="none" stroke="black" d="M475.83,-173.88C502.27,-143.36 557.65,-79.43 588.35,-43.99"/>
<polygon fill="black" stroke="black" points="591.33,-45.9 595.23,-36.05 586.04,-41.32 591.33,-45.9"/>
<text text-anchor="middle" x="571.5" y="-101.3" font-family="Times,serif" font-size="14.00">51.75%</text>
</g>
<!-- reXer&#45;&gt;Sadayoshi -->
<g id="edge43" class="edge">
<title>reXer&#45;&gt;Sadayoshi</title>
<path fill="none" stroke="black" d="M440.36,-173.8C425.15,-161.13 404.28,-143.73 387.49,-129.74"/>
<polygon fill="black" stroke="black" points="389.53,-126.89 379.61,-123.18 385.05,-132.27 389.53,-126.89"/>
<text text-anchor="middle" x="437.5" y="-144.8" font-family="Times,serif" font-size="14.00">53.15%</text>
</g>
<!-- Sadayoshi&#45;&gt;Tsuneaki -->
<g id="edge40" class="edge">
<title>Sadayoshi&#45;&gt;Tsuneaki</title>
<path fill="none" stroke="black" d="M395.23,-91.73C440.95,-76.25 519.46,-49.66 567.83,-33.28"/>
<polygon fill="black" stroke="black" points="569.03,-36.57 577.38,-30.05 566.78,-29.94 569.03,-36.57"/>
<text text-anchor="middle" x="520.5" y="-57.8" font-family="Times,serif" font-size="14.00">53.36%</text>
</g>
<!-- Obsidius&#45;&gt;reXer -->
<g id="edge42" class="edge">
<title>Obsidius&#45;&gt;reXer</title>
<path fill="none" stroke="black" d="M626.3,-263.96C590.81,-248.73 534.28,-224.46 497.4,-208.63"/>
<polygon fill="black" stroke="black" points="498.58,-205.32 488.01,-204.6 495.82,-211.76 498.58,-205.32"/>
<text text-anchor="middle" x="592.5" y="-231.8" font-family="Times,serif" font-size="14.00">50.38%</text>
</g>
<!-- Obsidius&#45;&gt;Tsuneaki -->
<g id="edge41" class="edge">
<title>Obsidius&#45;&gt;Tsuneaki</title>
<path fill="none" stroke="black" d="M655.71,-260.6C647.36,-216.46 625.29,-99.83 615.19,-46.42"/>
<polygon fill="black" stroke="black" points="618.57,-45.5 613.28,-36.32 611.7,-46.8 618.57,-45.5"/>
<text text-anchor="middle" x="656.5" y="-144.8" font-family="Times,serif" font-size="14.00">52.82%</text>
</g>
<!-- Barrel&#45;&gt;Ryekie -->
<g id="edge30" class="edge">
<title>Barrel&#45;&gt;Ryekie</title>
<path fill="none" stroke="black" d="M702.9,-532.86C672.31,-525.91 621.06,-514.24 577,-504 515.92,-489.81 445.02,-473.02 402.64,-462.96"/>
<polygon fill="black" stroke="black" points="403.3,-459.52 392.77,-460.61 401.69,-466.33 403.3,-459.52"/>
<text text-anchor="middle" x="598.5" y="-492.8" font-family="Times,serif" font-size="14.00">59.83%</text>
</g>
<!-- Barrel&#45;&gt;reXer -->
<g id="edge32" class="edge">
<title>Barrel&#45;&gt;reXer</title>
<path fill="none" stroke="black" d="M702.97,-532.64C685.91,-527.43 664.46,-518.49 650,-504 626.38,-480.33 638.39,-462.93 620,-435 608.94,-418.19 606.7,-411.57 589,-402 548.51,-380.11 517.92,-418.1 487,-384 463.65,-358.24 482.88,-261.86 475,-228 474.37,-225.29 473.56,-222.5 472.65,-219.76"/>
<polygon fill="black" stroke="black" points="475.82,-218.25 469.05,-210.11 469.27,-220.7 475.82,-218.25"/>
<text text-anchor="middle" x="508.5" y="-362.3" font-family="Times,serif" font-size="14.00">59.59%</text>
</g>
<!-- Barrel&#45;&gt;Tsuneaki -->
<g id="edge29" class="edge">
<title>Barrel&#45;&gt;Tsuneaki</title>
<path fill="none" stroke="black" d="M757.15,-524.38C758.79,-523.56 760.41,-522.76 762,-522 780.32,-513.23 787.08,-515.23 804,-504 877.06,-455.49 946,-454.7 946,-367 946,-367 946,-367 946,-104 946,-44.17 743.22,-26 652.72,-20.87"/>
<polygon fill="black" stroke="black" points="652.7,-17.36 642.52,-20.32 652.32,-24.35 652.7,-17.36"/>
<text text-anchor="middle" x="967.5" y="-275.3" font-family="Times,serif" font-size="14.00">61.00%</text>
</g>
<!-- Barrel&#45;&gt;Sadayoshi -->
<g id="edge31" class="edge">
<title>Barrel&#45;&gt;Sadayoshi</title>
<path fill="none" stroke="black" d="M757.1,-522.83C775.31,-510.68 798.54,-492.48 813,-471 873.33,-381.42 874.24,-316.96 813,-228 773.37,-170.43 747.72,-164.77 682,-141 682,-141 494.54,-120.69 405.24,-111.01"/>
<polygon fill="black" stroke="black" points="405.43,-107.51 395.11,-109.91 404.68,-114.47 405.43,-107.51"/>
<text text-anchor="middle" x="878.5" y="-318.8" font-family="Times,serif" font-size="14.00">59.75%</text>
</g>
<!-- Barrel&#45;&gt;Obsidius -->
<g id="edge33" class="edge">
<title>Barrel&#45;&gt;Obsidius</title>
<path fill="none" stroke="black" d="M727.52,-521.83C722.37,-488 709.29,-410.59 689,-348 684.45,-333.96 677.97,-318.88 672.2,-306.51"/>
<polygon fill="black" stroke="black" points="675.24,-304.75 667.78,-297.23 668.92,-307.76 675.24,-304.75"/>
<text text-anchor="middle" x="728.5" y="-405.8" font-family="Times,serif" font-size="14.00">59.07%</text>
</g>
<!-- Barrel&#45;&gt;Akashi -->
<g id="edge34" class="edge">
<title>Barrel&#45;&gt;Akashi</title>
<path fill="none" stroke="black" d="M736.08,-521.89C743.56,-501.13 756.91,-465.17 770,-435 776.08,-421 783.45,-405.68 789.68,-393.13"/>
<polygon fill="black" stroke="black" points="792.83,-394.65 794.18,-384.14 786.57,-391.51 792.83,-394.65"/>
<text text-anchor="middle" x="791.5" y="-449.3" font-family="Times,serif" font-size="14.00">55.71%</text>
</g>
<!-- Akashi&#45;&gt;reXer -->
<g id="edge25" class="edge">
<title>Akashi&#45;&gt;reXer</title>
<path fill="none" stroke="black" d="M790.89,-347.56C783.6,-337.58 773.85,-325.08 764,-315 755.17,-305.96 751.64,-305.17 742,-297 723.5,-281.32 721.68,-273.66 701,-261 636.18,-221.3 547.43,-204.08 498.03,-197.17"/>
<polygon fill="black" stroke="black" points="498.48,-193.7 488.11,-195.84 497.56,-200.63 498.48,-193.7"/>
<text text-anchor="middle" x="763.5" y="-275.3" font-family="Times,serif" font-size="14.00">53.09%</text>
</g>
<!-- Akashi&#45;&gt;Tsuneaki -->
<g id="edge27" class="edge">
<title>Akashi&#45;&gt;Tsuneaki</title>
<path fill="none" stroke="black" d="M820.06,-347.99C841.35,-324.87 875,-281.25 875,-236.5 875,-236.5 875,-236.5 875,-104 875,-57.91 727.83,-33.31 652.84,-23.77"/>
<polygon fill="black" stroke="black" points="653.11,-20.27 642.76,-22.52 652.25,-27.22 653.11,-20.27"/>
<text text-anchor="middle" x="896.5" y="-188.3" font-family="Times,serif" font-size="14.00">51.05%</text>
</g>
<!-- Akashi&#45;&gt;Sadayoshi -->
<g id="edge28" class="edge">
<title>Akashi&#45;&gt;Sadayoshi</title>
<path fill="none" stroke="black" d="M804.88,-347.76C806.37,-325.21 805.48,-285.68 785,-261 687.7,-143.76 493.96,-115.2 405.27,-108.24"/>
<polygon fill="black" stroke="black" points="405.47,-104.75 395.24,-107.51 404.96,-111.73 405.47,-104.75"/>
<text text-anchor="middle" x="787.5" y="-231.8" font-family="Times,serif" font-size="14.00">50.94%</text>
</g>
<!-- Akashi&#45;&gt;Obsidius -->
<g id="edge26" class="edge">
<title>Akashi&#45;&gt;Obsidius</title>
<path fill="none" stroke="black" d="M775.5,-355.44C759.12,-349.23 738.25,-340.36 721,-330 708.53,-322.51 695.84,-312.73 685.22,-303.81"/>
<polygon fill="black" stroke="black" points="687.4,-301.07 677.53,-297.21 682.84,-306.38 687.4,-301.07"/>
<text text-anchor="middle" x="742.5" y="-318.8" font-family="Times,serif" font-size="14.00">52.12%</text>
</g>
<!-- Giansar&#45;&gt;Ryekie -->
<g id="edge14" class="edge">
<title>Giansar&#45;&gt;Ryekie</title>
<path fill="none" stroke="black" d="M423.2,-608.76C410.44,-595.99 394.26,-577.48 385,-558 373.38,-533.57 368.51,-502.86 366.47,-481.17"/>
<polygon fill="black" stroke="black" points="369.95,-480.71 365.66,-471.02 362.97,-481.27 369.95,-480.71"/>
<text text-anchor="middle" x="406.5" y="-536.3" font-family="Times,serif" font-size="14.00">58.36%</text>
</g>
<!-- Giansar&#45;&gt;reXer -->
<g id="edge10" class="edge">
<title>Giansar&#45;&gt;reXer</title>
<path fill="none" stroke="black" d="M439.43,-608.73C433.29,-565.03 418.85,-446.51 427,-348 431.46,-294.12 432.43,-280.07 447,-228 447.78,-225.22 448.7,-222.37 449.7,-219.54"/>
<polygon fill="black" stroke="black" points="452.97,-220.78 453.27,-210.19 446.43,-218.28 452.97,-220.78"/>
<text text-anchor="middle" x="445.5" y="-405.8" font-family="Times,serif" font-size="14.00">67.48%</text>
</g>
<!-- Giansar&#45;&gt;Tsuneaki -->
<g id="edge12" class="edge">
<title>Giansar&#45;&gt;Tsuneaki</title>
<path fill="none" stroke="black" d="M412.46,-622.13C386.91,-617.73 349.83,-608.71 322,-591 187,-505.08 140.88,-416.66 178,-261 198.1,-176.7 202.41,-145.87 266,-87 309.43,-46.79 485.33,-28.43 567.42,-21.93"/>
<polygon fill="black" stroke="black" points="567.72,-25.42 577.42,-21.16 567.18,-18.44 567.72,-25.42"/>
<text text-anchor="middle" x="189.5" y="-318.8" font-family="Times,serif" font-size="14.00">64.34%</text>
</g>
<!-- Giansar&#45;&gt;Sadayoshi -->
<g id="edge13" class="edge">
<title>Giansar&#45;&gt;Sadayoshi</title>
<path fill="none" stroke="black" d="M412.14,-623.45C389.02,-619.89 357.86,-611.37 339,-591 274.48,-521.32 297.87,-478.22 286,-384 274.15,-289.97 295.68,-264.75 323,-174 327.54,-158.91 328.74,-154.99 336,-141 337.62,-137.87 339.45,-134.67 341.36,-131.54"/>
<polygon fill="black" stroke="black" points="344.37,-133.33 346.81,-123.02 338.47,-129.56 344.37,-133.33"/>
<text text-anchor="middle" x="307.5" y="-362.3" font-family="Times,serif" font-size="14.00">63.71%</text>
</g>
<!-- Giansar&#45;&gt;Obsidius -->
<g id="edge11" class="edge">
<title>Giansar&#45;&gt;Obsidius</title>
<path fill="none" stroke="black" d="M454.64,-608.69C474.13,-582.25 513.05,-530.53 549,-489 578.01,-455.49 595.69,-455.3 618,-417 628.93,-398.24 644.06,-341.16 652.55,-306.88"/>
<polygon fill="black" stroke="black" points="655.98,-307.59 654.96,-297.05 649.19,-305.93 655.98,-307.59"/>
<text text-anchor="middle" x="626.5" y="-449.3" font-family="Times,serif" font-size="14.00">64.75%</text>
</g>
<!-- Giansar&#45;&gt;Barrel -->
<g id="edge16" class="edge">
<title>Giansar&#45;&gt;Barrel</title>
<path fill="none" stroke="black" d="M471.64,-615.72C488.77,-609.38 510.52,-600.63 529,-591 539.82,-585.36 540.69,-580.59 552,-576 598.34,-557.17 655.69,-548.23 692.56,-544.16"/>
<polygon fill="black" stroke="black" points="693.26,-547.61 702.85,-543.09 692.54,-540.64 693.26,-547.61"/>
<text text-anchor="middle" x="573.5" y="-579.8" font-family="Times,serif" font-size="14.00">53.41%</text>
</g>
<!-- Giansar&#45;&gt;Akashi -->
<g id="edge15" class="edge">
<title>Giansar&#45;&gt;Akashi</title>
<path fill="none" stroke="black" d="M471.91,-624C530.66,-619.17 664.27,-603.66 766,-558 802.82,-541.47 820.83,-540.04 839,-504 857.28,-467.74 837,-421.26 820.3,-392.82"/>
<polygon fill="black" stroke="black" points="823.26,-390.96 815.05,-384.26 817.29,-394.62 823.26,-390.96"/>
<text text-anchor="middle" x="865.5" y="-492.8" font-family="Times,serif" font-size="14.00">57.47%</text>
</g>
<!-- Monomasa&#45;&gt;Ryekie -->
<g id="edge19" class="edge">
<title>Monomasa&#45;&gt;Ryekie</title>
<path fill="none" stroke="black" d="M594.7,-707.27C547,-699.03 465.35,-680.73 404,-645 374.12,-627.6 361.52,-622.82 348,-591 332.72,-555.05 343.79,-509.34 353.85,-480.88"/>
<polygon fill="black" stroke="black" points="357.23,-481.81 357.46,-471.22 350.68,-479.36 357.23,-481.81"/>
<text text-anchor="middle" x="369.5" y="-579.8" font-family="Times,serif" font-size="14.00">69.42%</text>
</g>
<!-- Monomasa&#45;&gt;reXer -->
<g id="edge18" class="edge">
<title>Monomasa&#45;&gt;reXer</title>
<path fill="none" stroke="black" d="M633.09,-695.58C630.92,-668.09 623.59,-613.89 599,-576 570.92,-532.74 537.13,-546.56 508,-504 476.47,-457.95 480.76,-438.95 471,-384 460.75,-326.27 459.88,-257.31 460.33,-220.08"/>
<polygon fill="black" stroke="black" points="463.83,-220.08 460.49,-210.02 456.83,-219.96 463.83,-220.08"/>
<text text-anchor="middle" x="510.5" y="-449.3" font-family="Times,serif" font-size="14.00">71.69%</text>
</g>
<!-- Monomasa&#45;&gt;Tsuneaki -->
<g id="edge21" class="edge">
<title>Monomasa&#45;&gt;Tsuneaki</title>
<path fill="none" stroke="black" d="M673.24,-711.58C763.66,-707.25 979,-690.38 979,-628 979,-628 979,-628 979,-495.5 979,-434.06 1030,-428.44 1030,-367 1030,-367 1030,-367 1030,-104 1030,-27.59 759.6,-19.08 652.72,-18.69"/>
<polygon fill="black" stroke="black" points="652.61,-15.19 642.61,-18.68 652.6,-22.19 652.61,-15.19"/>
<text text-anchor="middle" x="1051.5" y="-362.3" font-family="Times,serif" font-size="14.00">68.23%</text>
</g>
<!-- Monomasa&#45;&gt;Sadayoshi -->
<g id="edge17" class="edge">
<title>Monomasa&#45;&gt;Sadayoshi</title>
<path fill="none" stroke="black" d="M594.71,-710.34C497.85,-701.4 248.42,-663.17 151,-504 107.07,-432.23 121.36,-388.68 162,-315 205.33,-236.45 285.05,-165.09 328.61,-129.6"/>
<polygon fill="black" stroke="black" points="330.98,-132.19 336.57,-123.19 326.58,-126.74 330.98,-132.19"/>
<text text-anchor="middle" x="147.5" y="-405.8" font-family="Times,serif" font-size="14.00">71.85%</text>
</g>
<!-- Monomasa&#45;&gt;Obsidius -->
<g id="edge20" class="edge">
<title>Monomasa&#45;&gt;Obsidius</title>
<path fill="none" stroke="black" d="M646.87,-695.77C657.89,-679.26 672,-653.22 672,-628 672,-628 672,-628 672,-495.5 672,-427.55 665.48,-347.76 661.67,-306.98"/>
<polygon fill="black" stroke="black" points="665.16,-306.64 660.73,-297.02 658.19,-307.31 665.16,-306.64"/>
<text text-anchor="middle" x="693.5" y="-492.8" font-family="Times,serif" font-size="14.00">68.24%</text>
</g>
<!-- Monomasa&#45;&gt;Barrel -->
<g id="edge23" class="edge">
<title>Monomasa&#45;&gt;Barrel</title>
<path fill="none" stroke="black" d="M666.52,-695.99C673.73,-690.99 680.77,-684.96 686,-678 710.73,-645.1 721.85,-597.8 726.64,-568.26"/>
<polygon fill="black" stroke="black" points="730.12,-568.65 728.13,-558.24 723.2,-567.62 730.12,-568.65"/>
<text text-anchor="middle" x="738.5" y="-623.3" font-family="Times,serif" font-size="14.00">61.79%</text>
</g>
<!-- Monomasa&#45;&gt;Akashi -->
<g id="edge22" class="edge">
<title>Monomasa&#45;&gt;Akashi</title>
<path fill="none" stroke="black" d="M673.04,-696.84C735,-668.59 852.76,-603.59 891,-504 907.6,-460.76 866.9,-416.74 835.45,-390.66"/>
<polygon fill="black" stroke="black" points="837.28,-387.64 827.28,-384.11 832.89,-393.1 837.28,-387.64"/>
<text text-anchor="middle" x="903.5" y="-536.3" font-family="Times,serif" font-size="14.00">61.88%</text>
</g>
<!-- Monomasa&#45;&gt;Giansar -->
<g id="edge24" class="edge">
<title>Monomasa&#45;&gt;Giansar</title>
<path fill="none" stroke="black" d="M595.15,-695.8C561.94,-681.1 514.38,-660.04 481.1,-645.31"/>
<polygon fill="black" stroke="black" points="482.25,-641.99 471.69,-641.14 479.41,-648.39 482.25,-641.99"/>
<text text-anchor="middle" x="570.5" y="-666.8" font-family="Times,serif" font-size="14.00">55.97%</text>
</g>
</g>
</svg>
