<svg xmlns="http://www.w3.org/2000/svg" xmlns:xlink="http://www.w3.org/1999/xlink" width="1024pt" height="740pt" viewBox="0 0 1024 740"><g id="graph0" class="graph" transform="scale(1 1) rotate(0) translate(4 736)"><title>G</title><polygon fill="#fff" stroke="transparent" points="-4 4 -4 -736 1020 -736 1020 4 -4 4"/><g id="node1" class="node"><title>Pubraseer</title><path fill="none" stroke="#000" d="M307,-732C307,-732 261,-732 261,-732 255,-732 249,-726 249,-720 249,-720 249,-708 249,-708 249,-702 255,-696 261,-696 261,-696 307,-696 307,-696 313,-696 319,-702 319,-708 319,-708 319,-720 319,-720 319,-726 313,-732 307,-732"/><text x="284" y="-710.3" font-family="Times,serif" font-size="14" text-anchor="middle">Pubraseer</text></g><g id="node2" class="node"><title>Ryekie</title><path fill="none" stroke="#000" d="M289.5,-297C289.5,-297 258.5,-297 258.5,-297 252.5,-297 246.5,-291 246.5,-285 246.5,-285 246.5,-273 246.5,-273 246.5,-267 252.5,-261 258.5,-261 258.5,-261 289.5,-261 289.5,-261 295.5,-261 301.5,-267 301.5,-273 301.5,-273 301.5,-285 301.5,-285 301.5,-291 295.5,-297 289.5,-297"/><text x="274" y="-275.3" font-family="Times,serif" font-size="14" text-anchor="middle">Ryekie</text></g><g id="edge1" class="edge"><title>Pubraseer-&gt;Ryekie</title><path fill="none" stroke="#000" d="M248.83,-706.51C188.33,-694.32 71,-665.82 71,-628 71,-628 71,-628 71,-365 71,-329.59 177.44,-300.89 236.17,-287.75"/><polygon fill="#000" stroke="#000" points="237.18 -291.12 246.2 -285.56 235.68 -284.28 237.18 -291.12"/><text x="92.5" y="-492.8" font-family="Times,serif" font-size="14" text-anchor="middle">90.54%</text></g><g id="node3" class="node"><title>reXer</title><path fill="none" stroke="#000" d="M326,-384C326,-384 296,-384 296,-384 290,-384 284,-378 284,-372 284,-372 284,-360 284,-360 284,-354 290,-348 296,-348 296,-348 326,-348 326,-348 332,-348 338,-354 338,-360 338,-360 338,-372 338,-372 338,-378 332,-384 326,-384"/><text x="311" y="-362.3" font-family="Times,serif" font-size="14" text-anchor="middle">reXer</text></g><g id="edge2" class="edge"><title>Pubraseer-&gt;reXer</title><path fill="none" stroke="#000" d="M267.31,-695.81C237.44,-662.89 179.86,-588.31 201,-522 217.67,-469.7 259.13,-419.92 286.12,-391.47"/><polygon fill="#000" stroke="#000" points="288.88 -393.65 293.31 -384.02 283.85 -388.78 288.88 -393.65"/><text x="222.5" y="-536.3" font-family="Times,serif" font-size="14" text-anchor="middle">83.54%</text></g><g id="node4" class="node"><title>Tsuneaki</title><path fill="none" stroke="#000" d="M584.5,-210C584.5,-210 543.5,-210 543.5,-210 537.5,-210 531.5,-204 531.5,-198 531.5,-198 531.5,-186 531.5,-186 531.5,-180 537.5,-174 543.5,-174 543.5,-174 584.5,-174 584.5,-174 590.5,-174 596.5,-180 596.5,-186 596.5,-186 596.5,-198 596.5,-198 596.5,-204 590.5,-210 584.5,-210"/><text x="564" y="-188.3" font-family="Times,serif" font-size="14" text-anchor="middle">Tsuneaki</text></g><g id="edge3" class="edge"><title>Pubraseer-&gt;Tsuneaki</title><path fill="none" stroke="#000" d="M319.24,-709.88C428.26,-699.53 757.22,-662.82 832,-591 872.35,-552.25 861.46,-526.29 870,-471 887.28,-359.17 885.5,-294.58 794,-228 764.89,-206.81 664.76,-198.16 606.66,-194.86"/><polygon fill="#000" stroke="#000" points="606.85 -191.37 596.67 -194.32 606.47 -198.36 606.85 -191.37"/><text x="896.5" y="-449.3" font-family="Times,serif" font-size="14" text-anchor="middle">81.71%</text></g><g id="node5" class="node"><title>Obsidius</title><path fill="none" stroke="#000" d="M252.5,-36C252.5,-36 211.5,-36 211.5,-36 205.5,-36 199.5,-30 199.5,-24 199.5,-24 199.5,-12 199.5,-12 199.5,-6 205.5,0 211.5,0 211.5,0 252.5,0 252.5,0 258.5,0 264.5,-6 264.5,-12 264.5,-12 264.5,-24 264.5,-24 264.5,-30 258.5,-36 252.5,-36"/><text x="232" y="-14.3" font-family="Times,serif" font-size="14" text-anchor="middle">Obsidius</text></g><g id="edge4" class="edge"><title>Pubraseer-&gt;Obsidius</title><path fill="none" stroke="#000" d="M248.89,-709.94C172.91,-702.34 0,-679.4 0,-628 0,-628 0,-628 0,-104 0,-64.2 121.91,-37.44 188.98,-25.72"/><polygon fill="#000" stroke="#000" points="189.98 -29.1 199.25 -23.97 188.81 -22.2 189.98 -29.1"/><text x="21.5" y="-362.3" font-family="Times,serif" font-size="14" text-anchor="middle">80.00%</text></g><g id="node6" class="node"><title>Sadayoshi</title><path fill="none" stroke="#000" d="M745,-384C745,-384 697,-384 697,-384 691,-384 685,-378 685,-372 685,-372 685,-360 685,-360 685,-354 691,-348 697,-348 697,-348 745,-348 745,-348 751,-348 757,-354 757,-360 757,-360 757,-372 757,-372 757,-378 751,-384 745,-384"/><text x="721" y="-362.3" font-family="Times,serif" font-size="14" text-anchor="middle">Sadayoshi</text></g><g id="edge5" class="edge"><title>Pubraseer-&gt;Sadayoshi</title><path fill="none" stroke="#000" d="M319.34,-712.21C443.17,-709.28 851.04,-698.12 870,-678 952.87,-590.03 812.4,-447.42 749.29,-391.04"/><polygon fill="#000" stroke="#000" points="751.45 -388.28 741.64 -384.29 746.82 -393.53 751.45 -388.28"/><text x="904.5" y="-536.3" font-family="Times,serif" font-size="14" text-anchor="middle">76.83%</text></g><g id="node7" class="node"><title>Akashi</title><path fill="none" stroke="#000" d="M579.5,-123C579.5,-123 548.5,-123 548.5,-123 542.5,-123 536.5,-117 536.5,-111 536.5,-111 536.5,-99 536.5,-99 536.5,-93 542.5,-87 548.5,-87 548.5,-87 579.5,-87 579.5,-87 585.5,-87 591.5,-93 591.5,-99 591.5,-99 591.5,-111 591.5,-111 591.5,-117 585.5,-123 579.5,-123"/><text x="564" y="-101.3" font-family="Times,serif" font-size="14" text-anchor="middle">Akashi</text></g><g id="edge6" class="edge"><title>Pubraseer-&gt;Akashi</title><path fill="none" stroke="#000" d="M319.28,-713.17C432,-713.38 782.4,-711.28 890,-678 931.14,-665.28 973,-671.07 973,-628 973,-628 973,-628 973,-321.5 973,-216.05 916.75,-180.56 819,-141 746.1,-111.5 652.93,-106.02 601.8,-105.47"/><polygon fill="#000" stroke="#000" points="601.57 -101.97 591.55 -105.43 601.53 -108.97 601.57 -101.97"/><text x="994.5" y="-405.8" font-family="Times,serif" font-size="14" text-anchor="middle">72.09%</text></g><g id="node8" class="node"><title>Giansar</title><path fill="none" stroke="#000" d="M485.5,-558C485.5,-558 450.5,-558 450.5,-558 444.5,-558 438.5,-552 438.5,-546 438.5,-546 438.5,-534 438.5,-534 438.5,-528 444.5,-522 450.5,-522 450.5,-522 485.5,-522 485.5,-522 491.5,-522 497.5,-528 497.5,-534 497.5,-534 497.5,-546 497.5,-546 497.5,-552 491.5,-558 485.5,-558"/><text x="468" y="-536.3" font-family="Times,serif" font-size="14" text-anchor="middle">Giansar</text></g><g id="edge7" class="edge"><title>Pubraseer-&gt;Giansar</title><path fill="none" stroke="#000" d="M302.32,-695.88C335.24,-665.1 404.51,-600.35 442.22,-565.1"/><polygon fill="#000" stroke="#000" points="444.84 -567.44 449.76 -558.05 440.06 -562.32 444.84 -567.44"/><text x="416.5" y="-623.3" font-family="Times,serif" font-size="14" text-anchor="middle">70.37%</text></g><g id="node9" class="node"><title>Barrel</title><path fill="none" stroke="#000" d="M483,-471C483,-471 453,-471 453,-471 447,-471 441,-465 441,-459 441,-459 441,-447 441,-447 441,-441 447,-435 453,-435 453,-435 483,-435 483,-435 489,-435 495,-441 495,-447 495,-447 495,-459 495,-459 495,-465 489,-471 483,-471"/><text x="468" y="-449.3" font-family="Times,serif" font-size="14" text-anchor="middle">Barrel</text></g><g id="edge8" class="edge"><title>Pubraseer-&gt;Barrel</title><path fill="none" stroke="#000" d="M276.11,-695.74C258.47,-654.23 221.3,-547.88 274,-489 296.36,-464.01 386.5,-479.02 430.96,-471.59"/><polygon fill="#000" stroke="#000" points="431.75 -475 440.71 -469.34 430.18 -468.18 431.75 -475"/><text x="269.5" y="-579.8" font-family="Times,serif" font-size="14" text-anchor="middle">70.00%</text></g><g id="node10" class="node"><title>Monomasa</title><path fill="none" stroke="#000" d="M613,-645C613,-645 559,-645 559,-645 553,-645 547,-639 547,-633 547,-633 547,-621 547,-621 547,-615 553,-609 559,-609 559,-609 613,-609 613,-609 619,-609 625,-615 625,-621 625,-621 625,-633 625,-633 625,-639 619,-645 613,-645"/><text x="586" y="-623.3" font-family="Times,serif" font-size="14" text-anchor="middle">Monomasa</text></g><g id="edge9" class="edge"><title>Pubraseer-&gt;Monomasa</title><path fill="none" stroke="#000" d="M319.23,-703.08C373.03,-687.94 475.82,-659.01 536.9,-641.82"/><polygon fill="#000" stroke="#000" points="538.02 -645.14 546.7 -639.06 536.13 -638.4 538.02 -645.14"/><text x="475.5" y="-666.8" font-family="Times,serif" font-size="14" text-anchor="middle">60.23%</text></g><g id="edge41" class="edge"><title>Ryekie-&gt;Tsuneaki</title><path fill="none" stroke="#000" d="M301.95,-269.72C325.28,-262.75 359.37,-252.44 389,-243 409.09,-236.6 413.81,-234.08 434,-228 463.04,-219.26 496.05,-210.38 521.53,-203.76"/><polygon fill="#000" stroke="#000" points="522.45 -207.14 531.26 -201.25 520.7 -200.36 522.45 -207.14"/><text x="455.5" y="-231.8" font-family="Times,serif" font-size="14" text-anchor="middle">56.36%</text></g><g id="edge43" class="edge"><title>Ryekie-&gt;Obsidius</title><path fill="none" stroke="#000" d="M271.18,-260.6C264.02,-216.46 245.11,-99.83 236.45,-46.42"/><polygon fill="#000" stroke="#000" points="239.86 -45.63 234.81 -36.32 232.95 -46.75 239.86 -45.63"/><text x="275.5" y="-144.8" font-family="Times,serif" font-size="14" text-anchor="middle">51.79%</text></g><g id="edge42" class="edge"><title>Ryekie-&gt;Akashi</title><path fill="none" stroke="#000" d="M280.31,-260.96C292.98,-229.71 324.83,-164.29 377,-141 425.52,-119.34 486.91,-111.08 525.83,-107.94"/><polygon fill="#000" stroke="#000" points="526.46 -111.4 536.18 -107.18 525.95 -104.42 526.46 -111.4"/><text x="354.5" y="-188.3" font-family="Times,serif" font-size="14" text-anchor="middle">55.93%</text></g><g id="edge37" class="edge"><title>reXer-&gt;Ryekie</title><path fill="none" stroke="#000" d="M286.29,-347.81C280.91,-342.75 275.95,-336.74 273,-330 269.97,-323.08 269.11,-315.09 269.3,-307.56"/><polygon fill="#000" stroke="#000" points="272.81 -307.62 270.15 -297.37 265.83 -307.04 272.81 -307.62"/><text x="294.5" y="-318.8" font-family="Times,serif" font-size="14" text-anchor="middle">54.24%</text></g><g id="edge35" class="edge"><title>reXer-&gt;Tsuneaki</title><path fill="none" stroke="#000" d="M337.07,-347.9C352.34,-338.04 372.09,-325.54 390,-315 404.4,-306.53 409.04,-306.18 423,-297 444.69,-282.74 448.48,-276.9 469,-261 488.04,-246.24 492.44,-242.07 512,-228 517.58,-223.99 523.57,-219.82 529.43,-215.83"/><polygon fill="#000" stroke="#000" points="531.53 -218.63 537.86 -210.13 527.62 -212.83 531.53 -218.63"/><text x="490.5" y="-275.3" font-family="Times,serif" font-size="14" text-anchor="middle">62.26%</text></g><g id="edge38" class="edge"><title>reXer-&gt;Obsidius</title><path fill="none" stroke="#000" d="M287.42,-348C280.3,-342.52 272.63,-336.24 266,-330 223.29,-289.78 219.49,-268.05 211,-210 202.5,-151.87 215.63,-83.32 224.66,-46.21"/><polygon fill="#000" stroke="#000" points="228.14 -46.73 227.19 -36.17 221.35 -45.02 228.14 -46.73"/><text x="232.5" y="-188.3" font-family="Times,serif" font-size="14" text-anchor="middle">51.67%</text></g><g id="edge36" class="edge"><title>reXer-&gt;Akashi</title><path fill="none" stroke="#000" d="M314.2,-347.78C320.74,-313.13 335.67,-237.5 343,-228 353.44,-214.46 364.81,-221.99 377,-210 401.96,-185.45 387.11,-162.16 415,-141 447.28,-116.51 493.98,-108.78 526.46,-106.53"/><polygon fill="#000" stroke="#000" points="526.67 -110.02 536.47 -105.97 526.29 -103.03 526.67 -110.02"/><text x="364.5" y="-231.8" font-family="Times,serif" font-size="14" text-anchor="middle">55.00%</text></g><g id="edge40" class="edge"><title>Tsuneaki-&gt;Akashi</title><path fill="none" stroke="#000" d="M564,-173.8C564,-162.16 564,-146.55 564,-133.24"/><polygon fill="#000" stroke="#000" points="567.5 -133.18 564 -123.18 560.5 -133.18 567.5 -133.18"/><text x="585.5" y="-144.8" font-family="Times,serif" font-size="14" text-anchor="middle">51.92%</text></g><g id="edge32" class="edge"><title>Sadayoshi-&gt;Ryekie</title><path fill="none" stroke="#000" d="M684.87,-360.16C658.79,-356.7 622.73,-351.97 591,-348 523.94,-339.62 506,-344.55 440,-330 419,-325.37 414.55,-321.34 394,-315 366.42,-306.48 335.11,-297.37 311.39,-290.58"/><polygon fill="#000" stroke="#000" points="312.29 -287.2 301.72 -287.82 310.37 -293.93 312.29 -287.2"/><text x="461.5" y="-318.8" font-family="Times,serif" font-size="14" text-anchor="middle">60.94%</text></g><g id="edge31" class="edge"><title>Sadayoshi-&gt;Tsuneaki</title><path fill="none" stroke="#000" d="M716.05,-347.99C712.69,-337.92 707.63,-325.19 701,-315 671.5,-269.7 657.53,-262.61 616,-228 611.06,-223.89 605.64,-219.81 600.21,-215.97"/><polygon fill="#000" stroke="#000" points="601.97 -212.93 591.75 -210.16 598.01 -218.7 601.97 -212.93"/><text x="710.5" y="-275.3" font-family="Times,serif" font-size="14" text-anchor="middle">64.41%</text></g><g id="edge33" class="edge"><title>Sadayoshi-&gt;Obsidius</title><path fill="none" stroke="#000" d="M737.62,-347.83C757.63,-325.73 789.95,-285.14 801,-243 813.35,-195.91 753.85,-147.35 746,-141 644.4,-58.73 593.27,-79.26 465,-54 398.96,-41 321.55,-30.25 274.67,-24.23"/><polygon fill="#000" stroke="#000" points="274.94 -20.74 264.58 -22.95 274.06 -27.68 274.94 -20.74"/><text x="821.5" y="-188.3" font-family="Times,serif" font-size="14" text-anchor="middle">58.21%</text></g><g id="edge34" class="edge"><title>Sadayoshi-&gt;Akashi</title><path fill="none" stroke="#000" d="M728.16,-347.88C744.12,-306.69 777.36,-200.98 726,-141 710.18,-122.53 644.6,-113.19 601.89,-108.98"/><polygon fill="#000" stroke="#000" points="602.11 -105.48 591.83 -108.04 601.46 -112.45 602.11 -105.48"/><text x="775.5" y="-231.8" font-family="Times,serif" font-size="14" text-anchor="middle">56.72%</text></g><g id="edge39" class="edge"><title>Akashi-&gt;Obsidius</title><path fill="none" stroke="#000" d="M536.26,-96.9C478.19,-82.03 343.46,-47.54 274.43,-29.86"/><polygon fill="#000" stroke="#000" points="275.29 -26.47 264.74 -27.38 273.56 -33.25 275.29 -26.47"/><text x="439.5" y="-57.8" font-family="Times,serif" font-size="14" text-anchor="middle">52.63%</text></g><g id="edge27" class="edge"><title>Giansar-&gt;Ryekie</title><path fill="none" stroke="#000" d="M438.17,-526.18C398.54,-507.68 328.89,-469.82 289,-417 260.99,-379.92 260.79,-361.18 266,-315 266.29,-312.45 266.69,-309.82 267.16,-307.2"/><polygon fill="#000" stroke="#000" points="270.61 -307.82 269.23 -297.31 263.75 -306.38 270.61 -307.82"/><text x="310.5" y="-405.8" font-family="Times,serif" font-size="14" text-anchor="middle">64.18%</text></g><g id="edge25" class="edge"><title>Giansar-&gt;reXer</title><path fill="none" stroke="#000" d="M445.9,-521.85C429.49,-508.68 406.95,-489.64 389,-471 367.72,-448.9 364.36,-441.58 346,-417 340.19,-409.23 334.07,-400.62 328.59,-392.77"/><polygon fill="#000" stroke="#000" points="331.3 -390.54 322.73 -384.31 325.54 -394.53 331.3 -390.54"/><text x="410.5" y="-449.3" font-family="Times,serif" font-size="14" text-anchor="middle">70.69%</text></g><g id="edge24" class="edge"><title>Giansar-&gt;Tsuneaki</title><path fill="none" stroke="#000" d="M496.08,-522C502.93,-516.86 509.78,-510.77 515,-504 540.44,-470.99 540.8,-457.65 550,-417 558.31,-380.28 562.05,-271.35 563.39,-220.16"/><polygon fill="#000" stroke="#000" points="566.89 -220.24 563.64 -210.15 559.89 -220.06 566.89 -220.24"/><text x="579.5" y="-362.3" font-family="Times,serif" font-size="14" text-anchor="middle">75.41%</text></g><g id="edge26" class="edge"><title>Giansar-&gt;Obsidius</title><path fill="none" stroke="#000" d="M438.2,-532.99C413.53,-527.38 377.97,-517.79 349,-504 262.86,-463.01 109,-376.95 109,-323.5 109,-323.5 109,-323.5 109,-104 109,-63.78 154.05,-41.11 189.62,-29.48"/><polygon fill="#000" stroke="#000" points="190.83 -32.77 199.36 -26.49 188.77 -26.08 190.83 -32.77"/><text x="130.5" y="-275.3" font-family="Times,serif" font-size="14" text-anchor="middle">67.16%</text></g><g id="edge28" class="edge"><title>Giansar-&gt;Sadayoshi</title><path fill="none" stroke="#000" d="M497.61,-532.99C519.95,-527.61 550.78,-518.33 575,-504 626.36,-473.63 674.49,-422.39 700.62,-391.92"/><polygon fill="#000" stroke="#000" points="703.3 -394.18 707.09 -384.28 697.96 -389.65 703.3 -394.18"/><text x="681.5" y="-449.3" font-family="Times,serif" font-size="14" text-anchor="middle">62.71%</text></g><g id="edge29" class="edge"><title>Giansar-&gt;Akashi</title><path fill="none" stroke="#000" d="M497.79,-525.14C509.69,-519.17 523.31,-511.78 535,-504 574.93,-477.41 580.07,-464.37 618,-435 628.83,-426.62 634.38,-427.64 643,-417 674.2,-378.51 660.59,-356.28 688,-315 694.09,-305.83 700.93,-307.23 705,-297 732.58,-227.63 650.55,-160.81 600.21,-127.66"/><polygon fill="#000" stroke="#000" points="601.82 -124.53 591.51 -122.06 598.02 -130.41 601.82 -124.53"/><text x="709.5" y="-318.8" font-family="Times,serif" font-size="14" text-anchor="middle">62.16%</text></g><g id="edge30" class="edge"><title>Giansar-&gt;Barrel</title><path fill="none" stroke="#000" d="M468,-521.8C468,-510.16 468,-494.55 468,-481.24"/><polygon fill="#000" stroke="#000" points="471.5 -481.18 468 -471.18 464.5 -481.18 471.5 -481.18"/><text x="489.5" y="-492.8" font-family="Times,serif" font-size="14" text-anchor="middle">52.24%</text></g><g id="edge19" class="edge"><title>Barrel-&gt;Ryekie</title><path fill="none" stroke="#000" d="M448.47,-434.85C433.02,-421.21 410.97,-401.56 392,-384 359.48,-353.89 353.69,-343.8 320,-315 315.5,-311.16 310.64,-307.23 305.82,-303.46"/><polygon fill="#000" stroke="#000" points="307.87 -300.62 297.81 -297.3 303.6 -306.17 307.87 -300.62"/><text x="413.5" y="-362.3" font-family="Times,serif" font-size="14" text-anchor="middle">70.97%</text></g><g id="edge20" class="edge"><title>Barrel-&gt;reXer</title><path fill="none" stroke="#000" d="M440.81,-440.25C436.23,-438.41 431.5,-436.59 427,-435 400.35,-425.57 390.64,-430.86 366,-417 354.23,-410.38 342.88,-400.81 333.59,-391.81"/><polygon fill="#000" stroke="#000" points="335.83 -389.1 326.3 -384.47 330.86 -394.03 335.83 -389.1"/><text x="387.5" y="-405.8" font-family="Times,serif" font-size="14" text-anchor="middle">64.52%</text></g><g id="edge18" class="edge"><title>Barrel-&gt;Tsuneaki</title><path fill="none" stroke="#000" d="M471.75,-434.83C477.71,-408.58 490.29,-357.09 506,-315 518.67,-281.05 537.17,-243.65 549.85,-219.32"/><polygon fill="#000" stroke="#000" points="553 -220.84 554.56 -210.36 546.81 -217.58 553 -220.84"/><text x="527.5" y="-318.8" font-family="Times,serif" font-size="14" text-anchor="middle">71.43%</text></g><g id="edge22" class="edge"><title>Barrel-&gt;Obsidius</title><path fill="none" stroke="#000" d="M440.66,-436.81C439.1,-436.15 437.54,-435.55 436,-435 396.31,-420.97 382.94,-430.3 343,-417 238.64,-382.24 202.31,-347.17 167,-243 142.9,-171.9 187.8,-86.3 214.4,-44.49"/><polygon fill="#000" stroke="#000" points="217.39 -46.31 219.92 -36.02 211.53 -42.48 217.39 -46.31"/><text x="188.5" y="-231.8" font-family="Times,serif" font-size="14" text-anchor="middle">63.89%</text></g><g id="edge23" class="edge"><title>Barrel-&gt;Sadayoshi</title><path fill="none" stroke="#000" d="M485.85,-434.8C498.36,-423.73 515.99,-409.97 534,-402 558.62,-391.1 627.73,-379.89 674.67,-373.18"/><polygon fill="#000" stroke="#000" points="675.21 -376.64 684.62 -371.78 674.23 -369.71 675.21 -376.64"/><text x="555.5" y="-405.8" font-family="Times,serif" font-size="14" text-anchor="middle">56.45%</text></g><g id="edge21" class="edge"><title>Barrel-&gt;Akashi</title><path fill="none" stroke="#000" d="M465.53,-434.92C461.76,-413.24 453.03,-375.36 435,-348 415.93,-319.06 390.42,-328.52 376,-297 369.34,-282.45 369.36,-275.56 376,-261 391.94,-226.05 479.86,-162.69 529.63,-128.81"/><polygon fill="#000" stroke="#000" points="531.84 -131.54 538.16 -123.04 527.91 -125.75 531.84 -131.54"/><text x="397.5" y="-275.3" font-family="Times,serif" font-size="14" text-anchor="middle">64.38%</text></g><g id="edge11" class="edge"><title>Monomasa-&gt;Ryekie</title><path fill="none" stroke="#000" d="M546.92,-621.09C517.97,-617.53 477.55,-612.71 442,-609 419.92,-606.7 257.97,-607.39 243,-591 169.67,-510.74 230.11,-365.63 259.85,-306.32"/><polygon fill="#000" stroke="#000" points="263.05 -307.74 264.5 -297.24 256.82 -304.55 263.05 -307.74"/><text x="235.5" y="-449.3" font-family="Times,serif" font-size="14" text-anchor="middle">77.78%</text></g><g id="edge10" class="edge"><title>Monomasa-&gt;reXer</title><path fill="none" stroke="#000" d="M546.96,-616.1C495.85,-600.99 407.43,-567.05 362,-504 337.69,-470.26 323.6,-423.58 316.61,-394.35"/><polygon fill="#000" stroke="#000" points="319.99 -393.4 314.35 -384.42 313.16 -394.95 319.99 -393.4"/><text x="383.5" y="-492.8" font-family="Times,serif" font-size="14" text-anchor="middle">80.00%</text></g><g id="edge12" class="edge"><title>Monomasa-&gt;Tsuneaki</title><path fill="none" stroke="#000" d="M594.22,-608.86C600.21,-595.39 607.8,-575.96 611,-558 613.8,-542.25 611.46,-537.99 611,-522 607.22,-390.52 612.91,-354.54 577,-228 576.25,-225.34 575.38,-222.6 574.47,-219.88"/><polygon fill="#000" stroke="#000" points="577.69 -218.5 571.03 -210.27 571.1 -220.86 577.69 -218.5"/><text x="630.5" y="-405.8" font-family="Times,serif" font-size="14" text-anchor="middle">75.00%</text></g><g id="edge13" class="edge"><title>Monomasa-&gt;Obsidius</title><path fill="none" stroke="#000" d="M625.24,-621.28C664.64,-614.39 724.08,-597.73 757,-558 870.04,-421.58 954.74,-326.17 864,-174 822.34,-104.14 779.61,-114.31 703,-87 552.06,-33.19 359.48,-21.88 274.99,-19.56"/><polygon fill="#000" stroke="#000" points="274.84 -16.06 264.76 -19.31 274.67 -23.06 274.84 -16.06"/><text x="923.5" y="-318.8" font-family="Times,serif" font-size="14" text-anchor="middle">71.05%</text></g><g id="edge14" class="edge"><title>Monomasa-&gt;Sadayoshi</title><path fill="none" stroke="#000" d="M625.04,-617.81C641.23,-612.61 659,-604.25 671,-591 721.26,-535.49 724.67,-440.76 722.94,-394.31"/><polygon fill="#000" stroke="#000" points="726.42 -393.94 722.44 -384.12 719.43 -394.28 726.42 -393.94"/><text x="738.5" y="-492.8" font-family="Times,serif" font-size="14" text-anchor="middle">69.12%</text></g><g id="edge15" class="edge"><title>Monomasa-&gt;Akashi</title><path fill="none" stroke="#000" d="M625.25,-618.37C646.05,-613.03 671.3,-604.4 691,-591 732.74,-562.62 740.53,-548.69 764,-504 797.44,-440.33 787.43,-417.21 807,-348 824.37,-286.55 838.02,-273.22 847,-210 849.25,-194.16 856.39,-186.95 847,-174 818.43,-134.61 672.65,-116 602.2,-109.2"/><polygon fill="#000" stroke="#000" points="602.26 -105.69 591.98 -108.24 601.61 -112.66 602.26 -105.69"/><text x="828.5" y="-362.3" font-family="Times,serif" font-size="14" text-anchor="middle">66.67%</text></g><g id="edge17" class="edge"><title>Monomasa-&gt;Giansar</title><path fill="none" stroke="#000" d="M556.51,-608.94C547.51,-603.46 537.7,-597.2 529,-591 517.65,-582.92 505.68,-573.36 495.38,-564.77"/><polygon fill="#000" stroke="#000" points="497.42 -561.92 487.52 -558.14 492.9 -567.27 497.42 -561.92"/><text x="550.5" y="-579.8" font-family="Times,serif" font-size="14" text-anchor="middle">55.07%</text></g><g id="edge16" class="edge"><title>Monomasa-&gt;Barrel</title><path fill="none" stroke="#000" d="M582.58,-608.88C580.27,-599 576.77,-586.5 572,-576 552.88,-533.91 546.69,-522.65 515,-489 511.16,-484.93 506.81,-480.99 502.33,-477.31"/><polygon fill="#000" stroke="#000" points="504.27 -474.39 494.23 -471.02 499.97 -479.92 504.27 -474.39"/><text x="585.5" y="-536.3" font-family="Times,serif" font-size="14" text-anchor="middle">58.90%</text></g></g></svg>