<svg xmlns="http://www.w3.org/2000/svg" xmlns:xlink="http://www.w3.org/1999/xlink" width="1484" height="740pt" viewBox="0 0 1113 740"><g id="graph0" class="graph" transform="scale(1 1) rotate(0) translate(4 736)"><title>G</title><polygon fill="#fff" stroke="transparent" points="-4 4 -4 -736 1109 -736 1109 4 -4 4"/><g id="node1" class="node"><title>Akashi</title><path fill="none" stroke="#000" d="M711.5,-732C711.5,-732 680.5,-732 680.5,-732 674.5,-732 668.5,-726 668.5,-720 668.5,-720 668.5,-708 668.5,-708 668.5,-702 674.5,-696 680.5,-696 680.5,-696 711.5,-696 711.5,-696 717.5,-696 723.5,-702 723.5,-708 723.5,-708 723.5,-720 723.5,-720 723.5,-726 717.5,-732 711.5,-732"/><text x="696" y="-710.3" font-family="Times,serif" font-size="14" text-anchor="middle">Akashi</text></g><g id="node2" class="node"><title>Huckle</title><path fill="none" stroke="#000" d="M449,-123C449,-123 417,-123 417,-123 411,-123 405,-117 405,-111 405,-111 405,-99 405,-99 405,-93 411,-87 417,-87 417,-87 449,-87 449,-87 455,-87 461,-93 461,-99 461,-99 461,-111 461,-111 461,-117 455,-123 449,-123"/><text x="433" y="-101.3" font-family="Times,serif" font-size="14" text-anchor="middle">Huckle</text></g><g id="edge1" class="edge"><title>Akashi-&gt;Huckle</title><path fill="none" stroke="#000" d="M723.51,-712.49C808.63,-710.18 1062,-697.47 1062,-628 1062,-628 1062,-628 1062,-321.5 1062,-249.5 1059.44,-206.12 995,-174 902.44,-127.87 582.23,-111.63 471.24,-107.31"/><polygon fill="#000" stroke="#000" points="471.29 -103.81 461.16 -106.93 471.02 -110.81 471.29 -103.81"/><text x="1083.5" y="-405.8" font-family="Times,serif" font-size="14" text-anchor="middle">62.86%</text></g><g id="node3" class="node"><title>Shaft</title><path fill="none" stroke="#000" d="M558,-210C558,-210 528,-210 528,-210 522,-210 516,-204 516,-198 516,-198 516,-186 516,-186 516,-180 522,-174 528,-174 528,-174 558,-174 558,-174 564,-174 570,-180 570,-186 570,-186 570,-198 570,-198 570,-204 564,-210 558,-210"/><text x="543" y="-188.3" font-family="Times,serif" font-size="14" text-anchor="middle">Shaft</text></g><g id="edge2" class="edge"><title>Akashi-&gt;Shaft</title><path fill="none" stroke="#000" d="M723.75,-710.96C797.19,-704.8 991,-683.3 991,-628 991,-628 991,-628 991,-495.5 991,-386.34 989.87,-343.15 918,-261 874.03,-210.75 666.3,-197.47 580.36,-194.1"/><polygon fill="#000" stroke="#000" points="580.38 -190.59 570.26 -193.72 580.13 -197.59 580.38 -190.59"/><text x="1012.5" y="-449.3" font-family="Times,serif" font-size="14" text-anchor="middle">62.50%</text></g><g id="node4" class="node"><title>Lilac</title><path fill="none" stroke="#000" d="M837,-384C837,-384 807,-384 807,-384 801,-384 795,-378 795,-372 795,-372 795,-360 795,-360 795,-354 801,-348 807,-348 807,-348 837,-348 837,-348 843,-348 849,-354 849,-360 849,-360 849,-372 849,-372 849,-378 843,-384 837,-384"/><text x="822" y="-362.3" font-family="Times,serif" font-size="14" text-anchor="middle">Lilac</text></g><g id="edge3" class="edge"><title>Akashi-&gt;Lilac</title><path fill="none" stroke="#000" d="M723.78,-713.68C780.01,-713.47 902,-704.22 902,-628 902,-628 902,-628 902,-452 902,-424.09 878.85,-401.61 857.45,-386.8"/><polygon fill="#000" stroke="#000" points="859.37 -383.86 849.08 -381.31 855.53 -389.72 859.37 -383.86"/><text x="923.5" y="-536.3" font-family="Times,serif" font-size="14" text-anchor="middle">60.61%</text></g><g id="node5" class="node"><title>Tsuneaki</title><path fill="none" stroke="#000" d="M677.5,-297C677.5,-297 636.5,-297 636.5,-297 630.5,-297 624.5,-291 624.5,-285 624.5,-285 624.5,-273 624.5,-273 624.5,-267 630.5,-261 636.5,-261 636.5,-261 677.5,-261 677.5,-261 683.5,-261 689.5,-267 689.5,-273 689.5,-273 689.5,-285 689.5,-285 689.5,-291 683.5,-297 677.5,-297"/><text x="657" y="-275.3" font-family="Times,serif" font-size="14" text-anchor="middle">Tsuneaki</text></g><g id="edge4" class="edge"><title>Akashi-&gt;Tsuneaki</title><path fill="none" stroke="#000" d="M697.03,-695.94C698.84,-669.84 703.37,-618.54 713,-576 735.71,-475.66 796.29,-441.33 753,-348 742.37,-325.08 719.6,-308.43 698.9,-297.35"/><polygon fill="#000" stroke="#000" points="700.4 -294.18 689.9 -292.79 697.24 -300.43 700.4 -294.18"/><text x="766.5" y="-492.8" font-family="Times,serif" font-size="14" text-anchor="middle">60.00%</text></g><g id="node6" class="node"><title>Obsidius</title><path fill="none" stroke="#000" d="M323.5,-36C323.5,-36 282.5,-36 282.5,-36 276.5,-36 270.5,-30 270.5,-24 270.5,-24 270.5,-12 270.5,-12 270.5,-6 276.5,0 282.5,0 282.5,0 323.5,0 323.5,0 329.5,0 335.5,-6 335.5,-12 335.5,-12 335.5,-24 335.5,-24 335.5,-30 329.5,-36 323.5,-36"/><text x="303" y="-14.3" font-family="Times,serif" font-size="14" text-anchor="middle">Obsidius</text></g><g id="edge5" class="edge"><title>Akashi-&gt;Obsidius</title><path fill="none" stroke="#000" d="M668.29,-712.58C538.84,-710.27 0,-696.55 0,-628 0,-628 0,-628 0,-104 0,-50.62 176.51,-29.21 260.09,-22.06"/><polygon fill="#000" stroke="#000" points="260.61 -25.53 270.29 -21.22 260.03 -18.55 260.61 -25.53"/><text x="21.5" y="-362.3" font-family="Times,serif" font-size="14" text-anchor="middle">60.00%</text></g><g id="node7" class="node"><title>Monomasa</title><path fill="none" stroke="#000" d="M408,-297C408,-297 354,-297 354,-297 348,-297 342,-291 342,-285 342,-285 342,-273 342,-273 342,-267 348,-261 354,-261 354,-261 408,-261 408,-261 414,-261 420,-267 420,-273 420,-273 420,-285 420,-285 420,-291 414,-297 408,-297"/><text x="381" y="-275.3" font-family="Times,serif" font-size="14" text-anchor="middle">Monomasa</text></g><g id="edge6" class="edge"><title>Akashi-&gt;Monomasa</title><path fill="none" stroke="#000" d="M668.41,-711.41C587.74,-706.3 354.13,-688.05 293,-645 230.39,-600.92 217.07,-577.01 194,-504 167.06,-418.73 191.04,-368.08 263,-315 282.98,-300.26 309.14,-291.69 331.74,-286.73"/><polygon fill="#000" stroke="#000" points="332.73 -290.1 341.84 -284.69 331.35 -283.23 332.73 -290.1"/><text x="215.5" y="-492.8" font-family="Times,serif" font-size="14" text-anchor="middle">56.76%</text></g><g id="node8" class="node"><title>Ryekie</title><path fill="none" stroke="#000" d="M469.5,-558C469.5,-558 438.5,-558 438.5,-558 432.5,-558 426.5,-552 426.5,-546 426.5,-546 426.5,-534 426.5,-534 426.5,-528 432.5,-522 438.5,-522 438.5,-522 469.5,-522 469.5,-522 475.5,-522 481.5,-528 481.5,-534 481.5,-534 481.5,-546 481.5,-546 481.5,-552 475.5,-558 469.5,-558"/><text x="454" y="-536.3" font-family="Times,serif" font-size="14" text-anchor="middle">Ryekie</text></g><g id="edge7" class="edge"><title>Akashi-&gt;Ryekie</title><path fill="none" stroke="#000" d="M671.91,-695.88C628.15,-664.78 535.59,-598.99 486.37,-564.01"/><polygon fill="#000" stroke="#000" points="488.17 -560.99 477.99 -558.05 484.11 -566.7 488.17 -560.99"/><text x="621.5" y="-623.3" font-family="Times,serif" font-size="14" text-anchor="middle">56.41%</text></g><g id="node9" class="node"><title>Pubraseer</title><path fill="none" stroke="#000" d="M727,-471C727,-471 681,-471 681,-471 675,-471 669,-465 669,-459 669,-459 669,-447 669,-447 669,-441 675,-435 681,-435 681,-435 727,-435 727,-435 733,-435 739,-441 739,-447 739,-447 739,-459 739,-459 739,-465 733,-471 727,-471"/><text x="704" y="-449.3" font-family="Times,serif" font-size="14" text-anchor="middle">Pubraseer</text></g><g id="edge8" class="edge"><title>Akashi-&gt;Pubraseer</title><path fill="none" stroke="#000" d="M704.33,-695.95C706.64,-690.36 708.84,-684.04 710,-678 723.47,-608.07 714.61,-523.61 708.46,-481.16"/><polygon fill="#000" stroke="#000" points="711.89 -480.43 706.94 -471.06 704.97 -481.47 711.89 -480.43"/><text x="739.5" y="-579.8" font-family="Times,serif" font-size="14" text-anchor="middle">53.49%</text></g><g id="node10" class="node"><title>Giansar</title><path fill="none" stroke="#000" d="M349.5,-645C349.5,-645 314.5,-645 314.5,-645 308.5,-645 302.5,-639 302.5,-633 302.5,-633 302.5,-621 302.5,-621 302.5,-615 308.5,-609 314.5,-609 314.5,-609 349.5,-609 349.5,-609 355.5,-609 361.5,-615 361.5,-621 361.5,-621 361.5,-633 361.5,-633 361.5,-639 355.5,-645 349.5,-645"/><text x="332" y="-623.3" font-family="Times,serif" font-size="14" text-anchor="middle">Giansar</text></g><g id="edge9" class="edge"><title>Akashi-&gt;Giansar</title><path fill="none" stroke="#000" d="M668.34,-710.93C623.84,-707.15 533.86,-697.63 460,-678 429.37,-669.86 396.05,-656.7 371.09,-645.92"/><polygon fill="#000" stroke="#000" points="372.18 -642.58 361.62 -641.78 369.38 -648.99 372.18 -642.58"/><text x="481.5" y="-666.8" font-family="Times,serif" font-size="14" text-anchor="middle">52.38%</text></g><g id="edge38" class="edge"><title>Huckle-&gt;Obsidius</title><path fill="none" stroke="#000" d="M406.69,-86.8C386.87,-73.84 359.5,-55.94 337.85,-41.79"/><polygon fill="#000" stroke="#000" points="339.55 -38.72 329.27 -36.18 335.72 -44.58 339.55 -38.72"/><text x="397.5" y="-57.8" font-family="Times,serif" font-size="14" text-anchor="middle">51.85%</text></g><g id="edge37" class="edge"><title>Shaft-&gt;Huckle</title><path fill="none" stroke="#000" d="M520.74,-173.8C504.19,-161.01 481.42,-143.42 463.23,-129.36"/><polygon fill="#000" stroke="#000" points="465.28 -126.52 455.23 -123.18 461 -132.06 465.28 -126.52"/><text x="516.5" y="-144.8" font-family="Times,serif" font-size="14" text-anchor="middle">51.72%</text></g><g id="edge29" class="edge"><title>Lilac-&gt;Huckle</title><path fill="none" stroke="#000" d="M827.36,-347.72C828.85,-342.12 830.26,-335.85 831,-330 834.93,-298.96 837.31,-284.8 817,-261 725.62,-153.93 549.4,-119.97 471.57,-109.92"/><polygon fill="#000" stroke="#000" points="471.61 -106.4 461.26 -108.66 470.76 -113.35 471.61 -106.4"/><text x="821.5" y="-231.8" font-family="Times,serif" font-size="14" text-anchor="middle">56.67%</text></g><g id="edge30" class="edge"><title>Lilac-&gt;Shaft</title><path fill="none" stroke="#000" d="M822.72,-347.65C822.29,-337.22 820.12,-324.21 813,-315 801.32,-299.9 790.96,-305.77 774,-297 719.35,-268.75 710.33,-252.73 654,-228 630.04,-217.48 601.92,-208.65 579.98,-202.49"/><polygon fill="#000" stroke="#000" points="580.63 -199.04 570.06 -199.77 578.77 -205.79 580.63 -199.04"/><text x="795.5" y="-275.3" font-family="Times,serif" font-size="14" text-anchor="middle">56.00%</text></g><g id="edge31" class="edge"><title>Lilac-&gt;Tsuneaki</title><path fill="none" stroke="#000" d="M796.64,-347.9C775.93,-333.97 749.66,-316.38 747,-315 731.99,-307.2 714.83,-300.11 699.55,-294.38"/><polygon fill="#000" stroke="#000" points="700.41 -290.97 689.82 -290.82 698.01 -297.55 700.41 -290.97"/><text x="791.5" y="-318.8" font-family="Times,serif" font-size="14" text-anchor="middle">53.12%</text></g><g id="edge28" class="edge"><title>Lilac-&gt;Obsidius</title><path fill="none" stroke="#000" d="M849.03,-359.45C886.05,-350.1 948,-327.36 948,-280 948,-280 948,-280 948,-104 948,-43.12 490.5,-24.5 346.11,-20.13"/><polygon fill="#000" stroke="#000" points="345.97 -16.63 335.87 -19.83 345.77 -23.63 345.97 -16.63"/><text x="969.5" y="-188.3" font-family="Times,serif" font-size="14" text-anchor="middle">57.58%</text></g><g id="edge32" class="edge"><title>Lilac-&gt;Monomasa</title><path fill="none" stroke="#000" d="M794.91,-357.92C754.59,-347.55 676.31,-328.05 609,-315 547.78,-303.13 476.67,-292.75 430.36,-286.44"/><polygon fill="#000" stroke="#000" points="430.67 -282.95 420.3 -285.08 429.74 -289.89 430.67 -282.95"/><text x="701.5" y="-318.8" font-family="Times,serif" font-size="14" text-anchor="middle">51.35%</text></g><g id="edge36" class="edge"><title>Tsuneaki-&gt;Shaft</title><path fill="none" stroke="#000" d="M633.93,-260.8C616.7,-247.95 592.97,-230.26 574.07,-216.17"/><polygon fill="#000" stroke="#000" points="576.14 -213.35 566.04 -210.18 571.96 -218.96 576.14 -213.35"/><text x="628.5" y="-231.8" font-family="Times,serif" font-size="14" text-anchor="middle">54.84%</text></g><g id="edge35" class="edge"><title>Monomasa-&gt;Huckle</title><path fill="none" stroke="#000" d="M386.18,-260.88C395.25,-230.87 414.08,-168.58 424.89,-132.81"/><polygon fill="#000" stroke="#000" points="428.3 -133.64 427.84 -123.05 421.6 -131.61 428.3 -133.64"/><text x="434.5" y="-188.3" font-family="Times,serif" font-size="14" text-anchor="middle">55.17%</text></g><g id="edge34" class="edge"><title>Monomasa-&gt;Shaft</title><path fill="none" stroke="#000" d="M389.8,-260.83C396.22,-249.92 405.91,-236.33 418,-228 444.21,-209.94 479.55,-201.15 505.97,-196.91"/><polygon fill="#000" stroke="#000" points="506.59 -200.35 515.98 -195.44 505.57 -193.43 506.59 -200.35"/><text x="439.5" y="-231.8" font-family="Times,serif" font-size="14" text-anchor="middle">56.25%</text></g><g id="edge33" class="edge"><title>Monomasa-&gt;Obsidius</title><path fill="none" stroke="#000" d="M375.76,-260.6C362.44,-216.37 327.2,-99.34 311.16,-46.08"/><polygon fill="#000" stroke="#000" points="314.45 -44.89 308.22 -36.32 307.75 -46.9 314.45 -44.89"/><text x="365.5" y="-144.8" font-family="Times,serif" font-size="14" text-anchor="middle">61.54%</text></g><g id="edge26" class="edge"><title>Ryekie-&gt;Huckle</title><path fill="none" stroke="#000" d="M426.29,-523.96C393.36,-504.33 340.11,-466.53 318,-417 271.58,-313 365.59,-184 410.71,-130.76"/><polygon fill="#000" stroke="#000" points="413.37 -133.03 417.24 -123.17 408.06 -128.46 413.37 -133.03"/><text x="331.5" y="-318.8" font-family="Times,serif" font-size="14" text-anchor="middle">57.14%</text></g><g id="edge22" class="edge"><title>Ryekie-&gt;Shaft</title><path fill="none" stroke="#000" d="M471.14,-521.76C485.27,-505.66 503,-480.23 503,-454 503,-454 503,-454 503,-278 503,-256.53 513.57,-234.67 523.85,-218.49"/><polygon fill="#000" stroke="#000" points="526.8 -220.39 529.46 -210.13 520.98 -216.49 526.8 -220.39"/><text x="524.5" y="-362.3" font-family="Times,serif" font-size="14" text-anchor="middle">63.33%</text></g><g id="edge24" class="edge"><title>Ryekie-&gt;Tsuneaki</title><path fill="none" stroke="#000" d="M481.66,-528.31C493.11,-522.64 505.64,-514.61 514,-504 548.45,-460.26 541.12,-438.97 550,-384 550.61,-380.21 549.71,-318.08 552,-315 566.41,-295.61 592,-286.82 614.3,-282.9"/><polygon fill="#000" stroke="#000" points="614.89 -286.35 624.27 -281.42 613.86 -279.43 614.89 -286.35"/><text x="569.5" y="-405.8" font-family="Times,serif" font-size="14" text-anchor="middle">60.00%</text></g><g id="edge23" class="edge"><title>Ryekie-&gt;Obsidius</title><path fill="none" stroke="#000" d="M426.39,-530.79C397.4,-520.88 352.2,-501.65 324,-471 243.17,-383.14 193,-355.88 193,-236.5 193,-236.5 193,-236.5 193,-104 193,-68.24 229.85,-45.4 260.89,-32.5"/><polygon fill="#000" stroke="#000" points="262.26 -35.73 270.29 -28.82 259.71 -29.21 262.26 -35.73"/><text x="220.5" y="-275.3" font-family="Times,serif" font-size="14" text-anchor="middle">62.96%</text></g><g id="edge25" class="edge"><title>Ryekie-&gt;Monomasa</title><path fill="none" stroke="#000" d="M447.47,-521.95C434.25,-486.68 404.25,-402.9 389,-330 387.46,-322.63 386.05,-314.6 384.87,-307.17"/><polygon fill="#000" stroke="#000" points="388.31 -306.55 383.34 -297.2 381.39 -307.61 388.31 -306.55"/><text x="433.5" y="-405.8" font-family="Times,serif" font-size="14" text-anchor="middle">58.62%</text></g><g id="edge27" class="edge"><title>Ryekie-&gt;Pubraseer</title><path fill="none" stroke="#000" d="M481.66,-529.72C520.43,-516.69 593.14,-492.19 655,-471 656.41,-470.52 657.84,-470.02 659.29,-469.53"/><polygon fill="#000" stroke="#000" points="660.63 -472.77 668.95 -466.2 658.35 -466.15 660.63 -472.77"/><text x="621.5" y="-492.8" font-family="Times,serif" font-size="14" text-anchor="middle">55.17%</text></g><g id="edge11" class="edge"><title>Pubraseer-&gt;Huckle</title><path fill="none" stroke="#000" d="M739,-449.11C777.64,-443.73 837.13,-428.28 858,-384 873.52,-351.07 882.83,-281.79 847,-228 818.56,-185.31 791.93,-194.71 745,-174 705.26,-156.46 695.08,-151.79 653,-141 590.23,-124.9 515.37,-114.88 471.15,-109.88"/><polygon fill="#000" stroke="#000" points="471.45 -106.39 461.12 -108.77 470.68 -113.35 471.45 -106.39"/><text x="892.5" y="-275.3" font-family="Times,serif" font-size="14" text-anchor="middle">61.29%</text></g><g id="edge12" class="edge"><title>Pubraseer-&gt;Shaft</title><path fill="none" stroke="#000" d="M680.32,-434.93C643.78,-408.07 576.36,-356.32 562,-330 543.24,-295.61 540.67,-249.41 541.28,-220.42"/><polygon fill="#000" stroke="#000" points="544.79 -220.33 541.64 -210.21 537.79 -220.08 544.79 -220.33"/><text x="583.5" y="-318.8" font-family="Times,serif" font-size="14" text-anchor="middle">61.11%</text></g><g id="edge15" class="edge"><title>Pubraseer-&gt;Lilac</title><path fill="none" stroke="#000" d="M727.88,-434.8C745.71,-421.95 770.28,-404.26 789.84,-390.17"/><polygon fill="#000" stroke="#000" points="792.09 -392.86 798.16 -384.18 788 -387.18 792.09 -392.86"/><text x="792.5" y="-405.8" font-family="Times,serif" font-size="14" text-anchor="middle">55.26%</text></g><g id="edge13" class="edge"><title>Pubraseer-&gt;Tsuneaki</title><path fill="none" stroke="#000" d="M704.76,-434.95C705.91,-403.05 707.03,-335.68 697,-315 695.14,-311.17 692.66,-307.58 689.83,-304.28"/><polygon fill="#000" stroke="#000" points="692.25 -301.76 682.74 -297.09 687.27 -306.67 692.25 -301.76"/><text x="727.5" y="-362.3" font-family="Times,serif" font-size="14" text-anchor="middle">60.61%</text></g><g id="edge10" class="edge"><title>Pubraseer-&gt;Obsidius</title><path fill="none" stroke="#000" d="M739.06,-449.19C770.54,-445.45 817.19,-436.81 853,-417 901.13,-390.38 906.93,-373.18 941,-330 1008.15,-244.9 1039.73,-162.56 962,-87 929.95,-55.84 910.82,-62.8 867,-54 767.31,-33.98 459.3,-23.44 345.68,-20.15"/><polygon fill="#000" stroke="#000" points="345.71 -16.65 335.62 -19.86 345.51 -23.64 345.71 -16.65"/><text x="1022.5" y="-231.8" font-family="Times,serif" font-size="14" text-anchor="middle">62.96%</text></g><g id="edge14" class="edge"><title>Pubraseer-&gt;Monomasa</title><path fill="none" stroke="#000" d="M673.51,-434.85C652.19,-423.65 622.67,-409.72 595,-402 527.35,-383.12 496.29,-423.18 438,-384 411.39,-366.11 396.06,-331.49 388.13,-307.12"/><polygon fill="#000" stroke="#000" points="391.43 -305.94 385.18 -297.39 384.73 -307.97 391.43 -305.94"/><text x="459.5" y="-362.3" font-family="Times,serif" font-size="14" text-anchor="middle">55.88%</text></g><g id="edge19" class="edge"><title>Giansar-&gt;Huckle</title><path fill="none" stroke="#000" d="M302.11,-614.99C243.03,-593.13 117,-545.92 117,-541 117,-541 117,-541 117,-408.5 117,-377.44 130.04,-369.97 152,-348 183.95,-316.02 207.54,-328.46 240,-297 298.62,-240.17 273.62,-192.47 337,-141 353.69,-127.44 376.1,-118.88 395.07,-113.62"/><polygon fill="#000" stroke="#000" points="396.09 -116.97 404.91 -111.09 394.35 -110.19 396.09 -116.97"/><text x="173.5" y="-362.3" font-family="Times,serif" font-size="14" text-anchor="middle">57.58%</text></g><g id="edge17" class="edge"><title>Giansar-&gt;Shaft</title><path fill="none" stroke="#000" d="M331.22,-608.93C330.1,-570.39 330.83,-474.39 361,-402 394.21,-322.31 470.28,-251.65 512.81,-216.52"/><polygon fill="#000" stroke="#000" points="515.06 -219.2 520.6 -210.17 510.63 -213.78 515.06 -219.2"/><text x="382.5" y="-405.8" font-family="Times,serif" font-size="14" text-anchor="middle">61.76%</text></g><g id="edge18" class="edge"><title>Giansar-&gt;Tsuneaki</title><path fill="none" stroke="#000" d="M361.7,-622.6C419.68,-614.23 547.28,-586.85 605,-504 611.07,-495.28 630.19,-324.92 634,-315 635.2,-311.88 636.71,-308.75 638.38,-305.71"/><polygon fill="#000" stroke="#000" points="641.48 -307.35 643.73 -297 635.52 -303.69 641.48 -307.35"/><text x="638.5" y="-449.3" font-family="Times,serif" font-size="14" text-anchor="middle">59.38%</text></g><g id="edge16" class="edge"><title>Giansar-&gt;Obsidius</title><path fill="none" stroke="#000" d="M302.38,-614.53C296.66,-612.53 290.68,-610.59 285,-609 208.2,-587.56 163.49,-619.71 113,-558 98.89,-540.75 71,-508.97 71,-323.5 71,-323.5 71,-323.5 71,-104 71,-64.2 192.91,-37.44 259.98,-25.72"/><polygon fill="#000" stroke="#000" points="260.98 -29.1 270.25 -23.97 259.81 -22.2 260.98 -29.1"/><text x="93.5" y="-318.8" font-family="Times,serif" font-size="14" text-anchor="middle">80.77%</text></g><g id="edge20" class="edge"><title>Giansar-&gt;Monomasa</title><path fill="none" stroke="#000" d="M314.39,-608.79C283.73,-576.71 224.89,-504.69 237,-435 246.7,-379.18 239.73,-354.85 280,-315 293.91,-301.23 313.5,-292.87 331.73,-287.79"/><polygon fill="#000" stroke="#000" points="332.83 -291.13 341.68 -285.3 331.13 -284.34 332.83 -291.13"/><text x="258.5" y="-449.3" font-family="Times,serif" font-size="14" text-anchor="middle">56.67%</text></g><g id="edge21" class="edge"><title>Giansar-&gt;Ryekie</title><path fill="none" stroke="#000" d="M356.69,-608.8C375.21,-595.9 400.75,-578.1 421.02,-563.98"/><polygon fill="#000" stroke="#000" points="423.14 -566.76 429.35 -558.18 419.14 -561.02 423.14 -566.76"/><text x="422.5" y="-579.8" font-family="Times,serif" font-size="14" text-anchor="middle">53.12%</text></g></g></svg>